<?xml version="1.0"?>
<svg xmlns="http://www.w3.org/2000/svg" xmlns:xlink="http://www.w3.org/1999/xlink" version="1.1" width="440px" height="440px" viewBox="0 0 440 440"><rect x="0" y="0" width="440" height="440" fill="#ffffff" fill-opacity="1"/><path fill="#000000" fill-opacity="1" d="M20,20L69,20L69,27L20,27ZM76,20L83,20L83,27L76,27ZM97,20L104,20L104,27L97,27ZM111,20L125,20L125,27L111,27ZM139,20L160,20L160,27L139,27ZM188,20L223,20L223,27L188,27ZM230,20L244,20L244,27L230,27ZM258,20L265,20L265,27L258,27ZM279,20L286,20L286,27L279,27ZM300,20L314,20L314,27L300,27ZM328,20L335,20L335,27L328,27ZM342,20L356,20L356,27L342,27ZM370,20L419,20L419,27L370,27ZM20,27L27,27L27,34L20,34ZM62,27L69,27L69,34L62,34ZM76,27L83,27L83,34L76,34ZM90,27L97,27L97,34L90,34ZM104,27L111,27L111,34L104,34ZM125,27L132,27L132,34L125,34ZM139,27L160,27L160,34L139,34ZM174,27L181,27L181,34L174,34ZM223,27L230,27L230,34L223,34ZM237,27L258,27L258,34L237,34ZM265,27L286,27L286,34L265,34ZM293,27L300,27L300,34L293,34ZM307,27L314,27L314,34L307,34ZM349,27L356,27L356,34L349,34ZM370,27L377,27L377,34L370,34ZM412,27L419,27L419,34L412,34ZM20,34L27,34L27,41L20,41ZM34,34L55,34L55,41L34,41ZM62,34L69,34L69,41L62,41ZM76,34L83,34L83,41L76,41ZM90,34L97,34L97,41L90,41ZM104,34L118,34L118,41L104,41ZM132,34L139,34L139,41L132,41ZM146,34L167,34L167,41L146,41ZM188,34L195,34L195,41L188,41ZM209,34L237,34L237,41L209,41ZM244,34L251,34L251,41L244,41ZM314,34L335,34L335,41L314,41ZM342,34L356,34L356,41L342,41ZM370,34L377,34L377,41L370,41ZM384,34L405,34L405,41L384,41ZM412,34L419,34L419,41L412,41ZM20,41L27,41L27,48L20,48ZM34,41L55,41L55,48L34,48ZM62,41L69,41L69,48L62,48ZM83,41L90,41L90,48L83,48ZM104,41L111,41L111,48L104,48ZM132,41L139,41L139,48L132,48ZM167,41L181,41L181,48L167,48ZM195,41L209,41L209,48L195,48ZM216,41L230,41L230,48L216,48ZM279,41L300,41L300,48L279,48ZM307,41L314,41L314,48L307,48ZM321,41L342,41L342,48L321,48ZM349,41L356,41L356,48L349,48ZM370,41L377,41L377,48L370,48ZM384,41L405,41L405,48L384,48ZM412,41L419,41L419,48L412,48ZM20,48L27,48L27,55L20,55ZM34,48L55,48L55,55L34,55ZM62,48L69,48L69,55L62,55ZM83,48L90,48L90,55L83,55ZM104,48L118,48L118,55L104,55ZM139,48L146,48L146,55L139,55ZM153,48L167,48L167,55L153,55ZM181,48L188,48L188,55L181,55ZM202,48L237,48L237,55L202,55ZM244,48L251,48L251,55L244,55ZM258,48L272,48L272,55L258,55ZM279,48L286,48L286,55L279,55ZM293,48L321,48L321,55L293,55ZM328,48L342,48L342,55L328,55ZM349,48L356,48L356,55L349,55ZM370,48L377,48L377,55L370,55ZM384,48L405,48L405,55L384,55ZM412,48L419,48L419,55L412,55ZM20,55L27,55L27,62L20,62ZM62,55L69,55L69,62L62,62ZM76,55L83,55L83,62L76,62ZM90,55L97,55L97,62L90,62ZM111,55L118,55L118,62L111,62ZM125,55L132,55L132,62L125,62ZM139,55L174,55L174,62L139,62ZM181,55L195,55L195,62L181,62ZM202,55L209,55L209,62L202,62ZM230,55L251,55L251,62L230,62ZM258,55L265,55L265,62L258,62ZM272,55L279,55L279,62L272,62ZM314,55L321,55L321,62L314,62ZM342,55L349,55L349,62L342,62ZM370,55L377,55L377,62L370,62ZM412,55L419,55L419,62L412,62ZM20,62L69,62L69,69L20,69ZM76,62L83,62L83,69L76,69ZM90,62L97,62L97,69L90,69ZM104,62L111,62L111,69L104,69ZM118,62L125,62L125,69L118,69ZM132,62L139,62L139,69L132,69ZM146,62L153,62L153,69L146,69ZM160,62L167,62L167,69L160,69ZM174,62L181,62L181,69L174,69ZM188,62L195,62L195,69L188,69ZM202,62L209,62L209,69L202,69ZM216,62L223,62L223,69L216,69ZM230,62L237,62L237,69L230,69ZM244,62L251,62L251,69L244,69ZM258,62L265,62L265,69L258,69ZM272,62L279,62L279,69L272,69ZM286,62L293,62L293,69L286,69ZM300,62L307,62L307,69L300,69ZM314,62L321,62L321,69L314,69ZM328,62L335,62L335,69L328,69ZM342,62L349,62L349,69L342,69ZM356,62L363,62L363,69L356,69ZM370,62L419,62L419,69L370,69ZM76,69L83,69L83,76L76,76ZM90,69L97,69L97,76L90,76ZM104,69L118,69L118,76L104,76ZM125,69L139,69L139,76L125,76ZM160,69L174,69L174,76L160,76ZM202,69L209,69L209,76L202,76ZM230,69L237,69L237,76L230,76ZM258,69L265,69L265,76L258,76ZM279,69L286,69L286,76L279,76ZM293,69L307,69L307,76L293,76ZM314,69L328,69L328,76L314,76ZM356,69L363,69L363,76L356,76ZM34,76L55,76L55,83L34,83ZM62,76L69,76L69,83L62,83ZM76,76L97,76L97,83L76,83ZM104,76L125,76L125,83L104,83ZM132,76L153,76L153,83L132,83ZM160,76L167,76L167,83L160,83ZM174,76L181,76L181,83L174,83ZM188,76L244,76L244,83L188,83ZM286,76L293,76L293,83L286,83ZM307,76L314,76L314,83L307,83ZM335,76L384,76L384,83L335,83ZM398,76L419,76L419,83L398,83ZM27,83L34,83L34,90L27,90ZM48,83L62,83L62,90L48,90ZM97,83L104,83L104,90L97,90ZM118,83L125,83L125,90L118,90ZM139,83L174,83L174,90L139,90ZM188,83L195,83L195,90L188,90ZM216,83L230,83L230,90L216,90ZM244,83L286,83L286,90L244,90ZM300,83L314,83L314,90L300,90ZM321,83L335,83L335,90L321,90ZM356,83L370,83L370,90L356,90ZM384,83L405,83L405,90L384,90ZM20,90L27,90L27,97L20,97ZM48,90L69,90L69,97L48,97ZM104,90L111,90L111,97L104,97ZM118,90L132,90L132,97L118,97ZM146,90L153,90L153,97L146,97ZM167,90L174,90L174,97L167,97ZM181,90L188,90L188,97L181,97ZM195,90L202,90L202,97L195,97ZM223,90L251,90L251,97L223,97ZM265,90L272,90L272,97L265,97ZM286,90L300,90L300,97L286,97ZM307,90L321,90L321,97L307,97ZM335,90L342,90L342,97L335,97ZM349,90L356,90L356,97L349,97ZM412,90L419,90L419,97L412,97ZM20,97L27,97L27,104L20,104ZM48,97L55,97L55,104L48,104ZM69,97L83,97L83,104L69,104ZM90,97L104,97L104,104L90,104ZM111,97L139,97L139,104L111,104ZM160,97L195,97L195,104L160,104ZM216,97L237,97L237,104L216,104ZM251,97L265,97L265,104L251,104ZM272,97L286,97L286,104L272,104ZM293,97L300,97L300,104L293,104ZM307,97L321,97L321,104L307,104ZM356,97L370,97L370,104L356,104ZM377,97L384,97L384,104L377,104ZM398,97L419,97L419,104L398,104ZM20,104L27,104L27,111L20,111ZM34,104L76,104L76,111L34,111ZM90,104L97,104L97,111L90,111ZM118,104L153,104L153,111L118,111ZM160,104L181,104L181,111L160,111ZM195,104L202,104L202,111L195,111ZM209,104L244,104L244,111L209,111ZM251,104L258,104L258,111L251,111ZM272,104L279,104L279,111L272,111ZM286,104L293,104L293,111L286,111ZM342,104L363,104L363,111L342,111ZM370,104L391,104L391,111L370,111ZM20,111L48,111L48,118L20,118ZM76,111L90,111L90,118L76,118ZM104,111L118,111L118,118L104,118ZM132,111L139,111L139,118L132,118ZM146,111L174,111L174,118L146,118ZM209,111L244,111L244,118L209,118ZM265,111L279,111L279,118L265,118ZM300,111L307,111L307,118L300,118ZM314,111L342,111L342,118L314,118ZM349,111L419,111L419,118L349,118ZM20,118L41,118L41,125L20,125ZM62,118L76,118L76,125L62,125ZM83,118L97,118L97,125L83,125ZM104,118L125,118L125,125L104,125ZM174,118L181,118L181,125L174,125ZM188,118L202,118L202,125L188,125ZM230,118L244,118L244,125L230,125ZM272,118L286,118L286,125L272,125ZM293,118L300,118L300,125L293,125ZM307,118L321,118L321,125L307,125ZM335,118L342,118L342,125L335,125ZM349,118L356,118L356,125L349,125ZM363,118L370,118L370,125L363,125ZM405,118L419,118L419,125L405,125ZM20,125L41,125L41,132L20,132ZM55,125L62,125L62,132L55,132ZM76,125L97,125L97,132L76,132ZM104,125L160,125L160,132L104,132ZM167,125L181,125L181,132L167,132ZM202,125L230,125L230,132L202,132ZM244,125L265,125L265,132L244,132ZM279,125L286,125L286,132L279,132ZM300,125L321,125L321,132L300,132ZM335,125L342,125L342,132L335,132ZM356,125L363,125L363,132L356,132ZM377,125L384,125L384,132L377,132ZM398,125L405,125L405,132L398,132ZM412,125L419,125L419,132L412,132ZM27,132L41,132L41,139L27,139ZM48,132L76,132L76,139L48,139ZM90,132L97,132L97,139L90,139ZM111,132L139,132L139,139L111,139ZM153,132L174,132L174,139L153,139ZM202,132L209,132L209,139L202,139ZM216,132L230,132L230,139L216,139ZM237,132L244,132L244,139L237,139ZM251,132L258,132L258,139L251,139ZM265,132L272,132L272,139L265,139ZM286,132L293,132L293,139L286,139ZM342,132L356,132L356,139L342,139ZM363,132L377,132L377,139L363,139ZM20,139L27,139L27,146L20,146ZM34,139L48,139L48,146L34,146ZM69,139L83,139L83,146L69,146ZM90,139L104,139L104,146L90,146ZM118,139L160,139L160,146L118,146ZM167,139L174,139L174,146L167,146ZM181,139L188,139L188,146L181,146ZM216,139L223,139L223,146L216,146ZM258,139L265,139L265,146L258,146ZM272,139L279,139L279,146L272,146ZM293,139L342,139L342,146L293,146ZM349,139L356,139L356,146L349,146ZM363,139L377,139L377,146L363,146ZM384,139L391,139L391,146L384,146ZM398,139L405,139L405,146L398,146ZM27,146L41,146L41,153L27,153ZM62,146L69,146L69,153L62,153ZM83,146L90,146L90,153L83,153ZM146,146L160,146L160,153L146,153ZM174,146L223,146L223,153L174,153ZM237,146L244,146L244,153L237,153ZM279,146L286,146L286,153L279,153ZM314,146L321,146L321,153L314,153ZM335,146L342,146L342,153L335,153ZM363,146L384,146L384,153L363,153ZM391,146L398,146L398,153L391,153ZM412,146L419,146L419,153L412,153ZM20,153L27,153L27,160L20,160ZM41,153L48,153L48,160L41,160ZM69,153L76,153L76,160L69,160ZM83,153L90,153L90,160L83,160ZM104,153L139,153L139,160L104,160ZM146,153L153,153L153,160L146,160ZM167,153L202,153L202,160L167,160ZM230,153L244,153L244,160L230,160ZM251,153L258,153L258,160L251,160ZM300,153L307,153L307,160L300,160ZM314,153L328,153L328,160L314,160ZM335,153L342,153L342,160L335,160ZM349,153L370,153L370,160L349,160ZM412,153L419,153L419,160L412,160ZM20,160L34,160L34,167L20,167ZM41,160L97,160L97,167L41,167ZM104,160L111,160L111,167L104,167ZM118,160L125,160L125,167L118,167ZM132,160L139,160L139,167L132,167ZM153,160L160,160L160,167L153,167ZM181,160L202,160L202,167L181,167ZM216,160L230,160L230,167L216,167ZM237,160L251,160L251,167L237,167ZM258,160L265,160L265,167L258,167ZM272,160L300,160L300,167L272,167ZM307,160L314,160L314,167L307,167ZM328,160L335,160L335,167L328,167ZM342,160L356,160L356,167L342,167ZM370,160L377,160L377,167L370,167ZM398,160L412,160L412,167L398,167ZM20,167L48,167L48,174L20,174ZM76,167L90,167L90,174L76,174ZM97,167L139,167L139,174L97,174ZM167,167L174,167L174,174L167,174ZM181,167L188,167L188,174L181,174ZM216,167L223,167L223,174L216,174ZM272,167L279,167L279,174L272,174ZM286,167L342,167L342,174L286,174ZM349,167L356,167L356,174L349,174ZM377,167L391,167L391,174L377,174ZM398,167L405,167L405,174L398,174ZM34,174L41,174L41,181L34,181ZM48,174L55,174L55,181L48,181ZM62,174L69,174L69,181L62,181ZM76,174L83,174L83,181L76,181ZM90,174L104,174L104,181L90,181ZM125,174L139,174L139,181L125,181ZM146,174L160,174L160,181L146,181ZM209,174L216,174L216,181L209,181ZM230,174L265,174L265,181L230,181ZM307,174L321,174L321,181L307,181ZM349,174L363,174L363,181L349,181ZM370,174L377,174L377,181L370,181ZM391,174L398,174L398,181L391,181ZM405,174L412,174L412,181L405,181ZM34,181L41,181L41,188L34,188ZM48,181L62,181L62,188L48,188ZM69,181L83,181L83,188L69,188ZM90,181L125,181L125,188L90,188ZM139,181L153,181L153,188L139,188ZM160,181L174,181L174,188L160,188ZM181,181L188,181L188,188L181,188ZM195,181L223,181L223,188L195,188ZM237,181L244,181L244,188L237,188ZM251,181L272,181L272,188L251,188ZM293,181L300,181L300,188L293,188ZM307,181L321,181L321,188L307,188ZM328,181L335,181L335,188L328,188ZM349,181L363,181L363,188L349,188ZM377,181L384,181L384,188L377,188ZM398,181L405,181L405,188L398,188ZM412,181L419,181L419,188L412,188ZM20,188L27,188L27,195L20,195ZM48,188L76,188L76,195L48,195ZM118,188L132,188L132,195L118,195ZM139,188L153,188L153,195L139,195ZM167,188L174,188L174,195L167,195ZM181,188L188,188L188,195L181,195ZM195,188L202,188L202,195L195,195ZM216,188L237,188L237,195L216,195ZM244,188L251,188L251,195L244,195ZM258,188L272,188L272,195L258,195ZM279,188L307,188L307,195L279,195ZM321,188L349,188L349,195L321,195ZM356,188L377,188L377,195L356,195ZM391,188L398,188L398,195L391,195ZM412,188L419,188L419,195L412,195ZM20,195L34,195L34,202L20,202ZM48,195L62,195L62,202L48,202ZM69,195L104,195L104,202L69,202ZM111,195L125,195L125,202L111,202ZM139,195L153,195L153,202L139,202ZM167,195L181,195L181,202L167,202ZM188,195L195,195L195,202L188,202ZM223,195L230,195L230,202L223,202ZM251,195L258,195L258,202L251,202ZM272,195L286,195L286,202L272,202ZM300,195L307,195L307,202L300,202ZM314,195L321,195L321,202L314,202ZM328,195L349,195L349,202L328,202ZM363,195L370,195L370,202L363,202ZM384,195L391,195L391,202L384,202ZM398,195L419,195L419,202L398,202ZM27,202L41,202L41,209L27,209ZM48,202L104,202L104,209L48,209ZM125,202L153,202L153,209L125,209ZM160,202L181,202L181,209L160,209ZM188,202L195,202L195,209L188,209ZM202,202L237,202L237,209L202,209ZM244,202L251,202L251,209L244,209ZM265,202L279,202L279,209L265,209ZM293,202L300,202L300,209L293,209ZM307,202L314,202L314,209L307,209ZM321,202L328,202L328,209L321,209ZM342,202L391,202L391,209L342,209ZM398,202L412,202L412,209L398,209ZM20,209L34,209L34,216L20,216ZM48,209L55,209L55,216L48,216ZM76,209L83,209L83,216L76,216ZM132,209L146,209L146,216L132,216ZM160,209L167,209L167,216L160,216ZM174,209L195,209L195,216L174,216ZM202,209L209,209L209,216L202,216ZM230,209L237,209L237,216L230,216ZM244,209L251,209L251,216L244,216ZM258,209L272,209L272,216L258,216ZM293,209L321,209L321,216L293,216ZM328,209L342,209L342,216L328,216ZM349,209L363,209L363,216L349,216ZM384,209L391,209L391,216L384,216ZM398,209L419,209L419,216L398,216ZM20,216L27,216L27,223L20,223ZM34,216L55,216L55,223L34,223ZM62,216L69,216L69,223L62,223ZM76,216L83,216L83,223L76,223ZM104,216L111,216L111,223L104,223ZM139,216L146,216L146,223L139,223ZM153,216L167,216L167,223L153,223ZM195,216L209,216L209,223L195,223ZM216,216L223,216L223,223L216,223ZM230,216L244,216L244,223L230,223ZM251,216L258,216L258,223L251,223ZM265,216L293,216L293,223L265,223ZM321,216L328,216L328,223L321,223ZM342,216L349,216L349,223L342,223ZM356,216L363,216L363,223L356,223ZM370,216L377,216L377,223L370,223ZM384,216L391,216L391,223L384,223ZM398,216L405,216L405,223L398,223ZM27,223L55,223L55,230L27,230ZM76,223L90,223L90,230L76,230ZM132,223L153,223L153,230L132,230ZM160,223L181,223L181,230L160,230ZM202,223L209,223L209,230L202,230ZM230,223L244,223L244,230L230,230ZM272,223L279,223L279,230L272,230ZM300,223L314,223L314,230L300,230ZM321,223L335,223L335,230L321,230ZM356,223L363,223L363,230L356,230ZM384,223L405,223L405,230L384,230ZM412,223L419,223L419,230L412,230ZM20,230L34,230L34,237L20,237ZM41,230L83,230L83,237L41,237ZM97,230L111,230L111,237L97,237ZM139,230L146,230L146,237L139,237ZM174,230L195,230L195,237L174,237ZM202,230L237,230L237,237L202,237ZM244,230L251,230L251,237L244,237ZM258,230L286,230L286,237L258,237ZM293,230L300,230L300,237L293,237ZM314,230L321,230L321,237L314,237ZM356,230L391,230L391,237L356,237ZM27,237L48,237L48,244L27,244ZM55,237L62,237L62,244L55,244ZM69,237L90,237L90,244L69,244ZM104,237L111,237L111,244L104,244ZM125,237L132,237L132,244L125,244ZM139,237L146,237L146,244L139,244ZM167,237L181,237L181,244L167,244ZM223,237L244,237L244,244L223,244ZM251,237L265,237L265,244L251,244ZM279,237L286,237L286,244L279,244ZM293,237L300,237L300,244L293,244ZM307,237L321,237L321,244L307,244ZM377,237L384,237L384,244L377,244ZM391,237L398,237L398,244L391,244ZM405,237L419,237L419,244L405,244ZM20,244L41,244L41,251L20,251ZM48,244L76,244L76,251L48,251ZM90,244L118,244L118,251L90,251ZM125,244L132,244L132,251L125,251ZM139,244L146,244L146,251L139,251ZM174,244L181,244L181,251L174,251ZM188,244L195,244L195,251L188,251ZM202,244L209,244L209,251L202,251ZM216,244L223,244L223,251L216,251ZM230,244L272,244L272,251L230,251ZM286,244L300,244L300,251L286,251ZM307,244L314,244L314,251L307,251ZM335,244L349,244L349,251L335,251ZM377,244L384,244L384,251L377,251ZM391,244L398,244L398,251L391,251ZM20,251L27,251L27,258L20,258ZM34,251L41,251L41,258L34,258ZM48,251L62,251L62,258L48,258ZM90,251L97,251L97,258L90,258ZM104,251L125,251L125,258L104,258ZM132,251L139,251L139,258L132,258ZM153,251L188,251L188,258L153,258ZM202,251L209,251L209,258L202,258ZM223,251L230,251L230,258L223,258ZM237,251L244,251L244,258L237,258ZM251,251L258,251L258,258L251,258ZM272,251L286,251L286,258L272,258ZM300,251L307,251L307,258L300,258ZM314,251L335,251L335,258L314,258ZM349,251L356,251L356,258L349,258ZM363,251L412,251L412,258L363,258ZM41,258L55,258L55,265L41,265ZM62,258L69,258L69,265L62,265ZM76,258L83,258L83,265L76,265ZM90,258L97,258L97,265L90,265ZM104,258L111,258L111,265L104,265ZM118,258L132,258L132,265L118,265ZM160,258L167,258L167,265L160,265ZM174,258L195,258L195,265L174,265ZM216,258L223,258L223,265L216,265ZM230,258L244,258L244,265L230,265ZM251,258L258,258L258,265L251,265ZM279,258L286,258L286,265L279,265ZM293,258L300,258L300,265L293,265ZM314,258L321,258L321,265L314,265ZM356,258L363,258L363,265L356,265ZM384,258L398,258L398,265L384,265ZM20,265L27,265L27,272L20,272ZM34,265L48,265L48,272L34,272ZM55,265L62,265L62,272L55,272ZM69,265L76,265L76,272L69,272ZM83,265L97,265L97,272L83,272ZM104,265L111,265L111,272L104,272ZM118,265L125,265L125,272L118,272ZM132,265L139,265L139,272L132,272ZM146,265L153,265L153,272L146,272ZM160,265L167,265L167,272L160,272ZM174,265L181,265L181,272L174,272ZM202,265L223,265L223,272L202,272ZM272,265L279,265L279,272L272,272ZM293,265L307,265L307,272L293,272ZM314,265L342,265L342,272L314,272ZM363,265L370,265L370,272L363,272ZM377,265L384,265L384,272L377,272ZM391,265L405,265L405,272L391,272ZM412,265L419,265L419,272L412,272ZM20,272L34,272L34,279L20,279ZM48,272L83,272L83,279L48,279ZM97,272L111,272L111,279L97,279ZM118,272L146,272L146,279L118,279ZM160,272L188,272L188,279L160,279ZM195,272L202,272L202,279L195,279ZM209,272L223,272L223,279L209,279ZM237,272L244,272L244,279L237,279ZM258,272L300,272L300,279L258,279ZM307,272L314,272L314,279L307,279ZM321,272L335,272L335,279L321,279ZM342,272L349,272L349,279L342,279ZM363,272L370,272L370,279L363,279ZM377,272L391,272L391,279L377,279ZM398,272L412,272L412,279L398,279ZM20,279L27,279L27,286L20,286ZM34,279L62,279L62,286L34,286ZM69,279L83,279L83,286L69,286ZM90,279L132,279L132,286L90,286ZM139,279L160,279L160,286L139,286ZM174,279L181,279L181,286L174,286ZM195,279L202,279L202,286L195,286ZM216,279L223,279L223,286L216,286ZM230,279L237,279L237,286L230,286ZM251,279L272,279L272,286L251,286ZM300,279L307,279L307,286L300,286ZM314,279L321,279L321,286L314,286ZM328,279L363,279L363,286L328,286ZM370,279L384,279L384,286L370,286ZM391,279L412,279L412,286L391,286ZM48,286L55,286L55,293L48,293ZM62,286L69,286L69,293L62,293ZM76,286L125,286L125,293L76,293ZM139,286L146,286L146,293L139,293ZM160,286L174,286L174,293L160,293ZM181,286L188,286L188,293L181,293ZM202,286L209,286L209,293L202,293ZM244,286L251,286L251,293L244,293ZM258,286L279,286L279,293L258,293ZM286,286L300,286L300,293L286,293ZM356,286L363,286L363,293L356,293ZM384,286L412,286L412,293L384,293ZM20,293L27,293L27,300L20,300ZM34,293L55,293L55,300L34,300ZM76,293L83,293L83,300L76,300ZM111,293L118,293L118,300L111,300ZM132,293L195,293L195,300L132,300ZM209,293L216,293L216,300L209,300ZM223,293L230,293L230,300L223,300ZM237,293L244,293L244,300L237,300ZM265,293L272,293L272,300L265,300ZM307,293L321,293L321,300L307,300ZM335,293L342,293L342,300L335,300ZM356,293L384,293L384,300L356,300ZM391,293L398,293L398,300L391,300ZM412,293L419,293L419,300L412,300ZM27,300L34,300L34,307L27,307ZM41,300L76,300L76,307L41,307ZM83,300L90,300L90,307L83,307ZM118,300L132,300L132,307L118,307ZM139,300L146,300L146,307L139,307ZM160,300L167,300L167,307L160,307ZM174,300L188,300L188,307L174,307ZM195,300L216,300L216,307L195,307ZM237,300L244,300L244,307L237,307ZM251,300L258,300L258,307L251,307ZM265,300L272,300L272,307L265,307ZM293,300L300,300L300,307L293,307ZM328,300L335,300L335,307L328,307ZM342,300L349,300L349,307L342,307ZM363,300L370,300L370,307L363,307ZM391,300L398,300L398,307L391,307ZM405,300L412,300L412,307L405,307ZM27,307L34,307L34,314L27,314ZM69,307L83,307L83,314L69,314ZM97,307L104,307L104,314L97,314ZM118,307L167,307L167,314L118,314ZM181,307L188,307L188,314L181,314ZM216,307L237,307L237,314L216,314ZM244,307L272,307L272,314L244,314ZM300,307L307,307L307,314L300,314ZM314,307L335,307L335,314L314,314ZM349,307L377,307L377,314L349,314ZM398,307L412,307L412,314L398,314ZM20,314L27,314L27,321L20,321ZM34,314L41,314L41,321L34,321ZM48,314L69,314L69,321L48,321ZM76,314L83,314L83,321L76,321ZM118,314L146,314L146,321L118,321ZM160,314L174,314L174,321L160,321ZM195,314L202,314L202,321L195,321ZM223,314L265,314L265,321L223,321ZM272,314L279,314L279,321L272,321ZM293,314L300,314L300,321L293,321ZM307,314L321,314L321,321L307,321ZM363,314L370,314L370,321L363,321ZM377,314L398,314L398,321L377,321ZM34,321L41,321L41,328L34,328ZM55,321L62,321L62,328L55,328ZM83,321L90,321L90,328L83,328ZM97,321L104,321L104,328L97,328ZM111,321L125,321L125,328L111,328ZM153,321L160,321L160,328L153,328ZM181,321L209,321L209,328L181,328ZM216,321L223,321L223,328L216,328ZM251,321L286,321L286,328L251,328ZM307,321L321,321L321,328L307,328ZM328,321L342,321L342,328L328,328ZM349,321L363,321L363,328L349,328ZM405,321L419,321L419,328L405,328ZM41,328L55,328L55,335L41,335ZM62,328L104,328L104,335L62,335ZM111,328L125,328L125,335L111,335ZM139,328L160,328L160,335L139,335ZM167,328L188,328L188,335L167,335ZM195,328L202,328L202,335L195,335ZM216,328L230,328L230,335L216,335ZM244,328L251,328L251,335L244,335ZM265,328L272,328L272,335L265,335ZM286,328L293,328L293,335L286,335ZM321,328L328,328L328,335L321,335ZM342,328L349,328L349,335L342,335ZM356,328L363,328L363,335L356,335ZM384,328L391,328L391,335L384,335ZM398,328L405,328L405,335L398,335ZM20,335L41,335L41,342L20,342ZM55,335L62,335L62,342L55,342ZM69,335L83,335L83,342L69,342ZM90,335L111,335L111,342L90,342ZM118,335L139,335L139,342L118,342ZM146,335L153,335L153,342L146,342ZM160,335L167,335L167,342L160,342ZM188,335L195,335L195,342L188,342ZM202,335L209,335L209,342L202,342ZM216,335L223,335L223,342L216,342ZM237,335L244,335L244,342L237,342ZM272,335L286,335L286,342L272,342ZM300,335L321,335L321,342L300,342ZM328,335L356,335L356,342L328,342ZM363,335L384,335L384,342L363,342ZM398,335L405,335L405,342L398,342ZM412,335L419,335L419,342L412,342ZM20,342L27,342L27,349L20,349ZM34,342L41,342L41,349L34,349ZM55,342L111,342L111,349L55,349ZM118,342L125,342L125,349L118,349ZM132,342L146,342L146,349L132,349ZM160,342L174,342L174,349L160,349ZM181,342L195,342L195,349L181,349ZM202,342L223,342L223,349L202,349ZM265,342L272,342L272,349L265,349ZM286,342L300,342L300,349L286,349ZM321,342L328,342L328,349L321,349ZM335,342L349,342L349,349L335,349ZM356,342L363,342L363,349L356,349ZM370,342L377,342L377,349L370,349ZM384,342L398,342L398,349L384,349ZM20,349L55,349L55,356L20,356ZM69,349L83,349L83,356L69,356ZM97,349L118,349L118,356L97,356ZM125,349L146,349L146,356L125,356ZM160,349L167,349L167,356L160,356ZM188,349L195,349L195,356L188,356ZM202,349L230,349L230,356L202,356ZM244,349L258,349L258,356L244,356ZM265,349L293,349L293,356L265,356ZM307,349L321,349L321,356L307,356ZM328,349L342,349L342,356L328,356ZM349,349L363,349L363,356L349,356ZM370,349L377,349L377,356L370,356ZM405,349L419,349L419,356L405,356ZM62,356L83,356L83,363L62,363ZM97,356L104,356L104,363L97,363ZM111,356L118,356L118,363L111,363ZM125,356L132,356L132,363L125,363ZM139,356L146,356L146,363L139,363ZM160,356L167,356L167,363L160,363ZM174,356L181,356L181,363L174,363ZM202,356L244,356L244,363L202,363ZM251,356L265,356L265,363L251,363ZM272,356L279,356L279,363L272,363ZM286,356L300,356L300,363L286,363ZM342,356L349,356L349,363L342,363ZM356,356L391,356L391,363L356,363ZM398,356L412,356L412,363L398,363ZM76,363L90,363L90,370L76,370ZM97,363L132,363L132,370L97,370ZM146,363L160,363L160,370L146,370ZM167,363L174,363L174,370L167,370ZM188,363L209,363L209,370L188,370ZM230,363L251,363L251,370L230,370ZM258,363L321,363L321,370L258,370ZM328,363L342,363L342,370L328,370ZM356,363L363,363L363,370L356,370ZM384,363L405,363L405,370L384,370ZM20,370L69,370L69,377L20,377ZM97,370L104,370L104,377L97,377ZM125,370L132,370L132,377L125,377ZM167,370L174,370L174,377L167,377ZM181,370L209,370L209,377L181,377ZM216,370L223,370L223,377L216,377ZM230,370L265,370L265,377L230,377ZM314,370L328,370L328,377L314,377ZM335,370L342,370L342,377L335,377ZM349,370L363,370L363,377L349,377ZM370,370L377,370L377,377L370,377ZM384,370L391,370L391,377L384,377ZM405,370L419,370L419,377L405,377ZM20,377L27,377L27,384L20,384ZM62,377L69,377L69,384L62,384ZM111,377L125,377L125,384L111,384ZM132,377L146,377L146,384L132,384ZM160,377L174,377L174,384L160,384ZM188,377L195,377L195,384L188,384ZM202,377L209,377L209,384L202,384ZM230,377L244,377L244,384L230,384ZM258,377L272,377L272,384L258,384ZM300,377L328,377L328,384L300,384ZM335,377L342,377L342,384L335,384ZM349,377L363,377L363,384L349,384ZM384,377L405,377L405,384L384,384ZM412,377L419,377L419,384L412,384ZM20,384L27,384L27,391L20,391ZM34,384L55,384L55,391L34,391ZM62,384L69,384L69,391L62,391ZM76,384L90,384L90,391L76,391ZM104,384L118,384L118,391L104,391ZM139,384L153,384L153,391L139,391ZM174,384L181,384L181,391L174,391ZM188,384L195,384L195,391L188,391ZM202,384L237,384L237,391L202,391ZM244,384L258,384L258,391L244,391ZM265,384L293,384L293,391L265,391ZM300,384L307,384L307,391L300,391ZM342,384L349,384L349,391L342,391ZM356,384L391,384L391,391L356,391ZM405,384L412,384L412,391L405,391ZM20,391L27,391L27,398L20,398ZM34,391L55,391L55,398L34,398ZM62,391L69,391L69,398L62,398ZM76,391L104,391L104,398L76,398ZM125,391L139,391L139,398L125,398ZM153,391L174,391L174,398L153,398ZM188,391L195,391L195,398L188,398ZM209,391L230,391L230,398L209,398ZM237,391L307,391L307,398L237,398ZM314,391L335,391L335,398L314,398ZM356,391L370,391L370,398L356,398ZM377,391L384,391L384,398L377,398ZM391,391L412,391L412,398L391,398ZM20,398L27,398L27,405L20,405ZM34,398L55,398L55,405L34,405ZM62,398L69,398L69,405L62,405ZM76,398L97,398L97,405L76,405ZM111,398L132,398L132,405L111,405ZM167,398L181,398L181,405L167,405ZM195,398L202,398L202,405L195,405ZM216,398L223,398L223,405L216,405ZM230,398L237,398L237,405L230,405ZM244,398L258,398L258,405L244,405ZM265,398L272,398L272,405L265,405ZM279,398L293,398L293,405L279,405ZM307,398L321,398L321,405L307,405ZM342,398L377,398L377,405L342,405ZM20,405L27,405L27,412L20,412ZM62,405L69,405L69,412L62,412ZM83,405L111,405L111,412L83,412ZM146,405L153,405L153,412L146,412ZM167,405L188,405L188,412L167,412ZM202,405L209,405L209,412L202,412ZM216,405L223,405L223,412L216,412ZM230,405L237,405L237,412L230,412ZM258,405L272,405L272,412L258,412ZM300,405L307,405L307,412L300,412ZM314,405L328,405L328,412L314,412ZM349,405L356,405L356,412L349,412ZM384,405L391,405L391,412L384,412ZM398,405L419,405L419,412L398,412ZM20,412L69,412L69,419L20,419ZM83,412L90,412L90,419L83,419ZM104,412L111,412L111,419L104,419ZM125,412L132,412L132,419L125,419ZM139,412L146,412L146,419L139,419ZM153,412L167,412L167,419L153,419ZM181,412L188,412L188,419L181,419ZM202,412L216,412L216,419L202,419ZM244,412L251,412L251,419L244,419ZM258,412L300,412L300,419L258,419ZM307,412L314,412L314,419L307,419ZM321,412L328,412L328,419L321,419ZM335,412L363,412L363,419L335,419ZM391,412L412,412L412,419L391,419Z"/></svg>
