<?xml version="1.0"?>
<svg xmlns="http://www.w3.org/2000/svg" xmlns:xlink="http://www.w3.org/1999/xlink" version="1.1" width="440px" height="440px" viewBox="0 0 440 440"><rect x="0" y="0" width="440" height="440" fill="#ffffff" fill-opacity="1"/><path fill="#000000" fill-opacity="1" d="M20,20L69,20L69,27L20,27ZM76,20L90,20L90,27L76,27ZM118,20L125,20L125,27L118,27ZM146,20L153,20L153,27L146,27ZM160,20L167,20L167,27L160,27ZM195,20L223,20L223,27L195,27ZM244,20L251,20L251,27L244,27ZM272,20L279,20L279,27L272,27ZM300,20L314,20L314,27L300,27ZM328,20L335,20L335,27L328,27ZM342,20L356,20L356,27L342,27ZM370,20L419,20L419,27L370,27ZM20,27L27,27L27,34L20,34ZM62,27L69,27L69,34L62,34ZM76,27L125,27L125,34L76,34ZM132,27L139,27L139,34L132,34ZM146,27L153,27L153,34L146,34ZM167,27L188,27L188,34L167,34ZM223,27L230,27L230,34L223,34ZM237,27L244,27L244,34L237,34ZM251,27L258,27L258,34L251,34ZM265,27L272,27L272,34L265,34ZM286,27L300,27L300,34L286,34ZM307,27L314,27L314,34L307,34ZM335,27L342,27L342,34L335,34ZM349,27L356,27L356,34L349,34ZM370,27L377,27L377,34L370,34ZM412,27L419,27L419,34L412,34ZM20,34L27,34L27,41L20,41ZM34,34L55,34L55,41L34,41ZM62,34L69,34L69,41L62,41ZM76,34L104,34L104,41L76,41ZM111,34L139,34L139,41L111,41ZM146,34L153,34L153,41L146,41ZM181,34L188,34L188,41L181,41ZM209,34L223,34L223,41L209,41ZM237,34L244,34L244,41L237,41ZM293,34L307,34L307,41L293,41ZM314,34L356,34L356,41L314,41ZM370,34L377,34L377,41L370,41ZM384,34L405,34L405,41L384,41ZM412,34L419,34L419,41L412,41ZM20,41L27,41L27,48L20,48ZM34,41L55,41L55,48L34,48ZM62,41L69,41L69,48L62,48ZM90,41L97,41L97,48L90,48ZM132,41L153,41L153,48L132,48ZM195,41L209,41L209,48L195,48ZM216,41L223,41L223,48L216,48ZM244,41L251,41L251,48L244,48ZM272,41L300,41L300,48L272,48ZM307,41L314,41L314,48L307,48ZM321,41L335,41L335,48L321,48ZM349,41L356,41L356,48L349,48ZM370,41L377,41L377,48L370,48ZM384,41L405,41L405,48L384,48ZM412,41L419,41L419,48L412,48ZM20,48L27,48L27,55L20,55ZM34,48L55,48L55,55L34,55ZM62,48L69,48L69,55L62,55ZM83,48L97,48L97,55L83,55ZM104,48L111,48L111,55L104,55ZM118,48L125,48L125,55L118,55ZM146,48L153,48L153,55L146,55ZM167,48L188,48L188,55L167,55ZM202,48L244,48L244,55L202,55ZM258,48L286,48L286,55L258,55ZM293,48L321,48L321,55L293,55ZM328,48L342,48L342,55L328,55ZM349,48L356,48L356,55L349,55ZM370,48L377,48L377,55L370,55ZM384,48L405,48L405,55L384,55ZM412,48L419,48L419,55L412,55ZM20,55L27,55L27,62L20,62ZM62,55L69,55L69,62L62,62ZM76,55L83,55L83,62L76,62ZM90,55L111,55L111,62L90,62ZM125,55L132,55L132,62L125,62ZM139,55L167,55L167,62L139,62ZM181,55L195,55L195,62L181,62ZM202,55L209,55L209,62L202,62ZM230,55L244,55L244,62L230,62ZM258,55L265,55L265,62L258,62ZM272,55L279,55L279,62L272,62ZM286,55L293,55L293,62L286,62ZM314,55L321,55L321,62L314,62ZM342,55L349,55L349,62L342,62ZM370,55L377,55L377,62L370,62ZM412,55L419,55L419,62L412,62ZM20,62L69,62L69,69L20,69ZM76,62L83,62L83,69L76,69ZM90,62L97,62L97,69L90,69ZM104,62L111,62L111,69L104,69ZM118,62L125,62L125,69L118,69ZM132,62L139,62L139,69L132,69ZM146,62L153,62L153,69L146,69ZM160,62L167,62L167,69L160,69ZM174,62L181,62L181,69L174,69ZM188,62L195,62L195,69L188,69ZM202,62L209,62L209,69L202,69ZM216,62L223,62L223,69L216,69ZM230,62L237,62L237,69L230,69ZM244,62L251,62L251,69L244,69ZM258,62L265,62L265,69L258,69ZM272,62L279,62L279,69L272,69ZM286,62L293,62L293,69L286,69ZM300,62L307,62L307,69L300,69ZM314,62L321,62L321,69L314,69ZM328,62L335,62L335,69L328,69ZM342,62L349,62L349,69L342,69ZM356,62L363,62L363,69L356,69ZM370,62L419,62L419,69L370,69ZM76,69L83,69L83,76L76,76ZM90,69L104,69L104,76L90,76ZM118,69L139,69L139,76L118,76ZM160,69L167,69L167,76L160,76ZM174,69L181,69L181,76L174,76ZM202,69L209,69L209,76L202,76ZM230,69L237,69L237,76L230,76ZM258,69L265,69L265,76L258,76ZM272,69L286,69L286,76L272,76ZM293,69L300,69L300,76L293,76ZM314,69L328,69L328,76L314,76ZM335,69L342,69L342,76L335,76ZM349,69L363,69L363,76L349,76ZM34,76L55,76L55,83L34,83ZM62,76L69,76L69,83L62,83ZM76,76L97,76L97,83L76,83ZM118,76L125,76L125,83L118,83ZM132,76L153,76L153,83L132,83ZM160,76L167,76L167,83L160,83ZM188,76L244,76L244,83L188,83ZM286,76L293,76L293,83L286,83ZM307,76L314,76L314,83L307,83ZM321,76L328,76L328,83L321,83ZM342,76L356,76L356,83L342,83ZM363,76L384,76L384,83L363,83ZM398,76L419,76L419,83L398,83ZM27,83L34,83L34,90L27,90ZM69,83L83,83L83,90L69,90ZM97,83L111,83L111,90L97,90ZM118,83L125,83L125,90L118,90ZM139,83L153,83L153,90L139,90ZM188,83L216,83L216,90L188,90ZM244,83L279,83L279,90L244,90ZM300,83L314,83L314,90L300,90ZM328,83L342,83L342,90L328,90ZM356,83L370,83L370,90L356,90ZM384,83L405,83L405,90L384,90ZM412,83L419,83L419,90L412,90ZM20,90L27,90L27,97L20,97ZM55,90L83,90L83,97L55,97ZM97,90L111,90L111,97L97,97ZM118,90L132,90L132,97L118,97ZM146,90L167,90L167,97L146,97ZM174,90L188,90L188,97L174,97ZM202,90L216,90L216,97L202,97ZM237,90L251,90L251,97L237,97ZM272,90L286,90L286,97L272,97ZM293,90L300,90L300,97L293,97ZM307,90L328,90L328,97L307,97ZM335,90L356,90L356,97L335,97ZM405,90L412,90L412,97L405,97ZM20,97L48,97L48,104L20,104ZM55,97L62,97L62,104L55,104ZM90,97L97,97L97,104L90,104ZM111,97L139,97L139,104L111,104ZM167,97L195,97L195,104L167,104ZM202,97L223,97L223,104L202,104ZM230,97L237,97L237,104L230,104ZM251,97L258,97L258,104L251,104ZM265,97L286,97L286,104L265,104ZM293,97L300,97L300,104L293,104ZM314,97L328,97L328,104L314,104ZM356,97L370,97L370,104L356,104ZM377,97L384,97L384,104L377,104ZM398,97L419,97L419,104L398,104ZM27,104L34,104L34,111L27,111ZM48,104L55,104L55,111L48,111ZM62,104L69,104L69,111L62,111ZM76,104L83,104L83,111L76,111ZM90,104L104,104L104,111L90,111ZM118,104L132,104L132,111L118,111ZM139,104L160,104L160,111L139,111ZM167,104L174,104L174,111L167,111ZM209,104L216,104L216,111L209,111ZM230,104L244,104L244,111L230,111ZM251,104L258,104L258,111L251,111ZM265,104L272,104L272,111L265,111ZM286,104L293,104L293,111L286,111ZM307,104L314,104L314,111L307,111ZM342,104L349,104L349,111L342,111ZM356,104L363,104L363,111L356,111ZM370,104L398,104L398,111L370,111ZM20,111L34,111L34,118L20,118ZM41,111L48,111L48,118L41,118ZM69,111L76,111L76,118L69,118ZM83,111L90,111L90,118L83,118ZM104,111L111,111L111,118L104,118ZM146,111L160,111L160,118L146,118ZM167,111L174,111L174,118L167,118ZM188,111L195,111L195,118L188,118ZM209,111L223,111L223,118L209,118ZM230,111L244,111L244,118L230,118ZM251,111L265,111L265,118L251,118ZM300,111L342,111L342,118L300,118ZM356,111L391,111L391,118L356,118ZM398,111L419,111L419,118L398,118ZM20,118L55,118L55,125L20,125ZM62,118L83,118L83,125L62,125ZM90,118L118,118L118,125L90,125ZM132,118L139,118L139,125L132,125ZM160,118L174,118L174,125L160,125ZM181,118L195,118L195,125L181,125ZM209,118L230,118L230,125L209,125ZM237,118L244,118L244,125L237,125ZM265,118L286,118L286,125L265,125ZM293,118L300,118L300,125L293,125ZM307,118L314,118L314,125L307,125ZM335,118L342,118L342,125L335,125ZM349,118L356,118L356,125L349,125ZM363,118L370,118L370,125L363,125ZM391,118L398,118L398,125L391,125ZM405,118L419,118L419,125L405,125ZM20,125L41,125L41,132L20,132ZM48,125L62,125L62,132L48,132ZM83,125L90,125L90,132L83,132ZM97,125L111,125L111,132L97,132ZM125,125L132,125L132,132L125,132ZM139,125L160,125L160,132L139,132ZM174,125L181,125L181,132L174,132ZM195,125L202,125L202,132L195,132ZM223,125L251,125L251,132L223,132ZM265,125L272,125L272,132L265,132ZM279,125L286,125L286,132L279,132ZM300,125L307,125L307,132L300,132ZM314,125L342,125L342,132L314,132ZM356,125L363,125L363,132L356,132ZM377,125L384,125L384,132L377,132ZM398,125L405,125L405,132L398,132ZM412,125L419,125L419,132L412,132ZM27,132L48,132L48,139L27,139ZM62,132L90,132L90,139L62,139ZM104,132L125,132L125,139L104,139ZM139,132L146,132L146,139L139,139ZM167,132L181,132L181,139L167,139ZM188,132L209,132L209,139L188,139ZM237,132L244,132L244,139L237,139ZM258,132L265,132L265,139L258,139ZM286,132L293,132L293,139L286,139ZM307,132L314,132L314,139L307,139ZM321,132L328,132L328,139L321,139ZM342,132L356,132L356,139L342,139ZM363,132L405,132L405,139L363,139ZM20,139L27,139L27,146L20,146ZM34,139L48,139L48,146L34,146ZM76,139L90,139L90,146L76,146ZM104,139L111,139L111,146L104,146ZM118,139L125,139L125,146L118,146ZM132,139L139,139L139,146L132,146ZM146,139L153,139L153,146L146,146ZM167,139L181,139L181,146L167,146ZM202,139L209,139L209,146L202,146ZM230,139L237,139L237,146L230,146ZM265,139L279,139L279,146L265,146ZM293,139L342,139L342,146L293,146ZM349,139L356,139L356,146L349,146ZM363,139L377,139L377,146L363,146ZM384,139L405,139L405,146L384,146ZM27,146L34,146L34,153L27,153ZM41,146L48,146L48,153L41,153ZM62,146L83,146L83,153L62,153ZM104,146L111,146L111,153L104,153ZM132,146L167,146L167,153L132,153ZM181,146L188,146L188,153L181,153ZM195,146L202,146L202,153L195,153ZM209,146L223,146L223,153L209,153ZM230,146L237,146L237,153L230,153ZM258,146L265,146L265,153L258,153ZM279,146L286,146L286,153L279,153ZM314,146L321,146L321,153L314,153ZM335,146L342,146L342,153L335,153ZM363,146L384,146L384,153L363,153ZM412,146L419,146L419,153L412,153ZM20,153L27,153L27,160L20,160ZM34,153L48,153L48,160L34,160ZM76,153L83,153L83,160L76,160ZM90,153L104,153L104,160L90,160ZM111,153L174,153L174,160L111,160ZM244,153L251,153L251,160L244,160ZM258,153L272,153L272,160L258,160ZM300,153L307,153L307,160L300,160ZM314,153L321,153L321,160L314,160ZM328,153L342,153L342,160L328,160ZM349,153L363,153L363,160L349,160ZM377,153L405,153L405,160L377,160ZM412,153L419,153L419,160L412,160ZM20,160L41,160L41,167L20,167ZM48,160L83,160L83,167L48,167ZM90,160L97,160L97,167L90,167ZM104,160L111,160L111,167L104,167ZM118,160L139,160L139,167L118,167ZM153,160L160,160L160,167L153,167ZM188,160L216,160L216,167L188,167ZM223,160L230,160L230,167L223,167ZM237,160L244,160L244,167L237,167ZM251,160L300,160L300,167L251,167ZM307,160L314,160L314,167L307,167ZM321,160L328,160L328,167L321,167ZM342,160L356,160L356,167L342,167ZM363,160L377,160L377,167L363,167ZM398,160L412,160L412,167L398,167ZM20,167L34,167L34,174L20,174ZM90,167L111,167L111,174L90,174ZM139,167L153,167L153,174L139,174ZM167,167L174,167L174,174L167,174ZM181,167L195,167L195,174L181,174ZM202,167L223,167L223,174L202,174ZM230,167L237,167L237,174L230,174ZM244,167L251,167L251,174L244,174ZM279,167L286,167L286,174L279,174ZM293,167L307,167L307,174L293,174ZM314,167L342,167L342,174L314,174ZM349,167L356,167L356,174L349,174ZM363,167L370,167L370,174L363,174ZM377,167L391,167L391,174L377,174ZM398,167L405,167L405,174L398,174ZM27,174L55,174L55,181L27,181ZM62,174L69,174L69,181L62,181ZM97,174L104,174L104,181L97,181ZM132,174L139,174L139,181L132,181ZM146,174L160,174L160,181L146,181ZM195,174L202,174L202,181L195,181ZM258,174L272,174L272,181L258,181ZM279,174L286,174L286,181L279,181ZM349,174L377,174L377,181L349,181ZM391,174L398,174L398,181L391,181ZM405,174L412,174L412,181L405,181ZM20,181L27,181L27,188L20,188ZM48,181L62,181L62,188L48,188ZM69,181L139,181L139,188L69,188ZM146,181L153,181L153,188L146,188ZM160,181L174,181L174,188L160,188ZM195,181L209,181L209,188L195,188ZM216,181L223,181L223,188L216,188ZM237,181L244,181L244,188L237,188ZM258,181L272,181L272,188L258,188ZM293,181L300,181L300,188L293,188ZM314,181L321,181L321,188L314,188ZM328,181L335,181L335,188L328,188ZM349,181L363,181L363,188L349,188ZM384,181L391,181L391,188L384,188ZM412,181L419,181L419,188L412,188ZM20,188L27,188L27,195L20,195ZM34,188L76,188L76,195L34,195ZM83,188L90,188L90,195L83,195ZM118,188L125,188L125,195L118,195ZM139,188L153,188L153,195L139,195ZM167,188L174,188L174,195L167,195ZM188,188L195,188L195,195L188,195ZM202,188L216,188L216,195L202,195ZM223,188L272,188L272,195L223,195ZM279,188L314,188L314,195L279,195ZM321,188L349,188L349,195L321,195ZM356,188L384,188L384,195L356,195ZM391,188L405,188L405,195L391,195ZM412,188L419,188L419,195L412,195ZM20,195L62,195L62,202L20,202ZM69,195L90,195L90,202L69,202ZM97,195L104,195L104,202L97,202ZM111,195L125,195L125,202L111,202ZM132,195L139,195L139,202L132,202ZM167,195L188,195L188,202L167,202ZM195,195L202,195L202,202L195,202ZM209,195L230,195L230,202L209,202ZM258,195L265,195L265,202L258,202ZM272,195L279,195L279,202L272,202ZM300,195L307,195L307,202L300,202ZM328,195L349,195L349,202L328,202ZM363,195L370,195L370,202L363,202ZM384,195L391,195L391,202L384,202ZM398,195L405,195L405,202L398,202ZM27,202L34,202L34,209L27,209ZM48,202L90,202L90,209L48,209ZM97,202L104,202L104,209L97,209ZM125,202L132,202L132,209L125,209ZM146,202L153,202L153,209L146,209ZM160,202L188,202L188,209L160,209ZM202,202L244,202L244,209L202,209ZM251,202L258,202L258,209L251,209ZM265,202L279,202L279,209L265,209ZM293,202L300,202L300,209L293,209ZM307,202L328,202L328,209L307,209ZM342,202L391,202L391,209L342,209ZM398,202L405,202L405,209L398,209ZM412,202L419,202L419,209L412,209ZM48,209L55,209L55,216L48,216ZM76,209L90,209L90,216L76,216ZM139,209L153,209L153,216L139,216ZM160,209L167,209L167,216L160,216ZM174,209L188,209L188,216L174,216ZM195,209L209,209L209,216L195,216ZM230,209L258,209L258,216L230,216ZM265,209L272,209L272,216L265,216ZM279,209L286,209L286,216L279,216ZM307,209L321,209L321,216L307,216ZM328,209L342,209L342,216L328,216ZM349,209L363,209L363,216L349,216ZM384,209L391,209L391,216L384,216ZM398,209L419,209L419,216L398,216ZM27,216L55,216L55,223L27,223ZM62,216L69,216L69,223L62,223ZM76,216L83,216L83,223L76,223ZM125,216L146,216L146,223L125,223ZM181,216L188,216L188,223L181,223ZM202,216L209,216L209,223L202,223ZM216,216L223,216L223,223L216,223ZM230,216L258,216L258,223L230,223ZM265,216L279,216L279,223L265,223ZM286,216L300,216L300,223L286,223ZM321,216L328,216L328,223L321,223ZM342,216L349,216L349,223L342,223ZM356,216L363,216L363,223L356,223ZM370,216L377,216L377,223L370,223ZM384,216L391,216L391,223L384,223ZM398,216L405,216L405,223L398,223ZM20,223L55,223L55,230L20,230ZM76,223L83,223L83,230L76,230ZM90,223L97,223L97,230L90,230ZM104,223L111,223L111,230L104,230ZM132,223L139,223L139,230L132,230ZM146,223L181,223L181,230L146,230ZM188,223L209,223L209,230L188,230ZM230,223L265,223L265,230L230,230ZM272,223L286,223L286,230L272,230ZM293,223L314,223L314,230L293,230ZM321,223L342,223L342,230L321,230ZM356,223L363,223L363,230L356,230ZM384,223L405,223L405,230L384,230ZM20,230L34,230L34,237L20,237ZM41,230L90,230L90,237L41,237ZM111,230L118,230L118,237L111,237ZM125,230L132,230L132,237L125,237ZM146,230L153,230L153,237L146,237ZM160,230L181,230L181,237L160,237ZM188,230L244,230L244,237L188,237ZM251,230L279,230L279,237L251,237ZM286,230L293,230L293,237L286,237ZM314,230L321,230L321,237L314,237ZM356,230L391,230L391,237L356,237ZM412,230L419,230L419,237L412,237ZM20,237L27,237L27,244L20,244ZM34,237L48,237L48,244L34,244ZM55,237L62,237L62,244L55,244ZM69,237L97,237L97,244L69,244ZM104,237L111,237L111,244L104,244ZM125,237L132,237L132,244L125,244ZM139,237L146,237L146,244L139,244ZM153,237L167,237L167,244L153,244ZM174,237L181,237L181,244L174,244ZM188,237L216,237L216,244L188,244ZM223,237L237,237L237,244L223,244ZM244,237L251,237L251,244L244,244ZM272,237L279,237L279,244L272,244ZM307,237L321,237L321,244L307,244ZM335,237L342,237L342,244L335,244ZM370,237L384,237L384,244L370,244ZM391,237L398,237L398,244L391,244ZM405,237L419,237L419,244L405,244ZM20,244L27,244L27,251L20,251ZM34,244L41,244L41,251L34,251ZM48,244L76,244L76,251L48,251ZM83,244L90,244L90,251L83,251ZM97,244L118,244L118,251L97,251ZM153,244L167,244L167,251L153,251ZM174,244L181,244L181,251L174,251ZM216,244L223,244L223,251L216,251ZM230,244L237,244L237,251L230,251ZM258,244L293,244L293,251L258,251ZM307,244L314,244L314,251L307,251ZM342,244L349,244L349,251L342,251ZM363,244L370,244L370,251L363,251ZM377,244L384,244L384,251L377,251ZM391,244L398,244L398,251L391,251ZM20,251L27,251L27,258L20,258ZM34,251L41,251L41,258L34,258ZM55,251L62,251L62,258L55,258ZM83,251L104,251L104,258L83,258ZM118,251L125,251L125,258L118,258ZM153,251L160,251L160,258L153,258ZM167,251L181,251L181,258L167,258ZM188,251L209,251L209,258L188,258ZM223,251L230,251L230,258L223,258ZM237,251L244,251L244,258L237,258ZM286,251L293,251L293,258L286,258ZM300,251L307,251L307,258L300,258ZM314,251L342,251L342,258L314,258ZM349,251L356,251L356,258L349,258ZM370,251L412,251L412,258L370,258ZM41,258L48,258L48,265L41,265ZM62,258L69,258L69,265L62,265ZM76,258L83,258L83,265L76,265ZM90,258L97,258L97,265L90,265ZM111,258L139,258L139,265L111,265ZM146,258L153,258L153,265L146,265ZM160,258L167,258L167,265L160,265ZM174,258L188,258L188,265L174,265ZM209,258L216,258L216,265L209,265ZM230,258L237,258L237,265L230,265ZM258,258L272,258L272,265L258,265ZM293,258L300,258L300,265L293,265ZM314,258L321,258L321,265L314,265ZM342,258L349,258L349,265L342,265ZM356,258L363,258L363,265L356,265ZM384,258L398,258L398,265L384,265ZM20,265L62,265L62,272L20,272ZM69,265L76,265L76,272L69,272ZM97,265L104,265L104,272L97,272ZM111,265L125,265L125,272L111,272ZM132,265L139,265L139,272L132,272ZM146,265L153,265L153,272L146,272ZM160,265L167,265L167,272L160,272ZM181,265L195,265L195,272L181,272ZM209,265L223,265L223,272L209,272ZM244,265L251,265L251,272L244,272ZM272,265L286,265L286,272L272,272ZM300,265L307,265L307,272L300,272ZM314,265L342,265L342,272L314,272ZM363,265L370,265L370,272L363,272ZM377,265L384,265L384,272L377,272ZM391,265L419,265L419,272L391,272ZM27,272L41,272L41,279L27,279ZM48,272L55,272L55,279L48,279ZM62,272L69,272L69,279L62,279ZM83,272L90,272L90,279L83,279ZM104,272L118,272L118,279L104,279ZM125,272L139,272L139,279L125,279ZM160,272L188,272L188,279L160,279ZM195,272L202,272L202,279L195,279ZM209,272L230,272L230,279L209,279ZM237,272L251,272L251,279L237,279ZM258,272L265,272L265,279L258,279ZM272,272L279,272L279,279L272,279ZM286,272L300,272L300,279L286,279ZM307,272L314,272L314,279L307,279ZM321,272L335,272L335,279L321,279ZM342,272L349,272L349,279L342,279ZM356,272L363,272L363,279L356,279ZM377,272L391,272L391,279L377,279ZM398,272L405,272L405,279L398,279ZM20,279L27,279L27,286L20,286ZM41,279L62,279L62,286L41,286ZM69,279L83,279L83,286L69,286ZM90,279L104,279L104,286L90,286ZM118,279L132,279L132,286L118,286ZM139,279L146,279L146,286L139,286ZM153,279L160,279L160,286L153,286ZM195,279L202,279L202,286L195,286ZM216,279L230,279L230,286L216,286ZM251,279L265,279L265,286L251,286ZM279,279L286,279L286,286L279,286ZM293,279L307,279L307,286L293,286ZM314,279L321,279L321,286L314,286ZM328,279L356,279L356,286L328,286ZM363,279L384,279L384,286L363,286ZM391,279L405,279L405,286L391,286ZM412,279L419,279L419,286L412,286ZM34,286L41,286L41,293L34,293ZM48,286L76,286L76,293L48,293ZM83,286L97,286L97,293L83,293ZM104,286L111,286L111,293L104,293ZM139,286L146,286L146,293L139,293ZM160,286L174,286L174,293L160,293ZM181,286L188,286L188,293L181,293ZM202,286L209,286L209,293L202,293ZM230,286L244,286L244,293L230,293ZM258,286L286,286L286,293L258,293ZM335,286L342,286L342,293L335,293ZM363,286L370,286L370,293L363,293ZM384,286L412,286L412,293L384,293ZM27,293L48,293L48,300L27,300ZM69,293L83,293L83,300L69,300ZM118,293L125,293L125,300L118,300ZM132,293L160,293L160,300L132,300ZM181,293L195,293L195,300L181,300ZM209,293L216,293L216,300L209,300ZM237,293L244,293L244,300L237,300ZM265,293L272,293L272,300L265,300ZM293,293L328,293L328,300L293,300ZM356,293L370,293L370,300L356,300ZM377,293L384,293L384,300L377,300ZM391,293L398,293L398,300L391,300ZM412,293L419,293L419,300L412,300ZM20,300L55,300L55,307L20,307ZM62,300L76,300L76,307L62,307ZM83,300L90,300L90,307L83,307ZM97,300L104,300L104,307L97,307ZM125,300L132,300L132,307L125,307ZM139,300L146,300L146,307L139,307ZM160,300L167,300L167,307L160,307ZM174,300L188,300L188,307L174,307ZM195,300L216,300L216,307L195,307ZM223,300L244,300L244,307L223,307ZM251,300L258,300L258,307L251,307ZM272,300L279,300L279,307L272,307ZM321,300L328,300L328,307L321,307ZM335,300L349,300L349,307L335,307ZM363,300L370,300L370,307L363,307ZM391,300L398,300L398,307L391,307ZM405,300L412,300L412,307L405,307ZM20,307L55,307L55,314L20,314ZM76,307L83,307L83,314L76,314ZM97,307L153,307L153,314L97,314ZM160,307L167,307L167,314L160,314ZM174,307L188,307L188,314L174,314ZM216,307L223,307L223,314L216,314ZM244,307L272,307L272,314L244,314ZM293,307L335,307L335,314L293,314ZM349,307L377,307L377,314L349,314ZM398,307L419,307L419,314L398,314ZM20,314L27,314L27,321L20,321ZM55,314L69,314L69,321L55,321ZM104,314L111,314L111,321L104,321ZM118,314L146,314L146,321L118,321ZM153,314L160,314L160,321L153,321ZM167,314L181,314L181,321L167,321ZM195,314L202,314L202,321L195,321ZM230,314L265,314L265,321L230,321ZM272,314L279,314L279,321L272,321ZM335,314L342,314L342,321L335,321ZM356,314L370,314L370,321L356,321ZM377,314L398,314L398,321L377,321ZM405,314L412,314L412,321L405,321ZM34,321L55,321L55,328L34,328ZM83,321L90,321L90,328L83,328ZM97,321L111,321L111,328L97,328ZM118,321L125,321L125,328L118,328ZM160,321L167,321L167,328L160,328ZM181,321L209,321L209,328L181,328ZM216,321L223,321L223,328L216,328ZM258,321L265,321L265,328L258,328ZM272,321L279,321L279,328L272,328ZM307,321L328,321L328,328L307,328ZM335,321L342,321L342,328L335,328ZM356,321L363,321L363,328L356,328ZM398,321L419,321L419,328L398,328ZM27,328L48,328L48,335L27,335ZM55,328L76,328L76,335L55,335ZM83,328L125,328L125,335L83,335ZM132,328L160,328L160,335L132,335ZM167,328L174,328L174,335L167,335ZM223,328L237,328L237,335L223,335ZM244,328L258,328L258,335L244,335ZM265,328L293,328L293,335L265,335ZM321,328L328,328L328,335L321,335ZM342,328L349,328L349,335L342,335ZM384,328L391,328L391,335L384,335ZM20,335L41,335L41,342L20,342ZM48,335L55,335L55,342L48,342ZM76,335L83,335L83,342L76,342ZM90,335L104,335L104,342L90,342ZM111,335L118,335L118,342L111,342ZM125,335L139,335L139,342L125,342ZM146,335L153,335L153,342L146,342ZM167,335L174,335L174,342L167,342ZM216,335L223,335L223,342L216,342ZM237,335L244,335L244,342L237,342ZM265,335L272,335L272,342L265,342ZM286,335L293,335L293,342L286,342ZM300,335L321,335L321,342L300,342ZM328,335L384,335L384,342L328,342ZM398,335L405,335L405,342L398,342ZM412,335L419,335L419,342L412,342ZM20,342L27,342L27,349L20,349ZM34,342L41,342L41,349L34,349ZM55,342L69,342L69,349L55,349ZM76,342L97,342L97,349L76,349ZM125,342L146,342L146,349L125,349ZM153,342L167,342L167,349L153,349ZM181,342L195,342L195,349L181,349ZM209,342L237,342L237,349L209,349ZM251,342L258,342L258,349L251,349ZM265,342L286,342L286,349L265,349ZM293,342L300,342L300,349L293,349ZM314,342L328,342L328,349L314,349ZM335,342L349,342L349,349L335,349ZM356,342L363,342L363,349L356,349ZM370,342L377,342L377,349L370,349ZM384,342L398,342L398,349L384,349ZM20,349L55,349L55,356L20,356ZM69,349L76,349L76,356L69,356ZM97,349L104,349L104,356L97,356ZM118,349L139,349L139,356L118,356ZM146,349L202,349L202,356L146,356ZM209,349L237,349L237,356L209,356ZM279,349L293,349L293,356L279,356ZM307,349L342,349L342,356L307,356ZM349,349L356,349L356,356L349,356ZM370,349L377,349L377,356L370,356ZM398,349L419,349L419,356L398,356ZM62,356L83,356L83,363L62,363ZM90,356L111,356L111,363L90,363ZM139,356L146,356L146,363L139,363ZM160,356L188,356L188,363L160,363ZM195,356L244,356L244,363L195,363ZM258,356L265,356L265,363L258,363ZM272,356L279,356L279,363L272,363ZM286,356L300,356L300,363L286,363ZM342,356L349,356L349,363L342,363ZM356,356L398,356L398,363L356,363ZM405,356L412,356L412,363L405,363ZM76,363L83,363L83,370L76,370ZM97,363L104,363L104,370L97,370ZM111,363L125,363L125,370L111,370ZM132,363L146,363L146,370L132,370ZM160,363L167,363L167,370L160,370ZM174,363L209,363L209,370L174,370ZM230,363L237,363L237,370L230,370ZM251,363L265,363L265,370L251,370ZM279,363L307,363L307,370L279,370ZM314,363L342,363L342,370L314,370ZM349,363L363,363L363,370L349,370ZM384,363L391,363L391,370L384,370ZM398,363L405,363L405,370L398,370ZM20,370L69,370L69,377L20,377ZM111,370L118,370L118,377L111,377ZM125,370L132,370L132,377L125,377ZM146,370L160,370L160,377L146,377ZM174,370L209,370L209,377L174,377ZM216,370L223,370L223,377L216,377ZM230,370L237,370L237,377L230,377ZM251,370L258,370L258,377L251,377ZM335,370L342,370L342,377L335,377ZM349,370L363,370L363,377L349,377ZM370,370L377,370L377,377L370,377ZM384,370L398,370L398,377L384,377ZM405,370L419,370L419,377L405,377ZM20,377L27,377L27,384L20,384ZM62,377L69,377L69,384L62,384ZM83,377L90,377L90,384L83,384ZM104,377L111,377L111,384L104,384ZM125,377L146,377L146,384L125,384ZM153,377L195,377L195,384L153,384ZM202,377L209,377L209,384L202,384ZM230,377L237,377L237,384L230,384ZM265,377L272,377L272,384L265,384ZM300,377L307,377L307,384L300,384ZM314,377L321,377L321,384L314,384ZM328,377L342,377L342,384L328,384ZM356,377L363,377L363,384L356,384ZM384,377L391,377L391,384L384,384ZM398,377L405,377L405,384L398,384ZM412,377L419,377L419,384L412,384ZM20,384L27,384L27,391L20,391ZM34,384L55,384L55,391L34,391ZM62,384L69,384L69,391L62,391ZM76,384L83,384L83,391L76,391ZM90,384L97,384L97,391L90,391ZM104,384L125,384L125,391L104,391ZM132,384L139,384L139,391L132,391ZM174,384L195,384L195,391L174,391ZM202,384L237,384L237,391L202,391ZM251,384L258,384L258,391L251,391ZM265,384L272,384L272,391L265,391ZM279,384L293,384L293,391L279,391ZM300,384L314,384L314,391L300,391ZM321,384L328,384L328,391L321,391ZM342,384L349,384L349,391L342,391ZM356,384L398,384L398,391L356,391ZM405,384L412,384L412,391L405,391ZM20,391L27,391L27,398L20,398ZM34,391L55,391L55,398L34,398ZM62,391L69,391L69,398L62,398ZM76,391L104,391L104,398L76,398ZM118,391L125,391L125,398L118,398ZM153,391L188,391L188,398L153,398ZM195,391L216,391L216,398L195,398ZM223,391L244,391L244,398L223,398ZM251,391L265,391L265,398L251,398ZM272,391L321,391L321,398L272,398ZM328,391L335,391L335,398L328,398ZM356,391L370,391L370,398L356,398ZM377,391L384,391L384,398L377,398ZM398,391L412,391L412,398L398,398ZM20,398L27,398L27,405L20,405ZM34,398L55,398L55,405L34,405ZM62,398L69,398L69,405L62,405ZM76,398L83,398L83,405L76,405ZM90,398L97,398L97,405L90,405ZM111,398L153,398L153,405L111,405ZM167,398L181,398L181,405L167,405ZM188,398L195,398L195,405L188,405ZM202,398L223,398L223,405L202,405ZM230,398L237,398L237,405L230,405ZM265,398L293,398L293,405L265,405ZM307,398L314,398L314,405L307,405ZM321,398L328,398L328,405L321,405ZM342,398L377,398L377,405L342,405ZM391,398L398,398L398,405L391,405ZM20,405L27,405L27,412L20,412ZM62,405L69,405L69,412L62,412ZM83,405L111,405L111,412L83,412ZM132,405L139,405L139,412L132,412ZM146,405L153,405L153,412L146,412ZM167,405L181,405L181,412L167,412ZM188,405L216,405L216,412L188,412ZM223,405L244,405L244,412L223,412ZM251,405L258,405L258,412L251,412ZM265,405L272,405L272,412L265,412ZM307,405L328,405L328,412L307,412ZM349,405L356,405L356,412L349,412ZM384,405L419,405L419,412L384,412ZM20,412L69,412L69,419L20,419ZM83,412L97,412L97,419L83,419ZM104,412L111,412L111,419L104,419ZM125,412L167,412L167,419L125,419ZM202,412L216,412L216,419L202,419ZM244,412L251,412L251,419L244,419ZM265,412L300,412L300,419L265,419ZM321,412L328,412L328,419L321,419ZM335,412L363,412L363,419L335,419ZM405,412L412,412L412,419L405,419Z"/></svg>
