<?xml version="1.0"?>
<svg xmlns="http://www.w3.org/2000/svg" xmlns:xlink="http://www.w3.org/1999/xlink" version="1.1" width="440px" height="440px" viewBox="0 0 440 440"><rect x="0" y="0" width="440" height="440" fill="#ffffff" fill-opacity="1"/><path fill="#000000" fill-opacity="1" d="M20,20L69,20L69,27L20,27ZM76,20L83,20L83,27L76,27ZM90,20L104,20L104,27L90,27ZM125,20L139,20L139,27L125,27ZM188,20L202,20L202,27L188,27ZM209,20L216,20L216,27L209,27ZM223,20L237,20L237,27L223,27ZM251,20L258,20L258,27L251,27ZM265,20L279,20L279,27L265,27ZM286,20L300,20L300,27L286,27ZM307,20L321,20L321,27L307,27ZM335,20L356,20L356,27L335,27ZM370,20L419,20L419,27L370,27ZM20,27L27,27L27,34L20,34ZM62,27L69,27L69,34L62,34ZM76,27L97,27L97,34L76,34ZM111,27L118,27L118,34L111,34ZM146,27L181,27L181,34L146,34ZM188,27L195,27L195,34L188,34ZM202,27L209,27L209,34L202,34ZM216,27L230,27L230,34L216,34ZM244,27L251,27L251,34L244,34ZM258,27L265,27L265,34L258,34ZM272,27L279,27L279,34L272,34ZM293,27L307,27L307,34L293,34ZM321,27L328,27L328,34L321,34ZM349,27L356,27L356,34L349,34ZM370,27L377,27L377,34L370,34ZM412,27L419,27L419,34L412,34ZM20,34L27,34L27,41L20,41ZM34,34L55,34L55,41L34,41ZM62,34L69,34L69,41L62,41ZM83,34L90,34L90,41L83,41ZM97,34L125,34L125,41L97,41ZM160,34L167,34L167,41L160,41ZM181,34L195,34L195,41L181,41ZM223,34L230,34L230,41L223,41ZM265,34L279,34L279,41L265,41ZM300,34L307,34L307,41L300,41ZM314,34L335,34L335,41L314,41ZM342,34L356,34L356,41L342,41ZM370,34L377,34L377,41L370,41ZM384,34L405,34L405,41L384,41ZM412,34L419,34L419,41L412,41ZM20,41L27,41L27,48L20,48ZM34,41L55,41L55,48L34,48ZM62,41L69,41L69,48L62,48ZM76,41L83,41L83,48L76,48ZM118,41L125,41L125,48L118,48ZM146,41L160,41L160,48L146,48ZM167,41L174,41L174,48L167,48ZM195,41L209,41L209,48L195,48ZM216,41L223,41L223,48L216,48ZM230,41L237,41L237,48L230,48ZM244,41L251,41L251,48L244,48ZM258,41L279,41L279,48L258,48ZM286,41L293,41L293,48L286,48ZM307,41L321,41L321,48L307,48ZM328,41L342,41L342,48L328,48ZM349,41L356,41L356,48L349,48ZM370,41L377,41L377,48L370,48ZM384,41L405,41L405,48L384,48ZM412,41L419,41L419,48L412,48ZM20,48L27,48L27,55L20,55ZM34,48L55,48L55,55L34,55ZM62,48L69,48L69,55L62,55ZM76,48L90,48L90,55L76,55ZM118,48L125,48L125,55L118,55ZM132,48L139,48L139,55L132,55ZM153,48L174,48L174,55L153,55ZM188,48L195,48L195,55L188,55ZM202,48L244,48L244,55L202,55ZM251,48L258,48L258,55L251,55ZM286,48L307,48L307,55L286,55ZM321,48L328,48L328,55L321,55ZM335,48L342,48L342,55L335,55ZM349,48L356,48L356,55L349,55ZM370,48L377,48L377,55L370,55ZM384,48L405,48L405,55L384,55ZM412,48L419,48L419,55L412,55ZM20,55L27,55L27,62L20,62ZM62,55L69,55L69,62L62,62ZM76,55L83,55L83,62L76,62ZM90,55L97,55L97,62L90,62ZM104,55L111,55L111,62L104,62ZM146,55L160,55L160,62L146,62ZM167,55L195,55L195,62L167,62ZM202,55L209,55L209,62L202,62ZM230,55L237,55L237,62L230,62ZM251,55L258,55L258,62L251,62ZM265,55L279,55L279,62L265,62ZM286,55L300,55L300,62L286,62ZM307,55L314,55L314,62L307,62ZM321,55L349,55L349,62L321,62ZM370,55L377,55L377,62L370,62ZM412,55L419,55L419,62L412,62ZM20,62L69,62L69,69L20,69ZM76,62L83,62L83,69L76,69ZM90,62L97,62L97,69L90,69ZM104,62L111,62L111,69L104,69ZM118,62L125,62L125,69L118,69ZM132,62L139,62L139,69L132,69ZM146,62L153,62L153,69L146,69ZM160,62L167,62L167,69L160,69ZM174,62L181,62L181,69L174,69ZM188,62L195,62L195,69L188,69ZM202,62L209,62L209,69L202,69ZM216,62L223,62L223,69L216,69ZM230,62L237,62L237,69L230,69ZM244,62L251,62L251,69L244,69ZM258,62L265,62L265,69L258,69ZM272,62L279,62L279,69L272,69ZM286,62L293,62L293,69L286,69ZM300,62L307,62L307,69L300,69ZM314,62L321,62L321,69L314,69ZM328,62L335,62L335,69L328,69ZM342,62L349,62L349,69L342,69ZM356,62L363,62L363,69L356,69ZM370,62L419,62L419,69L370,69ZM90,69L97,69L97,76L90,76ZM104,69L118,69L118,76L104,76ZM125,69L160,69L160,76L125,76ZM167,69L174,69L174,76L167,76ZM181,69L188,69L188,76L181,76ZM195,69L209,69L209,76L195,76ZM230,69L237,69L237,76L230,76ZM251,69L314,69L314,76L251,76ZM321,69L328,69L328,76L321,76ZM335,69L356,69L356,76L335,76ZM41,76L48,76L48,83L41,83ZM62,76L69,76L69,83L62,83ZM90,76L104,76L104,83L90,83ZM125,76L132,76L132,83L125,83ZM167,76L174,76L174,83L167,83ZM181,76L188,76L188,83L181,83ZM195,76L244,76L244,83L195,83ZM251,76L258,76L258,83L251,83ZM272,76L279,76L279,83L272,83ZM286,76L307,76L307,83L286,83ZM335,76L342,76L342,83L335,83ZM349,76L356,76L356,83L349,83ZM377,76L398,76L398,83L377,83ZM405,76L419,76L419,83L405,83ZM20,83L55,83L55,90L20,90ZM76,83L83,83L83,90L76,90ZM125,83L132,83L132,90L125,90ZM139,83L146,83L146,90L139,90ZM153,83L167,83L167,90L153,90ZM174,83L181,83L181,90L174,90ZM188,83L202,83L202,90L188,90ZM209,83L237,83L237,90L209,90ZM244,83L251,83L251,90L244,90ZM286,83L314,83L314,90L286,90ZM321,83L335,83L335,90L321,90ZM384,83L398,83L398,90L384,90ZM405,83L412,83L412,90L405,90ZM20,90L27,90L27,97L20,97ZM62,90L90,90L90,97L62,97ZM97,90L104,90L104,97L97,97ZM111,90L132,90L132,97L111,97ZM146,90L153,90L153,97L146,97ZM160,90L167,90L167,97L160,97ZM188,90L209,90L209,97L188,97ZM216,90L223,90L223,97L216,97ZM230,90L265,90L265,97L230,97ZM272,90L300,90L300,97L272,97ZM307,90L321,90L321,97L307,97ZM328,90L356,90L356,97L328,97ZM363,90L384,90L384,97L363,97ZM391,90L398,90L398,97L391,97ZM412,90L419,90L419,97L412,97ZM20,97L41,97L41,104L20,104ZM55,97L62,97L62,104L55,104ZM69,97L76,97L76,104L69,104ZM83,97L90,97L90,104L83,104ZM97,97L146,97L146,104L97,104ZM174,97L188,97L188,104L174,104ZM209,97L216,97L216,104L209,104ZM244,97L258,97L258,104L244,104ZM286,97L293,97L293,104L286,104ZM300,97L307,97L307,104L300,104ZM321,97L335,97L335,104L321,104ZM370,97L384,97L384,104L370,104ZM398,97L405,97L405,104L398,104ZM20,104L27,104L27,111L20,111ZM34,104L48,104L48,111L34,111ZM55,104L76,104L76,111L55,111ZM90,104L97,104L97,111L90,111ZM111,104L118,104L118,111L111,111ZM125,104L139,104L139,111L125,111ZM167,104L174,104L174,111L167,111ZM181,104L188,104L188,111L181,111ZM202,104L230,104L230,111L202,111ZM237,104L258,104L258,111L237,111ZM293,104L300,104L300,111L293,111ZM307,104L314,104L314,111L307,111ZM335,104L342,104L342,111L335,111ZM349,104L363,104L363,111L349,111ZM391,104L419,104L419,111L391,111ZM34,111L62,111L62,118L34,118ZM69,111L90,111L90,118L69,118ZM97,111L104,111L104,118L97,118ZM118,111L125,111L125,118L118,118ZM139,111L146,111L146,118L139,118ZM153,111L160,111L160,118L153,118ZM202,111L209,111L209,118L202,118ZM216,111L223,111L223,118L216,118ZM230,111L251,111L251,118L230,118ZM258,111L272,111L272,118L258,118ZM293,111L300,111L300,118L293,118ZM321,111L349,111L349,118L321,118ZM363,111L384,111L384,118L363,118ZM405,111L412,111L412,118L405,118ZM41,118L55,118L55,125L41,125ZM62,118L69,118L69,125L62,125ZM76,118L90,118L90,125L76,125ZM97,118L104,118L104,125L97,125ZM111,118L132,118L132,125L111,125ZM153,118L188,118L188,125L153,125ZM202,118L209,118L209,125L202,125ZM216,118L223,118L223,125L216,125ZM237,118L244,118L244,125L237,125ZM251,118L258,118L258,125L251,125ZM265,118L272,118L272,125L265,125ZM279,118L286,118L286,125L279,125ZM300,118L321,118L321,125L300,125ZM342,118L356,118L356,125L342,125ZM370,118L398,118L398,125L370,125ZM412,118L419,118L419,125L412,125ZM76,125L83,125L83,132L76,132ZM97,125L111,125L111,132L97,132ZM132,125L160,125L160,132L132,132ZM174,125L188,125L188,132L174,132ZM202,125L223,125L223,132L202,132ZM230,125L237,125L237,132L230,132ZM251,125L258,125L258,132L251,132ZM265,125L272,125L272,132L265,132ZM300,125L314,125L314,132L300,132ZM321,125L328,125L328,132L321,132ZM377,125L384,125L384,132L377,132ZM412,125L419,125L419,132L412,132ZM20,132L41,132L41,139L20,139ZM55,132L69,132L69,139L55,139ZM90,132L132,132L132,139L90,139ZM139,132L160,132L160,139L139,139ZM195,132L216,132L216,139L195,139ZM223,132L230,132L230,139L223,139ZM265,132L272,132L272,139L265,139ZM293,132L314,132L314,139L293,139ZM321,132L328,132L328,139L321,139ZM342,132L370,132L370,139L342,139ZM384,132L405,132L405,139L384,139ZM412,132L419,132L419,139L412,139ZM20,139L27,139L27,146L20,146ZM48,139L55,139L55,146L48,146ZM69,139L83,139L83,146L69,146ZM90,139L97,139L97,146L90,146ZM111,139L118,139L118,146L111,146ZM125,139L146,139L146,146L125,146ZM167,139L174,139L174,146L167,146ZM209,139L216,139L216,146L209,146ZM230,139L251,139L251,146L230,146ZM258,139L314,139L314,146L258,146ZM342,139L363,139L363,146L342,146ZM370,139L377,139L377,146L370,146ZM384,139L391,139L391,146L384,146ZM405,139L419,139L419,146L405,146ZM20,146L34,146L34,153L20,153ZM41,146L83,146L83,153L41,153ZM97,146L104,146L104,153L97,153ZM111,146L146,146L146,153L111,153ZM160,146L181,146L181,153L160,153ZM188,146L195,146L195,153L188,153ZM202,146L209,146L209,153L202,153ZM216,146L223,146L223,153L216,153ZM237,146L244,146L244,153L237,153ZM265,146L279,146L279,153L265,153ZM286,146L293,146L293,153L286,153ZM300,146L314,146L314,153L300,153ZM328,146L356,146L356,153L328,153ZM363,146L377,146L377,153L363,153ZM384,146L398,146L398,153L384,153ZM20,153L27,153L27,160L20,160ZM41,153L48,153L48,160L41,160ZM55,153L62,153L62,160L55,160ZM76,153L83,153L83,160L76,160ZM90,153L104,153L104,160L90,160ZM118,153L125,153L125,160L118,160ZM139,153L153,153L153,160L139,160ZM181,153L195,153L195,160L181,160ZM202,153L216,153L216,160L202,160ZM244,153L265,153L265,160L244,160ZM272,153L279,153L279,160L272,160ZM307,153L314,153L314,160L307,160ZM321,153L328,153L328,160L321,160ZM342,153L356,153L356,160L342,160ZM384,153L391,153L391,160L384,160ZM412,153L419,153L419,160L412,160ZM27,160L55,160L55,167L27,167ZM62,160L90,160L90,167L62,167ZM97,160L104,160L104,167L97,167ZM111,160L125,160L125,167L111,167ZM146,160L160,160L160,167L146,167ZM167,160L174,160L174,167L167,167ZM188,160L195,160L195,167L188,167ZM209,160L216,160L216,167L209,167ZM230,160L237,160L237,167L230,167ZM244,160L251,160L251,167L244,167ZM265,160L272,160L272,167L265,167ZM279,160L293,160L293,167L279,167ZM300,160L307,160L307,167L300,167ZM335,160L342,160L342,167L335,167ZM363,160L377,160L377,167L363,167ZM391,160L412,160L412,167L391,167ZM34,167L41,167L41,174L34,174ZM69,167L90,167L90,174L69,174ZM111,167L125,167L125,174L111,174ZM139,167L153,167L153,174L139,174ZM160,167L181,167L181,174L160,174ZM195,167L202,167L202,174L195,174ZM209,167L223,167L223,174L209,174ZM244,167L265,167L265,174L244,174ZM272,167L307,167L307,174L272,174ZM321,167L335,167L335,174L321,174ZM356,167L370,167L370,174L356,174ZM384,167L398,167L398,174L384,174ZM405,167L412,167L412,174L405,174ZM27,174L34,174L34,181L27,181ZM55,174L76,174L76,181L55,181ZM90,174L97,174L97,181L90,181ZM104,174L132,174L132,181L104,181ZM153,174L181,174L181,181L153,181ZM188,174L209,174L209,181L188,181ZM216,174L223,174L223,181L216,181ZM230,174L244,174L244,181L230,181ZM279,174L300,174L300,181L279,181ZM307,174L314,174L314,181L307,181ZM328,174L335,174L335,181L328,181ZM342,174L349,174L349,181L342,181ZM391,174L398,174L398,181L391,181ZM412,174L419,174L419,181L412,181ZM20,181L55,181L55,188L20,188ZM76,181L97,181L97,188L76,188ZM104,181L125,181L125,188L104,188ZM132,181L167,181L167,188L132,188ZM174,181L181,181L181,188L174,188ZM188,181L195,181L195,188L188,188ZM216,181L237,181L237,188L216,188ZM244,181L258,181L258,188L244,188ZM286,181L293,181L293,188L286,188ZM321,181L342,181L342,188L321,188ZM363,181L377,181L377,188L363,188ZM384,181L391,181L391,188L384,188ZM405,181L412,181L412,188L405,188ZM62,188L90,188L90,195L62,195ZM118,188L139,188L139,195L118,195ZM146,188L153,188L153,195L146,195ZM160,188L167,188L167,195L160,195ZM174,188L195,188L195,195L174,195ZM209,188L216,188L216,195L209,195ZM223,188L244,188L244,195L223,195ZM251,188L265,188L265,195L251,195ZM272,188L279,188L279,195L272,195ZM300,188L307,188L307,195L300,195ZM314,188L342,188L342,195L314,195ZM349,188L370,188L370,195L349,195ZM384,188L391,188L391,195L384,195ZM27,195L34,195L34,202L27,202ZM48,195L55,195L55,202L48,202ZM69,195L76,195L76,202L69,202ZM90,195L97,195L97,202L90,202ZM125,195L132,195L132,202L125,202ZM146,195L153,195L153,202L146,202ZM160,195L167,195L167,202L160,202ZM195,195L209,195L209,202L195,202ZM223,195L230,195L230,202L223,202ZM258,195L265,195L265,202L258,202ZM300,195L314,195L314,202L300,202ZM321,195L335,195L335,202L321,202ZM342,195L356,195L356,202L342,202ZM363,195L370,195L370,202L363,202ZM391,195L398,195L398,202L391,202ZM20,202L41,202L41,209L20,209ZM48,202L90,202L90,209L48,209ZM111,202L153,202L153,209L111,209ZM160,202L174,202L174,209L160,209ZM181,202L188,202L188,209L181,209ZM202,202L258,202L258,209L202,209ZM265,202L286,202L286,209L265,209ZM300,202L321,202L321,209L300,209ZM349,202L412,202L412,209L349,209ZM20,209L27,209L27,216L20,216ZM48,209L55,209L55,216L48,216ZM76,209L83,209L83,216L76,216ZM90,209L97,209L97,216L90,216ZM111,209L125,209L125,216L111,216ZM146,209L160,209L160,216L146,216ZM181,209L188,209L188,216L181,216ZM195,209L209,209L209,216L195,216ZM230,209L244,209L244,216L230,216ZM251,209L258,209L258,216L251,216ZM265,209L286,209L286,216L265,216ZM293,209L307,209L307,216L293,216ZM321,209L342,209L342,216L321,216ZM356,209L363,209L363,216L356,216ZM384,209L398,209L398,216L384,216ZM412,209L419,209L419,216L412,216ZM27,216L34,216L34,223L27,223ZM41,216L55,216L55,223L41,223ZM62,216L69,216L69,223L62,223ZM76,216L83,216L83,223L76,223ZM104,216L111,216L111,223L104,223ZM132,216L160,216L160,223L132,223ZM167,216L195,216L195,223L167,223ZM202,216L209,216L209,223L202,223ZM216,216L223,216L223,223L216,223ZM230,216L258,216L258,223L230,223ZM265,216L272,216L272,223L265,223ZM293,216L300,216L300,223L293,223ZM321,216L363,216L363,223L321,223ZM370,216L377,216L377,223L370,223ZM384,216L391,216L391,223L384,223ZM398,216L419,216L419,223L398,223ZM20,223L27,223L27,230L20,230ZM41,223L55,223L55,230L41,230ZM76,223L90,223L90,230L76,230ZM97,223L104,223L104,230L97,230ZM111,223L139,223L139,230L111,230ZM146,223L153,223L153,230L146,230ZM160,223L174,223L174,230L160,230ZM181,223L188,223L188,230L181,230ZM195,223L209,223L209,230L195,230ZM230,223L237,223L237,230L230,230ZM244,223L251,223L251,230L244,230ZM265,223L272,223L272,230L265,230ZM279,223L293,223L293,230L279,230ZM300,223L321,223L321,230L300,230ZM335,223L342,223L342,230L335,230ZM356,223L363,223L363,230L356,230ZM384,223L398,223L398,230L384,230ZM405,223L412,223L412,230L405,230ZM20,230L27,230L27,237L20,237ZM41,230L83,230L83,237L41,237ZM90,230L97,230L97,237L90,237ZM111,230L132,230L132,237L111,237ZM139,230L153,230L153,237L139,237ZM174,230L244,230L244,237L174,237ZM251,230L258,230L258,237L251,237ZM272,230L279,230L279,237L272,237ZM300,230L307,230L307,237L300,237ZM314,230L349,230L349,237L314,237ZM356,230L391,230L391,237L356,237ZM412,230L419,230L419,237L412,237ZM34,237L55,237L55,244L34,244ZM76,237L90,237L90,244L76,244ZM97,237L132,237L132,244L97,244ZM139,237L146,237L146,244L139,244ZM188,237L216,237L216,244L188,244ZM237,237L244,237L244,244L237,244ZM300,237L307,237L307,244L300,244ZM328,237L391,237L391,244L328,244ZM398,237L419,237L419,244L398,244ZM20,244L55,244L55,251L20,251ZM62,244L76,244L76,251L62,251ZM83,244L90,244L90,251L83,251ZM97,244L104,244L104,251L97,251ZM111,244L125,244L125,251L111,251ZM174,244L181,244L181,251L174,251ZM195,244L202,244L202,251L195,251ZM209,244L223,244L223,251L209,251ZM251,244L265,244L265,251L251,251ZM279,244L314,244L314,251L279,251ZM335,244L342,244L342,251L335,251ZM349,244L356,244L356,251L349,251ZM363,244L370,244L370,251L363,251ZM384,244L391,244L391,251L384,251ZM20,251L34,251L34,258L20,258ZM41,251L55,251L55,258L41,258ZM69,251L76,251L76,258L69,258ZM97,251L104,251L104,258L97,258ZM111,251L118,251L118,258L111,258ZM125,251L132,251L132,258L125,258ZM160,251L167,251L167,258L160,258ZM181,251L188,251L188,258L181,258ZM202,251L209,251L209,258L202,258ZM216,251L223,251L223,258L216,258ZM230,251L251,251L251,258L230,258ZM272,251L279,251L279,258L272,258ZM293,251L307,251L307,258L293,258ZM314,251L321,251L321,258L314,258ZM328,251L349,251L349,258L328,258ZM356,251L377,251L377,258L356,258ZM20,258L48,258L48,265L20,265ZM62,258L69,258L69,265L62,265ZM90,258L125,258L125,265L90,265ZM139,258L153,258L153,265L139,265ZM181,258L188,258L188,265L181,265ZM195,258L202,258L202,265L195,265ZM223,258L237,258L237,265L223,265ZM258,258L272,258L272,265L258,265ZM279,258L300,258L300,265L279,265ZM328,258L342,258L342,265L328,265ZM356,258L391,258L391,265L356,265ZM412,258L419,258L419,265L412,265ZM20,265L34,265L34,272L20,272ZM55,265L62,265L62,272L55,272ZM69,265L104,265L104,272L69,272ZM125,265L132,265L132,272L125,272ZM139,265L160,265L160,272L139,272ZM181,265L188,265L188,272L181,272ZM202,265L209,265L209,272L202,272ZM223,265L230,265L230,272L223,272ZM237,265L244,265L244,272L237,272ZM258,265L265,265L265,272L258,272ZM272,265L293,265L293,272L272,272ZM300,265L314,265L314,272L300,272ZM363,265L370,265L370,272L363,272ZM377,265L384,265L384,272L377,272ZM391,265L412,265L412,272L391,272ZM48,272L76,272L76,279L48,279ZM83,272L104,272L104,279L83,279ZM118,272L125,272L125,279L118,279ZM132,272L146,272L146,279L132,279ZM160,272L167,272L167,279L160,279ZM174,272L181,272L181,279L174,279ZM195,272L223,272L223,279L195,279ZM244,272L265,272L265,279L244,279ZM279,272L286,272L286,279L279,279ZM300,272L307,272L307,279L300,279ZM321,272L328,272L328,279L321,279ZM349,272L356,272L356,279L349,279ZM370,272L384,272L384,279L370,279ZM391,272L419,272L419,279L391,279ZM20,279L34,279L34,286L20,286ZM41,279L62,279L62,286L41,286ZM76,279L83,279L83,286L76,286ZM90,279L104,279L104,286L90,286ZM111,279L118,279L118,286L111,286ZM125,279L139,279L139,286L125,286ZM146,279L153,279L153,286L146,286ZM167,279L174,279L174,286L167,286ZM181,279L195,279L195,286L181,286ZM244,279L251,279L251,286L244,286ZM265,279L272,279L272,286L265,286ZM279,279L286,279L286,286L279,286ZM328,279L349,279L349,286L328,286ZM363,279L384,279L384,286L363,286ZM405,279L412,279L412,286L405,286ZM48,286L76,286L76,293L48,293ZM83,286L97,286L97,293L83,293ZM104,286L111,286L111,293L104,293ZM118,286L153,286L153,293L118,293ZM160,286L167,286L167,293L160,293ZM174,286L209,286L209,293L174,293ZM230,286L237,286L237,293L230,293ZM251,286L272,286L272,293L251,293ZM279,286L286,286L286,293L279,293ZM300,286L314,286L314,293L300,293ZM349,286L370,286L370,293L349,293ZM391,286L398,286L398,293L391,293ZM20,293L27,293L27,300L20,300ZM69,293L83,293L83,300L69,300ZM90,293L97,293L97,300L90,300ZM132,293L146,293L146,300L132,300ZM153,293L174,293L174,300L153,300ZM188,293L223,293L223,300L188,300ZM230,293L237,293L237,300L230,300ZM258,293L265,293L265,300L258,300ZM279,293L286,293L286,300L279,300ZM335,293L342,293L342,300L335,300ZM370,293L377,293L377,300L370,300ZM398,293L419,293L419,300L398,300ZM20,300L27,300L27,307L20,307ZM41,300L48,300L48,307L41,307ZM62,300L97,300L97,307L62,307ZM104,300L111,300L111,307L104,307ZM125,300L132,300L132,307L125,307ZM146,300L160,300L160,307L146,307ZM174,300L188,300L188,307L174,307ZM195,300L223,300L223,307L195,307ZM244,300L251,300L251,307L244,307ZM265,300L272,300L272,307L265,307ZM286,300L293,300L293,307L286,307ZM321,300L349,300L349,307L321,307ZM356,300L363,300L363,307L356,307ZM370,300L384,300L384,307L370,307ZM391,300L398,300L398,307L391,307ZM412,300L419,300L419,307L412,307ZM20,307L27,307L27,314L20,314ZM41,307L48,307L48,314L41,314ZM55,307L62,307L62,314L55,314ZM76,307L83,307L83,314L76,314ZM125,307L146,307L146,314L125,314ZM153,307L160,307L160,314L153,314ZM167,307L174,307L174,314L167,314ZM181,307L188,307L188,314L181,314ZM195,307L202,307L202,314L195,314ZM209,307L216,307L216,314L209,314ZM223,307L237,307L237,314L223,314ZM258,307L272,307L272,314L258,314ZM279,307L307,307L307,314L279,314ZM349,307L363,307L363,314L349,314ZM391,307L398,307L398,314L391,314ZM27,314L34,314L34,321L27,321ZM41,314L48,314L48,321L41,321ZM55,314L69,314L69,321L55,321ZM132,314L139,314L139,321L132,321ZM181,314L188,314L188,321L181,321ZM202,314L216,314L216,321L202,321ZM230,314L244,314L244,321L230,321ZM265,314L272,314L272,321L265,321ZM279,314L321,314L321,321L279,321ZM328,314L342,314L342,321L328,321ZM356,314L377,314L377,321L356,321ZM405,314L412,314L412,321L405,321ZM34,321L62,321L62,328L34,328ZM69,321L83,321L83,328L69,328ZM111,321L125,321L125,328L111,328ZM132,321L139,321L139,328L132,328ZM160,321L174,321L174,328L160,328ZM181,321L188,321L188,328L181,328ZM202,321L209,321L209,328L202,328ZM223,321L230,321L230,328L223,328ZM237,321L258,321L258,328L237,328ZM279,321L286,321L286,328L279,328ZM300,321L314,321L314,328L300,328ZM321,321L349,321L349,328L321,328ZM356,321L363,321L363,328L356,328ZM384,321L398,321L398,328L384,328ZM405,321L419,321L419,328L405,328ZM41,328L69,328L69,335L41,335ZM83,328L97,328L97,335L83,335ZM104,328L111,328L111,335L104,335ZM118,328L125,328L125,335L118,335ZM132,328L139,328L139,335L132,335ZM146,328L153,328L153,335L146,335ZM195,328L202,328L202,335L195,335ZM209,328L223,328L223,335L209,335ZM237,328L251,328L251,335L237,335ZM265,328L279,328L279,335L265,335ZM286,328L293,328L293,335L286,335ZM335,328L342,328L342,335L335,335ZM349,328L363,328L363,335L349,335ZM377,328L384,328L384,335L377,335ZM398,328L405,328L405,335L398,335ZM20,335L27,335L27,342L20,342ZM34,335L41,335L41,342L34,342ZM76,335L90,335L90,342L76,342ZM111,335L118,335L118,342L111,342ZM125,335L139,335L139,342L125,342ZM160,335L167,335L167,342L160,342ZM174,335L181,335L181,342L174,342ZM188,335L202,335L202,342L188,342ZM209,335L223,335L223,342L209,342ZM251,335L258,335L258,342L251,342ZM272,335L286,335L286,342L272,342ZM300,335L314,335L314,342L300,342ZM328,335L349,335L349,342L328,342ZM356,335L384,335L384,342L356,342ZM391,335L398,335L398,342L391,342ZM20,342L27,342L27,349L20,349ZM34,342L41,342L41,349L34,349ZM55,342L83,342L83,349L55,349ZM90,342L118,342L118,349L90,349ZM125,342L139,342L139,349L125,349ZM146,342L160,342L160,349L146,349ZM174,342L181,342L181,349L174,349ZM188,342L223,342L223,349L188,349ZM230,342L237,342L237,349L230,349ZM244,342L251,342L251,349L244,349ZM265,342L272,342L272,349L265,349ZM286,342L300,342L300,349L286,349ZM307,342L335,342L335,349L307,349ZM342,342L349,342L349,349L342,349ZM377,342L398,342L398,349L377,349ZM405,342L419,342L419,349L405,349ZM20,349L55,349L55,356L20,356ZM69,349L90,349L90,356L69,356ZM111,349L139,349L139,356L111,356ZM160,349L195,349L195,356L160,356ZM202,349L209,349L209,356L202,356ZM223,349L230,349L230,356L223,356ZM265,349L272,349L272,356L265,356ZM328,349L335,349L335,356L328,356ZM405,349L412,349L412,356L405,356ZM62,356L97,356L97,363L62,363ZM118,356L146,356L146,363L118,363ZM167,356L188,356L188,363L167,363ZM195,356L237,356L237,363L195,363ZM258,356L265,356L265,363L258,363ZM272,356L279,356L279,363L272,363ZM300,356L314,356L314,363L300,363ZM328,356L335,356L335,363L328,363ZM356,356L419,356L419,363L356,363ZM76,363L83,363L83,370L76,370ZM90,363L111,363L111,370L90,370ZM139,363L146,363L146,370L139,370ZM181,363L195,363L195,370L181,370ZM202,363L209,363L209,370L202,370ZM230,363L237,363L237,370L230,370ZM258,363L265,363L265,370L258,370ZM279,363L300,363L300,370L279,370ZM307,363L314,363L314,370L307,370ZM321,363L363,363L363,370L321,370ZM384,363L398,363L398,370L384,370ZM20,370L69,370L69,377L20,377ZM83,370L97,370L97,377L83,377ZM111,370L125,370L125,377L111,377ZM132,370L146,370L146,377L132,377ZM167,370L174,370L174,377L167,377ZM181,370L195,370L195,377L181,377ZM202,370L209,370L209,377L202,377ZM216,370L223,370L223,377L216,377ZM230,370L237,370L237,377L230,377ZM251,370L258,370L258,377L251,377ZM272,370L279,370L279,377L272,377ZM293,370L314,370L314,377L293,377ZM335,370L349,370L349,377L335,377ZM356,370L363,370L363,377L356,377ZM370,370L377,370L377,377L370,377ZM384,370L391,370L391,377L384,377ZM405,370L419,370L419,377L405,377ZM20,377L27,377L27,384L20,384ZM62,377L69,377L69,384L62,384ZM83,377L111,377L111,384L83,384ZM118,377L125,377L125,384L118,384ZM146,377L167,377L167,384L146,384ZM181,377L188,377L188,384L181,384ZM202,377L209,377L209,384L202,384ZM230,377L244,377L244,384L230,384ZM251,377L279,377L279,384L251,384ZM300,377L307,377L307,384L300,384ZM328,377L335,377L335,384L328,384ZM356,377L363,377L363,384L356,384ZM384,377L391,377L391,384L384,384ZM405,377L419,377L419,384L405,384ZM20,384L27,384L27,391L20,391ZM34,384L55,384L55,391L34,391ZM62,384L69,384L69,391L62,391ZM90,384L97,384L97,391L90,391ZM104,384L118,384L118,391L104,391ZM125,384L132,384L132,391L125,391ZM174,384L181,384L181,391L174,391ZM188,384L195,384L195,391L188,391ZM202,384L237,384L237,391L202,391ZM244,384L258,384L258,391L244,391ZM293,384L307,384L307,391L293,391ZM321,384L335,384L335,391L321,391ZM342,384L349,384L349,391L342,391ZM356,384L391,384L391,391L356,391ZM412,384L419,384L419,391L412,391ZM20,391L27,391L27,398L20,398ZM34,391L55,391L55,398L34,398ZM62,391L69,391L69,398L62,398ZM76,391L97,391L97,398L76,398ZM111,391L153,391L153,398L111,398ZM181,391L188,391L188,398L181,398ZM195,391L202,391L202,398L195,398ZM216,391L230,391L230,398L216,398ZM251,391L258,391L258,398L251,398ZM272,391L286,391L286,398L272,398ZM293,391L314,391L314,398L293,398ZM321,391L328,391L328,398L321,398ZM356,391L363,391L363,398L356,398ZM370,391L384,391L384,398L370,398ZM391,391L398,391L398,398L391,398ZM412,391L419,391L419,398L412,398ZM20,398L27,398L27,405L20,405ZM34,398L55,398L55,405L34,405ZM62,398L69,398L69,405L62,405ZM83,398L90,398L90,405L83,405ZM111,398L118,398L118,405L111,405ZM125,398L146,398L146,405L125,405ZM153,398L202,398L202,405L153,405ZM209,398L223,398L223,405L209,405ZM244,398L251,398L251,405L244,405ZM258,398L272,398L272,405L258,405ZM279,398L286,398L286,405L279,405ZM293,398L307,398L307,405L293,405ZM314,398L356,398L356,405L314,405ZM363,398L370,398L370,405L363,405ZM384,398L391,398L391,405L384,405ZM412,398L419,398L419,405L412,405ZM20,405L27,405L27,412L20,412ZM62,405L69,405L69,412L62,412ZM97,405L104,405L104,412L97,412ZM118,405L139,405L139,412L118,412ZM146,405L174,405L174,412L146,412ZM181,405L188,405L188,412L181,412ZM202,405L209,405L209,412L202,412ZM223,405L272,405L272,412L223,412ZM293,405L307,405L307,412L293,412ZM314,405L321,405L321,412L314,412ZM335,405L370,405L370,412L335,412ZM405,405L419,405L419,412L405,412ZM20,412L69,412L69,419L20,419ZM97,412L111,412L111,419L97,419ZM118,412L125,412L125,419L118,419ZM132,412L139,412L139,419L132,419ZM153,412L188,412L188,419L153,419ZM202,412L216,412L216,419L202,419ZM251,412L265,412L265,419L251,419ZM293,412L300,412L300,419L293,419ZM307,412L314,412L314,419L307,419ZM335,412L342,412L342,419L335,419ZM356,412L363,412L363,419L356,419ZM377,412L398,412L398,419L377,419ZM405,412L412,412L412,419L405,419Z"/></svg>
