<?xml version="1.0"?>
<svg xmlns="http://www.w3.org/2000/svg" xmlns:xlink="http://www.w3.org/1999/xlink" version="1.1" width="440px" height="440px" viewBox="0 0 440 440"><rect x="0" y="0" width="440" height="440" fill="#ffffff" fill-opacity="1"/><path fill="#000000" fill-opacity="1" d="M20,20L69,20L69,27L20,27ZM76,20L83,20L83,27L76,27ZM90,20L97,20L97,27L90,27ZM111,20L125,20L125,27L111,27ZM132,20L139,20L139,27L132,27ZM146,20L167,20L167,27L146,27ZM174,20L181,20L181,27L174,27ZM195,20L209,20L209,27L195,27ZM216,20L265,20L265,27L216,27ZM300,20L321,20L321,27L300,27ZM328,20L335,20L335,27L328,27ZM342,20L356,20L356,27L342,27ZM370,20L419,20L419,27L370,27ZM20,27L27,27L27,34L20,34ZM62,27L69,27L69,34L62,34ZM76,27L97,27L97,34L76,34ZM104,27L125,27L125,34L104,34ZM139,27L146,27L146,34L139,34ZM153,27L195,27L195,34L153,34ZM202,27L209,27L209,34L202,34ZM230,27L237,27L237,34L230,34ZM244,27L251,27L251,34L244,34ZM258,27L265,27L265,34L258,34ZM272,27L279,27L279,34L272,34ZM293,27L300,27L300,34L293,34ZM307,27L328,27L328,34L307,34ZM335,27L342,27L342,34L335,34ZM349,27L356,27L356,34L349,34ZM370,27L377,27L377,34L370,34ZM412,27L419,27L419,34L412,34ZM20,34L27,34L27,41L20,41ZM34,34L55,34L55,41L34,41ZM62,34L69,34L69,41L62,41ZM76,34L90,34L90,41L76,41ZM97,34L111,34L111,41L97,41ZM146,34L167,34L167,41L146,41ZM188,34L195,34L195,41L188,41ZM209,34L265,34L265,41L209,41ZM293,34L300,34L300,41L293,41ZM307,34L356,34L356,41L307,41ZM370,34L377,34L377,41L370,41ZM384,34L405,34L405,41L384,41ZM412,34L419,34L419,41L412,41ZM20,41L27,41L27,48L20,48ZM34,41L55,41L55,48L34,48ZM62,41L69,41L69,48L62,48ZM83,41L90,41L90,48L83,48ZM97,41L104,41L104,48L97,48ZM118,41L125,41L125,48L118,48ZM153,41L160,41L160,48L153,48ZM167,41L174,41L174,48L167,48ZM181,41L195,41L195,48L181,48ZM202,41L216,41L216,48L202,48ZM230,41L244,41L244,48L230,48ZM258,41L272,41L272,48L258,48ZM279,41L293,41L293,48L279,48ZM321,41L342,41L342,48L321,48ZM349,41L356,41L356,48L349,48ZM370,41L377,41L377,48L370,48ZM384,41L405,41L405,48L384,48ZM412,41L419,41L419,48L412,48ZM20,48L27,48L27,55L20,55ZM34,48L55,48L55,55L34,55ZM62,48L69,48L69,55L62,55ZM125,48L139,48L139,55L125,55ZM153,48L181,48L181,55L153,55ZM188,48L244,48L244,55L188,55ZM265,48L286,48L286,55L265,55ZM293,48L307,48L307,55L293,55ZM328,48L335,48L335,55L328,55ZM349,48L356,48L356,55L349,55ZM370,48L377,48L377,55L370,55ZM384,48L405,48L405,55L384,55ZM412,48L419,48L419,55L412,55ZM20,55L27,55L27,62L20,62ZM62,55L69,55L69,62L62,62ZM76,55L83,55L83,62L76,62ZM90,55L97,55L97,62L90,62ZM111,55L118,55L118,62L111,62ZM153,55L160,55L160,62L153,62ZM167,55L174,55L174,62L167,62ZM181,55L188,55L188,62L181,62ZM195,55L209,55L209,62L195,62ZM230,55L237,55L237,62L230,62ZM251,55L258,55L258,62L251,62ZM265,55L272,55L272,62L265,62ZM279,55L286,55L286,62L279,62ZM307,55L321,55L321,62L307,62ZM342,55L349,55L349,62L342,62ZM370,55L377,55L377,62L370,62ZM412,55L419,55L419,62L412,62ZM20,62L69,62L69,69L20,69ZM76,62L83,62L83,69L76,69ZM90,62L97,62L97,69L90,69ZM104,62L111,62L111,69L104,69ZM118,62L125,62L125,69L118,69ZM132,62L139,62L139,69L132,69ZM146,62L153,62L153,69L146,69ZM160,62L167,62L167,69L160,69ZM174,62L181,62L181,69L174,69ZM188,62L195,62L195,69L188,69ZM202,62L209,62L209,69L202,69ZM216,62L223,62L223,69L216,69ZM230,62L237,62L237,69L230,69ZM244,62L251,62L251,69L244,69ZM258,62L265,62L265,69L258,69ZM272,62L279,62L279,69L272,69ZM286,62L293,62L293,69L286,69ZM300,62L307,62L307,69L300,69ZM314,62L321,62L321,69L314,69ZM328,62L335,62L335,69L328,69ZM342,62L349,62L349,69L342,69ZM356,62L363,62L363,69L356,69ZM370,62L419,62L419,69L370,69ZM76,69L83,69L83,76L76,76ZM104,69L118,69L118,76L104,76ZM125,69L132,69L132,76L125,76ZM167,69L181,69L181,76L167,76ZM188,69L209,69L209,76L188,76ZM230,69L237,69L237,76L230,76ZM251,69L258,69L258,76L251,76ZM265,69L272,69L272,76L265,76ZM279,69L300,69L300,76L279,76ZM307,69L321,69L321,76L307,76ZM328,69L335,69L335,76L328,76ZM349,69L363,69L363,76L349,76ZM34,76L55,76L55,83L34,83ZM62,76L69,76L69,83L62,83ZM76,76L90,76L90,83L76,83ZM97,76L104,76L104,83L97,83ZM111,76L118,76L118,83L111,83ZM132,76L146,76L146,83L132,83ZM160,76L174,76L174,83L160,83ZM195,76L244,76L244,83L195,83ZM258,76L279,76L279,83L258,83ZM286,76L293,76L293,83L286,83ZM335,76L384,76L384,83L335,83ZM398,76L419,76L419,83L398,83ZM27,83L34,83L34,90L27,90ZM41,83L48,83L48,90L41,90ZM97,83L111,83L111,90L97,90ZM125,83L132,83L132,90L125,90ZM146,83L160,83L160,90L146,90ZM167,83L188,83L188,90L167,90ZM195,83L202,83L202,90L195,90ZM230,83L251,83L251,90L230,90ZM265,83L342,83L342,90L265,90ZM356,83L370,83L370,90L356,90ZM384,83L391,83L391,90L384,90ZM398,83L405,83L405,90L398,90ZM27,90L34,90L34,97L27,97ZM48,90L69,90L69,97L48,97ZM76,90L83,90L83,97L76,97ZM97,90L111,90L111,97L97,97ZM146,90L153,90L153,97L146,97ZM160,90L167,90L167,97L160,97ZM188,90L195,90L195,97L188,97ZM202,90L216,90L216,97L202,97ZM223,90L237,90L237,97L223,97ZM258,90L265,90L265,97L258,97ZM349,90L356,90L356,97L349,97ZM391,90L398,90L398,97L391,97ZM405,90L412,90L412,97L405,97ZM27,97L34,97L34,104L27,104ZM41,97L62,97L62,104L41,104ZM69,97L90,97L90,104L69,104ZM104,97L111,97L111,104L104,104ZM118,97L153,97L153,104L118,104ZM167,97L174,97L174,104L167,104ZM181,97L195,97L195,104L181,104ZM202,97L223,97L223,104L202,104ZM230,97L244,97L244,104L230,104ZM251,97L258,97L258,104L251,104ZM279,97L286,97L286,104L279,104ZM300,97L307,97L307,104L300,104ZM314,97L335,97L335,104L314,104ZM356,97L370,97L370,104L356,104ZM377,97L384,97L384,104L377,104ZM391,97L419,97L419,104L391,104ZM34,104L76,104L76,111L34,111ZM83,104L90,104L90,111L83,111ZM104,104L118,104L118,111L104,111ZM125,104L132,104L132,111L125,111ZM153,104L160,104L160,111L153,111ZM174,104L181,104L181,111L174,111ZM188,104L209,104L209,111L188,111ZM216,104L244,104L244,111L216,111ZM251,104L279,104L279,111L251,111ZM286,104L293,104L293,111L286,111ZM300,104L314,104L314,111L300,111ZM342,104L349,104L349,111L342,111ZM356,104L363,104L363,111L356,111ZM370,104L398,104L398,111L370,111ZM405,104L412,104L412,111L405,111ZM48,111L62,111L62,118L48,118ZM69,111L76,111L76,118L69,118ZM83,111L97,111L97,118L83,118ZM104,111L139,111L139,118L104,118ZM146,111L160,111L160,118L146,118ZM167,111L181,111L181,118L167,118ZM188,111L216,111L216,118L188,118ZM223,111L230,111L230,118L223,118ZM237,111L265,111L265,118L237,118ZM272,111L279,111L279,118L272,118ZM293,111L307,111L307,118L293,118ZM314,111L321,111L321,118L314,118ZM328,111L342,111L342,118L328,118ZM356,111L391,111L391,118L356,118ZM398,111L412,111L412,118L398,118ZM41,118L55,118L55,125L41,125ZM62,118L118,118L118,125L62,125ZM125,118L146,118L146,125L125,125ZM153,118L202,118L202,125L153,125ZM209,118L216,118L216,125L209,125ZM223,118L230,118L230,125L223,125ZM237,118L244,118L244,125L237,125ZM258,118L265,118L265,125L258,125ZM272,118L286,118L286,125L272,125ZM293,118L300,118L300,125L293,125ZM307,118L314,118L314,125L307,125ZM321,118L328,118L328,125L321,125ZM335,118L342,118L342,125L335,125ZM349,118L356,118L356,125L349,125ZM370,118L377,118L377,125L370,125ZM391,118L398,118L398,125L391,125ZM412,118L419,118L419,125L412,125ZM20,125L34,125L34,132L20,132ZM48,125L55,125L55,132L48,132ZM69,125L76,125L76,132L69,132ZM83,125L97,125L97,132L83,132ZM104,125L111,125L111,132L104,132ZM125,125L132,125L132,132L125,132ZM139,125L160,125L160,132L139,132ZM167,125L181,125L181,132L167,132ZM195,125L202,125L202,132L195,132ZM209,125L216,125L216,132L209,132ZM237,125L251,125L251,132L237,132ZM258,125L265,125L265,132L258,132ZM279,125L286,125L286,132L279,132ZM300,125L328,125L328,132L300,132ZM356,125L370,125L370,132L356,132ZM384,125L391,125L391,132L384,132ZM405,125L419,125L419,132L405,132ZM20,132L27,132L27,139L20,139ZM34,132L41,132L41,139L34,139ZM48,132L55,132L55,139L48,139ZM62,132L76,132L76,139L62,139ZM83,132L90,132L90,139L83,139ZM97,132L118,132L118,139L97,139ZM125,132L146,132L146,139L125,139ZM153,132L160,132L160,139L153,139ZM167,132L174,132L174,139L167,139ZM181,132L188,132L188,139L181,139ZM209,132L223,132L223,139L209,139ZM230,132L272,132L272,139L230,139ZM279,132L293,132L293,139L279,139ZM300,132L307,132L307,139L300,139ZM328,132L363,132L363,139L328,139ZM370,132L384,132L384,139L370,139ZM391,132L412,132L412,139L391,139ZM27,139L41,139L41,146L27,146ZM69,139L118,139L118,146L69,146ZM132,139L153,139L153,146L132,146ZM160,139L167,139L167,146L160,146ZM216,139L223,139L223,146L216,146ZM237,139L244,139L244,146L237,146ZM265,139L279,139L279,146L265,146ZM293,139L307,139L307,146L293,146ZM314,139L335,139L335,146L314,146ZM342,139L356,139L356,146L342,146ZM363,139L370,139L370,146L363,146ZM377,139L391,139L391,146L377,146ZM398,139L405,139L405,146L398,146ZM20,146L41,146L41,153L20,153ZM48,146L55,146L55,153L48,153ZM62,146L69,146L69,153L62,153ZM83,146L111,146L111,153L83,153ZM118,146L125,146L125,153L118,153ZM132,146L146,146L146,153L132,153ZM153,146L167,146L167,153L153,153ZM181,146L188,146L188,153L181,153ZM209,146L216,146L216,153L209,153ZM244,146L279,146L279,153L244,153ZM293,146L300,146L300,153L293,153ZM349,146L356,146L356,153L349,153ZM363,146L370,146L370,153L363,153ZM391,146L398,146L398,153L391,153ZM412,146L419,146L419,153L412,153ZM41,153L55,153L55,160L41,160ZM76,153L83,153L83,160L76,160ZM97,153L111,153L111,160L97,160ZM118,153L139,153L139,160L118,160ZM146,153L167,153L167,160L146,160ZM174,153L188,153L188,160L174,160ZM195,153L209,153L209,160L195,160ZM216,153L230,153L230,160L216,160ZM237,153L258,153L258,160L237,160ZM300,153L307,153L307,160L300,160ZM314,153L335,153L335,160L314,160ZM356,153L363,153L363,160L356,160ZM377,153L384,153L384,160L377,160ZM398,153L405,153L405,160L398,160ZM412,153L419,153L419,160L412,160ZM27,160L48,160L48,167L27,167ZM55,160L90,160L90,167L55,167ZM132,160L139,160L139,167L132,167ZM146,160L160,160L160,167L146,167ZM181,160L188,160L188,167L181,167ZM195,160L209,160L209,167L195,167ZM216,160L223,160L223,167L216,167ZM230,160L237,160L237,167L230,167ZM244,160L258,160L258,167L244,167ZM272,160L300,160L300,167L272,167ZM307,160L314,160L314,167L307,167ZM342,160L356,160L356,167L342,167ZM363,160L377,160L377,167L363,167ZM398,160L412,160L412,167L398,167ZM20,167L41,167L41,174L20,174ZM55,167L62,167L62,174L55,174ZM69,167L76,167L76,174L69,174ZM83,167L90,167L90,174L83,174ZM97,167L111,167L111,174L97,174ZM139,167L167,167L167,174L139,174ZM174,167L181,167L181,174L174,174ZM202,167L216,167L216,174L202,174ZM223,167L237,167L237,174L223,174ZM244,167L251,167L251,174L244,174ZM265,167L272,167L272,174L265,174ZM286,167L335,167L335,174L286,174ZM349,167L356,167L356,174L349,174ZM377,167L405,167L405,174L377,174ZM20,174L48,174L48,181L20,181ZM55,174L69,174L69,181L55,181ZM83,174L90,174L90,181L83,181ZM104,174L111,174L111,181L104,181ZM125,174L146,174L146,181L125,181ZM174,174L181,174L181,181L174,181ZM188,174L202,174L202,181L188,181ZM209,174L216,174L216,181L209,181ZM237,174L244,174L244,181L237,181ZM279,174L286,174L286,181L279,181ZM307,174L314,174L314,181L307,181ZM335,174L349,174L349,181L335,181ZM405,174L412,174L412,181L405,181ZM34,181L41,181L41,188L34,188ZM48,181L55,181L55,188L48,188ZM69,181L76,181L76,188L69,188ZM83,181L90,181L90,188L83,188ZM125,181L153,181L153,188L125,188ZM174,181L188,181L188,188L174,188ZM195,181L202,181L202,188L195,188ZM209,181L216,181L216,188L209,188ZM223,181L230,181L230,188L223,188ZM244,181L251,181L251,188L244,188ZM258,181L265,181L265,188L258,188ZM272,181L279,181L279,188L272,188ZM314,181L328,181L328,188L314,188ZM356,181L363,181L363,188L356,188ZM377,181L384,181L384,188L377,188ZM391,181L405,181L405,188L391,188ZM412,181L419,181L419,188L412,188ZM20,188L27,188L27,195L20,195ZM34,188L41,188L41,195L34,195ZM48,188L55,188L55,195L48,195ZM62,188L76,188L76,195L62,195ZM90,188L97,188L97,195L90,195ZM139,188L146,188L146,195L139,195ZM167,188L174,188L174,195L167,195ZM181,188L188,188L188,195L181,195ZM202,188L209,188L209,195L202,195ZM223,188L244,188L244,195L223,195ZM251,188L258,188L258,195L251,195ZM272,188L300,188L300,195L272,195ZM314,188L321,188L321,195L314,195ZM328,188L377,188L377,195L328,195ZM412,188L419,188L419,195L412,195ZM27,195L34,195L34,202L27,202ZM41,195L48,195L48,202L41,202ZM55,195L62,195L62,202L55,202ZM69,195L76,195L76,202L69,202ZM97,195L111,195L111,202L97,202ZM125,195L153,195L153,202L125,202ZM160,195L167,195L167,202L160,202ZM174,195L181,195L181,202L174,202ZM188,195L195,195L195,202L188,202ZM216,195L223,195L223,202L216,202ZM230,195L237,195L237,202L230,202ZM244,195L286,195L286,202L244,202ZM314,195L342,195L342,202L314,202ZM356,195L370,195L370,202L356,202ZM384,195L391,195L391,202L384,202ZM398,195L405,195L405,202L398,202ZM20,202L27,202L27,209L20,209ZM48,202L83,202L83,209L48,209ZM90,202L104,202L104,209L90,209ZM111,202L132,202L132,209L111,209ZM139,202L146,202L146,209L139,209ZM160,202L167,202L167,209L160,209ZM174,202L188,202L188,209L174,209ZM195,202L244,202L244,209L195,209ZM258,202L265,202L265,209L258,209ZM272,202L279,202L279,209L272,209ZM293,202L300,202L300,209L293,209ZM314,202L321,202L321,209L314,209ZM356,202L391,202L391,209L356,209ZM398,202L405,202L405,209L398,209ZM412,202L419,202L419,209L412,209ZM48,209L55,209L55,216L48,216ZM76,209L111,209L111,216L76,216ZM118,209L132,209L132,216L118,216ZM139,209L146,209L146,216L139,216ZM181,209L188,209L188,216L181,216ZM202,209L209,209L209,216L202,216ZM230,209L244,209L244,216L230,216ZM307,209L321,209L321,216L307,216ZM328,209L342,209L342,216L328,216ZM349,209L363,209L363,216L349,216ZM384,209L391,209L391,216L384,216ZM398,209L419,209L419,216L398,216ZM20,216L41,216L41,223L20,223ZM48,216L55,216L55,223L48,223ZM62,216L69,216L69,223L62,223ZM76,216L83,216L83,223L76,223ZM97,216L104,216L104,223L97,223ZM111,216L132,216L132,223L111,223ZM139,216L160,216L160,223L139,223ZM174,216L209,216L209,223L174,223ZM216,216L223,216L223,223L216,223ZM230,216L244,216L244,223L230,223ZM258,216L272,216L272,223L258,223ZM279,216L293,216L293,223L279,223ZM342,216L363,216L363,223L342,223ZM370,216L377,216L377,223L370,223ZM384,216L391,216L391,223L384,223ZM398,216L405,216L405,223L398,223ZM20,223L27,223L27,230L20,230ZM34,223L55,223L55,230L34,230ZM76,223L83,223L83,230L76,230ZM90,223L97,223L97,230L90,230ZM125,223L146,223L146,230L125,230ZM167,223L174,223L174,230L167,230ZM188,223L209,223L209,230L188,230ZM230,223L244,223L244,230L230,230ZM251,223L258,223L258,230L251,230ZM265,223L279,223L279,230L265,230ZM293,223L314,223L314,230L293,230ZM321,223L349,223L349,230L321,230ZM356,223L363,223L363,230L356,230ZM384,223L412,223L412,230L384,230ZM20,230L41,230L41,237L20,237ZM48,230L90,230L90,237L48,237ZM97,230L104,230L104,237L97,237ZM132,230L181,230L181,237L132,237ZM188,230L258,230L258,237L188,237ZM272,230L286,230L286,237L272,237ZM314,230L328,230L328,237L314,237ZM356,230L391,230L391,237L356,237ZM34,237L48,237L48,244L34,244ZM55,237L62,237L62,244L55,244ZM76,237L90,237L90,244L76,244ZM104,237L111,237L111,244L104,244ZM125,237L132,237L132,244L125,244ZM139,237L146,237L146,244L139,244ZM153,237L167,237L167,244L153,244ZM202,237L209,237L209,244L202,244ZM223,237L244,237L244,244L223,244ZM258,237L265,237L265,244L258,244ZM279,237L286,237L286,244L279,244ZM307,237L321,237L321,244L307,244ZM328,237L342,237L342,244L328,244ZM370,237L384,237L384,244L370,244ZM391,237L398,237L398,244L391,244ZM412,237L419,237L419,244L412,244ZM27,244L41,244L41,251L27,251ZM48,244L76,244L76,251L48,251ZM90,244L111,244L111,251L90,251ZM160,244L167,244L167,251L160,251ZM181,244L188,244L188,251L181,251ZM202,244L209,244L209,251L202,251ZM216,244L230,244L230,251L216,251ZM237,244L244,244L244,251L237,251ZM251,244L258,244L258,251L251,251ZM272,244L279,244L279,251L272,251ZM286,244L293,244L293,251L286,251ZM342,244L349,244L349,251L342,251ZM377,244L398,244L398,251L377,251ZM405,244L412,244L412,251L405,251ZM20,251L34,251L34,258L20,258ZM41,251L62,251L62,258L41,258ZM97,251L125,251L125,258L97,258ZM139,251L146,251L146,258L139,258ZM153,251L230,251L230,258L153,258ZM244,251L251,251L251,258L244,258ZM258,251L265,251L265,258L258,258ZM272,251L286,251L286,258L272,258ZM300,251L314,251L314,258L300,258ZM321,251L335,251L335,258L321,258ZM349,251L356,251L356,258L349,258ZM363,251L377,251L377,258L363,258ZM391,251L405,251L405,258L391,258ZM20,258L27,258L27,265L20,265ZM55,258L83,258L83,265L55,265ZM97,258L111,258L111,265L97,265ZM118,258L125,258L125,265L118,265ZM132,258L139,258L139,265L132,265ZM146,258L167,258L167,265L146,265ZM174,258L195,258L195,265L174,265ZM202,258L209,258L209,265L202,265ZM223,258L237,258L237,265L223,265ZM251,258L272,258L272,265L251,265ZM286,258L300,258L300,265L286,265ZM321,258L328,258L328,265L321,265ZM335,258L342,258L342,265L335,265ZM370,258L391,258L391,265L370,265ZM412,258L419,258L419,265L412,265ZM20,265L27,265L27,272L20,272ZM34,265L41,265L41,272L34,272ZM83,265L90,265L90,272L83,272ZM139,265L153,265L153,272L139,272ZM167,265L174,265L174,272L167,272ZM188,265L202,265L202,272L188,272ZM216,265L237,265L237,272L216,272ZM258,265L265,265L265,272L258,272ZM272,265L279,265L279,272L272,272ZM293,265L335,265L335,272L293,272ZM363,265L370,265L370,272L363,272ZM391,265L398,265L398,272L391,272ZM405,265L419,265L419,272L405,272ZM20,272L27,272L27,279L20,279ZM34,272L41,272L41,279L34,279ZM48,272L83,272L83,279L48,279ZM90,272L111,272L111,279L90,279ZM125,272L132,272L132,279L125,279ZM153,272L160,272L160,279L153,279ZM167,272L181,272L181,279L167,279ZM195,272L202,272L202,279L195,279ZM223,272L237,272L237,279L223,279ZM265,272L272,272L272,279L265,279ZM279,272L300,272L300,279L279,279ZM321,272L349,272L349,279L321,279ZM356,272L370,272L370,279L356,279ZM384,272L405,272L405,279L384,279ZM34,279L41,279L41,286L34,286ZM76,279L83,279L83,286L76,286ZM104,279L132,279L132,286L104,286ZM139,279L160,279L160,286L139,286ZM174,279L181,279L181,286L174,286ZM216,279L223,279L223,286L216,286ZM230,279L251,279L251,286L230,286ZM258,279L265,279L265,286L258,286ZM279,279L286,279L286,286L279,286ZM293,279L321,279L321,286L293,286ZM328,279L342,279L342,286L328,286ZM349,279L356,279L356,286L349,286ZM370,279L412,279L412,286L370,286ZM34,286L83,286L83,293L34,293ZM104,286L118,286L118,293L104,293ZM146,286L153,286L153,293L146,293ZM160,286L167,286L167,293L160,293ZM188,286L237,286L237,293L188,293ZM342,286L349,286L349,293L342,293ZM363,286L370,286L370,293L363,293ZM377,286L391,286L391,293L377,293ZM412,286L419,286L419,293L412,293ZM20,293L62,293L62,300L20,300ZM90,293L118,293L118,300L90,300ZM132,293L139,293L139,300L132,300ZM146,293L153,293L153,300L146,300ZM181,293L188,293L188,300L181,300ZM202,293L230,293L230,300L202,300ZM237,293L244,293L244,300L237,300ZM258,293L272,293L272,300L258,300ZM293,293L300,293L300,300L293,300ZM314,293L328,293L328,300L314,300ZM356,293L370,293L370,300L356,300ZM391,293L398,293L398,300L391,300ZM405,293L419,293L419,300L405,300ZM20,300L41,300L41,307L20,307ZM62,300L83,300L83,307L62,307ZM90,300L97,300L97,307L90,307ZM111,300L118,300L118,307L111,307ZM146,300L153,300L153,307L146,307ZM160,300L174,300L174,307L160,307ZM181,300L188,300L188,307L181,307ZM216,300L230,300L230,307L216,307ZM237,300L244,300L244,307L237,307ZM251,300L258,300L258,307L251,307ZM265,300L286,300L286,307L265,307ZM307,300L314,300L314,307L307,307ZM328,300L349,300L349,307L328,307ZM356,300L370,300L370,307L356,307ZM391,300L398,300L398,307L391,307ZM20,307L27,307L27,314L20,314ZM34,307L62,307L62,314L34,314ZM69,307L83,307L83,314L69,314ZM104,307L111,307L111,314L104,314ZM118,307L160,307L160,314L118,314ZM181,307L195,307L195,314L181,314ZM202,307L216,307L216,314L202,314ZM223,307L251,307L251,314L223,314ZM258,307L279,307L279,314L258,314ZM293,307L342,307L342,314L293,314ZM349,307L356,307L356,314L349,314ZM363,307L377,307L377,314L363,314ZM398,307L419,307L419,314L398,314ZM27,314L104,314L104,321L27,321ZM111,314L132,314L132,321L111,321ZM153,314L188,314L188,321L153,321ZM216,314L223,314L223,321L216,321ZM230,314L265,314L265,321L230,321ZM272,314L286,314L286,321L272,321ZM356,314L370,314L370,321L356,321ZM377,314L398,314L398,321L377,321ZM405,314L419,314L419,321L405,321ZM34,321L48,321L48,328L34,328ZM69,321L83,321L83,328L69,328ZM90,321L104,321L104,328L90,328ZM118,321L125,321L125,328L118,328ZM139,321L153,321L153,328L139,328ZM160,321L167,321L167,328L160,328ZM174,321L181,321L181,328L174,328ZM188,321L209,321L209,328L188,328ZM216,321L265,321L265,328L216,328ZM279,321L286,321L286,328L279,328ZM314,321L328,321L328,328L314,328ZM335,321L342,321L342,328L335,328ZM349,321L363,321L363,328L349,328ZM398,321L419,321L419,328L398,328ZM27,328L34,328L34,335L27,335ZM48,328L76,328L76,335L48,335ZM97,328L104,328L104,335L97,335ZM111,328L125,328L125,335L111,335ZM139,328L153,328L153,335L139,335ZM160,328L181,328L181,335L160,335ZM188,328L195,328L195,335L188,335ZM209,328L216,328L216,335L209,335ZM230,328L279,328L279,335L230,335ZM286,328L314,328L314,335L286,335ZM328,328L335,328L335,335L328,335ZM342,328L349,328L349,335L342,335ZM356,328L363,328L363,335L356,335ZM384,328L391,328L391,335L384,335ZM398,328L405,328L405,335L398,335ZM20,335L41,335L41,342L20,342ZM55,335L62,335L62,342L55,342ZM76,335L90,335L90,342L76,342ZM104,335L111,335L111,342L104,342ZM132,335L153,335L153,342L132,342ZM167,335L174,335L174,342L167,342ZM195,335L202,335L202,342L195,342ZM209,335L230,335L230,342L209,342ZM237,335L244,335L244,342L237,342ZM258,335L265,335L265,342L258,342ZM272,335L286,335L286,342L272,342ZM300,335L307,335L307,342L300,342ZM314,335L356,335L356,342L314,342ZM370,335L384,335L384,342L370,342ZM398,335L412,335L412,342L398,342ZM20,342L27,342L27,349L20,349ZM34,342L41,342L41,349L34,349ZM55,342L90,342L90,349L55,349ZM97,342L111,342L111,349L97,349ZM125,342L167,342L167,349L125,349ZM188,342L209,342L209,349L188,349ZM216,342L223,342L223,349L216,349ZM237,342L244,342L244,349L237,349ZM279,342L286,342L286,349L279,349ZM307,342L314,342L314,349L307,349ZM335,342L349,342L349,349L335,349ZM363,342L377,342L377,349L363,349ZM384,342L398,342L398,349L384,349ZM20,349L55,349L55,356L20,356ZM76,349L83,349L83,356L76,356ZM97,349L132,349L132,356L97,356ZM139,349L146,349L146,356L139,356ZM167,349L181,349L181,356L167,356ZM216,349L223,349L223,356L216,356ZM237,349L244,349L244,356L237,356ZM251,349L265,349L265,356L251,356ZM279,349L293,349L293,356L279,356ZM307,349L321,349L321,356L307,356ZM363,349L377,349L377,356L363,356ZM398,349L405,349L405,356L398,356ZM412,349L419,349L419,356L412,356ZM62,356L76,356L76,363L62,363ZM97,356L104,356L104,363L97,363ZM111,356L125,356L125,363L111,363ZM160,356L167,356L167,363L160,363ZM181,356L195,356L195,363L181,363ZM202,356L244,356L244,363L202,363ZM251,356L258,356L258,363L251,363ZM265,356L272,356L272,363L265,363ZM286,356L300,356L300,363L286,363ZM321,356L328,356L328,363L321,363ZM335,356L349,356L349,363L335,363ZM356,356L412,356L412,363L356,363ZM76,363L104,363L104,370L76,370ZM132,363L167,363L167,370L132,370ZM202,363L209,363L209,370L202,370ZM230,363L237,363L237,370L230,370ZM244,363L251,363L251,370L244,370ZM265,363L272,363L272,370L265,370ZM279,363L307,363L307,370L279,370ZM314,363L342,363L342,370L314,370ZM356,363L363,363L363,370L356,370ZM384,363L405,363L405,370L384,370ZM20,370L69,370L69,377L20,377ZM90,370L97,370L97,377L90,377ZM104,370L125,370L125,377L104,377ZM132,370L139,370L139,377L132,377ZM146,370L153,370L153,377L146,377ZM167,370L188,370L188,377L167,377ZM195,370L209,370L209,377L195,377ZM216,370L223,370L223,377L216,377ZM230,370L237,370L237,377L230,377ZM251,370L258,370L258,377L251,377ZM307,370L321,370L321,377L307,377ZM349,370L363,370L363,377L349,377ZM370,370L377,370L377,377L370,377ZM384,370L391,370L391,377L384,377ZM405,370L419,370L419,377L405,377ZM20,377L27,377L27,384L20,384ZM62,377L69,377L69,384L62,384ZM90,377L97,377L97,384L90,384ZM104,377L118,377L118,384L104,384ZM125,377L146,377L146,384L125,384ZM160,377L174,377L174,384L160,384ZM181,377L209,377L209,384L181,384ZM230,377L251,377L251,384L230,384ZM279,377L286,377L286,384L279,384ZM300,377L307,377L307,384L300,384ZM314,377L328,377L328,384L314,384ZM349,377L363,377L363,384L349,384ZM384,377L405,377L405,384L384,384ZM412,377L419,377L419,384L412,384ZM20,384L27,384L27,391L20,391ZM34,384L55,384L55,391L34,391ZM62,384L69,384L69,391L62,391ZM76,384L90,384L90,391L76,391ZM104,384L146,384L146,391L104,391ZM153,384L181,384L181,391L153,391ZM188,384L293,384L293,391L188,391ZM300,384L314,384L314,391L300,391ZM321,384L328,384L328,391L321,391ZM335,384L349,384L349,391L335,391ZM356,384L391,384L391,391L356,391ZM405,384L412,384L412,391L405,391ZM20,391L27,391L27,398L20,398ZM34,391L55,391L55,398L34,398ZM62,391L69,391L69,398L62,398ZM76,391L83,391L83,398L76,398ZM104,391L118,391L118,398L104,398ZM125,391L132,391L132,398L125,398ZM153,391L181,391L181,398L153,398ZM188,391L202,391L202,398L188,398ZM230,391L237,391L237,398L230,398ZM244,391L279,391L279,398L244,398ZM286,391L307,391L307,398L286,398ZM314,391L321,391L321,398L314,398ZM328,391L335,391L335,398L328,398ZM363,391L370,391L370,398L363,398ZM377,391L384,391L384,398L377,398ZM391,391L412,391L412,398L391,398ZM20,398L27,398L27,405L20,405ZM34,398L55,398L55,405L34,405ZM62,398L69,398L69,405L62,405ZM76,398L83,398L83,405L76,405ZM90,398L97,398L97,405L90,405ZM111,398L132,398L132,405L111,405ZM153,398L160,398L160,405L153,405ZM181,398L195,398L195,405L181,405ZM209,398L216,398L216,405L209,405ZM223,398L230,398L230,405L223,405ZM237,398L244,398L244,405L237,405ZM258,398L265,398L265,405L258,405ZM272,398L293,398L293,405L272,405ZM307,398L314,398L314,405L307,405ZM321,398L328,398L328,405L321,405ZM349,398L356,398L356,405L349,405ZM363,398L384,398L384,405L363,405ZM20,405L27,405L27,412L20,412ZM62,405L69,405L69,412L62,412ZM83,405L97,405L97,412L83,412ZM104,405L111,405L111,412L104,412ZM118,405L132,405L132,412L118,412ZM146,405L181,405L181,412L146,412ZM188,405L195,405L195,412L188,412ZM202,405L209,405L209,412L202,412ZM216,405L223,405L223,412L216,412ZM230,405L244,405L244,412L230,412ZM258,405L265,405L265,412L258,412ZM272,405L279,405L279,412L272,412ZM293,405L300,405L300,412L293,412ZM307,405L314,405L314,412L307,412ZM335,405L342,405L342,412L335,412ZM363,405L370,405L370,412L363,412ZM384,405L391,405L391,412L384,412ZM398,405L419,405L419,412L398,412ZM20,412L69,412L69,419L20,419ZM104,412L111,412L111,419L104,419ZM118,412L132,412L132,419L118,419ZM146,412L167,412L167,419L146,419ZM188,412L202,412L202,419L188,419ZM209,412L223,412L223,419L209,419ZM230,412L237,412L237,419L230,419ZM244,412L258,412L258,419L244,419ZM265,412L272,412L272,419L265,419ZM300,412L307,412L307,419L300,419ZM321,412L328,412L328,419L321,419ZM342,412L363,412L363,419L342,419ZM391,412L412,412L412,419L391,419Z"/></svg>
