<?xml version="1.0"?>
<svg xmlns="http://www.w3.org/2000/svg" xmlns:xlink="http://www.w3.org/1999/xlink" version="1.1" width="440px" height="440px" viewBox="0 0 440 440"><rect x="0" y="0" width="440" height="440" fill="#ffffff" fill-opacity="1"/><path fill="#000000" fill-opacity="1" d="M20,20L69,20L69,27L20,27ZM76,20L97,20L97,27L76,27ZM104,20L111,20L111,27L104,27ZM125,20L146,20L146,27L125,27ZM167,20L195,20L195,27L167,27ZM202,20L209,20L209,27L202,27ZM237,20L251,20L251,27L237,27ZM258,20L265,20L265,27L258,27ZM279,20L286,20L286,27L279,27ZM293,20L314,20L314,27L293,27ZM328,20L335,20L335,27L328,27ZM342,20L356,20L356,27L342,27ZM370,20L419,20L419,27L370,27ZM20,27L27,27L27,34L20,34ZM62,27L69,27L69,34L62,34ZM76,27L83,27L83,34L76,34ZM90,27L125,27L125,34L90,34ZM139,27L146,27L146,34L139,34ZM167,27L188,27L188,34L167,34ZM209,27L237,27L237,34L209,34ZM244,27L258,27L258,34L244,34ZM265,27L286,27L286,34L265,34ZM307,27L314,27L314,34L307,34ZM349,27L356,27L356,34L349,34ZM370,27L377,27L377,34L370,34ZM412,27L419,27L419,34L412,34ZM20,34L27,34L27,41L20,41ZM34,34L55,34L55,41L34,41ZM62,34L69,34L69,41L62,41ZM76,34L125,34L125,41L76,41ZM139,34L146,34L146,41L139,41ZM153,34L174,34L174,41L153,41ZM181,34L188,34L188,41L181,41ZM209,34L216,34L216,41L209,41ZM251,34L258,34L258,41L251,41ZM265,34L279,34L279,41L265,41ZM300,34L356,34L356,41L300,41ZM370,34L377,34L377,41L370,41ZM384,34L405,34L405,41L384,41ZM412,34L419,34L419,41L412,41ZM20,41L27,41L27,48L20,48ZM34,41L55,41L55,48L34,48ZM62,41L69,41L69,48L62,48ZM97,41L125,41L125,48L97,48ZM132,41L146,41L146,48L132,48ZM195,41L216,41L216,48L195,48ZM244,41L258,41L258,48L244,48ZM279,41L293,41L293,48L279,48ZM321,41L342,41L342,48L321,48ZM349,41L356,41L356,48L349,48ZM370,41L377,41L377,48L370,48ZM384,41L405,41L405,48L384,48ZM412,41L419,41L419,48L412,48ZM20,48L27,48L27,55L20,55ZM34,48L55,48L55,55L34,55ZM62,48L69,48L69,55L62,55ZM104,48L125,48L125,55L104,55ZM139,48L153,48L153,55L139,55ZM160,48L167,48L167,55L160,55ZM181,48L188,48L188,55L181,55ZM202,48L251,48L251,55L202,55ZM265,48L272,48L272,55L265,55ZM300,48L314,48L314,55L300,55ZM328,48L342,48L342,55L328,55ZM349,48L356,48L356,55L349,55ZM370,48L377,48L377,55L370,55ZM384,48L405,48L405,55L384,55ZM412,48L419,48L419,55L412,55ZM20,55L27,55L27,62L20,62ZM62,55L69,55L69,62L62,62ZM76,55L90,55L90,62L76,62ZM97,55L104,55L104,62L97,62ZM111,55L132,55L132,62L111,62ZM139,55L153,55L153,62L139,62ZM174,55L195,55L195,62L174,62ZM202,55L209,55L209,62L202,62ZM230,55L237,55L237,62L230,62ZM258,55L272,55L272,62L258,62ZM286,55L300,55L300,62L286,62ZM307,55L314,55L314,62L307,62ZM335,55L349,55L349,62L335,62ZM370,55L377,55L377,62L370,62ZM412,55L419,55L419,62L412,62ZM20,62L69,62L69,69L20,69ZM76,62L83,62L83,69L76,69ZM90,62L97,62L97,69L90,69ZM104,62L111,62L111,69L104,69ZM118,62L125,62L125,69L118,69ZM132,62L139,62L139,69L132,69ZM146,62L153,62L153,69L146,69ZM160,62L167,62L167,69L160,69ZM174,62L181,62L181,69L174,69ZM188,62L195,62L195,69L188,69ZM202,62L209,62L209,69L202,69ZM216,62L223,62L223,69L216,69ZM230,62L237,62L237,69L230,69ZM244,62L251,62L251,69L244,69ZM258,62L265,62L265,69L258,69ZM272,62L279,62L279,69L272,69ZM286,62L293,62L293,69L286,69ZM300,62L307,62L307,69L300,69ZM314,62L321,62L321,69L314,69ZM328,62L335,62L335,69L328,69ZM342,62L349,62L349,69L342,69ZM356,62L363,62L363,69L356,69ZM370,62L419,62L419,69L370,69ZM76,69L97,69L97,76L76,76ZM104,69L111,69L111,76L104,76ZM125,69L181,69L181,76L125,76ZM202,69L209,69L209,76L202,76ZM230,69L237,69L237,76L230,76ZM258,69L272,69L272,76L258,76ZM293,69L300,69L300,76L293,76ZM314,69L328,69L328,76L314,76ZM342,69L349,69L349,76L342,76ZM356,69L363,69L363,76L356,76ZM34,76L55,76L55,83L34,83ZM62,76L69,76L69,83L62,83ZM76,76L118,76L118,83L76,83ZM125,76L160,76L160,83L125,83ZM167,76L188,76L188,83L167,83ZM195,76L244,76L244,83L195,83ZM279,76L286,76L286,83L279,83ZM293,76L314,76L314,83L293,83ZM335,76L356,76L356,83L335,83ZM363,76L384,76L384,83L363,83ZM398,76L419,76L419,83L398,83ZM20,83L27,83L27,90L20,90ZM34,83L41,83L41,90L34,90ZM48,83L55,83L55,90L48,90ZM69,83L83,83L83,90L69,90ZM90,83L97,83L97,90L90,90ZM104,83L125,83L125,90L104,90ZM132,83L160,83L160,90L132,90ZM202,83L223,83L223,90L202,90ZM230,83L237,83L237,90L230,90ZM244,83L279,83L279,90L244,90ZM300,83L307,83L307,90L300,90ZM314,83L328,83L328,90L314,90ZM342,83L370,83L370,90L342,90ZM384,83L405,83L405,90L384,90ZM34,90L41,90L41,97L34,97ZM48,90L76,90L76,97L48,97ZM104,90L111,90L111,97L104,97ZM118,90L139,90L139,97L118,97ZM146,90L167,90L167,97L146,97ZM174,90L181,90L181,97L174,97ZM188,90L209,90L209,97L188,97ZM230,90L251,90L251,97L230,97ZM265,90L286,90L286,97L265,97ZM293,90L300,90L300,97L293,97ZM307,90L321,90L321,97L307,97ZM335,90L342,90L342,97L335,97ZM349,90L356,90L356,97L349,97ZM405,90L412,90L412,97L405,97ZM34,97L48,97L48,104L34,104ZM55,97L62,97L62,104L55,104ZM69,97L76,97L76,104L69,104ZM90,97L104,97L104,104L90,104ZM111,97L118,97L118,104L111,104ZM132,97L139,97L139,104L132,104ZM167,97L202,97L202,104L167,104ZM216,97L230,97L230,104L216,104ZM251,97L258,97L258,104L251,104ZM265,97L272,97L272,104L265,104ZM279,97L286,97L286,104L279,104ZM293,97L307,97L307,104L293,104ZM314,97L321,97L321,104L314,104ZM356,97L363,97L363,104L356,104ZM377,97L384,97L384,104L377,104ZM391,97L419,97L419,104L391,104ZM27,104L34,104L34,111L27,111ZM55,104L76,104L76,111L55,111ZM90,104L97,104L97,111L90,111ZM104,104L118,104L118,111L104,111ZM139,104L174,104L174,111L139,111ZM181,104L209,104L209,111L181,111ZM216,104L258,104L258,111L216,111ZM286,104L293,104L293,111L286,111ZM300,104L314,104L314,111L300,111ZM321,104L328,104L328,111L321,111ZM342,104L349,104L349,111L342,111ZM363,104L405,104L405,111L363,111ZM27,111L34,111L34,118L27,118ZM55,111L62,111L62,118L55,118ZM76,111L90,111L90,118L76,118ZM97,111L132,111L132,118L97,118ZM146,111L153,111L153,118L146,118ZM174,111L181,111L181,118L174,118ZM188,111L202,111L202,118L188,118ZM223,111L230,111L230,118L223,118ZM237,111L251,111L251,118L237,118ZM258,111L265,111L265,118L258,118ZM272,111L279,111L279,118L272,118ZM293,111L342,111L342,118L293,118ZM356,111L363,111L363,118L356,118ZM377,111L419,111L419,118L377,118ZM20,118L27,118L27,125L20,125ZM41,118L48,118L48,125L41,125ZM55,118L76,118L76,125L55,125ZM104,118L118,118L118,125L104,125ZM139,118L146,118L146,125L139,125ZM160,118L174,118L174,125L160,125ZM181,118L216,118L216,125L181,125ZM237,118L251,118L251,125L237,125ZM258,118L272,118L272,125L258,125ZM279,118L286,118L286,125L279,125ZM314,118L321,118L321,125L314,125ZM335,118L342,118L342,125L335,125ZM405,118L419,118L419,125L405,125ZM20,125L27,125L27,132L20,132ZM41,125L62,125L62,132L41,132ZM97,125L104,125L104,132L97,132ZM111,125L118,125L118,132L111,132ZM139,125L153,125L153,132L139,132ZM160,125L174,125L174,132L160,132ZM181,125L188,125L188,132L181,132ZM195,125L209,125L209,132L195,132ZM216,125L230,125L230,132L216,132ZM258,125L286,125L286,132L258,132ZM300,125L342,125L342,132L300,132ZM349,125L370,125L370,132L349,132ZM377,125L384,125L384,132L377,132ZM398,125L405,125L405,132L398,132ZM412,125L419,125L419,132L412,132ZM20,132L27,132L27,139L20,139ZM34,132L48,132L48,139L34,139ZM55,132L76,132L76,139L55,139ZM90,132L104,132L104,139L90,139ZM139,132L153,132L153,139L139,139ZM174,132L181,132L181,139L174,139ZM188,132L195,132L195,139L188,139ZM209,132L216,132L216,139L209,139ZM223,132L244,132L244,139L223,139ZM251,132L265,132L265,139L251,139ZM286,132L293,132L293,139L286,139ZM321,132L328,132L328,139L321,139ZM342,132L349,132L349,139L342,139ZM370,132L384,132L384,139L370,139ZM391,132L405,132L405,139L391,139ZM69,139L76,139L76,146L69,146ZM83,139L90,139L90,146L83,146ZM97,139L104,139L104,146L97,146ZM139,139L146,139L146,146L139,146ZM160,139L174,139L174,146L160,146ZM181,139L216,139L216,146L181,146ZM223,139L230,139L230,146L223,146ZM237,139L258,139L258,146L237,146ZM265,139L279,139L279,146L265,146ZM293,139L307,139L307,146L293,146ZM314,139L342,139L342,146L314,146ZM356,139L363,139L363,146L356,146ZM377,139L384,139L384,146L377,146ZM398,139L405,139L405,146L398,146ZM27,146L55,146L55,153L27,153ZM62,146L69,146L69,153L62,153ZM76,146L83,146L83,153L76,153ZM104,146L125,146L125,153L104,153ZM132,146L167,146L167,153L132,153ZM174,146L188,146L188,153L174,153ZM195,146L202,146L202,153L195,153ZM209,146L223,146L223,153L209,153ZM230,146L244,146L244,153L230,153ZM251,146L258,146L258,153L251,153ZM279,146L286,146L286,153L279,153ZM335,146L342,146L342,153L335,153ZM370,146L384,146L384,153L370,153ZM391,146L398,146L398,153L391,153ZM412,146L419,146L419,153L412,153ZM20,153L27,153L27,160L20,160ZM48,153L55,153L55,160L48,160ZM69,153L76,153L76,160L69,160ZM83,153L111,153L111,160L83,160ZM125,153L146,153L146,160L125,160ZM153,153L167,153L167,160L153,160ZM174,153L195,153L195,160L174,160ZM202,153L216,153L216,160L202,160ZM223,153L230,153L230,160L223,160ZM244,153L251,153L251,160L244,160ZM258,153L279,153L279,160L258,160ZM300,153L321,153L321,160L300,160ZM328,153L342,153L342,160L328,160ZM349,153L363,153L363,160L349,160ZM384,153L405,153L405,160L384,160ZM412,153L419,153L419,160L412,160ZM20,160L41,160L41,167L20,167ZM48,160L97,160L97,167L48,167ZM104,160L132,160L132,167L104,167ZM139,160L146,160L146,167L139,167ZM153,160L160,160L160,167L153,167ZM174,160L181,160L181,167L174,167ZM195,160L209,160L209,167L195,167ZM216,160L251,160L251,167L216,167ZM279,160L300,160L300,167L279,167ZM342,160L377,160L377,167L342,167ZM391,160L398,160L398,167L391,167ZM405,160L412,160L412,167L405,167ZM20,167L34,167L34,174L20,174ZM69,167L90,167L90,174L69,174ZM97,167L118,167L118,174L97,174ZM139,167L153,167L153,174L139,174ZM181,167L188,167L188,174L181,174ZM195,167L202,167L202,174L195,174ZM209,167L223,167L223,174L209,174ZM237,167L251,167L251,174L237,174ZM265,167L307,167L307,174L265,174ZM314,167L349,167L349,174L314,174ZM356,167L363,167L363,174L356,174ZM384,167L391,167L391,174L384,174ZM398,167L405,167L405,174L398,174ZM20,174L27,174L27,181L20,181ZM34,174L48,174L48,181L34,181ZM55,174L83,174L83,181L55,181ZM97,174L104,174L104,181L97,181ZM111,174L118,174L118,181L111,181ZM132,174L146,174L146,181L132,181ZM153,174L160,174L160,181L153,181ZM167,174L174,174L174,181L167,181ZM181,174L195,174L195,181L181,181ZM202,174L244,174L244,181L202,181ZM265,174L286,174L286,181L265,181ZM349,174L356,174L356,181L349,181ZM377,174L384,174L384,181L377,181ZM391,174L398,174L398,181L391,181ZM405,174L412,174L412,181L405,181ZM20,181L34,181L34,188L20,188ZM41,181L62,181L62,188L41,188ZM69,181L83,181L83,188L69,188ZM90,181L118,181L118,188L90,188ZM146,181L153,181L153,188L146,188ZM160,181L167,181L167,188L160,188ZM188,181L209,181L209,188L188,188ZM223,181L251,181L251,188L223,188ZM258,181L272,181L272,188L258,188ZM293,181L300,181L300,188L293,188ZM307,181L314,181L314,188L307,188ZM335,181L342,181L342,188L335,188ZM356,181L363,181L363,188L356,188ZM384,181L405,181L405,188L384,188ZM412,181L419,181L419,188L412,188ZM20,188L27,188L27,195L20,195ZM34,188L76,188L76,195L34,195ZM83,188L97,188L97,195L83,195ZM111,188L160,188L160,195L111,195ZM167,188L181,188L181,195L167,195ZM202,188L216,188L216,195L202,195ZM223,188L230,188L230,195L223,195ZM237,188L244,188L244,195L237,195ZM251,188L272,188L272,195L251,195ZM279,188L293,188L293,195L279,195ZM300,188L307,188L307,195L300,195ZM321,188L328,188L328,195L321,195ZM342,188L349,188L349,195L342,195ZM356,188L384,188L384,195L356,195ZM391,188L405,188L405,195L391,195ZM412,188L419,188L419,195L412,195ZM27,195L34,195L34,202L27,202ZM41,195L62,195L62,202L41,202ZM69,195L83,195L83,202L69,202ZM90,195L104,195L104,202L90,202ZM111,195L118,195L118,202L111,202ZM132,195L167,195L167,202L132,202ZM188,195L195,195L195,202L188,202ZM202,195L237,195L237,202L202,202ZM244,195L251,195L251,202L244,202ZM272,195L286,195L286,202L272,202ZM293,195L314,195L314,202L293,202ZM328,195L342,195L342,202L328,202ZM377,195L391,195L391,202L377,202ZM398,195L405,195L405,202L398,202ZM412,195L419,195L419,202L412,202ZM20,202L34,202L34,209L20,209ZM41,202L97,202L97,209L41,209ZM104,202L111,202L111,209L104,209ZM132,202L160,202L160,209L132,209ZM167,202L181,202L181,209L167,209ZM188,202L195,202L195,209L188,209ZM202,202L237,202L237,209L202,209ZM265,202L286,202L286,209L265,209ZM300,202L307,202L307,209L300,209ZM314,202L328,202L328,209L314,209ZM342,202L391,202L391,209L342,209ZM398,202L405,202L405,209L398,209ZM20,209L27,209L27,216L20,216ZM34,209L55,209L55,216L34,216ZM76,209L90,209L90,216L76,216ZM97,209L104,209L104,216L97,216ZM125,209L132,209L132,216L125,216ZM139,209L153,209L153,216L139,216ZM174,209L181,209L181,216L174,216ZM188,209L209,209L209,216L188,216ZM230,209L258,209L258,216L230,216ZM272,209L279,209L279,216L272,216ZM293,209L321,209L321,216L293,216ZM335,209L342,209L342,216L335,216ZM349,209L363,209L363,216L349,216ZM384,209L391,209L391,216L384,216ZM398,209L419,209L419,216L398,216ZM27,216L55,216L55,223L27,223ZM62,216L69,216L69,223L62,223ZM76,216L83,216L83,223L76,223ZM90,216L111,216L111,223L90,223ZM125,216L132,216L132,223L125,223ZM139,216L153,216L153,223L139,223ZM160,216L167,216L167,223L160,223ZM181,216L188,216L188,223L181,223ZM202,216L209,216L209,223L202,223ZM216,216L223,216L223,223L216,223ZM230,216L237,216L237,223L230,223ZM244,216L258,216L258,223L244,223ZM265,216L293,216L293,223L265,223ZM321,216L328,216L328,223L321,223ZM342,216L349,216L349,223L342,223ZM356,216L363,216L363,223L356,223ZM370,216L377,216L377,223L370,223ZM384,216L391,216L391,223L384,223ZM398,216L405,216L405,223L398,223ZM34,223L55,223L55,230L34,230ZM76,223L104,223L104,230L76,230ZM125,223L139,223L139,230L125,230ZM167,223L209,223L209,230L167,230ZM230,223L237,223L237,230L230,230ZM244,223L251,223L251,230L244,230ZM272,223L279,223L279,230L272,230ZM293,223L314,223L314,230L293,230ZM321,223L342,223L342,230L321,230ZM356,223L363,223L363,230L356,230ZM384,223L405,223L405,230L384,230ZM20,230L34,230L34,237L20,237ZM41,230L97,230L97,237L41,237ZM104,230L111,230L111,237L104,237ZM139,230L153,230L153,237L139,237ZM167,230L181,230L181,237L167,237ZM195,230L244,230L244,237L195,237ZM251,230L258,230L258,237L251,237ZM279,230L293,230L293,237L279,237ZM314,230L328,230L328,237L314,237ZM342,230L349,230L349,237L342,237ZM356,230L391,230L391,237L356,237ZM405,230L412,230L412,237L405,237ZM20,237L27,237L27,244L20,244ZM34,237L48,237L48,244L34,244ZM55,237L62,237L62,244L55,244ZM69,237L90,237L90,244L69,244ZM97,237L111,237L111,244L97,244ZM118,237L167,237L167,244L118,244ZM174,237L209,237L209,244L174,244ZM223,237L230,237L230,244L223,244ZM279,237L286,237L286,244L279,244ZM300,237L321,237L321,244L300,244ZM363,237L370,237L370,244L363,244ZM391,237L398,237L398,244L391,244ZM412,237L419,237L419,244L412,244ZM27,244L41,244L41,251L27,251ZM62,244L69,244L69,251L62,251ZM83,244L90,244L90,251L83,251ZM125,244L160,244L160,251L125,251ZM174,244L181,244L181,251L174,251ZM188,244L202,244L202,251L188,251ZM209,244L223,244L223,251L209,251ZM230,244L237,244L237,251L230,251ZM244,244L265,244L265,251L244,251ZM286,244L293,244L293,251L286,251ZM307,244L314,244L314,251L307,251ZM335,244L349,244L349,251L335,251ZM377,244L398,244L398,251L377,251ZM405,244L412,244L412,251L405,251ZM20,251L27,251L27,258L20,258ZM34,251L48,251L48,258L34,258ZM76,251L90,251L90,258L76,258ZM97,251L104,251L104,258L97,258ZM118,251L132,251L132,258L118,258ZM139,251L146,251L146,258L139,258ZM153,251L174,251L174,258L153,258ZM181,251L188,251L188,258L181,258ZM223,251L230,251L230,258L223,258ZM251,251L265,251L265,258L251,258ZM272,251L279,251L279,258L272,258ZM300,251L307,251L307,258L300,258ZM314,251L335,251L335,258L314,258ZM349,251L356,251L356,258L349,258ZM363,251L384,251L384,258L363,258ZM398,251L405,251L405,258L398,258ZM412,251L419,251L419,258L412,258ZM27,258L34,258L34,265L27,265ZM41,258L48,258L48,265L41,265ZM62,258L76,258L76,265L62,265ZM83,258L104,258L104,265L83,265ZM125,258L132,258L132,265L125,265ZM146,258L153,258L153,265L146,265ZM167,258L181,258L181,265L167,265ZM202,258L223,258L223,265L202,265ZM230,258L244,258L244,265L230,265ZM272,258L286,258L286,265L272,265ZM293,258L300,258L300,265L293,265ZM314,258L321,258L321,265L314,265ZM335,258L342,258L342,265L335,265ZM363,258L370,258L370,265L363,265ZM377,258L398,258L398,265L377,265ZM20,265L34,265L34,272L20,272ZM41,265L48,265L48,272L41,272ZM55,265L62,265L62,272L55,272ZM69,265L90,265L90,272L69,272ZM111,265L132,265L132,272L111,272ZM146,265L153,265L153,272L146,272ZM160,265L167,265L167,272L160,272ZM188,265L195,265L195,272L188,272ZM202,265L216,265L216,272L202,272ZM237,265L279,265L279,272L237,272ZM293,265L342,265L342,272L293,272ZM356,265L370,265L370,272L356,272ZM398,265L405,265L405,272L398,272ZM412,265L419,265L419,272L412,272ZM27,272L34,272L34,279L27,279ZM41,272L48,272L48,279L41,279ZM55,272L69,272L69,279L55,279ZM83,272L104,272L104,279L83,279ZM111,272L146,272L146,279L111,279ZM160,272L174,272L174,279L160,279ZM181,272L188,272L188,279L181,279ZM202,272L223,272L223,279L202,279ZM230,272L237,272L237,279L230,279ZM244,272L258,272L258,279L244,279ZM265,272L293,272L293,279L265,279ZM321,272L335,272L335,279L321,279ZM342,272L349,272L349,279L342,279ZM363,272L377,272L377,279L363,279ZM398,272L412,272L412,279L398,279ZM27,279L41,279L41,286L27,286ZM69,279L76,279L76,286L69,286ZM83,279L97,279L97,286L83,286ZM118,279L132,279L132,286L118,286ZM160,279L167,279L167,286L160,286ZM174,279L181,279L181,286L174,286ZM202,279L209,279L209,286L202,286ZM216,279L223,279L223,286L216,286ZM237,279L244,279L244,286L237,286ZM251,279L265,279L265,286L251,286ZM293,279L307,279L307,286L293,286ZM328,279L335,279L335,286L328,286ZM356,279L363,279L363,286L356,286ZM370,279L405,279L405,286L370,286ZM412,279L419,279L419,286L412,286ZM27,286L34,286L34,293L27,293ZM55,286L69,286L69,293L55,293ZM83,286L90,286L90,293L83,293ZM97,286L118,286L118,293L97,293ZM139,286L146,286L146,293L139,293ZM153,286L160,286L160,293L153,293ZM181,286L188,286L188,293L181,293ZM244,286L251,286L251,293L244,293ZM265,286L293,286L293,293L265,293ZM307,286L314,286L314,293L307,293ZM356,286L377,286L377,293L356,293ZM384,286L391,286L391,293L384,293ZM20,293L34,293L34,300L20,300ZM48,293L55,293L55,300L48,300ZM76,293L83,293L83,300L76,300ZM97,293L111,293L111,300L97,300ZM118,293L125,293L125,300L118,300ZM132,293L139,293L139,300L132,300ZM146,293L160,293L160,300L146,300ZM181,293L195,293L195,300L181,300ZM202,293L216,293L216,300L202,300ZM223,293L230,293L230,300L223,300ZM237,293L244,293L244,300L237,300ZM265,293L300,293L300,300L265,300ZM314,293L321,293L321,300L314,300ZM335,293L342,293L342,300L335,300ZM356,293L363,293L363,300L356,300ZM377,293L384,293L384,300L377,300ZM391,293L419,293L419,300L391,300ZM20,300L27,300L27,307L20,307ZM48,300L55,300L55,307L48,307ZM62,300L83,300L83,307L62,307ZM97,300L118,300L118,307L97,307ZM125,300L132,300L132,307L125,307ZM139,300L153,300L153,307L139,307ZM160,300L167,300L167,307L160,307ZM188,300L209,300L209,307L188,307ZM216,300L244,300L244,307L216,307ZM251,300L258,300L258,307L251,307ZM265,300L272,300L272,307L265,307ZM286,300L314,300L314,307L286,307ZM321,300L335,300L335,307L321,307ZM349,300L356,300L356,307L349,307ZM363,300L370,300L370,307L363,307ZM377,300L384,300L384,307L377,307ZM398,300L405,300L405,307L398,307ZM27,307L48,307L48,314L27,314ZM69,307L90,307L90,314L69,314ZM97,307L104,307L104,314L97,314ZM125,307L132,307L132,314L125,314ZM146,307L153,307L153,314L146,314ZM181,307L188,307L188,314L181,314ZM209,307L216,307L216,314L209,314ZM244,307L293,307L293,314L244,314ZM300,307L307,307L307,314L300,314ZM328,307L342,307L342,314L328,314ZM349,307L384,307L384,314L349,314ZM398,307L412,307L412,314L398,314ZM27,314L41,314L41,321L27,321ZM48,314L55,314L55,321L48,321ZM62,314L69,314L69,321L62,321ZM76,314L83,314L83,321L76,321ZM111,314L118,314L118,321L111,321ZM125,314L132,314L132,321L125,321ZM139,314L146,314L146,321L139,321ZM160,314L167,314L167,321L160,321ZM195,314L202,314L202,321L195,321ZM223,314L230,314L230,321L223,321ZM237,314L265,314L265,321L237,321ZM272,314L279,314L279,321L272,321ZM293,314L300,314L300,321L293,321ZM314,314L335,314L335,321L314,321ZM356,314L370,314L370,321L356,321ZM384,314L398,314L398,321L384,321ZM20,321L41,321L41,328L20,328ZM55,321L62,321L62,328L55,328ZM76,321L90,321L90,328L76,328ZM118,321L125,321L125,328L118,328ZM132,321L139,321L139,328L132,328ZM167,321L188,321L188,328L167,328ZM195,321L209,321L209,328L195,328ZM216,321L237,321L237,328L216,328ZM251,321L279,321L279,328L251,328ZM314,321L321,321L321,328L314,328ZM328,321L342,321L342,328L328,328ZM349,321L356,321L356,328L349,328ZM377,321L384,321L384,328L377,328ZM412,321L419,321L419,328L412,328ZM20,328L27,328L27,335L20,335ZM41,328L69,328L69,335L41,335ZM83,328L97,328L97,335L83,335ZM118,328L153,328L153,335L118,335ZM174,328L188,328L188,335L174,335ZM202,328L209,328L209,335L202,335ZM223,328L230,328L230,335L223,335ZM244,328L293,328L293,335L244,335ZM307,328L314,328L314,335L307,335ZM342,328L349,328L349,335L342,335ZM384,328L391,328L391,335L384,335ZM398,328L412,328L412,335L398,335ZM27,335L41,335L41,342L27,342ZM55,335L62,335L62,342L55,342ZM69,335L83,335L83,342L69,342ZM90,335L97,335L97,342L90,342ZM111,335L125,335L125,342L111,342ZM146,335L174,335L174,342L146,342ZM195,335L209,335L209,342L195,342ZM223,335L237,335L237,342L223,342ZM265,335L272,335L272,342L265,342ZM279,335L286,335L286,342L279,342ZM293,335L384,335L384,342L293,342ZM398,335L405,335L405,342L398,342ZM412,335L419,335L419,342L412,342ZM20,342L27,342L27,349L20,349ZM34,342L41,342L41,349L34,349ZM55,342L97,342L97,349L55,349ZM132,342L167,342L167,349L132,349ZM174,342L181,342L181,349L174,349ZM188,342L195,342L195,349L188,349ZM202,342L216,342L216,349L202,349ZM223,342L230,342L230,349L223,349ZM251,342L265,342L265,349L251,349ZM279,342L286,342L286,349L279,349ZM314,342L321,342L321,349L314,349ZM335,342L349,342L349,349L335,349ZM370,342L377,342L377,349L370,349ZM384,342L398,342L398,349L384,349ZM20,349L55,349L55,356L20,356ZM76,349L83,349L83,356L76,356ZM90,349L97,349L97,356L90,356ZM104,349L111,349L111,356L104,356ZM146,349L160,349L160,356L146,356ZM167,349L174,349L174,356L167,356ZM188,349L195,349L195,356L188,356ZM202,349L216,349L216,356L202,356ZM237,349L244,349L244,356L237,356ZM251,349L265,349L265,356L251,356ZM272,349L279,349L279,356L272,356ZM314,349L321,349L321,356L314,356ZM328,349L342,349L342,356L328,356ZM356,349L363,349L363,356L356,356ZM370,349L377,349L377,356L370,356ZM405,349L419,349L419,356L405,356ZM62,356L69,356L69,363L62,363ZM97,356L104,356L104,363L97,363ZM111,356L118,356L118,363L111,363ZM125,356L146,356L146,363L125,363ZM181,356L258,356L258,363L181,363ZM272,356L286,356L286,363L272,363ZM293,356L300,356L300,363L293,363ZM307,356L314,356L314,363L307,363ZM321,356L328,356L328,363L321,363ZM342,356L412,356L412,363L342,363ZM76,363L90,363L90,370L76,370ZM97,363L111,363L111,370L97,370ZM125,363L160,363L160,370L125,370ZM181,363L188,363L188,370L181,370ZM195,363L209,363L209,370L195,370ZM230,363L237,363L237,370L230,370ZM244,363L251,363L251,370L244,370ZM272,363L279,363L279,370L272,370ZM293,363L307,363L307,370L293,370ZM321,363L342,363L342,370L321,370ZM349,363L363,363L363,370L349,370ZM384,363L391,363L391,370L384,370ZM398,363L405,363L405,370L398,370ZM20,370L69,370L69,377L20,377ZM104,370L118,370L118,377L104,377ZM125,370L139,370L139,377L125,377ZM146,370L153,370L153,377L146,377ZM174,370L195,370L195,377L174,377ZM202,370L209,370L209,377L202,377ZM216,370L223,370L223,377L216,377ZM230,370L237,370L237,377L230,377ZM258,370L272,370L272,377L258,377ZM279,370L286,370L286,377L279,377ZM307,370L321,370L321,377L307,377ZM335,370L342,370L342,377L335,377ZM349,370L363,370L363,377L349,377ZM370,370L377,370L377,377L370,377ZM384,370L398,370L398,377L384,377ZM405,370L419,370L419,377L405,377ZM20,377L27,377L27,384L20,384ZM62,377L69,377L69,384L62,384ZM83,377L90,377L90,384L83,384ZM97,377L132,377L132,384L97,384ZM153,377L167,377L167,384L153,384ZM174,377L188,377L188,384L174,384ZM202,377L209,377L209,384L202,384ZM230,377L237,377L237,384L230,384ZM244,377L293,377L293,384L244,384ZM300,377L321,377L321,384L300,384ZM335,377L342,377L342,384L335,384ZM356,377L363,377L363,384L356,384ZM384,377L391,377L391,384L384,384ZM398,377L405,377L405,384L398,384ZM412,377L419,377L419,384L412,384ZM20,384L27,384L27,391L20,391ZM34,384L55,384L55,391L34,391ZM62,384L69,384L69,391L62,391ZM76,384L83,384L83,391L76,391ZM104,384L111,384L111,391L104,391ZM118,384L125,384L125,391L118,391ZM139,384L146,384L146,391L139,391ZM167,384L188,384L188,391L167,391ZM195,384L251,384L251,391L195,391ZM265,384L272,384L272,391L265,391ZM286,384L293,384L293,391L286,391ZM300,384L307,384L307,391L300,391ZM321,384L328,384L328,391L321,391ZM342,384L349,384L349,391L342,391ZM356,384L391,384L391,391L356,391ZM405,384L412,384L412,391L405,391ZM20,391L27,391L27,398L20,398ZM34,391L55,391L55,398L34,398ZM62,391L69,391L69,398L62,398ZM76,391L90,391L90,398L76,398ZM97,391L104,391L104,398L97,398ZM111,391L132,391L132,398L111,398ZM153,391L167,391L167,398L153,398ZM174,391L181,391L181,398L174,398ZM188,391L195,391L195,398L188,398ZM216,391L230,391L230,398L216,398ZM265,391L321,391L321,398L265,398ZM328,391L335,391L335,398L328,398ZM342,391L356,391L356,398L342,398ZM391,391L412,391L412,398L391,398ZM20,398L27,398L27,405L20,405ZM34,398L55,398L55,405L34,405ZM62,398L69,398L69,405L62,405ZM76,398L83,398L83,405L76,405ZM146,398L153,398L153,405L146,405ZM174,398L188,398L188,405L174,405ZM202,398L216,398L216,405L202,405ZM223,398L244,398L244,405L223,405ZM265,398L272,398L272,405L265,405ZM279,398L293,398L293,405L279,405ZM307,398L328,398L328,405L307,405ZM342,398L391,398L391,405L342,405ZM20,405L27,405L27,412L20,412ZM62,405L69,405L69,412L62,412ZM97,405L118,405L118,412L97,412ZM132,405L139,405L139,412L132,412ZM167,405L181,405L181,412L167,412ZM195,405L202,405L202,412L195,412ZM209,405L216,405L216,412L209,412ZM244,405L272,405L272,412L244,412ZM314,405L321,405L321,412L314,412ZM328,405L335,405L335,412L328,412ZM349,405L356,405L356,412L349,412ZM377,405L391,405L391,412L377,412ZM398,405L419,405L419,412L398,412ZM20,412L69,412L69,419L20,419ZM83,412L97,412L97,419L83,419ZM125,412L139,412L139,419L125,419ZM153,412L160,412L160,419L153,419ZM174,412L188,412L188,419L174,419ZM195,412L209,412L209,419L195,419ZM230,412L237,412L237,419L230,419ZM265,412L300,412L300,419L265,419ZM307,412L321,412L321,419L307,419ZM335,412L349,412L349,419L335,419ZM356,412L363,412L363,419L356,419ZM391,412L398,412L398,419L391,419ZM405,412L412,412L412,419L405,419Z"/></svg>
