<?xml version="1.0"?>
<svg xmlns="http://www.w3.org/2000/svg" xmlns:xlink="http://www.w3.org/1999/xlink" version="1.1" width="440px" height="440px" viewBox="0 0 440 440"><rect x="0" y="0" width="440" height="440" fill="#ffffff" fill-opacity="1"/><path fill="#000000" fill-opacity="1" d="M20,20L69,20L69,27L20,27ZM76,20L97,20L97,27L76,27ZM111,20L118,20L118,27L111,27ZM132,20L153,20L153,27L132,27ZM202,20L209,20L209,27L202,27ZM223,20L230,20L230,27L223,27ZM237,20L258,20L258,27L237,27ZM265,20L279,20L279,27L265,27ZM286,20L293,20L293,27L286,27ZM300,20L314,20L314,27L300,27ZM328,20L335,20L335,27L328,27ZM342,20L356,20L356,27L342,27ZM370,20L419,20L419,27L370,27ZM20,27L27,27L27,34L20,34ZM62,27L69,27L69,34L62,34ZM76,27L90,27L90,34L76,34ZM104,27L111,27L111,34L104,34ZM118,27L125,27L125,34L118,34ZM139,27L146,27L146,34L139,34ZM153,27L188,27L188,34L153,34ZM209,27L244,27L244,34L209,34ZM251,27L265,27L265,34L251,34ZM293,27L300,27L300,34L293,34ZM307,27L314,27L314,34L307,34ZM349,27L356,27L356,34L349,34ZM370,27L377,27L377,34L370,34ZM412,27L419,27L419,34L412,34ZM20,34L27,34L27,41L20,41ZM34,34L55,34L55,41L34,41ZM62,34L69,34L69,41L62,41ZM76,34L118,34L118,41L76,41ZM132,34L146,34L146,41L132,41ZM153,34L174,34L174,41L153,41ZM237,34L258,34L258,41L237,41ZM279,34L286,34L286,41L279,41ZM307,34L356,34L356,41L307,41ZM370,34L377,34L377,41L370,41ZM384,34L405,34L405,41L384,41ZM412,34L419,34L419,41L412,41ZM20,41L27,41L27,48L20,48ZM34,41L55,41L55,48L34,48ZM62,41L69,41L69,48L62,48ZM83,41L97,41L97,48L83,48ZM104,41L111,41L111,48L104,48ZM132,41L139,41L139,48L132,48ZM153,41L174,41L174,48L153,48ZM195,41L209,41L209,48L195,48ZM223,41L258,41L258,48L223,48ZM265,41L279,41L279,48L265,48ZM286,41L300,41L300,48L286,48ZM321,41L335,41L335,48L321,48ZM349,41L356,41L356,48L349,48ZM370,41L377,41L377,48L370,48ZM384,41L405,41L405,48L384,48ZM412,41L419,41L419,48L412,48ZM20,48L27,48L27,55L20,55ZM34,48L55,48L55,55L34,55ZM62,48L69,48L69,55L62,55ZM90,48L104,48L104,55L90,55ZM118,48L125,48L125,55L118,55ZM146,48L160,48L160,55L146,55ZM167,48L188,48L188,55L167,55ZM202,48L237,48L237,55L202,55ZM272,48L279,48L279,55L272,55ZM293,48L314,48L314,55L293,55ZM328,48L342,48L342,55L328,55ZM349,48L356,48L356,55L349,55ZM370,48L377,48L377,55L370,55ZM384,48L405,48L405,55L384,55ZM412,48L419,48L419,55L412,55ZM20,55L27,55L27,62L20,62ZM62,55L69,55L69,62L62,62ZM76,55L90,55L90,62L76,62ZM97,55L118,55L118,62L97,62ZM125,55L132,55L132,62L125,62ZM139,55L160,55L160,62L139,62ZM167,55L195,55L195,62L167,62ZM202,55L209,55L209,62L202,62ZM230,55L244,55L244,62L230,62ZM258,55L272,55L272,62L258,62ZM279,55L286,55L286,62L279,62ZM307,55L314,55L314,62L307,62ZM335,55L349,55L349,62L335,62ZM370,55L377,55L377,62L370,62ZM412,55L419,55L419,62L412,62ZM20,62L69,62L69,69L20,69ZM76,62L83,62L83,69L76,69ZM90,62L97,62L97,69L90,69ZM104,62L111,62L111,69L104,69ZM118,62L125,62L125,69L118,69ZM132,62L139,62L139,69L132,69ZM146,62L153,62L153,69L146,69ZM160,62L167,62L167,69L160,69ZM174,62L181,62L181,69L174,69ZM188,62L195,62L195,69L188,69ZM202,62L209,62L209,69L202,69ZM216,62L223,62L223,69L216,69ZM230,62L237,62L237,69L230,69ZM244,62L251,62L251,69L244,69ZM258,62L265,62L265,69L258,69ZM272,62L279,62L279,69L272,69ZM286,62L293,62L293,69L286,69ZM300,62L307,62L307,69L300,69ZM314,62L321,62L321,69L314,69ZM328,62L335,62L335,69L328,69ZM342,62L349,62L349,69L342,69ZM356,62L363,62L363,69L356,69ZM370,62L419,62L419,69L370,69ZM76,69L97,69L97,76L76,76ZM125,69L181,69L181,76L125,76ZM202,69L209,69L209,76L202,76ZM230,69L237,69L237,76L230,76ZM258,69L279,69L279,76L258,76ZM293,69L307,69L307,76L293,76ZM314,69L328,69L328,76L314,76ZM342,69L349,69L349,76L342,76ZM356,69L363,69L363,76L356,76ZM34,76L55,76L55,83L34,83ZM62,76L69,76L69,83L62,83ZM76,76L97,76L97,83L76,83ZM125,76L160,76L160,83L125,83ZM167,76L188,76L188,83L167,83ZM195,76L244,76L244,83L195,83ZM272,76L286,76L286,83L272,83ZM307,76L314,76L314,83L307,83ZM335,76L349,76L349,83L335,83ZM356,76L384,76L384,83L356,83ZM398,76L419,76L419,83L398,83ZM27,83L55,83L55,90L27,90ZM69,83L83,83L83,90L69,90ZM90,83L97,83L97,90L90,90ZM132,83L153,83L153,90L132,90ZM160,83L167,83L167,90L160,90ZM174,83L181,83L181,90L174,90ZM195,83L202,83L202,90L195,90ZM216,83L237,83L237,90L216,90ZM244,83L272,83L272,90L244,90ZM300,83L307,83L307,90L300,90ZM314,83L328,83L328,90L314,90ZM342,83L349,83L349,90L342,90ZM363,83L370,83L370,90L363,90ZM384,83L391,83L391,90L384,90ZM398,83L405,83L405,90L398,90ZM27,90L34,90L34,97L27,97ZM62,90L69,90L69,97L62,97ZM125,90L139,90L139,97L125,97ZM146,90L153,90L153,97L146,97ZM160,90L167,90L167,97L160,97ZM188,90L195,90L195,97L188,97ZM202,90L209,90L209,97L202,97ZM216,90L223,90L223,97L216,97ZM237,90L251,90L251,97L237,97ZM279,90L286,90L286,97L279,97ZM293,90L300,90L300,97L293,97ZM314,90L321,90L321,97L314,97ZM335,90L342,90L342,97L335,97ZM349,90L356,90L356,97L349,97ZM391,90L398,90L398,97L391,97ZM412,90L419,90L419,97L412,97ZM20,97L27,97L27,104L20,104ZM34,97L55,97L55,104L34,104ZM69,97L83,97L83,104L69,104ZM90,97L104,97L104,104L90,104ZM111,97L125,97L125,104L111,104ZM132,97L139,97L139,104L132,104ZM160,97L209,97L209,104L160,104ZM258,97L286,97L286,104L258,104ZM293,97L307,97L307,104L293,104ZM314,97L321,97L321,104L314,104ZM328,97L335,97L335,104L328,104ZM356,97L363,97L363,104L356,104ZM377,97L384,97L384,104L377,104ZM398,97L419,97L419,104L398,104ZM20,104L34,104L34,111L20,111ZM41,104L48,104L48,111L41,111ZM55,104L76,104L76,111L55,111ZM90,104L118,104L118,111L90,111ZM125,104L132,104L132,111L125,111ZM139,104L160,104L160,111L139,111ZM174,104L181,104L181,111L174,111ZM188,104L202,104L202,111L188,111ZM216,104L272,104L272,111L216,111ZM286,104L293,104L293,111L286,111ZM300,104L314,104L314,111L300,111ZM321,104L328,104L328,111L321,111ZM342,104L349,104L349,111L342,111ZM363,104L398,104L398,111L363,111ZM27,111L34,111L34,118L27,118ZM48,111L55,111L55,118L48,118ZM69,111L90,111L90,118L69,118ZM111,111L139,111L139,118L111,118ZM146,111L153,111L153,118L146,118ZM160,111L167,111L167,118L160,118ZM188,111L202,111L202,118L188,118ZM209,111L258,111L258,118L209,118ZM265,111L272,111L272,118L265,118ZM293,111L342,111L342,118L293,118ZM349,111L363,111L363,118L349,118ZM377,111L419,111L419,118L377,118ZM20,118L27,118L27,125L20,125ZM34,118L41,118L41,125L34,125ZM55,118L83,118L83,125L55,125ZM90,118L97,118L97,125L90,125ZM111,118L118,118L118,125L111,125ZM125,118L139,118L139,125L125,125ZM195,118L209,118L209,125L195,125ZM230,118L265,118L265,125L230,125ZM279,118L286,118L286,125L279,125ZM314,118L321,118L321,125L314,125ZM335,118L342,118L342,125L335,125ZM349,118L356,118L356,125L349,125ZM405,118L419,118L419,125L405,125ZM20,125L27,125L27,132L20,132ZM34,125L55,125L55,132L34,132ZM69,125L83,125L83,132L69,132ZM90,125L104,125L104,132L90,132ZM111,125L139,125L139,132L111,132ZM167,125L181,125L181,132L167,132ZM195,125L202,125L202,132L195,132ZM237,125L251,125L251,132L237,132ZM258,125L265,125L265,132L258,132ZM279,125L286,125L286,132L279,132ZM300,125L328,125L328,132L300,132ZM335,125L342,125L342,132L335,132ZM356,125L363,125L363,132L356,132ZM377,125L384,125L384,132L377,132ZM398,125L405,125L405,132L398,132ZM412,125L419,125L419,132L412,132ZM20,132L27,132L27,139L20,139ZM48,132L55,132L55,139L48,139ZM62,132L76,132L76,139L62,139ZM90,132L111,132L111,139L90,139ZM132,132L139,132L139,139L132,139ZM146,132L153,132L153,139L146,139ZM160,132L167,132L167,139L160,139ZM181,132L202,132L202,139L181,139ZM258,132L272,132L272,139L258,139ZM286,132L293,132L293,139L286,139ZM321,132L328,132L328,139L321,139ZM342,132L384,132L384,139L342,139ZM391,132L398,132L398,139L391,139ZM48,139L62,139L62,146L48,146ZM69,139L76,139L76,146L69,146ZM83,139L90,139L90,146L83,146ZM97,139L104,139L104,146L97,146ZM111,139L132,139L132,146L111,146ZM146,139L153,139L153,146L146,146ZM167,139L174,139L174,146L167,146ZM188,139L202,139L202,146L188,146ZM209,139L230,139L230,146L209,146ZM237,139L244,139L244,146L237,146ZM272,139L279,139L279,146L272,146ZM293,139L342,139L342,146L293,146ZM377,139L384,139L384,146L377,146ZM398,139L405,139L405,146L398,146ZM27,146L34,146L34,153L27,153ZM62,146L69,146L69,153L62,153ZM76,146L83,146L83,153L76,153ZM104,146L111,146L111,153L104,153ZM118,146L125,146L125,153L118,153ZM139,146L167,146L167,153L139,153ZM174,146L188,146L188,153L174,153ZM202,146L209,146L209,153L202,153ZM216,146L223,146L223,153L216,153ZM230,146L244,146L244,153L230,153ZM265,146L286,146L286,153L265,153ZM335,146L342,146L342,153L335,153ZM349,146L356,146L356,153L349,153ZM363,146L370,146L370,153L363,153ZM377,146L384,146L384,153L377,153ZM391,146L398,146L398,153L391,153ZM412,146L419,146L419,153L412,153ZM20,153L27,153L27,160L20,160ZM48,153L55,153L55,160L48,160ZM97,153L104,153L104,160L97,160ZM125,153L132,153L132,160L125,160ZM139,153L146,153L146,160L139,160ZM153,153L160,153L160,160L153,160ZM174,153L181,153L181,160L174,160ZM188,153L195,153L195,160L188,160ZM202,153L216,153L216,160L202,160ZM223,153L230,153L230,160L223,160ZM237,153L244,153L244,160L237,160ZM251,153L258,153L258,160L251,160ZM265,153L272,153L272,160L265,160ZM300,153L307,153L307,160L300,160ZM314,153L321,153L321,160L314,160ZM335,153L342,153L342,160L335,160ZM356,153L370,153L370,160L356,160ZM398,153L405,153L405,160L398,160ZM412,153L419,153L419,160L412,160ZM20,160L41,160L41,167L20,167ZM48,160L76,160L76,167L48,167ZM83,160L97,160L97,167L83,167ZM104,160L111,160L111,167L104,167ZM139,160L160,160L160,167L139,167ZM174,160L181,160L181,167L174,167ZM188,160L216,160L216,167L188,167ZM237,160L244,160L244,167L237,167ZM251,160L300,160L300,167L251,167ZM307,160L314,160L314,167L307,167ZM321,160L328,160L328,167L321,167ZM342,160L349,160L349,167L342,167ZM370,160L398,160L398,167L370,167ZM405,160L412,160L412,167L405,167ZM20,167L48,167L48,174L20,174ZM76,167L139,167L139,174L76,174ZM146,167L153,167L153,174L146,174ZM174,167L181,167L181,174L174,174ZM202,167L216,167L216,174L202,174ZM223,167L237,167L237,174L223,174ZM258,167L265,167L265,174L258,174ZM272,167L342,167L342,174L272,174ZM356,167L363,167L363,174L356,174ZM384,167L391,167L391,174L384,174ZM398,167L405,167L405,174L398,174ZM55,174L76,174L76,181L55,181ZM97,174L104,174L104,181L97,181ZM111,174L118,174L118,181L111,181ZM125,174L139,174L139,181L125,181ZM146,174L160,174L160,181L146,181ZM167,174L174,174L174,181L167,181ZM195,174L202,174L202,181L195,181ZM209,174L216,174L216,181L209,181ZM237,174L251,174L251,181L237,181ZM258,174L286,174L286,181L258,181ZM335,174L342,174L342,181L335,181ZM349,174L356,174L356,181L349,181ZM370,174L384,174L384,181L370,181ZM391,174L398,174L398,181L391,181ZM405,174L412,174L412,181L405,181ZM20,181L27,181L27,188L20,188ZM48,181L62,181L62,188L48,188ZM69,181L118,181L118,188L69,188ZM160,181L167,181L167,188L160,188ZM195,181L209,181L209,188L195,188ZM223,181L258,181L258,188L223,188ZM265,181L272,181L272,188L265,188ZM293,181L300,181L300,188L293,188ZM307,181L314,181L314,188L307,188ZM328,181L342,181L342,188L328,188ZM356,181L363,181L363,188L356,188ZM391,181L405,181L405,188L391,188ZM412,181L419,181L419,188L412,188ZM20,188L76,188L76,195L20,195ZM90,188L97,188L97,195L90,195ZM111,188L146,188L146,195L111,195ZM153,188L160,188L160,195L153,195ZM167,188L188,188L188,195L167,195ZM195,188L202,188L202,195L195,195ZM209,188L230,188L230,195L209,195ZM244,188L272,188L272,195L244,195ZM279,188L293,188L293,195L279,195ZM300,188L307,188L307,195L300,195ZM342,188L349,188L349,195L342,195ZM356,188L384,188L384,195L356,195ZM398,188L405,188L405,195L398,195ZM412,188L419,188L419,195L412,195ZM20,195L41,195L41,202L20,202ZM48,195L62,195L62,202L48,202ZM69,195L83,195L83,202L69,202ZM90,195L104,195L104,202L90,202ZM111,195L118,195L118,202L111,202ZM139,195L167,195L167,202L139,202ZM188,195L209,195L209,202L188,202ZM216,195L258,195L258,202L216,202ZM272,195L279,195L279,202L272,202ZM293,195L314,195L314,202L293,202ZM328,195L349,195L349,202L328,202ZM377,195L391,195L391,202L377,202ZM398,195L419,195L419,202L398,202ZM20,202L97,202L97,209L20,209ZM104,202L111,202L111,209L104,209ZM139,202L146,202L146,209L139,209ZM153,202L160,202L160,209L153,209ZM167,202L237,202L237,209L167,209ZM244,202L293,202L293,209L244,209ZM300,202L307,202L307,209L300,209ZM314,202L328,202L328,209L314,209ZM335,202L342,202L342,209L335,209ZM349,202L391,202L391,209L349,209ZM398,202L412,202L412,209L398,209ZM27,209L34,209L34,216L27,216ZM48,209L55,209L55,216L48,216ZM76,209L83,209L83,216L76,216ZM97,209L104,209L104,216L97,216ZM174,209L181,209L181,216L174,216ZM188,209L195,209L195,216L188,216ZM202,209L209,209L209,216L202,216ZM230,209L251,209L251,216L230,216ZM258,209L265,209L265,216L258,216ZM272,209L286,209L286,216L272,216ZM293,209L300,209L300,216L293,216ZM307,209L321,209L321,216L307,216ZM335,209L342,209L342,216L335,216ZM349,209L363,209L363,216L349,216ZM384,209L391,209L391,216L384,216ZM398,209L419,209L419,216L398,216ZM20,216L27,216L27,223L20,223ZM34,216L55,216L55,223L34,223ZM62,216L69,216L69,223L62,223ZM76,216L90,216L90,223L76,223ZM125,216L132,216L132,223L125,223ZM146,216L153,216L153,223L146,223ZM160,216L167,216L167,223L160,223ZM188,216L195,216L195,223L188,223ZM202,216L209,216L209,223L202,223ZM216,216L223,216L223,223L216,223ZM230,216L244,216L244,223L230,223ZM251,216L279,216L279,223L251,223ZM286,216L300,216L300,223L286,223ZM321,216L328,216L328,223L321,223ZM342,216L349,216L349,223L342,223ZM356,216L363,216L363,223L356,223ZM370,216L377,216L377,223L370,223ZM384,216L391,216L391,223L384,223ZM398,216L405,216L405,223L398,223ZM27,223L55,223L55,230L27,230ZM76,223L97,223L97,230L76,230ZM104,223L111,223L111,230L104,230ZM125,223L132,223L132,230L125,230ZM139,223L146,223L146,230L139,230ZM160,223L181,223L181,230L160,230ZM188,223L195,223L195,230L188,230ZM202,223L209,223L209,230L202,230ZM230,223L237,223L237,230L230,230ZM244,223L258,223L258,230L244,230ZM272,223L279,223L279,230L272,230ZM300,223L314,223L314,230L300,230ZM321,223L349,223L349,230L321,230ZM356,223L363,223L363,230L356,230ZM384,223L405,223L405,230L384,230ZM412,223L419,223L419,230L412,230ZM20,230L27,230L27,237L20,237ZM41,230L83,230L83,237L41,237ZM90,230L104,230L104,237L90,237ZM118,230L125,230L125,237L118,237ZM132,230L139,230L139,237L132,237ZM146,230L167,230L167,237L146,237ZM181,230L195,230L195,237L181,237ZM202,230L237,230L237,237L202,237ZM286,230L300,230L300,237L286,237ZM314,230L328,230L328,237L314,237ZM356,230L391,230L391,237L356,237ZM20,237L27,237L27,244L20,244ZM34,237L48,237L48,244L34,244ZM55,237L62,237L62,244L55,244ZM69,237L83,237L83,244L69,244ZM97,237L111,237L111,244L97,244ZM118,237L132,237L132,244L118,244ZM139,237L146,237L146,244L139,244ZM153,237L160,237L160,244L153,244ZM174,237L181,237L181,244L174,244ZM195,237L202,237L202,244L195,244ZM209,237L216,237L216,244L209,244ZM223,237L230,237L230,244L223,244ZM251,237L279,237L279,244L251,244ZM307,237L321,237L321,244L307,244ZM391,237L398,237L398,244L391,244ZM412,237L419,237L419,244L412,244ZM20,244L41,244L41,251L20,251ZM62,244L69,244L69,251L62,251ZM90,244L97,244L97,251L90,251ZM104,244L160,244L160,251L104,251ZM174,244L181,244L181,251L174,251ZM202,244L216,244L216,251L202,251ZM230,244L237,244L237,251L230,251ZM251,244L258,244L258,251L251,251ZM265,244L272,244L272,251L265,251ZM279,244L293,244L293,251L279,251ZM307,244L314,244L314,251L307,251ZM335,244L349,244L349,251L335,251ZM391,244L398,244L398,251L391,251ZM405,244L412,244L412,251L405,251ZM34,251L62,251L62,258L34,258ZM76,251L90,251L90,258L76,258ZM111,251L118,251L118,258L111,258ZM132,251L181,251L181,258L132,258ZM188,251L202,251L202,258L188,258ZM216,251L230,251L230,258L216,258ZM244,251L251,251L251,258L244,258ZM258,251L265,251L265,258L258,258ZM272,251L286,251L286,258L272,258ZM300,251L307,251L307,258L300,258ZM314,251L342,251L342,258L314,258ZM349,251L356,251L356,258L349,258ZM363,251L384,251L384,258L363,258ZM398,251L405,251L405,258L398,258ZM412,251L419,251L419,258L412,258ZM41,258L48,258L48,265L41,265ZM62,258L76,258L76,265L62,265ZM83,258L97,258L97,265L83,265ZM104,258L118,258L118,265L104,265ZM125,258L132,258L132,265L125,265ZM146,258L167,258L167,265L146,265ZM181,258L188,258L188,265L181,265ZM209,258L216,258L216,265L209,265ZM230,258L237,258L237,265L230,265ZM244,258L258,258L258,265L244,265ZM286,258L300,258L300,265L286,265ZM314,258L321,258L321,265L314,265ZM335,258L349,258L349,265L335,265ZM370,258L377,258L377,265L370,265ZM384,258L398,258L398,265L384,265ZM20,265L34,265L34,272L20,272ZM41,265L62,265L62,272L41,272ZM69,265L90,265L90,272L69,272ZM97,265L104,265L104,272L97,272ZM111,265L139,265L139,272L111,272ZM146,265L153,265L153,272L146,272ZM160,265L174,265L174,272L160,272ZM181,265L195,265L195,272L181,272ZM202,265L209,265L209,272L202,272ZM216,265L223,265L223,272L216,272ZM244,265L265,265L265,272L244,272ZM279,265L286,265L286,272L279,272ZM307,265L335,265L335,272L307,272ZM356,265L363,265L363,272L356,272ZM377,265L384,265L384,272L377,272ZM398,265L405,265L405,272L398,272ZM412,265L419,265L419,272L412,272ZM20,272L48,272L48,279L20,279ZM55,272L111,272L111,279L55,279ZM118,272L153,272L153,279L118,279ZM167,272L188,272L188,279L167,279ZM202,272L223,272L223,279L202,279ZM230,272L237,272L237,279L230,279ZM244,272L258,272L258,279L244,279ZM265,272L279,272L279,279L265,279ZM286,272L307,272L307,279L286,279ZM321,272L349,272L349,279L321,279ZM363,272L391,272L391,279L363,279ZM398,272L412,272L412,279L398,279ZM20,279L27,279L27,286L20,286ZM34,279L41,279L41,286L34,286ZM76,279L111,279L111,286L76,286ZM118,279L132,279L132,286L118,286ZM139,279L146,279L146,286L139,286ZM160,279L167,279L167,286L160,286ZM202,279L209,279L209,286L202,286ZM216,279L223,279L223,286L216,286ZM230,279L244,279L244,286L230,286ZM251,279L265,279L265,286L251,286ZM300,279L307,279L307,286L300,286ZM328,279L342,279L342,286L328,286ZM356,279L363,279L363,286L356,286ZM370,279L377,279L377,286L370,286ZM391,279L405,279L405,286L391,286ZM20,286L27,286L27,293L20,293ZM34,286L41,286L41,293L34,293ZM55,286L76,286L76,293L55,293ZM83,286L90,286L90,293L83,293ZM97,286L125,286L125,293L97,293ZM139,286L146,286L146,293L139,293ZM153,286L174,286L174,293L153,293ZM181,286L188,286L188,293L181,293ZM223,286L237,286L237,293L223,293ZM244,286L251,286L251,293L244,293ZM265,286L272,286L272,293L265,293ZM279,286L300,286L300,293L279,293ZM307,286L314,286L314,293L307,293ZM342,286L349,286L349,293L342,293ZM363,286L391,286L391,293L363,293ZM412,286L419,286L419,293L412,293ZM41,293L48,293L48,300L41,300ZM69,293L76,293L76,300L69,300ZM111,293L125,293L125,300L111,300ZM132,293L139,293L139,300L132,300ZM146,293L160,293L160,300L146,300ZM167,293L195,293L195,300L167,300ZM202,293L216,293L216,300L202,300ZM223,293L244,293L244,300L223,300ZM265,293L272,293L272,300L265,300ZM279,293L300,293L300,300L279,300ZM307,293L321,293L321,300L307,300ZM335,293L342,293L342,300L335,300ZM356,293L363,293L363,300L356,300ZM391,293L419,293L419,300L391,300ZM41,300L48,300L48,307L41,307ZM55,300L69,300L69,307L55,307ZM76,300L83,300L83,307L76,307ZM97,300L104,300L104,307L97,307ZM125,300L132,300L132,307L125,307ZM139,300L160,300L160,307L139,307ZM174,300L181,300L181,307L174,307ZM188,300L209,300L209,307L188,307ZM216,300L244,300L244,307L216,307ZM251,300L258,300L258,307L251,307ZM272,300L279,300L279,307L272,307ZM286,300L293,300L293,307L286,307ZM321,300L335,300L335,307L321,307ZM363,300L370,300L370,307L363,307ZM377,300L384,300L384,307L377,307ZM391,300L405,300L405,307L391,307ZM27,307L34,307L34,314L27,314ZM41,307L48,307L48,314L41,314ZM69,307L76,307L76,314L69,314ZM83,307L90,307L90,314L83,314ZM118,307L132,307L132,314L118,314ZM146,307L167,307L167,314L146,314ZM181,307L188,307L188,314L181,314ZM209,307L216,307L216,314L209,314ZM223,307L237,307L237,314L223,314ZM244,307L272,307L272,314L244,314ZM279,307L293,307L293,314L279,314ZM300,307L307,307L307,314L300,314ZM314,307L321,307L321,314L314,314ZM328,307L342,307L342,314L328,314ZM349,307L384,307L384,314L349,314ZM391,307L412,307L412,314L391,314ZM20,314L34,314L34,321L20,321ZM48,314L55,314L55,321L48,321ZM62,314L69,314L69,321L62,321ZM76,314L83,314L83,321L76,321ZM97,314L132,314L132,321L97,321ZM139,314L146,314L146,321L139,321ZM153,314L174,314L174,321L153,321ZM195,314L202,314L202,321L195,321ZM237,314L265,314L265,321L237,321ZM272,314L279,314L279,321L272,321ZM293,314L300,314L300,321L293,321ZM307,314L335,314L335,321L307,321ZM356,314L370,314L370,321L356,321ZM384,314L391,314L391,321L384,321ZM48,321L55,321L55,328L48,328ZM69,321L90,321L90,328L69,328ZM111,321L118,321L118,328L111,328ZM132,321L139,321L139,328L132,328ZM167,321L174,321L174,328L167,328ZM181,321L188,321L188,328L181,328ZM195,321L209,321L209,328L195,328ZM216,321L237,321L237,328L216,328ZM265,321L279,321L279,328L265,328ZM307,321L342,321L342,328L307,328ZM349,321L363,321L363,328L349,328ZM377,321L384,321L384,328L377,328ZM391,321L419,321L419,328L391,328ZM27,328L34,328L34,335L27,335ZM41,328L48,328L48,335L41,335ZM62,328L76,328L76,335L62,335ZM83,328L97,328L97,335L83,335ZM104,328L160,328L160,335L104,335ZM174,328L181,328L181,335L174,335ZM188,328L209,328L209,335L188,335ZM216,328L230,328L230,335L216,335ZM244,328L251,328L251,335L244,335ZM265,328L272,328L272,335L265,335ZM279,328L293,328L293,335L279,335ZM321,328L328,328L328,335L321,335ZM342,328L349,328L349,335L342,335ZM356,328L363,328L363,335L356,335ZM384,328L391,328L391,335L384,335ZM398,328L405,328L405,335L398,335ZM20,335L27,335L27,342L20,342ZM41,335L48,335L48,342L41,342ZM90,335L104,335L104,342L90,342ZM118,335L132,335L132,342L118,342ZM146,335L160,335L160,342L146,342ZM167,335L188,335L188,342L167,342ZM209,335L216,335L216,342L209,342ZM223,335L237,335L237,342L223,342ZM258,335L279,335L279,342L258,342ZM293,335L307,335L307,342L293,342ZM314,335L356,335L356,342L314,342ZM363,335L384,335L384,342L363,342ZM391,335L405,335L405,342L391,342ZM412,335L419,335L419,342L412,342ZM20,342L27,342L27,349L20,349ZM34,342L41,342L41,349L34,349ZM55,342L69,342L69,349L55,349ZM90,342L104,342L104,349L90,349ZM146,342L153,342L153,349L146,349ZM160,342L181,342L181,349L160,349ZM188,342L209,342L209,349L188,349ZM216,342L237,342L237,349L216,349ZM251,342L272,342L272,349L251,349ZM279,342L286,342L286,349L279,349ZM307,342L321,342L321,349L307,349ZM335,342L349,342L349,349L335,349ZM370,342L377,342L377,349L370,349ZM384,342L391,342L391,349L384,349ZM20,349L55,349L55,356L20,356ZM69,349L118,349L118,356L69,356ZM146,349L160,349L160,356L146,356ZM181,349L209,349L209,356L181,356ZM216,349L223,349L223,356L216,356ZM244,349L251,349L251,356L244,356ZM272,349L279,349L279,356L272,356ZM314,349L328,349L328,356L314,356ZM335,349L342,349L342,356L335,356ZM349,349L363,349L363,356L349,356ZM370,349L377,349L377,356L370,356ZM391,349L419,349L419,356L391,356ZM62,356L69,356L69,363L62,363ZM76,356L83,356L83,363L76,363ZM90,356L97,356L97,363L90,363ZM111,356L118,356L118,363L111,363ZM125,356L153,356L153,363L125,363ZM160,356L174,356L174,363L160,363ZM188,356L195,356L195,363L188,363ZM202,356L237,356L237,363L202,363ZM244,356L258,356L258,363L244,363ZM279,356L286,356L286,363L279,363ZM293,356L300,356L300,363L293,363ZM307,356L314,356L314,363L307,363ZM321,356L328,356L328,363L321,363ZM342,356L349,356L349,363L342,363ZM356,356L412,356L412,363L356,363ZM76,363L90,363L90,370L76,370ZM97,363L104,363L104,370L97,370ZM132,363L139,363L139,370L132,370ZM146,363L167,363L167,370L146,370ZM174,363L188,363L188,370L174,370ZM202,363L209,363L209,370L202,370ZM230,363L279,363L279,370L230,370ZM293,363L307,363L307,370L293,370ZM314,363L342,363L342,370L314,370ZM356,363L363,363L363,370L356,370ZM384,363L405,363L405,370L384,370ZM20,370L69,370L69,377L20,377ZM97,370L111,370L111,377L97,377ZM132,370L146,370L146,377L132,377ZM160,370L167,370L167,377L160,377ZM174,370L209,370L209,377L174,377ZM216,370L223,370L223,377L216,377ZM230,370L244,370L244,377L230,377ZM265,370L286,370L286,377L265,377ZM314,370L321,370L321,377L314,377ZM335,370L342,370L342,377L335,377ZM349,370L363,370L363,377L349,377ZM370,370L377,370L377,377L370,377ZM384,370L391,370L391,377L384,377ZM405,370L419,370L419,377L405,377ZM20,377L27,377L27,384L20,384ZM62,377L69,377L69,384L62,384ZM83,377L97,377L97,384L83,384ZM104,377L125,377L125,384L104,384ZM139,377L146,377L146,384L139,384ZM153,377L174,377L174,384L153,384ZM195,377L209,377L209,384L195,384ZM230,377L251,377L251,384L230,384ZM265,377L272,377L272,384L265,384ZM279,377L293,377L293,384L279,384ZM300,377L307,377L307,384L300,384ZM314,377L328,377L328,384L314,384ZM335,377L342,377L342,384L335,384ZM349,377L363,377L363,384L349,384ZM384,377L391,377L391,384L384,384ZM398,377L405,377L405,384L398,384ZM412,377L419,377L419,384L412,384ZM20,384L27,384L27,391L20,391ZM34,384L55,384L55,391L34,391ZM62,384L69,384L69,391L62,391ZM76,384L83,384L83,391L76,391ZM104,384L111,384L111,391L104,391ZM125,384L132,384L132,391L125,391ZM139,384L146,384L146,391L139,391ZM167,384L244,384L244,391L167,391ZM286,384L293,384L293,391L286,391ZM300,384L314,384L314,391L300,391ZM328,384L335,384L335,391L328,391ZM342,384L349,384L349,391L342,391ZM356,384L398,384L398,391L356,391ZM405,384L412,384L412,391L405,391ZM20,391L27,391L27,398L20,398ZM34,391L55,391L55,398L34,398ZM62,391L69,391L69,398L62,398ZM76,391L90,391L90,398L76,398ZM97,391L104,391L104,398L97,398ZM111,391L118,391L118,398L111,398ZM125,391L132,391L132,398L125,398ZM153,391L174,391L174,398L153,398ZM195,391L202,391L202,398L195,398ZM216,391L223,391L223,398L216,398ZM258,391L272,391L272,398L258,398ZM279,391L335,391L335,398L279,398ZM342,391L363,391L363,398L342,398ZM398,391L412,391L412,398L398,398ZM20,398L27,398L27,405L20,405ZM34,398L55,398L55,405L34,405ZM62,398L69,398L69,405L62,405ZM76,398L97,398L97,405L76,405ZM139,398L153,398L153,405L139,405ZM174,398L181,398L181,405L174,405ZM195,398L216,398L216,405L195,405ZM230,398L237,398L237,405L230,405ZM251,398L258,398L258,405L251,405ZM265,398L293,398L293,405L265,405ZM307,398L314,398L314,405L307,405ZM342,398L349,398L349,405L342,405ZM356,398L398,398L398,405L356,405ZM20,405L27,405L27,412L20,412ZM62,405L69,405L69,412L62,412ZM97,405L118,405L118,412L97,412ZM125,405L153,405L153,412L125,412ZM167,405L188,405L188,412L167,412ZM202,405L209,405L209,412L202,412ZM237,405L244,405L244,412L237,412ZM251,405L258,405L258,412L251,412ZM265,405L272,405L272,412L265,412ZM314,405L342,405L342,412L314,412ZM349,405L356,405L356,412L349,412ZM377,405L391,405L391,412L377,412ZM405,405L419,405L419,412L405,412ZM20,412L69,412L69,419L20,419ZM90,412L97,412L97,419L90,419ZM125,412L139,412L139,419L125,419ZM153,412L160,412L160,419L153,419ZM174,412L181,412L181,419L174,419ZM195,412L209,412L209,419L195,419ZM237,412L251,412L251,419L237,419ZM265,412L300,412L300,419L265,419ZM307,412L321,412L321,419L307,419ZM342,412L349,412L349,419L342,419ZM356,412L363,412L363,419L356,419ZM398,412L412,412L412,419L398,419Z"/></svg>
