<?xml version="1.0"?>
<svg xmlns="http://www.w3.org/2000/svg" xmlns:xlink="http://www.w3.org/1999/xlink" version="1.1" width="440px" height="440px" viewBox="0 0 440 440"><rect x="0" y="0" width="440" height="440" fill="#ffffff" fill-opacity="1"/><path fill="#000000" fill-opacity="1" d="M20,20L69,20L69,27L20,27ZM76,20L83,20L83,27L76,27ZM90,20L97,20L97,27L90,27ZM104,20L118,20L118,27L104,27ZM132,20L139,20L139,27L132,27ZM153,20L167,20L167,27L153,27ZM202,20L209,20L209,27L202,27ZM223,20L230,20L230,27L223,27ZM244,20L258,20L258,27L244,27ZM279,20L286,20L286,27L279,27ZM300,20L314,20L314,27L300,27ZM328,20L335,20L335,27L328,27ZM342,20L356,20L356,27L342,27ZM370,20L419,20L419,27L370,27ZM20,27L27,27L27,34L20,34ZM62,27L69,27L69,34L62,34ZM76,27L90,27L90,34L76,34ZM97,27L111,27L111,34L97,34ZM139,27L146,27L146,34L139,34ZM167,27L174,27L174,34L167,34ZM181,27L188,27L188,34L181,34ZM209,27L223,27L223,34L209,34ZM272,27L279,27L279,34L272,34ZM286,27L300,27L300,34L286,34ZM307,27L314,27L314,34L307,34ZM349,27L356,27L356,34L349,34ZM370,27L377,27L377,34L370,34ZM412,27L419,27L419,34L412,34ZM20,34L27,34L27,41L20,41ZM34,34L55,34L55,41L34,41ZM62,34L69,34L69,41L62,41ZM76,34L104,34L104,41L76,41ZM118,34L125,34L125,41L118,41ZM132,34L146,34L146,41L132,41ZM160,34L174,34L174,41L160,41ZM216,34L230,34L230,41L216,41ZM237,34L258,34L258,41L237,41ZM272,34L279,34L279,41L272,41ZM307,34L356,34L356,41L307,41ZM370,34L377,34L377,41L370,41ZM384,34L405,34L405,41L384,41ZM412,34L419,34L419,41L412,41ZM20,41L27,41L27,48L20,48ZM34,41L55,41L55,48L34,48ZM62,41L69,41L69,48L62,48ZM83,41L97,41L97,48L83,48ZM111,41L118,41L118,48L111,48ZM132,41L139,41L139,48L132,48ZM146,41L153,41L153,48L146,48ZM160,41L174,41L174,48L160,48ZM195,41L209,41L209,48L195,48ZM216,41L258,41L258,48L216,48ZM265,41L272,41L272,48L265,48ZM279,41L293,41L293,48L279,48ZM321,41L335,41L335,48L321,48ZM349,41L356,41L356,48L349,48ZM370,41L377,41L377,48L370,48ZM384,41L405,41L405,48L384,48ZM412,41L419,41L419,48L412,48ZM20,48L27,48L27,55L20,55ZM34,48L55,48L55,55L34,55ZM62,48L69,48L69,55L62,55ZM97,48L104,48L104,55L97,55ZM118,48L125,48L125,55L118,55ZM153,48L167,48L167,55L153,55ZM181,48L188,48L188,55L181,55ZM202,48L237,48L237,55L202,55ZM265,48L272,48L272,55L265,55ZM286,48L314,48L314,55L286,55ZM328,48L335,48L335,55L328,55ZM349,48L356,48L356,55L349,55ZM370,48L377,48L377,55L370,55ZM384,48L405,48L405,55L384,55ZM412,48L419,48L419,55L412,55ZM20,55L27,55L27,62L20,62ZM62,55L69,55L69,62L62,62ZM76,55L90,55L90,62L76,62ZM111,55L132,55L132,62L111,62ZM139,55L153,55L153,62L139,62ZM160,55L174,55L174,62L160,62ZM181,55L195,55L195,62L181,62ZM202,55L209,55L209,62L202,62ZM230,55L244,55L244,62L230,62ZM258,55L265,55L265,62L258,62ZM307,55L314,55L314,62L307,62ZM335,55L349,55L349,62L335,62ZM370,55L377,55L377,62L370,62ZM412,55L419,55L419,62L412,62ZM20,62L69,62L69,69L20,69ZM76,62L83,62L83,69L76,69ZM90,62L97,62L97,69L90,69ZM104,62L111,62L111,69L104,69ZM118,62L125,62L125,69L118,69ZM132,62L139,62L139,69L132,69ZM146,62L153,62L153,69L146,69ZM160,62L167,62L167,69L160,69ZM174,62L181,62L181,69L174,69ZM188,62L195,62L195,69L188,69ZM202,62L209,62L209,69L202,69ZM216,62L223,62L223,69L216,69ZM230,62L237,62L237,69L230,69ZM244,62L251,62L251,69L244,69ZM258,62L265,62L265,69L258,69ZM272,62L279,62L279,69L272,69ZM286,62L293,62L293,69L286,69ZM300,62L307,62L307,69L300,69ZM314,62L321,62L321,69L314,69ZM328,62L335,62L335,69L328,69ZM342,62L349,62L349,69L342,69ZM356,62L363,62L363,69L356,69ZM370,62L419,62L419,69L370,69ZM76,69L97,69L97,76L76,76ZM118,69L160,69L160,76L118,76ZM202,69L209,69L209,76L202,76ZM230,69L237,69L237,76L230,76ZM258,69L265,69L265,76L258,76ZM272,69L279,69L279,76L272,76ZM314,69L328,69L328,76L314,76ZM342,69L349,69L349,76L342,76ZM356,69L363,69L363,76L356,76ZM34,76L55,76L55,83L34,83ZM62,76L69,76L69,83L62,83ZM76,76L97,76L97,83L76,83ZM104,76L111,76L111,83L104,83ZM118,76L153,76L153,83L118,83ZM181,76L188,76L188,83L181,83ZM195,76L244,76L244,83L195,83ZM265,76L286,76L286,83L265,83ZM293,76L300,76L300,83L293,83ZM307,76L314,76L314,83L307,83ZM335,76L349,76L349,83L335,83ZM363,76L384,76L384,83L363,83ZM398,76L419,76L419,83L398,83ZM27,83L48,83L48,90L27,90ZM55,83L62,83L62,90L55,90ZM76,83L83,83L83,90L76,90ZM90,83L97,83L97,90L90,90ZM104,83L125,83L125,90L104,90ZM132,83L153,83L153,90L132,90ZM195,83L202,83L202,90L195,90ZM216,83L230,83L230,90L216,90ZM244,83L272,83L272,90L244,90ZM300,83L307,83L307,90L300,90ZM314,83L328,83L328,90L314,90ZM342,83L370,83L370,90L342,90ZM384,83L391,83L391,90L384,90ZM398,83L405,83L405,90L398,90ZM412,83L419,83L419,90L412,90ZM20,90L27,90L27,97L20,97ZM41,90L55,90L55,97L41,97ZM62,90L76,90L76,97L62,97ZM118,90L139,90L139,97L118,97ZM146,90L160,90L160,97L146,97ZM174,90L181,90L181,97L174,97ZM188,90L195,90L195,97L188,97ZM202,90L209,90L209,97L202,97ZM216,90L223,90L223,97L216,97ZM230,90L251,90L251,97L230,97ZM279,90L286,90L286,97L279,97ZM293,90L300,90L300,97L293,97ZM307,90L321,90L321,97L307,97ZM335,90L342,90L342,97L335,97ZM349,90L356,90L356,97L349,97ZM391,90L398,90L398,97L391,97ZM405,90L412,90L412,97L405,97ZM20,97L41,97L41,104L20,104ZM48,97L62,97L62,104L48,104ZM69,97L76,97L76,104L69,104ZM90,97L118,97L118,104L90,104ZM132,97L139,97L139,104L132,104ZM153,97L216,97L216,104L153,104ZM258,97L272,97L272,104L258,104ZM279,97L286,97L286,104L279,104ZM293,97L307,97L307,104L293,104ZM314,97L321,97L321,104L314,104ZM356,97L363,97L363,104L356,104ZM377,97L384,97L384,104L377,104ZM391,97L419,97L419,104L391,104ZM20,104L27,104L27,111L20,111ZM48,104L69,104L69,111L48,111ZM90,104L104,104L104,111L90,111ZM111,104L153,104L153,111L111,111ZM160,104L167,104L167,111L160,111ZM174,104L181,104L181,111L174,111ZM195,104L202,104L202,111L195,111ZM230,104L265,104L265,111L230,111ZM286,104L293,104L293,111L286,111ZM300,104L314,104L314,111L300,111ZM321,104L328,104L328,111L321,111ZM342,104L349,104L349,111L342,111ZM356,104L405,104L405,111L356,111ZM20,111L27,111L27,118L20,118ZM34,111L48,111L48,118L34,118ZM69,111L90,111L90,118L69,118ZM97,111L125,111L125,118L97,118ZM132,111L139,111L139,118L132,118ZM146,111L160,111L160,118L146,118ZM167,111L174,111L174,118L167,118ZM181,111L188,111L188,118L181,118ZM209,111L216,111L216,118L209,118ZM223,111L230,111L230,118L223,118ZM237,111L258,111L258,118L237,118ZM272,111L279,111L279,118L272,118ZM293,111L307,111L307,118L293,118ZM314,111L342,111L342,118L314,118ZM349,111L363,111L363,118L349,118ZM377,111L391,111L391,118L377,118ZM398,111L419,111L419,118L398,118ZM20,118L27,118L27,125L20,125ZM34,118L48,118L48,125L34,125ZM55,118L76,118L76,125L55,125ZM90,118L97,118L97,125L90,125ZM118,118L125,118L125,125L118,125ZM132,118L139,118L139,125L132,125ZM153,118L167,118L167,125L153,125ZM174,118L181,118L181,125L174,125ZM195,118L209,118L209,125L195,125ZM223,118L286,118L286,125L223,125ZM314,118L321,118L321,125L314,125ZM335,118L342,118L342,125L335,125ZM349,118L356,118L356,125L349,125ZM391,118L398,118L398,125L391,125ZM405,118L419,118L419,125L405,125ZM20,125L27,125L27,132L20,132ZM34,125L55,125L55,132L34,132ZM69,125L83,125L83,132L69,132ZM90,125L118,125L118,132L90,132ZM153,125L160,125L160,132L153,132ZM174,125L202,125L202,132L174,132ZM230,125L244,125L244,132L230,132ZM251,125L265,125L265,132L251,132ZM279,125L286,125L286,132L279,132ZM300,125L307,125L307,132L300,132ZM314,125L321,125L321,132L314,132ZM328,125L342,125L342,132L328,132ZM356,125L363,125L363,132L356,132ZM377,125L384,125L384,132L377,132ZM398,125L405,125L405,132L398,132ZM412,125L419,125L419,132L412,132ZM20,132L27,132L27,139L20,139ZM41,132L48,132L48,139L41,139ZM55,132L69,132L69,139L55,139ZM90,132L111,132L111,139L90,139ZM125,132L139,132L139,139L125,139ZM146,132L153,132L153,139L146,139ZM160,132L167,132L167,139L160,139ZM188,132L195,132L195,139L188,139ZM216,132L223,132L223,139L216,139ZM230,132L251,132L251,139L230,139ZM265,132L279,132L279,139L265,139ZM286,132L293,132L293,139L286,139ZM307,132L314,132L314,139L307,139ZM321,132L328,132L328,139L321,139ZM342,132L349,132L349,139L342,139ZM356,132L384,132L384,139L356,139ZM391,132L398,132L398,139L391,139ZM55,139L62,139L62,146L55,146ZM69,139L76,139L76,146L69,146ZM83,139L90,139L90,146L83,146ZM97,139L104,139L104,146L97,146ZM118,139L139,139L139,146L118,146ZM146,139L153,139L153,146L146,146ZM174,139L202,139L202,146L174,146ZM209,139L216,139L216,146L209,146ZM237,139L244,139L244,146L237,146ZM251,139L258,139L258,146L251,146ZM293,139L307,139L307,146L293,146ZM314,139L342,139L342,146L314,146ZM356,139L363,139L363,146L356,146ZM370,139L384,139L384,146L370,146ZM398,139L405,139L405,146L398,146ZM27,146L34,146L34,153L27,153ZM55,146L69,146L69,153L55,153ZM104,146L111,146L111,153L104,153ZM132,146L139,146L139,153L132,153ZM153,146L167,146L167,153L153,153ZM188,146L286,146L286,153L188,153ZM307,146L314,146L314,153L307,153ZM335,146L342,146L342,153L335,153ZM349,146L356,146L356,153L349,153ZM363,146L370,146L370,153L363,153ZM377,146L384,146L384,153L377,153ZM391,146L398,146L398,153L391,153ZM412,146L419,146L419,153L412,153ZM20,153L27,153L27,160L20,160ZM48,153L55,153L55,160L48,160ZM90,153L104,153L104,160L90,160ZM139,153L160,153L160,160L139,160ZM167,153L174,153L174,160L167,160ZM181,153L188,153L188,160L181,160ZM195,153L216,153L216,160L195,160ZM223,153L230,153L230,160L223,160ZM237,153L244,153L244,160L237,160ZM265,153L272,153L272,160L265,160ZM300,153L307,153L307,160L300,160ZM314,153L321,153L321,160L314,160ZM328,153L342,153L342,160L328,160ZM356,153L363,153L363,160L356,160ZM377,153L391,153L391,160L377,160ZM398,153L405,153L405,160L398,160ZM412,153L419,153L419,160L412,160ZM20,160L34,160L34,167L20,167ZM41,160L76,160L76,167L41,167ZM104,160L118,160L118,167L104,167ZM125,160L132,160L132,167L125,167ZM146,160L160,160L160,167L146,167ZM167,160L202,160L202,167L167,167ZM216,160L230,160L230,167L216,167ZM237,160L258,160L258,167L237,167ZM265,160L300,160L300,167L265,167ZM307,160L314,160L314,167L307,167ZM321,160L328,160L328,167L321,167ZM342,160L349,160L349,167L342,167ZM363,160L384,160L384,167L363,167ZM405,160L412,160L412,167L405,167ZM20,167L34,167L34,174L20,174ZM76,167L111,167L111,174L76,174ZM118,167L125,167L125,174L118,174ZM181,167L195,167L195,174L181,174ZM202,167L223,167L223,174L202,174ZM230,167L244,167L244,174L230,174ZM272,167L307,167L307,174L272,174ZM314,167L321,167L321,174L314,174ZM328,167L342,167L342,174L328,174ZM356,167L370,167L370,174L356,174ZM384,167L405,167L405,174L384,174ZM41,174L48,174L48,181L41,181ZM55,174L76,174L76,181L55,181ZM83,174L104,174L104,181L83,181ZM111,174L118,174L118,181L111,181ZM139,174L146,174L146,181L139,181ZM153,174L160,174L160,181L153,181ZM167,174L174,174L174,181L167,181ZM181,174L195,174L195,181L181,181ZM230,174L237,174L237,181L230,181ZM244,174L286,174L286,181L244,181ZM307,174L314,174L314,181L307,181ZM321,174L328,174L328,181L321,181ZM335,174L342,174L342,181L335,181ZM349,174L356,174L356,181L349,181ZM370,174L384,174L384,181L370,181ZM405,174L412,174L412,181L405,181ZM20,181L27,181L27,188L20,188ZM34,181L41,181L41,188L34,188ZM48,181L62,181L62,188L48,188ZM69,181L83,181L83,188L69,188ZM90,181L118,181L118,188L90,188ZM139,181L153,181L153,188L139,188ZM160,181L167,181L167,188L160,188ZM188,181L202,181L202,188L188,188ZM209,181L237,181L237,188L209,188ZM251,181L258,181L258,188L251,188ZM265,181L272,181L272,188L265,188ZM293,181L300,181L300,188L293,188ZM307,181L314,181L314,188L307,188ZM321,181L328,181L328,188L321,188ZM335,181L342,181L342,188L335,188ZM356,181L363,181L363,188L356,188ZM384,181L405,181L405,188L384,188ZM412,181L419,181L419,188L412,188ZM20,188L76,188L76,195L20,195ZM111,188L125,188L125,195L111,195ZM132,188L160,188L160,195L132,195ZM167,188L181,188L181,195L167,195ZM188,188L195,188L195,195L188,195ZM223,188L230,188L230,195L223,195ZM237,188L244,188L244,195L237,195ZM251,188L272,188L272,195L251,195ZM279,188L293,188L293,195L279,195ZM300,188L307,188L307,195L300,195ZM321,188L328,188L328,195L321,195ZM342,188L349,188L349,195L342,195ZM356,188L384,188L384,195L356,195ZM398,188L405,188L405,195L398,195ZM412,188L419,188L419,195L412,195ZM20,195L41,195L41,202L20,202ZM48,195L62,195L62,202L48,202ZM69,195L90,195L90,202L69,202ZM97,195L104,195L104,202L97,202ZM111,195L118,195L118,202L111,202ZM132,195L167,195L167,202L132,202ZM195,195L202,195L202,202L195,202ZM209,195L216,195L216,202L209,202ZM223,195L237,195L237,202L223,202ZM272,195L286,195L286,202L272,202ZM293,195L314,195L314,202L293,202ZM321,195L342,195L342,202L321,202ZM377,195L391,195L391,202L377,202ZM398,195L405,195L405,202L398,202ZM412,195L419,195L419,202L412,202ZM20,202L27,202L27,209L20,209ZM34,202L97,202L97,209L34,209ZM104,202L111,202L111,209L104,209ZM146,202L160,202L160,209L146,209ZM167,202L181,202L181,209L167,209ZM202,202L244,202L244,209L202,209ZM265,202L279,202L279,209L265,209ZM286,202L293,202L293,209L286,209ZM300,202L307,202L307,209L300,209ZM314,202L321,202L321,209L314,209ZM342,202L391,202L391,209L342,209ZM398,202L405,202L405,209L398,209ZM20,209L27,209L27,216L20,216ZM48,209L55,209L55,216L48,216ZM76,209L83,209L83,216L76,216ZM90,209L104,209L104,216L90,216ZM132,209L139,209L139,216L132,216ZM146,209L153,209L153,216L146,216ZM174,209L188,209L188,216L174,216ZM195,209L209,209L209,216L195,216ZM230,209L237,209L237,216L230,216ZM251,209L258,209L258,216L251,216ZM272,209L286,209L286,216L272,216ZM293,209L321,209L321,216L293,216ZM335,209L342,209L342,216L335,216ZM349,209L363,209L363,216L349,216ZM384,209L391,209L391,216L384,216ZM398,209L405,209L405,216L398,216ZM412,209L419,209L419,216L412,216ZM27,216L55,216L55,223L27,223ZM62,216L69,216L69,223L62,223ZM76,216L97,216L97,223L76,223ZM132,216L153,216L153,223L132,223ZM160,216L167,216L167,223L160,223ZM181,216L209,216L209,223L181,223ZM216,216L223,216L223,223L216,223ZM230,216L237,216L237,223L230,223ZM244,216L258,216L258,223L244,223ZM265,216L279,216L279,223L265,223ZM286,216L293,216L293,223L286,223ZM321,216L328,216L328,223L321,223ZM342,216L349,216L349,223L342,223ZM356,216L363,216L363,223L356,223ZM370,216L377,216L377,223L370,223ZM384,216L391,216L391,223L384,223ZM398,216L412,216L412,223L398,223ZM20,223L55,223L55,230L20,230ZM76,223L83,223L83,230L76,230ZM104,223L111,223L111,230L104,230ZM125,223L153,223L153,230L125,230ZM160,223L188,223L188,230L160,230ZM195,223L209,223L209,230L195,230ZM230,223L237,223L237,230L230,230ZM244,223L258,223L258,230L244,230ZM272,223L286,223L286,230L272,230ZM300,223L314,223L314,230L300,230ZM321,223L335,223L335,230L321,230ZM356,223L363,223L363,230L356,230ZM384,223L412,223L412,230L384,230ZM41,230L104,230L104,237L41,237ZM118,230L125,230L125,237L118,237ZM139,230L146,230L146,237L139,237ZM153,230L160,230L160,237L153,237ZM181,230L188,230L188,237L181,237ZM202,230L237,230L237,237L202,237ZM251,230L265,230L265,237L251,237ZM279,230L286,230L286,237L279,237ZM293,230L300,230L300,237L293,237ZM314,230L328,230L328,237L314,237ZM342,230L349,230L349,237L342,237ZM356,230L391,230L391,237L356,237ZM20,237L48,237L48,244L20,244ZM55,237L62,237L62,244L55,244ZM69,237L83,237L83,244L69,244ZM90,237L104,237L104,244L90,244ZM118,237L146,237L146,244L118,244ZM153,237L167,237L167,244L153,244ZM174,237L181,237L181,244L174,244ZM188,237L230,237L230,244L188,244ZM244,237L251,237L251,244L244,244ZM265,237L279,237L279,244L265,244ZM293,237L300,237L300,244L293,244ZM307,237L321,237L321,244L307,244ZM335,237L342,237L342,244L335,244ZM391,237L398,237L398,244L391,244ZM405,237L419,237L419,244L405,244ZM20,244L41,244L41,251L20,251ZM62,244L69,244L69,251L62,251ZM90,244L104,244L104,251L90,251ZM111,244L153,244L153,251L111,251ZM160,244L167,244L167,251L160,251ZM174,244L181,244L181,251L174,251ZM195,244L202,244L202,251L195,251ZM209,244L216,244L216,251L209,251ZM230,244L237,244L237,251L230,251ZM251,244L258,244L258,251L251,251ZM272,244L293,244L293,251L272,251ZM307,244L314,244L314,251L307,251ZM342,244L349,244L349,251L342,251ZM391,244L398,244L398,251L391,251ZM34,251L62,251L62,258L34,258ZM76,251L83,251L83,258L76,258ZM97,251L104,251L104,258L97,258ZM111,251L118,251L118,258L111,258ZM132,251L139,251L139,258L132,258ZM153,251L181,251L181,258L153,258ZM188,251L195,251L195,258L188,258ZM202,251L209,251L209,258L202,258ZM216,251L230,251L230,258L216,258ZM237,251L265,251L265,258L237,258ZM272,251L279,251L279,258L272,258ZM300,251L307,251L307,258L300,258ZM314,251L356,251L356,258L314,258ZM363,251L391,251L391,258L363,258ZM398,251L419,251L419,258L398,258ZM20,258L34,258L34,265L20,265ZM41,258L48,258L48,265L41,265ZM62,258L76,258L76,265L62,265ZM90,258L97,258L97,265L90,265ZM104,258L118,258L118,265L104,265ZM125,258L132,258L132,265L125,265ZM139,258L146,258L146,265L139,265ZM153,258L174,258L174,265L153,265ZM181,258L188,258L188,265L181,265ZM195,258L202,258L202,265L195,265ZM209,258L216,258L216,265L209,265ZM230,258L265,258L265,265L230,265ZM272,258L279,258L279,265L272,265ZM293,258L300,258L300,265L293,265ZM314,258L321,258L321,265L314,265ZM363,258L370,258L370,265L363,265ZM384,258L398,258L398,265L384,265ZM405,258L412,258L412,265L405,265ZM41,265L62,265L62,272L41,272ZM69,265L83,265L83,272L69,272ZM90,265L97,265L97,272L90,272ZM104,265L118,265L118,272L104,272ZM125,265L153,265L153,272L125,272ZM181,265L195,265L195,272L181,272ZM216,265L223,265L223,272L216,272ZM244,265L265,265L265,272L244,272ZM279,265L286,265L286,272L279,272ZM300,265L342,265L342,272L300,272ZM356,265L363,265L363,272L356,272ZM377,265L384,265L384,272L377,272ZM398,265L419,265L419,272L398,272ZM20,272L34,272L34,279L20,279ZM41,272L48,272L48,279L41,279ZM55,272L83,272L83,279L55,279ZM97,272L104,272L104,279L97,279ZM111,272L153,272L153,279L111,279ZM160,272L167,272L167,279L160,279ZM174,272L188,272L188,279L174,279ZM202,272L223,272L223,279L202,279ZM230,272L237,272L237,279L230,279ZM244,272L258,272L258,279L244,279ZM265,272L272,272L272,279L265,279ZM286,272L300,272L300,279L286,279ZM321,272L335,272L335,279L321,279ZM342,272L349,272L349,279L342,279ZM363,272L377,272L377,279L363,279ZM398,272L405,272L405,279L398,279ZM27,279L34,279L34,286L27,286ZM48,279L62,279L62,286L48,286ZM69,279L90,279L90,286L69,286ZM97,279L104,279L104,286L97,286ZM111,279L132,279L132,286L111,286ZM160,279L181,279L181,286L160,286ZM202,279L209,279L209,286L202,286ZM216,279L223,279L223,286L216,286ZM230,279L244,279L244,286L230,286ZM251,279L279,279L279,286L251,286ZM300,279L307,279L307,286L300,286ZM328,279L349,279L349,286L328,286ZM356,279L363,279L363,286L356,286ZM370,279L377,279L377,286L370,286ZM398,279L412,279L412,286L398,286ZM27,286L41,286L41,293L27,293ZM48,286L69,286L69,293L48,293ZM83,286L90,286L90,293L83,293ZM97,286L104,286L104,293L97,293ZM118,286L125,286L125,293L118,293ZM139,286L146,286L146,293L139,293ZM181,286L188,286L188,293L181,293ZM223,286L237,286L237,293L223,293ZM244,286L251,286L251,293L244,293ZM272,286L279,286L279,293L272,293ZM286,286L300,286L300,293L286,293ZM307,286L314,286L314,293L307,293ZM356,286L398,286L398,293L356,293ZM27,293L34,293L34,300L27,300ZM41,293L48,293L48,300L41,300ZM111,293L118,293L118,300L111,300ZM132,293L139,293L139,300L132,300ZM146,293L160,293L160,300L146,300ZM167,293L174,293L174,300L167,300ZM181,293L195,293L195,300L181,300ZM202,293L216,293L216,300L202,300ZM223,293L244,293L244,300L223,300ZM265,293L272,293L272,300L265,300ZM279,293L293,293L293,300L279,300ZM314,293L321,293L321,300L314,300ZM335,293L342,293L342,300L335,300ZM349,293L363,293L363,300L349,300ZM412,293L419,293L419,300L412,300ZM41,300L69,300L69,307L41,307ZM76,300L83,300L83,307L76,307ZM97,300L132,300L132,307L97,307ZM139,300L174,300L174,307L139,307ZM188,300L209,300L209,307L188,307ZM216,300L230,300L230,307L216,307ZM237,300L244,300L244,307L237,307ZM251,300L258,300L258,307L251,307ZM265,300L279,300L279,307L265,307ZM286,300L314,300L314,307L286,307ZM321,300L335,300L335,307L321,307ZM363,300L370,300L370,307L363,307ZM377,300L384,300L384,307L377,307ZM391,300L412,300L412,307L391,307ZM34,307L48,307L48,314L34,314ZM69,307L90,307L90,314L69,314ZM97,307L132,307L132,314L97,314ZM146,307L188,307L188,314L146,314ZM209,307L216,307L216,314L209,314ZM230,307L237,307L237,314L230,314ZM244,307L272,307L272,314L244,314ZM279,307L293,307L293,314L279,314ZM300,307L307,307L307,314L300,314ZM328,307L342,307L342,314L328,314ZM349,307L384,307L384,314L349,314ZM391,307L405,307L405,314L391,314ZM412,307L419,307L419,314L412,314ZM34,314L41,314L41,321L34,321ZM55,314L69,314L69,321L55,321ZM104,314L111,314L111,321L104,321ZM118,314L132,314L132,321L118,321ZM139,314L146,314L146,321L139,321ZM153,314L181,314L181,321L153,321ZM195,314L202,314L202,321L195,321ZM223,314L230,314L230,321L223,321ZM237,314L265,314L265,321L237,321ZM293,314L300,314L300,321L293,321ZM314,314L335,314L335,321L314,321ZM356,314L370,314L370,321L356,321ZM384,314L391,314L391,321L384,321ZM405,314L412,314L412,321L405,321ZM27,321L55,321L55,328L27,328ZM69,321L90,321L90,328L69,328ZM97,321L118,321L118,328L97,328ZM132,321L139,321L139,328L132,328ZM153,321L167,321L167,328L153,328ZM181,321L188,321L188,328L181,328ZM195,321L209,321L209,328L195,328ZM216,321L237,321L237,328L216,328ZM265,321L279,321L279,328L265,328ZM307,321L328,321L328,328L307,328ZM335,321L342,321L342,328L335,328ZM377,321L384,321L384,328L377,328ZM398,321L419,321L419,328L398,328ZM20,328L27,328L27,335L20,335ZM48,328L55,328L55,335L48,335ZM62,328L69,328L69,335L62,335ZM76,328L97,328L97,335L76,335ZM118,328L125,328L125,335L118,335ZM132,328L237,328L237,335L132,335ZM244,328L251,328L251,335L244,335ZM265,328L293,328L293,335L265,335ZM321,328L328,328L328,335L321,335ZM342,328L349,328L349,335L342,335ZM384,328L405,328L405,335L384,335ZM20,335L27,335L27,342L20,342ZM34,335L41,335L41,342L34,342ZM48,335L55,335L55,342L48,342ZM76,335L83,335L83,342L76,342ZM90,335L104,335L104,342L90,342ZM118,335L139,335L139,342L118,342ZM146,335L160,335L160,342L146,342ZM167,335L174,335L174,342L167,342ZM181,335L195,335L195,342L181,342ZM216,335L237,335L237,342L216,342ZM258,335L272,335L272,342L258,342ZM293,335L384,335L384,342L293,342ZM391,335L405,335L405,342L391,342ZM412,335L419,335L419,342L412,342ZM20,342L27,342L27,349L20,349ZM34,342L41,342L41,349L34,349ZM55,342L69,342L69,349L55,349ZM76,342L83,342L83,349L76,349ZM90,342L104,342L104,349L90,349ZM125,342L139,342L139,349L125,349ZM146,342L153,342L153,349L146,349ZM160,342L167,342L167,349L160,349ZM181,342L188,342L188,349L181,349ZM195,342L216,342L216,349L195,349ZM223,342L230,342L230,349L223,349ZM251,342L265,342L265,349L251,349ZM314,342L321,342L321,349L314,349ZM335,342L349,342L349,349L335,349ZM370,342L377,342L377,349L370,349ZM384,342L391,342L391,349L384,349ZM20,349L55,349L55,356L20,356ZM69,349L76,349L76,356L69,356ZM83,349L125,349L125,356L83,356ZM146,349L160,349L160,356L146,356ZM167,349L181,349L181,356L167,356ZM188,349L195,349L195,356L188,356ZM202,349L223,349L223,356L202,356ZM237,349L244,349L244,356L237,356ZM251,349L258,349L258,356L251,356ZM272,349L279,349L279,356L272,356ZM314,349L342,349L342,356L314,356ZM349,349L363,349L363,356L349,356ZM370,349L377,349L377,356L370,356ZM398,349L419,349L419,356L398,356ZM62,356L83,356L83,363L62,363ZM90,356L97,356L97,363L90,363ZM118,356L125,356L125,363L118,363ZM139,356L153,356L153,363L139,363ZM160,356L181,356L181,363L160,363ZM188,356L195,356L195,363L188,363ZM202,356L244,356L244,363L202,363ZM258,356L265,356L265,363L258,363ZM272,356L286,356L286,363L272,363ZM293,356L300,356L300,363L293,363ZM307,356L314,356L314,363L307,363ZM342,356L349,356L349,363L342,363ZM356,356L412,356L412,363L356,363ZM76,363L90,363L90,370L76,370ZM97,363L104,363L104,370L97,370ZM146,363L167,363L167,370L146,370ZM174,363L188,363L188,370L174,370ZM202,363L209,363L209,370L202,370ZM230,363L237,363L237,370L230,370ZM244,363L251,363L251,370L244,370ZM258,363L279,363L279,370L258,370ZM293,363L307,363L307,370L293,370ZM314,363L321,363L321,370L314,370ZM328,363L342,363L342,370L328,370ZM349,363L363,363L363,370L349,370ZM384,363L391,363L391,370L384,370ZM398,363L405,363L405,370L398,370ZM20,370L69,370L69,377L20,377ZM83,370L111,370L111,377L83,377ZM125,370L132,370L132,377L125,377ZM146,370L153,370L153,377L146,377ZM160,370L167,370L167,377L160,377ZM181,370L188,370L188,377L181,377ZM202,370L209,370L209,377L202,377ZM216,370L223,370L223,377L216,377ZM230,370L237,370L237,377L230,377ZM258,370L265,370L265,377L258,377ZM279,370L286,370L286,377L279,377ZM321,370L328,370L328,377L321,377ZM335,370L342,370L342,377L335,377ZM349,370L363,370L363,377L349,377ZM370,370L377,370L377,377L370,377ZM384,370L398,370L398,377L384,377ZM405,370L419,370L419,377L405,377ZM20,377L27,377L27,384L20,384ZM62,377L69,377L69,384L62,384ZM90,377L97,377L97,384L90,384ZM104,377L118,377L118,384L104,384ZM125,377L132,377L132,384L125,384ZM139,377L146,377L146,384L139,384ZM153,377L167,377L167,384L153,384ZM181,377L188,377L188,384L181,384ZM195,377L209,377L209,384L195,384ZM230,377L237,377L237,384L230,384ZM244,377L272,377L272,384L244,384ZM279,377L293,377L293,384L279,384ZM300,377L307,377L307,384L300,384ZM314,377L321,377L321,384L314,384ZM335,377L342,377L342,384L335,384ZM356,377L363,377L363,384L356,384ZM384,377L405,377L405,384L384,384ZM412,377L419,377L419,384L412,384ZM20,384L27,384L27,391L20,391ZM34,384L55,384L55,391L34,391ZM62,384L69,384L69,391L62,391ZM76,384L83,384L83,391L76,391ZM104,384L118,384L118,391L104,391ZM132,384L153,384L153,391L132,391ZM174,384L181,384L181,391L174,391ZM195,384L237,384L237,391L195,391ZM251,384L258,384L258,391L251,391ZM286,384L293,384L293,391L286,391ZM300,384L314,384L314,391L300,391ZM321,384L328,384L328,391L321,391ZM342,384L349,384L349,391L342,391ZM356,384L391,384L391,391L356,391ZM398,384L412,384L412,391L398,391ZM20,391L27,391L27,398L20,398ZM34,391L55,391L55,398L34,398ZM62,391L69,391L69,398L62,398ZM76,391L104,391L104,398L76,398ZM125,391L132,391L132,398L125,398ZM139,391L146,391L146,398L139,398ZM153,391L167,391L167,398L153,398ZM181,391L209,391L209,398L181,398ZM223,391L230,391L230,398L223,398ZM237,391L251,391L251,398L237,398ZM265,391L272,391L272,398L265,398ZM279,391L307,391L307,398L279,398ZM314,391L335,391L335,398L314,398ZM342,391L349,391L349,398L342,398ZM398,391L412,391L412,398L398,398ZM20,398L27,398L27,405L20,405ZM34,398L55,398L55,405L34,405ZM62,398L69,398L69,405L62,405ZM76,398L83,398L83,405L76,405ZM90,398L97,398L97,405L90,405ZM174,398L188,398L188,405L174,405ZM195,398L216,398L216,405L195,405ZM230,398L237,398L237,405L230,405ZM244,398L251,398L251,405L244,405ZM265,398L293,398L293,405L265,405ZM314,398L321,398L321,405L314,405ZM342,398L398,398L398,405L342,405ZM20,405L27,405L27,412L20,412ZM62,405L69,405L69,412L62,412ZM83,405L90,405L90,412L83,412ZM97,405L118,405L118,412L97,412ZM125,405L132,405L132,412L125,412ZM167,405L188,405L188,412L167,412ZM195,405L202,405L202,412L195,412ZM209,405L244,405L244,412L209,412ZM251,405L272,405L272,412L251,412ZM314,405L328,405L328,412L314,412ZM349,405L356,405L356,412L349,412ZM377,405L391,405L391,412L377,412ZM398,405L419,405L419,412L398,412ZM20,412L69,412L69,419L20,419ZM83,412L97,412L97,419L83,419ZM125,412L132,412L132,419L125,419ZM146,412L160,412L160,419L146,419ZM174,412L181,412L181,419L174,419ZM188,412L202,412L202,419L188,419ZM216,412L223,412L223,419L216,419ZM230,412L244,412L244,419L230,419ZM251,412L258,412L258,419L251,419ZM265,412L300,412L300,419L265,419ZM307,412L321,412L321,419L307,419ZM335,412L349,412L349,419L335,419ZM356,412L363,412L363,419L356,419ZM391,412L398,412L398,419L391,419ZM405,412L412,412L412,419L405,419Z"/></svg>
