<?xml version="1.0"?>
<svg xmlns="http://www.w3.org/2000/svg" xmlns:xlink="http://www.w3.org/1999/xlink" version="1.1" width="440px" height="440px" viewBox="0 0 440 440"><rect x="0" y="0" width="440" height="440" fill="#ffffff" fill-opacity="1"/><path fill="#000000" fill-opacity="1" d="M20,20L69,20L69,27L20,27ZM83,20L90,20L90,27L83,27ZM125,20L146,20L146,27L125,27ZM153,20L174,20L174,27L153,27ZM195,20L209,20L209,27L195,27ZM216,20L251,20L251,27L216,27ZM265,20L286,20L286,27L265,27ZM293,20L321,20L321,27L293,27ZM328,20L335,20L335,27L328,27ZM342,20L356,20L356,27L342,27ZM370,20L419,20L419,27L370,27ZM20,27L27,27L27,34L20,34ZM62,27L69,27L69,34L62,34ZM90,27L111,27L111,34L90,34ZM153,27L174,27L174,34L153,34ZM188,27L195,27L195,34L188,34ZM209,27L216,27L216,34L209,34ZM223,27L230,27L230,34L223,34ZM237,27L244,27L244,34L237,34ZM258,27L265,27L265,34L258,34ZM279,27L300,27L300,34L279,34ZM321,27L335,27L335,34L321,34ZM349,27L356,27L356,34L349,34ZM370,27L377,27L377,34L370,34ZM412,27L419,27L419,34L412,34ZM20,34L27,34L27,41L20,41ZM34,34L55,34L55,41L34,41ZM62,34L69,34L69,41L62,41ZM83,34L111,34L111,41L83,41ZM118,34L125,34L125,41L118,41ZM132,34L146,34L146,41L132,41ZM153,34L160,34L160,41L153,41ZM174,34L181,34L181,41L174,41ZM188,34L202,34L202,41L188,41ZM209,34L216,34L216,41L209,41ZM230,34L244,34L244,41L230,41ZM272,34L286,34L286,41L272,41ZM293,34L314,34L314,41L293,41ZM328,34L335,34L335,41L328,41ZM342,34L356,34L356,41L342,41ZM370,34L377,34L377,41L370,41ZM384,34L405,34L405,41L384,41ZM412,34L419,34L419,41L412,41ZM20,41L27,41L27,48L20,48ZM34,41L55,41L55,48L34,48ZM62,41L69,41L69,48L62,48ZM83,41L97,41L97,48L83,48ZM104,41L118,41L118,48L104,48ZM160,41L195,41L195,48L160,48ZM202,41L216,41L216,48L202,48ZM223,41L230,41L230,48L223,48ZM237,41L251,41L251,48L237,48ZM258,41L265,41L265,48L258,48ZM279,41L307,41L307,48L279,48ZM321,41L342,41L342,48L321,48ZM349,41L356,41L356,48L349,48ZM370,41L377,41L377,48L370,48ZM384,41L405,41L405,48L384,48ZM412,41L419,41L419,48L412,48ZM20,48L27,48L27,55L20,55ZM34,48L55,48L55,55L34,55ZM62,48L69,48L69,55L62,55ZM76,48L83,48L83,55L76,55ZM97,48L104,48L104,55L97,55ZM111,48L125,48L125,55L111,55ZM132,48L146,48L146,55L132,55ZM153,48L167,48L167,55L153,55ZM181,48L188,48L188,55L181,55ZM195,48L244,48L244,55L195,55ZM251,48L258,48L258,55L251,55ZM272,48L279,48L279,55L272,55ZM293,48L321,48L321,55L293,55ZM335,48L342,48L342,55L335,55ZM349,48L356,48L356,55L349,55ZM370,48L377,48L377,55L370,55ZM384,48L405,48L405,55L384,55ZM412,48L419,48L419,55L412,55ZM20,55L27,55L27,62L20,62ZM62,55L69,55L69,62L62,62ZM83,55L90,55L90,62L83,62ZM97,55L118,55L118,62L97,62ZM125,55L139,55L139,62L125,62ZM146,55L153,55L153,62L146,62ZM160,55L167,55L167,62L160,62ZM174,55L195,55L195,62L174,62ZM202,55L209,55L209,62L202,62ZM230,55L251,55L251,62L230,62ZM258,55L286,55L286,62L258,62ZM300,55L314,55L314,62L300,62ZM321,55L328,55L328,62L321,62ZM342,55L349,55L349,62L342,62ZM370,55L377,55L377,62L370,62ZM412,55L419,55L419,62L412,62ZM20,62L69,62L69,69L20,69ZM76,62L83,62L83,69L76,69ZM90,62L97,62L97,69L90,69ZM104,62L111,62L111,69L104,69ZM118,62L125,62L125,69L118,69ZM132,62L139,62L139,69L132,69ZM146,62L153,62L153,69L146,69ZM160,62L167,62L167,69L160,69ZM174,62L181,62L181,69L174,69ZM188,62L195,62L195,69L188,69ZM202,62L209,62L209,69L202,69ZM216,62L223,62L223,69L216,69ZM230,62L237,62L237,69L230,69ZM244,62L251,62L251,69L244,69ZM258,62L265,62L265,69L258,69ZM272,62L279,62L279,69L272,69ZM286,62L293,62L293,69L286,69ZM300,62L307,62L307,69L300,69ZM314,62L321,62L321,69L314,69ZM328,62L335,62L335,69L328,69ZM342,62L349,62L349,69L342,69ZM356,62L363,62L363,69L356,69ZM370,62L419,62L419,69L370,69ZM76,69L90,69L90,76L76,76ZM111,69L118,69L118,76L111,76ZM139,69L160,69L160,76L139,76ZM167,69L174,69L174,76L167,76ZM181,69L188,69L188,76L181,76ZM195,69L209,69L209,76L195,76ZM230,69L237,69L237,76L230,76ZM244,69L251,69L251,76L244,76ZM279,69L286,69L286,76L279,76ZM300,69L307,69L307,76L300,76ZM321,69L335,69L335,76L321,76ZM34,76L48,76L48,83L34,83ZM62,76L83,76L83,83L62,83ZM90,76L97,76L97,83L90,83ZM104,76L111,76L111,83L104,83ZM118,76L132,76L132,83L118,83ZM139,76L160,76L160,83L139,83ZM188,76L195,76L195,83L188,83ZM202,76L237,76L237,83L202,83ZM251,76L258,76L258,83L251,83ZM279,76L307,76L307,83L279,83ZM314,76L328,76L328,83L314,83ZM335,76L342,76L342,83L335,83ZM349,76L356,76L356,83L349,83ZM363,76L377,76L377,83L363,83ZM384,76L391,76L391,83L384,83ZM20,83L27,83L27,90L20,90ZM41,83L62,83L62,90L41,90ZM69,83L83,83L83,90L69,90ZM104,83L111,83L111,90L104,90ZM125,83L132,83L132,90L125,90ZM146,83L174,83L174,90L146,90ZM181,83L188,83L188,90L181,90ZM209,83L230,83L230,90L209,90ZM237,83L251,83L251,90L237,90ZM272,83L321,83L321,90L272,90ZM328,83L370,83L370,90L328,90ZM384,83L405,83L405,90L384,90ZM20,90L34,90L34,97L20,97ZM41,90L55,90L55,97L41,97ZM62,90L90,90L90,97L62,97ZM118,90L132,90L132,97L118,97ZM139,90L146,90L146,97L139,97ZM153,90L188,90L188,97L153,97ZM195,90L202,90L202,97L195,97ZM209,90L216,90L216,97L209,97ZM223,90L230,90L230,97L223,97ZM244,90L279,90L279,97L244,97ZM286,90L300,90L300,97L286,97ZM307,90L314,90L314,97L307,97ZM321,90L335,90L335,97L321,97ZM356,90L363,90L363,97L356,97ZM370,90L384,90L384,97L370,97ZM391,90L419,90L419,97L391,97ZM27,97L48,97L48,104L27,104ZM69,97L76,97L76,104L69,104ZM90,97L97,97L97,104L90,104ZM104,97L125,97L125,104L104,104ZM139,97L146,97L146,104L139,104ZM167,97L188,97L188,104L167,104ZM195,97L209,97L209,104L195,104ZM265,97L279,97L279,104L265,104ZM293,97L300,97L300,104L293,104ZM335,97L349,97L349,104L335,104ZM384,97L398,97L398,104L384,104ZM412,97L419,97L419,104L412,104ZM48,104L55,104L55,111L48,111ZM62,104L69,104L69,111L62,111ZM76,104L90,104L90,111L76,111ZM118,104L125,104L125,111L118,111ZM160,104L174,104L174,111L160,111ZM188,104L223,104L223,111L188,111ZM237,104L244,104L244,111L237,111ZM251,104L258,104L258,111L251,111ZM272,104L279,104L279,111L272,111ZM286,104L293,104L293,111L286,111ZM300,104L314,104L314,111L300,111ZM342,104L356,104L356,111L342,111ZM370,104L412,104L412,111L370,111ZM27,111L55,111L55,118L27,118ZM69,111L76,111L76,118L69,118ZM90,111L125,111L125,118L90,118ZM132,111L146,111L146,118L132,118ZM153,111L160,111L160,118L153,118ZM167,111L174,111L174,118L167,118ZM188,111L195,111L195,118L188,118ZM202,111L216,111L216,118L202,118ZM237,111L244,111L244,118L237,118ZM265,111L272,111L272,118L265,118ZM286,111L293,111L293,118L286,118ZM300,111L314,111L314,118L300,118ZM321,111L328,111L328,118L321,118ZM363,111L370,111L370,118L363,118ZM384,111L398,111L398,118L384,118ZM405,111L419,111L419,118L405,118ZM20,118L34,118L34,125L20,125ZM41,118L48,118L48,125L41,125ZM55,118L69,118L69,125L55,125ZM76,118L104,118L104,125L76,125ZM111,118L118,118L118,125L111,125ZM125,118L132,118L132,125L125,125ZM146,118L188,118L188,125L146,125ZM195,118L209,118L209,125L195,125ZM223,118L230,118L230,125L223,125ZM251,118L258,118L258,125L251,125ZM265,118L272,118L272,125L265,125ZM300,118L307,118L307,125L300,125ZM321,118L328,118L328,125L321,125ZM342,118L419,118L419,125L342,125ZM20,125L41,125L41,132L20,132ZM48,125L55,125L55,132L48,132ZM76,125L90,125L90,132L76,132ZM97,125L153,125L153,132L97,132ZM160,125L174,125L174,132L160,132ZM195,125L202,125L202,132L195,132ZM209,125L237,125L237,132L209,132ZM244,125L265,125L265,132L244,132ZM279,125L286,125L286,132L279,132ZM300,125L307,125L307,132L300,132ZM314,125L321,125L321,132L314,132ZM328,125L335,125L335,132L328,132ZM356,125L370,125L370,132L356,132ZM377,125L419,125L419,132L377,132ZM48,132L55,132L55,139L48,139ZM62,132L76,132L76,139L62,139ZM83,132L90,132L90,139L83,139ZM104,132L111,132L111,139L104,139ZM132,132L146,132L146,139L132,139ZM167,132L181,132L181,139L167,139ZM195,132L202,132L202,139L195,139ZM237,132L251,132L251,139L237,139ZM265,132L286,132L286,139L265,139ZM293,132L307,132L307,139L293,139ZM314,132L321,132L321,139L314,139ZM328,132L335,132L335,139L328,139ZM342,132L349,132L349,139L342,139ZM377,132L384,132L384,139L377,139ZM405,132L419,132L419,139L405,139ZM20,139L27,139L27,146L20,146ZM34,139L41,139L41,146L34,146ZM48,139L55,139L55,146L48,146ZM69,139L83,139L83,146L69,146ZM97,139L104,139L104,146L97,146ZM125,139L132,139L132,146L125,146ZM153,139L167,139L167,146L153,146ZM174,139L181,139L181,146L174,146ZM202,139L209,139L209,146L202,146ZM216,139L223,139L223,146L216,146ZM251,139L286,139L286,146L251,146ZM321,139L342,139L342,146L321,146ZM349,139L363,139L363,146L349,146ZM391,139L398,139L398,146L391,146ZM405,139L412,139L412,146L405,146ZM20,146L48,146L48,153L20,153ZM55,146L69,146L69,153L55,153ZM97,146L118,146L118,153L97,153ZM125,146L132,146L132,153L125,153ZM146,146L160,146L160,153L146,153ZM174,146L188,146L188,153L174,153ZM195,146L209,146L209,153L195,153ZM216,146L223,146L223,153L216,153ZM230,146L237,146L237,153L230,153ZM272,146L279,146L279,153L272,153ZM293,146L300,146L300,153L293,153ZM307,146L328,146L328,153L307,153ZM349,146L356,146L356,153L349,153ZM363,146L370,146L370,153L363,153ZM412,146L419,146L419,153L412,153ZM20,153L27,153L27,160L20,160ZM48,153L62,153L62,160L48,160ZM76,153L83,153L83,160L76,160ZM97,153L104,153L104,160L97,160ZM111,153L118,153L118,160L111,160ZM132,153L146,153L146,160L132,160ZM160,153L167,153L167,160L160,160ZM174,153L181,153L181,160L174,160ZM188,153L195,153L195,160L188,160ZM209,153L216,153L216,160L209,160ZM244,153L251,153L251,160L244,160ZM265,153L272,153L272,160L265,160ZM286,153L307,153L307,160L286,160ZM321,153L328,153L328,160L321,160ZM335,153L342,153L342,160L335,160ZM349,153L356,153L356,160L349,160ZM363,153L377,153L377,160L363,160ZM384,153L398,153L398,160L384,160ZM20,160L27,160L27,167L20,167ZM48,160L76,160L76,167L48,167ZM104,160L111,160L111,167L104,167ZM125,160L132,160L132,167L125,167ZM146,160L153,160L153,167L146,167ZM167,160L174,160L174,167L167,167ZM181,160L195,160L195,167L181,167ZM223,160L251,160L251,167L223,167ZM265,160L279,160L279,167L265,167ZM286,160L293,160L293,167L286,167ZM300,160L307,160L307,167L300,167ZM314,160L328,160L328,167L314,167ZM335,160L342,160L342,167L335,167ZM349,160L377,160L377,167L349,167ZM384,160L405,160L405,167L384,167ZM20,167L41,167L41,174L20,174ZM55,167L62,167L62,174L55,174ZM69,167L83,167L83,174L69,174ZM90,167L118,167L118,174L90,174ZM153,167L174,167L174,174L153,174ZM181,167L188,167L188,174L181,174ZM209,167L216,167L216,174L209,174ZM237,167L244,167L244,174L237,174ZM251,167L258,167L258,174L251,174ZM272,167L286,167L286,174L272,174ZM293,167L307,167L307,174L293,174ZM314,167L335,167L335,174L314,174ZM349,167L356,167L356,174L349,174ZM363,167L370,167L370,174L363,174ZM377,167L405,167L405,174L377,174ZM20,174L27,174L27,181L20,181ZM41,174L48,174L48,181L41,181ZM62,174L83,174L83,181L62,181ZM97,174L104,174L104,181L97,181ZM118,174L125,174L125,181L118,181ZM139,174L153,174L153,181L139,181ZM160,174L209,174L209,181L160,181ZM223,174L230,174L230,181L223,181ZM251,174L265,174L265,181L251,181ZM272,174L286,174L286,181L272,181ZM293,174L300,174L300,181L293,181ZM328,174L335,174L335,181L328,181ZM342,174L384,174L384,181L342,181ZM391,174L419,174L419,181L391,181ZM20,181L41,181L41,188L20,188ZM104,181L118,181L118,188L104,188ZM132,181L160,181L160,188L132,188ZM167,181L174,181L174,188L167,188ZM188,181L209,181L209,188L188,188ZM223,181L265,181L265,188L223,188ZM279,181L286,181L286,188L279,188ZM293,181L307,181L307,188L293,188ZM321,181L328,181L328,188L321,188ZM342,181L349,181L349,188L342,188ZM377,181L384,181L384,188L377,188ZM405,181L419,181L419,188L405,188ZM20,188L27,188L27,195L20,195ZM48,188L55,188L55,195L48,195ZM62,188L76,188L76,195L62,195ZM83,188L90,188L90,195L83,195ZM125,188L132,188L132,195L125,195ZM139,188L153,188L153,195L139,195ZM167,188L174,188L174,195L167,195ZM181,188L265,188L265,195L181,195ZM272,188L300,188L300,195L272,195ZM314,188L321,188L321,195L314,195ZM342,188L363,188L363,195L342,195ZM370,188L384,188L384,195L370,195ZM391,188L405,188L405,195L391,195ZM412,188L419,188L419,195L412,195ZM20,195L27,195L27,202L20,202ZM34,195L41,195L41,202L34,202ZM69,195L83,195L83,202L69,202ZM90,195L97,195L97,202L90,202ZM118,195L125,195L125,202L118,202ZM146,195L153,195L153,202L146,202ZM167,195L181,195L181,202L167,202ZM202,195L216,195L216,202L202,202ZM223,195L230,195L230,202L223,202ZM279,195L300,195L300,202L279,202ZM307,195L314,195L314,202L307,202ZM321,195L328,195L328,202L321,202ZM342,195L356,195L356,202L342,202ZM363,195L398,195L398,202L363,202ZM34,202L83,202L83,209L34,209ZM90,202L111,202L111,209L90,209ZM118,202L174,202L174,209L118,209ZM181,202L195,202L195,209L181,209ZM202,202L237,202L237,209L202,209ZM244,202L265,202L265,209L244,209ZM279,202L286,202L286,209L279,209ZM300,202L307,202L307,209L300,209ZM321,202L328,202L328,209L321,209ZM335,202L349,202L349,209L335,209ZM356,202L391,202L391,209L356,209ZM34,209L41,209L41,216L34,216ZM48,209L55,209L55,216L48,216ZM76,209L111,209L111,216L76,216ZM118,209L125,209L125,216L118,216ZM139,209L153,209L153,216L139,216ZM181,209L188,209L188,216L181,216ZM195,209L209,209L209,216L195,216ZM230,209L237,209L237,216L230,216ZM244,209L265,209L265,216L244,216ZM293,209L321,209L321,216L293,216ZM328,209L342,209L342,216L328,216ZM349,209L363,209L363,216L349,216ZM384,209L391,209L391,216L384,216ZM398,209L405,209L405,216L398,216ZM412,209L419,209L419,216L412,216ZM27,216L34,216L34,223L27,223ZM41,216L55,216L55,223L41,223ZM62,216L69,216L69,223L62,223ZM76,216L104,216L104,223L76,223ZM111,216L118,216L118,223L111,223ZM146,216L160,216L160,223L146,223ZM167,216L188,216L188,223L167,223ZM195,216L209,216L209,223L195,223ZM216,216L223,216L223,223L216,223ZM230,216L237,216L237,223L230,223ZM244,216L251,216L251,223L244,223ZM258,216L265,216L265,223L258,223ZM272,216L286,216L286,223L272,223ZM307,216L321,216L321,223L307,223ZM328,216L349,216L349,223L328,223ZM356,216L363,216L363,223L356,223ZM370,216L377,216L377,223L370,223ZM384,216L398,216L398,223L384,223ZM405,216L419,216L419,223L405,223ZM20,223L27,223L27,230L20,230ZM34,223L41,223L41,230L34,230ZM48,223L55,223L55,230L48,230ZM76,223L104,223L104,230L76,230ZM111,223L118,223L118,230L111,230ZM139,223L146,223L146,230L139,230ZM174,223L181,223L181,230L174,230ZM195,223L209,223L209,230L195,230ZM230,223L272,223L272,230L230,230ZM279,223L286,223L286,230L279,230ZM293,223L300,223L300,230L293,230ZM307,223L321,223L321,230L307,230ZM328,223L335,223L335,230L328,230ZM356,223L363,223L363,230L356,230ZM384,223L398,223L398,230L384,230ZM405,223L412,223L412,230L405,230ZM20,230L41,230L41,237L20,237ZM48,230L83,230L83,237L48,237ZM90,230L97,230L97,237L90,237ZM104,230L139,230L139,237L104,237ZM167,230L174,230L174,237L167,237ZM181,230L237,230L237,237L181,237ZM244,230L258,230L258,237L244,237ZM272,230L279,230L279,237L272,237ZM293,230L300,230L300,237L293,237ZM314,230L328,230L328,237L314,237ZM335,230L342,230L342,237L335,237ZM356,230L391,230L391,237L356,237ZM405,230L412,230L412,237L405,237ZM20,237L27,237L27,244L20,244ZM83,237L90,237L90,244L83,244ZM118,237L132,237L132,244L118,244ZM139,237L146,237L146,244L139,244ZM160,237L188,237L188,244L160,244ZM202,237L216,237L216,244L202,244ZM237,237L244,237L244,244L237,244ZM272,237L293,237L293,244L272,244ZM349,237L363,237L363,244L349,244ZM370,237L377,237L377,244L370,244ZM398,237L405,237L405,244L398,244ZM20,244L27,244L27,251L20,251ZM34,244L55,244L55,251L34,251ZM62,244L69,244L69,251L62,251ZM111,244L118,244L118,251L111,251ZM125,244L139,244L139,251L125,251ZM174,244L188,244L188,251L174,251ZM195,244L202,244L202,251L195,251ZM216,244L258,244L258,251L216,251ZM279,244L307,244L307,251L279,251ZM314,244L328,244L328,251L314,251ZM335,244L342,244L342,251L335,251ZM356,244L363,244L363,251L356,251ZM377,244L405,244L405,251L377,251ZM27,251L34,251L34,258L27,258ZM41,251L62,251L62,258L41,258ZM90,251L125,251L125,258L90,258ZM160,251L195,251L195,258L160,258ZM216,251L230,251L230,258L216,258ZM244,251L258,251L258,258L244,258ZM272,251L279,251L279,258L272,258ZM293,251L314,251L314,258L293,258ZM321,251L342,251L342,258L321,258ZM349,251L356,251L356,258L349,258ZM370,251L377,251L377,258L370,258ZM391,251L412,251L412,258L391,258ZM20,258L27,258L27,265L20,265ZM34,258L48,258L48,265L34,265ZM55,258L76,258L76,265L55,265ZM97,258L104,258L104,265L97,265ZM111,258L125,258L125,265L111,265ZM139,258L146,258L146,265L139,265ZM153,258L160,258L160,265L153,265ZM167,258L174,258L174,265L167,265ZM237,258L244,258L244,265L237,265ZM251,258L258,258L258,265L251,265ZM265,258L272,258L272,265L265,265ZM279,258L286,258L286,265L279,265ZM293,258L300,258L300,265L293,265ZM307,258L342,258L342,265L307,265ZM349,258L356,258L356,265L349,265ZM370,258L419,258L419,265L370,265ZM20,265L48,265L48,272L20,272ZM55,265L62,265L62,272L55,272ZM69,265L76,265L76,272L69,272ZM90,265L97,265L97,272L90,272ZM118,265L132,265L132,272L118,272ZM139,265L146,265L146,272L139,272ZM153,265L160,265L160,272L153,272ZM181,265L188,265L188,272L181,272ZM202,265L230,265L230,272L202,272ZM237,265L244,265L244,272L237,272ZM251,265L258,265L258,272L251,272ZM272,265L279,265L279,272L272,272ZM293,265L314,265L314,272L293,272ZM328,265L356,265L356,272L328,272ZM384,265L405,265L405,272L384,272ZM412,265L419,265L419,272L412,272ZM27,272L41,272L41,279L27,279ZM48,272L69,272L69,279L48,279ZM83,272L90,272L90,279L83,279ZM104,272L111,272L111,279L104,279ZM125,272L132,272L132,279L125,279ZM139,272L153,272L153,279L139,279ZM174,272L181,272L181,279L174,279ZM195,272L202,272L202,279L195,279ZM223,272L251,272L251,279L223,279ZM265,272L272,272L272,279L265,279ZM286,272L307,272L307,279L286,279ZM321,272L349,272L349,279L321,279ZM363,272L370,272L370,279L363,279ZM384,272L405,272L405,279L384,279ZM20,279L34,279L34,286L20,286ZM48,279L55,279L55,286L48,286ZM69,279L83,279L83,286L69,286ZM90,279L104,279L104,286L90,286ZM111,279L125,279L125,286L111,286ZM139,279L146,279L146,286L139,286ZM153,279L174,279L174,286L153,286ZM181,279L195,279L195,286L181,286ZM202,279L223,279L223,286L202,286ZM244,279L265,279L265,286L244,286ZM279,279L307,279L307,286L279,286ZM335,279L342,279L342,286L335,286ZM384,279L391,279L391,286L384,286ZM405,279L412,279L412,286L405,286ZM34,286L41,286L41,293L34,293ZM55,286L76,286L76,293L55,293ZM83,286L104,286L104,293L83,293ZM125,286L139,286L139,293L125,293ZM153,286L167,286L167,293L153,293ZM202,286L209,286L209,293L202,293ZM244,286L272,286L272,293L244,293ZM300,286L307,286L307,293L300,293ZM314,286L328,286L328,293L314,293ZM356,286L370,286L370,293L356,293ZM398,286L412,286L412,293L398,293ZM20,293L27,293L27,300L20,300ZM34,293L41,293L41,300L34,300ZM48,293L55,293L55,300L48,300ZM90,293L97,293L97,300L90,300ZM104,293L111,293L111,300L104,300ZM132,293L139,293L139,300L132,300ZM146,293L174,293L174,300L146,300ZM181,293L188,293L188,300L181,300ZM202,293L230,293L230,300L202,300ZM237,293L244,293L244,300L237,300ZM258,293L265,293L265,300L258,300ZM293,293L307,293L307,300L293,300ZM314,293L321,293L321,300L314,300ZM335,293L342,293L342,300L335,300ZM363,293L377,293L377,300L363,300ZM391,293L398,293L398,300L391,300ZM412,293L419,293L419,300L412,300ZM27,300L41,300L41,307L27,307ZM48,300L69,300L69,307L48,307ZM76,300L111,300L111,307L76,307ZM125,300L132,300L132,307L125,307ZM139,300L146,300L146,307L139,307ZM167,300L181,300L181,307L167,307ZM188,300L195,300L195,307L188,307ZM202,300L230,300L230,307L202,307ZM237,300L251,300L251,307L237,307ZM279,300L293,300L293,307L279,307ZM314,300L356,300L356,307L314,307ZM363,300L384,300L384,307L363,307ZM398,300L419,300L419,307L398,307ZM41,307L48,307L48,314L41,314ZM55,307L62,307L62,314L55,314ZM69,307L111,307L111,314L69,314ZM139,307L146,307L146,314L139,314ZM160,307L188,307L188,314L160,314ZM195,307L209,307L209,314L195,314ZM216,307L223,307L223,314L216,314ZM244,307L258,307L258,314L244,314ZM279,307L286,307L286,314L279,314ZM307,307L314,307L314,314L307,314ZM321,307L363,307L363,314L321,314ZM370,307L391,307L391,314L370,314ZM412,307L419,307L419,314L412,314ZM20,314L76,314L76,321L20,321ZM83,314L97,314L97,321L83,321ZM125,314L132,314L132,321L125,321ZM160,314L174,314L174,321L160,321ZM181,314L188,314L188,321L181,321ZM216,314L223,314L223,321L216,321ZM230,314L265,314L265,321L230,321ZM272,314L286,314L286,321L272,321ZM321,314L328,314L328,321L321,321ZM335,314L349,314L349,321L335,321ZM363,314L370,314L370,321L363,321ZM377,314L398,314L398,321L377,321ZM405,314L419,314L419,321L405,321ZM20,321L34,321L34,328L20,328ZM55,321L62,321L62,328L55,328ZM69,321L104,321L104,328L69,328ZM118,321L132,321L132,328L118,328ZM160,321L167,321L167,328L160,328ZM174,321L188,321L188,328L174,328ZM209,321L223,321L223,328L209,328ZM230,321L244,321L244,328L230,328ZM251,321L265,321L265,328L251,328ZM272,321L279,321L279,328L272,328ZM286,321L300,321L300,328L286,328ZM321,321L335,321L335,328L321,328ZM349,321L356,321L356,328L349,328ZM370,321L384,321L384,328L370,328ZM405,321L412,321L412,328L405,328ZM34,328L55,328L55,335L34,335ZM62,328L69,328L69,335L62,335ZM76,328L111,328L111,335L76,335ZM118,328L132,328L132,335L118,335ZM139,328L146,328L146,335L139,335ZM167,328L174,328L174,335L167,335ZM181,328L188,328L188,335L181,335ZM195,328L216,328L216,335L195,335ZM230,328L237,328L237,335L230,335ZM244,328L251,328L251,335L244,335ZM286,328L293,328L293,335L286,335ZM314,328L321,328L321,335L314,335ZM335,328L342,328L342,335L335,335ZM349,328L370,328L370,335L349,335ZM377,328L384,328L384,335L377,335ZM405,328L412,328L412,335L405,335ZM34,335L48,335L48,342L34,342ZM55,335L62,335L62,342L55,342ZM83,335L90,335L90,342L83,342ZM97,335L118,335L118,342L97,342ZM125,335L132,335L132,342L125,342ZM139,335L153,335L153,342L139,342ZM188,335L195,335L195,342L188,342ZM202,335L209,335L209,342L202,342ZM216,335L230,335L230,342L216,342ZM237,335L244,335L244,342L237,342ZM251,335L279,335L279,342L251,342ZM300,335L307,335L307,342L300,342ZM314,335L321,335L321,342L314,342ZM328,335L363,335L363,342L328,342ZM370,335L384,335L384,342L370,342ZM398,335L412,335L412,342L398,342ZM20,342L27,342L27,349L20,349ZM34,342L41,342L41,349L34,349ZM55,342L69,342L69,349L55,349ZM76,342L83,342L83,349L76,349ZM90,342L118,342L118,349L90,349ZM125,342L132,342L132,349L125,349ZM146,342L153,342L153,349L146,349ZM174,342L181,342L181,349L174,349ZM230,342L265,342L265,349L230,349ZM293,342L300,342L300,349L293,349ZM307,342L335,342L335,349L307,349ZM342,342L356,342L356,349L342,349ZM363,342L370,342L370,349L363,349ZM377,342L391,342L391,349L377,349ZM398,342L405,342L405,349L398,349ZM412,342L419,342L419,349L412,349ZM20,349L55,349L55,356L20,356ZM69,349L76,349L76,356L69,356ZM83,349L90,349L90,356L83,356ZM111,349L118,349L118,356L111,356ZM125,349L146,349L146,356L125,356ZM160,349L174,349L174,356L160,356ZM195,349L202,349L202,356L195,356ZM209,349L265,349L265,356L209,356ZM286,349L314,349L314,356L286,356ZM335,349L349,349L349,356L335,356ZM370,349L391,349L391,356L370,356ZM405,349L419,349L419,356L405,356ZM62,356L69,356L69,363L62,363ZM97,356L104,356L104,363L97,363ZM118,356L132,356L132,363L118,363ZM139,356L153,356L153,363L139,363ZM160,356L167,356L167,363L160,363ZM181,356L188,356L188,363L181,363ZM202,356L237,356L237,363L202,363ZM244,356L251,356L251,363L244,363ZM286,356L300,356L300,363L286,363ZM335,356L412,356L412,363L335,363ZM76,363L97,363L97,370L76,370ZM125,363L139,363L139,370L125,370ZM153,363L167,363L167,370L153,370ZM181,363L209,363L209,370L181,370ZM230,363L237,363L237,370L230,370ZM265,363L286,363L286,370L265,370ZM300,363L314,363L314,370L300,370ZM321,363L328,363L328,370L321,370ZM356,363L363,363L363,370L356,370ZM384,363L391,363L391,370L384,370ZM412,363L419,363L419,370L412,370ZM20,370L69,370L69,377L20,377ZM76,370L90,370L90,377L76,377ZM97,370L104,370L104,377L97,377ZM118,370L160,370L160,377L118,377ZM167,370L181,370L181,377L167,377ZM195,370L209,370L209,377L195,377ZM216,370L223,370L223,377L216,377ZM230,370L237,370L237,377L230,377ZM244,370L251,370L251,377L244,377ZM258,370L272,370L272,377L258,377ZM279,370L286,370L286,377L279,377ZM293,370L328,370L328,377L293,377ZM335,370L363,370L363,377L335,377ZM370,370L377,370L377,377L370,377ZM384,370L391,370L391,377L384,377ZM398,370L405,370L405,377L398,377ZM412,370L419,370L419,377L412,377ZM20,377L27,377L27,384L20,384ZM62,377L69,377L69,384L62,384ZM97,377L139,377L139,384L97,384ZM153,377L181,377L181,384L153,384ZM202,377L209,377L209,384L202,384ZM230,377L244,377L244,384L230,384ZM251,377L272,377L272,384L251,384ZM279,377L286,377L286,384L279,384ZM300,377L307,377L307,384L300,384ZM314,377L321,377L321,384L314,384ZM356,377L363,377L363,384L356,384ZM384,377L405,377L405,384L384,384ZM412,377L419,377L419,384L412,384ZM20,384L27,384L27,391L20,391ZM34,384L55,384L55,391L34,391ZM62,384L69,384L69,391L62,391ZM90,384L104,384L104,391L90,391ZM118,384L132,384L132,391L118,391ZM139,384L146,384L146,391L139,391ZM153,384L160,384L160,391L153,391ZM174,384L181,384L181,391L174,391ZM188,384L195,384L195,391L188,391ZM202,384L244,384L244,391L202,391ZM258,384L265,384L265,391L258,391ZM279,384L286,384L286,391L279,391ZM293,384L307,384L307,391L293,391ZM314,384L335,384L335,391L314,391ZM342,384L398,384L398,391L342,391ZM405,384L419,384L419,391L405,391ZM20,391L27,391L27,398L20,398ZM34,391L55,391L55,398L34,398ZM62,391L69,391L69,398L62,398ZM76,391L90,391L90,398L76,398ZM125,391L132,391L132,398L125,398ZM139,391L146,391L146,398L139,398ZM160,391L167,391L167,398L160,398ZM181,391L202,391L202,398L181,398ZM209,391L223,391L223,398L209,398ZM237,391L251,391L251,398L237,398ZM258,391L272,391L272,398L258,398ZM279,391L293,391L293,398L279,398ZM328,391L349,391L349,398L328,398ZM356,391L363,391L363,398L356,398ZM384,391L391,391L391,398L384,398ZM20,398L27,398L27,405L20,405ZM34,398L55,398L55,405L34,405ZM62,398L69,398L69,405L62,405ZM76,398L83,398L83,405L76,405ZM90,398L97,398L97,405L90,405ZM111,398L132,398L132,405L111,405ZM139,398L160,398L160,405L139,405ZM181,398L195,398L195,405L181,405ZM209,398L230,398L230,405L209,405ZM244,398L265,398L265,405L244,405ZM279,398L293,398L293,405L279,405ZM314,398L321,398L321,405L314,405ZM349,398L356,398L356,405L349,405ZM363,398L384,398L384,405L363,405ZM391,398L398,398L398,405L391,405ZM20,405L27,405L27,412L20,412ZM62,405L69,405L69,412L62,412ZM97,405L104,405L104,412L97,412ZM132,405L139,405L139,412L132,412ZM153,405L160,405L160,412L153,412ZM174,405L181,405L181,412L174,412ZM188,405L202,405L202,412L188,412ZM230,405L237,405L237,412L230,412ZM244,405L251,405L251,412L244,412ZM258,405L272,405L272,412L258,412ZM286,405L293,405L293,412L286,412ZM314,405L321,405L321,412L314,412ZM328,405L335,405L335,412L328,412ZM349,405L398,405L398,412L349,412ZM405,405L412,405L412,412L405,412ZM20,412L69,412L69,419L20,419ZM83,412L90,412L90,419L83,419ZM111,412L139,412L139,419L111,419ZM160,412L188,412L188,419L160,419ZM202,412L223,412L223,419L202,419ZM230,412L237,412L237,419L230,419ZM244,412L258,412L258,419L244,419ZM265,412L286,412L286,419L265,419ZM293,412L300,412L300,419L293,419ZM314,412L328,412L328,419L314,419ZM335,412L342,412L342,419L335,419ZM349,412L356,412L356,419L349,419ZM363,412L370,412L370,419L363,419ZM377,412L391,412L391,419L377,419Z"/></svg>
