<?xml version="1.0"?>
<svg xmlns="http://www.w3.org/2000/svg" xmlns:xlink="http://www.w3.org/1999/xlink" version="1.1" width="440px" height="440px" viewBox="0 0 440 440"><rect x="0" y="0" width="440" height="440" fill="#ffffff" fill-opacity="1"/><path fill="#000000" fill-opacity="1" d="M20,20L69,20L69,27L20,27ZM76,20L90,20L90,27L76,27ZM97,20L118,20L118,27L97,27ZM139,20L146,20L146,27L139,27ZM160,20L167,20L167,27L160,27ZM174,20L181,20L181,27L174,27ZM195,20L237,20L237,27L195,27ZM272,20L279,20L279,27L272,27ZM300,20L314,20L314,27L300,27ZM328,20L335,20L335,27L328,27ZM342,20L356,20L356,27L342,27ZM370,20L419,20L419,27L370,27ZM20,27L27,27L27,34L20,34ZM62,27L69,27L69,34L62,34ZM76,27L83,27L83,34L76,34ZM90,27L104,27L104,34L90,34ZM125,27L132,27L132,34L125,34ZM146,27L153,27L153,34L146,34ZM167,27L188,27L188,34L167,34ZM230,27L237,27L237,34L230,34ZM251,27L258,27L258,34L251,34ZM286,27L300,27L300,34L286,34ZM307,27L314,27L314,34L307,34ZM349,27L356,27L356,34L349,34ZM370,27L377,27L377,34L370,34ZM412,27L419,27L419,34L412,34ZM20,34L27,34L27,41L20,41ZM34,34L55,34L55,41L34,41ZM62,34L69,34L69,41L62,41ZM76,34L83,34L83,41L76,41ZM90,34L97,34L97,41L90,41ZM111,34L118,34L118,41L111,41ZM125,34L146,34L146,41L125,41ZM153,34L160,34L160,41L153,41ZM174,34L195,34L195,41L174,41ZM216,34L223,34L223,41L216,41ZM230,34L251,34L251,41L230,41ZM300,34L307,34L307,41L300,41ZM314,34L356,34L356,41L314,41ZM370,34L377,34L377,41L370,41ZM384,34L405,34L405,41L384,41ZM412,34L419,34L419,41L412,41ZM20,41L27,41L27,48L20,48ZM34,41L55,41L55,48L34,48ZM62,41L69,41L69,48L62,48ZM83,41L111,41L111,48L83,48ZM118,41L125,41L125,48L118,48ZM132,41L153,41L153,48L132,48ZM160,41L167,41L167,48L160,48ZM174,41L181,41L181,48L174,48ZM195,41L209,41L209,48L195,48ZM230,41L244,41L244,48L230,48ZM272,41L293,41L293,48L272,48ZM307,41L314,41L314,48L307,48ZM321,41L335,41L335,48L321,48ZM349,41L356,41L356,48L349,48ZM370,41L377,41L377,48L370,48ZM384,41L405,41L405,48L384,48ZM412,41L419,41L419,48L412,48ZM20,48L27,48L27,55L20,55ZM34,48L55,48L55,55L34,55ZM62,48L69,48L69,55L62,55ZM90,48L111,48L111,55L90,55ZM118,48L125,48L125,55L118,55ZM146,48L153,48L153,55L146,55ZM167,48L174,48L174,55L167,55ZM181,48L188,48L188,55L181,55ZM202,48L251,48L251,55L202,55ZM258,48L279,48L279,55L258,55ZM286,48L293,48L293,55L286,55ZM300,48L321,48L321,55L300,55ZM328,48L342,48L342,55L328,55ZM349,48L356,48L356,55L349,55ZM370,48L377,48L377,55L370,55ZM384,48L405,48L405,55L384,55ZM412,48L419,48L419,55L412,55ZM20,55L27,55L27,62L20,62ZM62,55L69,55L69,62L62,62ZM76,55L83,55L83,62L76,62ZM90,55L97,55L97,62L90,62ZM111,55L118,55L118,62L111,62ZM125,55L132,55L132,62L125,62ZM139,55L153,55L153,62L139,62ZM160,55L167,55L167,62L160,62ZM174,55L195,55L195,62L174,62ZM202,55L209,55L209,62L202,62ZM230,55L237,55L237,62L230,62ZM258,55L265,55L265,62L258,62ZM293,55L300,55L300,62L293,62ZM314,55L321,55L321,62L314,62ZM335,55L349,55L349,62L335,62ZM370,55L377,55L377,62L370,62ZM412,55L419,55L419,62L412,62ZM20,62L69,62L69,69L20,69ZM76,62L83,62L83,69L76,69ZM90,62L97,62L97,69L90,69ZM104,62L111,62L111,69L104,69ZM118,62L125,62L125,69L118,69ZM132,62L139,62L139,69L132,69ZM146,62L153,62L153,69L146,69ZM160,62L167,62L167,69L160,69ZM174,62L181,62L181,69L174,69ZM188,62L195,62L195,69L188,69ZM202,62L209,62L209,69L202,69ZM216,62L223,62L223,69L216,69ZM230,62L237,62L237,69L230,69ZM244,62L251,62L251,69L244,69ZM258,62L265,62L265,69L258,69ZM272,62L279,62L279,69L272,69ZM286,62L293,62L293,69L286,69ZM300,62L307,62L307,69L300,69ZM314,62L321,62L321,69L314,69ZM328,62L335,62L335,69L328,69ZM342,62L349,62L349,69L342,69ZM356,62L363,62L363,69L356,69ZM370,62L419,62L419,69L370,69ZM76,69L83,69L83,76L76,76ZM90,69L97,69L97,76L90,76ZM104,69L139,69L139,76L104,76ZM153,69L167,69L167,76L153,76ZM202,69L209,69L209,76L202,76ZM230,69L237,69L237,76L230,76ZM258,69L279,69L279,76L258,76ZM293,69L300,69L300,76L293,76ZM314,69L321,69L321,76L314,76ZM356,69L363,69L363,76L356,76ZM34,76L55,76L55,83L34,83ZM62,76L69,76L69,83L62,83ZM76,76L125,76L125,83L76,83ZM132,76L160,76L160,83L132,83ZM167,76L174,76L174,83L167,83ZM188,76L244,76L244,83L188,83ZM279,76L293,76L293,83L279,83ZM307,76L314,76L314,83L307,83ZM335,76L349,76L349,83L335,83ZM356,76L384,76L384,83L356,83ZM398,76L419,76L419,83L398,83ZM20,83L27,83L27,90L20,90ZM34,83L41,83L41,90L34,90ZM48,83L62,83L62,90L48,90ZM97,83L104,83L104,90L97,90ZM111,83L125,83L125,90L111,90ZM139,83L153,83L153,90L139,90ZM167,83L181,83L181,90L167,90ZM188,83L195,83L195,90L188,90ZM209,83L223,83L223,90L209,90ZM244,83L265,83L265,90L244,90ZM272,83L286,83L286,90L272,90ZM293,83L314,83L314,90L293,90ZM321,83L335,83L335,90L321,90ZM356,83L370,83L370,90L356,90ZM384,83L391,83L391,90L384,90ZM398,83L405,83L405,90L398,90ZM20,90L27,90L27,97L20,97ZM41,90L48,90L48,97L41,97ZM62,90L69,90L69,97L62,97ZM104,90L132,90L132,97L104,97ZM146,90L153,90L153,97L146,97ZM160,90L167,90L167,97L160,97ZM181,90L188,90L188,97L181,97ZM195,90L251,90L251,97L195,97ZM265,90L272,90L272,97L265,97ZM279,90L293,90L293,97L279,97ZM307,90L321,90L321,97L307,97ZM335,90L342,90L342,97L335,97ZM349,90L356,90L356,97L349,97ZM391,90L398,90L398,97L391,97ZM34,97L48,97L48,104L34,104ZM69,97L83,97L83,104L69,104ZM90,97L104,97L104,104L90,104ZM111,97L139,97L139,104L111,104ZM160,97L174,97L174,104L160,104ZM181,97L195,97L195,104L181,104ZM202,97L209,97L209,104L202,104ZM258,97L265,97L265,104L258,104ZM279,97L286,97L286,104L279,104ZM300,97L307,97L307,104L300,104ZM314,97L328,97L328,104L314,104ZM356,97L370,97L370,104L356,104ZM377,97L384,97L384,104L377,104ZM405,97L419,97L419,104L405,104ZM48,104L55,104L55,111L48,111ZM62,104L83,104L83,111L62,111ZM90,104L97,104L97,111L90,111ZM118,104L125,104L125,111L118,111ZM139,104L181,104L181,111L139,111ZM188,104L202,104L202,111L188,111ZM209,104L216,104L216,111L209,111ZM223,104L230,104L230,111L223,111ZM237,104L244,104L244,111L237,111ZM258,104L279,104L279,111L258,111ZM286,104L300,104L300,111L286,111ZM307,104L314,104L314,111L307,111ZM321,104L328,104L328,111L321,111ZM342,104L349,104L349,111L342,111ZM370,104L405,104L405,111L370,111ZM34,111L41,111L41,118L34,118ZM48,111L62,111L62,118L48,118ZM76,111L90,111L90,118L76,118ZM111,111L139,111L139,118L111,118ZM146,111L167,111L167,118L146,118ZM188,111L209,111L209,118L188,118ZM237,111L244,111L244,118L237,118ZM251,111L265,111L265,118L251,118ZM272,111L279,111L279,118L272,118ZM300,111L307,111L307,118L300,118ZM328,111L342,111L342,118L328,118ZM349,111L419,111L419,118L349,118ZM20,118L41,118L41,125L20,125ZM55,118L83,118L83,125L55,125ZM90,118L118,118L118,125L90,125ZM132,118L153,118L153,125L132,125ZM160,118L167,118L167,125L160,125ZM181,118L223,118L223,125L181,125ZM237,118L244,118L244,125L237,125ZM258,118L265,118L265,125L258,125ZM279,118L286,118L286,125L279,125ZM293,118L300,118L300,125L293,125ZM307,118L328,118L328,125L307,125ZM335,118L342,118L342,125L335,125ZM363,118L370,118L370,125L363,125ZM405,118L419,118L419,125L405,125ZM20,125L55,125L55,132L20,132ZM83,125L104,125L104,132L83,132ZM111,125L132,125L132,132L111,132ZM139,125L146,125L146,132L139,132ZM153,125L160,125L160,132L153,132ZM167,125L174,125L174,132L167,132ZM181,125L188,125L188,132L181,132ZM195,125L202,125L202,132L195,132ZM216,125L223,125L223,132L216,132ZM230,125L237,125L237,132L230,132ZM244,125L251,125L251,132L244,132ZM272,125L286,125L286,132L272,132ZM300,125L321,125L321,132L300,132ZM335,125L342,125L342,132L335,132ZM349,125L363,125L363,132L349,132ZM377,125L391,125L391,132L377,132ZM398,125L405,125L405,132L398,132ZM412,125L419,125L419,132L412,132ZM27,132L48,132L48,139L27,139ZM62,132L97,132L97,139L62,139ZM125,132L160,132L160,139L125,139ZM167,132L209,132L209,139L167,139ZM230,132L244,132L244,139L230,139ZM251,132L272,132L272,139L251,139ZM286,132L293,132L293,139L286,139ZM321,132L328,132L328,139L321,139ZM342,132L356,132L356,139L342,139ZM363,132L384,132L384,139L363,139ZM391,132L405,132L405,139L391,139ZM20,139L27,139L27,146L20,146ZM34,139L41,139L41,146L34,146ZM55,139L62,139L62,146L55,146ZM69,139L90,139L90,146L69,146ZM97,139L125,139L125,146L97,146ZM132,139L153,139L153,146L132,146ZM167,139L181,139L181,146L167,146ZM188,139L195,139L195,146L188,146ZM202,139L209,139L209,146L202,146ZM237,139L251,139L251,146L237,146ZM258,139L265,139L265,146L258,146ZM293,139L307,139L307,146L293,146ZM314,139L321,139L321,146L314,146ZM328,139L342,139L342,146L328,146ZM349,139L356,139L356,146L349,146ZM363,139L391,139L391,146L363,146ZM398,139L405,139L405,146L398,146ZM27,146L48,146L48,153L27,153ZM62,146L83,146L83,153L62,153ZM97,146L125,146L125,153L97,153ZM139,146L153,146L153,153L139,153ZM167,146L174,146L174,153L167,153ZM202,146L209,146L209,153L202,153ZM216,146L223,146L223,153L216,153ZM237,146L272,146L272,153L237,153ZM279,146L286,146L286,153L279,153ZM321,146L328,146L328,153L321,153ZM335,146L342,146L342,153L335,153ZM363,146L377,146L377,153L363,153ZM391,146L398,146L398,153L391,153ZM412,146L419,146L419,153L412,153ZM20,153L27,153L27,160L20,160ZM69,153L76,153L76,160L69,160ZM97,153L111,153L111,160L97,160ZM118,153L132,153L132,160L118,160ZM139,153L146,153L146,160L139,160ZM153,153L160,153L160,160L153,160ZM181,153L195,153L195,160L181,160ZM209,153L216,153L216,160L209,160ZM223,153L230,153L230,160L223,160ZM244,153L258,153L258,160L244,160ZM300,153L307,153L307,160L300,160ZM314,153L321,153L321,160L314,160ZM328,153L342,153L342,160L328,160ZM349,153L370,153L370,160L349,160ZM412,153L419,153L419,160L412,160ZM20,160L34,160L34,167L20,167ZM41,160L76,160L76,167L41,167ZM83,160L97,160L97,167L83,167ZM104,160L111,160L111,167L104,167ZM118,160L132,160L132,167L118,167ZM146,160L160,160L160,167L146,167ZM167,160L174,160L174,167L167,167ZM188,160L195,160L195,167L188,167ZM202,160L244,160L244,167L202,167ZM251,160L300,160L300,167L251,167ZM307,160L314,160L314,167L307,167ZM321,160L328,160L328,167L321,167ZM342,160L356,160L356,167L342,167ZM370,160L384,160L384,167L370,167ZM391,160L412,160L412,167L391,167ZM20,167L34,167L34,174L20,174ZM97,167L118,167L118,174L97,174ZM146,167L153,167L153,174L146,174ZM167,167L188,167L188,174L167,174ZM216,167L223,167L223,174L216,174ZM230,167L244,167L244,174L230,174ZM251,167L265,167L265,174L251,174ZM286,167L321,167L321,174L286,174ZM328,167L342,167L342,174L328,174ZM349,167L356,167L356,174L349,174ZM384,167L391,167L391,174L384,174ZM398,167L405,167L405,174L398,174ZM20,174L34,174L34,181L20,181ZM41,174L55,174L55,181L41,181ZM62,174L69,174L69,181L62,181ZM83,174L90,174L90,181L83,181ZM97,174L104,174L104,181L97,181ZM132,174L139,174L139,181L132,181ZM153,174L160,174L160,181L153,181ZM188,174L202,174L202,181L188,181ZM209,174L216,174L216,181L209,181ZM223,174L244,174L244,181L223,181ZM272,174L279,174L279,181L272,181ZM321,174L328,174L328,181L321,181ZM349,174L363,174L363,181L349,181ZM370,174L384,174L384,181L370,181ZM391,174L398,174L398,181L391,181ZM405,174L412,174L412,181L405,181ZM20,181L41,181L41,188L20,188ZM48,181L62,181L62,188L48,188ZM69,181L125,181L125,188L69,188ZM132,181L153,181L153,188L132,188ZM160,181L174,181L174,188L160,188ZM209,181L223,181L223,188L209,188ZM237,181L244,181L244,188L237,188ZM251,181L258,181L258,188L251,188ZM265,181L272,181L272,188L265,188ZM300,181L307,181L307,188L300,188ZM314,181L321,181L321,188L314,188ZM328,181L335,181L335,188L328,188ZM349,181L370,181L370,188L349,188ZM391,181L405,181L405,188L391,188ZM412,181L419,181L419,188L412,188ZM20,188L34,188L34,195L20,195ZM41,188L76,188L76,195L41,195ZM83,188L97,188L97,195L83,195ZM118,188L125,188L125,195L118,195ZM139,188L146,188L146,195L139,195ZM167,188L174,188L174,195L167,195ZM181,188L188,188L188,195L181,195ZM195,188L202,188L202,195L195,195ZM209,188L258,188L258,195L209,195ZM265,188L272,188L272,195L265,195ZM279,188L293,188L293,195L279,195ZM307,188L314,188L314,195L307,195ZM321,188L349,188L349,195L321,195ZM356,188L363,188L363,195L356,195ZM370,188L377,188L377,195L370,195ZM412,188L419,188L419,195L412,195ZM41,195L62,195L62,202L41,202ZM69,195L104,195L104,202L69,202ZM111,195L132,195L132,202L111,202ZM167,195L216,195L216,202L167,202ZM223,195L230,195L230,202L223,202ZM237,195L265,195L265,202L237,202ZM272,195L286,195L286,202L272,202ZM300,195L307,195L307,202L300,202ZM314,195L321,195L321,202L314,202ZM328,195L349,195L349,202L328,202ZM384,195L391,195L391,202L384,202ZM398,195L412,195L412,202L398,202ZM20,202L34,202L34,209L20,209ZM48,202L83,202L83,209L48,209ZM90,202L104,202L104,209L90,209ZM139,202L153,202L153,209L139,209ZM160,202L181,202L181,209L160,209ZM202,202L258,202L258,209L202,209ZM265,202L286,202L286,209L265,209ZM293,202L300,202L300,209L293,209ZM307,202L314,202L314,209L307,209ZM321,202L328,202L328,209L321,209ZM342,202L391,202L391,209L342,209ZM398,202L412,202L412,209L398,209ZM27,209L41,209L41,216L27,216ZM48,209L55,209L55,216L48,216ZM76,209L90,209L90,216L76,216ZM160,209L167,209L167,216L160,216ZM174,209L209,209L209,216L174,216ZM230,209L251,209L251,216L230,216ZM258,209L272,209L272,216L258,216ZM279,209L286,209L286,216L279,216ZM300,209L321,209L321,216L300,216ZM328,209L342,209L342,216L328,216ZM349,209L363,209L363,216L349,216ZM384,209L391,209L391,216L384,216ZM398,209L419,209L419,216L398,216ZM20,216L27,216L27,223L20,223ZM34,216L55,216L55,223L34,223ZM62,216L69,216L69,223L62,223ZM76,216L90,216L90,223L76,223ZM104,216L111,216L111,223L104,223ZM146,216L153,216L153,223L146,223ZM202,216L209,216L209,223L202,223ZM216,216L223,216L223,223L216,223ZM230,216L279,216L279,223L230,223ZM286,216L300,216L300,223L286,223ZM321,216L328,216L328,223L321,223ZM342,216L349,216L349,223L342,223ZM356,216L363,216L363,223L356,223ZM370,216L377,216L377,223L370,223ZM384,216L391,216L391,223L384,223ZM398,216L405,216L405,223L398,223ZM20,223L27,223L27,230L20,230ZM34,223L55,223L55,230L34,230ZM76,223L83,223L83,230L76,230ZM125,223L132,223L132,230L125,230ZM146,223L153,223L153,230L146,230ZM160,223L188,223L188,230L160,230ZM195,223L209,223L209,230L195,230ZM230,223L237,223L237,230L230,230ZM251,223L265,223L265,230L251,230ZM272,223L286,223L286,230L272,230ZM293,223L314,223L314,230L293,230ZM321,223L349,223L349,230L321,230ZM356,223L363,223L363,230L356,230ZM384,223L412,223L412,230L384,230ZM27,230L34,230L34,237L27,237ZM41,230L83,230L83,237L41,237ZM97,230L104,230L104,237L97,237ZM132,230L139,230L139,237L132,237ZM167,230L181,230L181,237L167,237ZM188,230L195,230L195,237L188,237ZM202,230L251,230L251,237L202,237ZM265,230L279,230L279,237L265,237ZM286,230L293,230L293,237L286,237ZM314,230L321,230L321,237L314,237ZM335,230L342,230L342,237L335,237ZM356,230L391,230L391,237L356,237ZM405,230L412,230L412,237L405,237ZM27,237L48,237L48,244L27,244ZM55,237L62,237L62,244L55,244ZM69,237L90,237L90,244L69,244ZM118,237L146,237L146,244L118,244ZM153,237L188,237L188,244L153,244ZM195,237L202,237L202,244L195,244ZM209,237L216,237L216,244L209,244ZM223,237L258,237L258,244L223,244ZM265,237L279,237L279,244L265,244ZM293,237L300,237L300,244L293,244ZM307,237L321,237L321,244L307,244ZM335,237L342,237L342,244L335,244ZM363,237L370,237L370,244L363,244ZM377,237L384,237L384,244L377,244ZM391,237L398,237L398,244L391,244ZM405,237L419,237L419,244L405,244ZM20,244L41,244L41,251L20,251ZM62,244L76,244L76,251L62,251ZM83,244L90,244L90,251L83,251ZM104,244L132,244L132,251L104,251ZM139,244L146,244L146,251L139,251ZM153,244L167,244L167,251L153,251ZM181,244L195,244L195,251L181,251ZM209,244L223,244L223,251L209,251ZM230,244L237,244L237,251L230,251ZM244,244L300,244L300,251L244,251ZM307,244L314,244L314,251L307,251ZM342,244L349,244L349,251L342,251ZM391,244L398,244L398,251L391,251ZM34,251L41,251L41,258L34,258ZM83,251L97,251L97,258L83,258ZM125,251L132,251L132,258L125,258ZM160,251L167,251L167,258L160,258ZM202,251L230,251L230,258L202,258ZM265,251L272,251L272,258L265,258ZM286,251L293,251L293,258L286,258ZM300,251L307,251L307,258L300,258ZM314,251L356,251L356,258L314,258ZM363,251L412,251L412,258L363,258ZM20,258L27,258L27,265L20,265ZM41,258L48,258L48,265L41,265ZM62,258L69,258L69,265L62,265ZM76,258L125,258L125,265L76,265ZM153,258L160,258L160,265L153,265ZM188,258L209,258L209,265L188,265ZM216,258L223,258L223,265L216,265ZM230,258L237,258L237,265L230,265ZM244,258L251,258L251,265L244,265ZM265,258L279,258L279,265L265,265ZM293,258L300,258L300,265L293,265ZM314,258L321,258L321,265L314,265ZM356,258L363,258L363,265L356,265ZM370,258L377,258L377,265L370,265ZM384,258L398,258L398,265L384,265ZM405,258L412,258L412,265L405,265ZM20,265L27,265L27,272L20,272ZM34,265L48,265L48,272L34,272ZM55,265L62,265L62,272L55,272ZM69,265L76,265L76,272L69,272ZM111,265L125,265L125,272L111,272ZM146,265L160,265L160,272L146,272ZM167,265L195,265L195,272L167,272ZM209,265L223,265L223,272L209,272ZM244,265L251,265L251,272L244,272ZM272,265L279,265L279,272L272,272ZM314,265L335,265L335,272L314,272ZM377,265L384,265L384,272L377,272ZM391,265L405,265L405,272L391,272ZM412,265L419,265L419,272L412,272ZM20,272L34,272L34,279L20,279ZM41,272L48,272L48,279L41,279ZM55,272L76,272L76,279L55,279ZM83,272L90,272L90,279L83,279ZM104,272L111,272L111,279L104,279ZM118,272L139,272L139,279L118,279ZM153,272L188,272L188,279L153,279ZM195,272L202,272L202,279L195,279ZM209,272L223,272L223,279L209,279ZM230,272L237,272L237,279L230,279ZM258,272L293,272L293,279L258,279ZM307,272L314,272L314,279L307,279ZM321,272L349,272L349,279L321,279ZM377,272L391,272L391,279L377,279ZM398,272L412,272L412,279L398,279ZM34,279L41,279L41,286L34,286ZM48,279L62,279L62,286L48,286ZM69,279L76,279L76,286L69,286ZM97,279L104,279L104,286L97,286ZM125,279L132,279L132,286L125,286ZM146,279L153,279L153,286L146,286ZM160,279L167,279L167,286L160,286ZM174,279L181,279L181,286L174,286ZM195,279L202,279L202,286L195,286ZM216,279L237,279L237,286L216,286ZM244,279L279,279L279,286L244,286ZM300,279L307,279L307,286L300,286ZM314,279L321,279L321,286L314,286ZM328,279L335,279L335,286L328,286ZM349,279L384,279L384,286L349,286ZM391,279L405,279L405,286L391,286ZM27,286L41,286L41,293L27,293ZM62,286L76,286L76,293L62,293ZM83,286L97,286L97,293L83,293ZM111,286L125,286L125,293L111,293ZM139,286L146,286L146,293L139,293ZM153,286L160,286L160,293L153,293ZM167,286L174,286L174,293L167,293ZM181,286L188,286L188,293L181,293ZM202,286L209,286L209,293L202,293ZM244,286L251,286L251,293L244,293ZM258,286L272,286L272,293L258,293ZM286,286L300,286L300,293L286,293ZM363,286L370,286L370,293L363,293ZM384,286L405,286L405,293L384,293ZM412,286L419,286L419,293L412,293ZM20,293L27,293L27,300L20,300ZM69,293L76,293L76,300L69,300ZM97,293L104,293L104,300L97,300ZM118,293L125,293L125,300L118,300ZM132,293L153,293L153,300L132,300ZM181,293L195,293L195,300L181,300ZM209,293L216,293L216,300L209,300ZM230,293L244,293L244,300L230,300ZM265,293L272,293L272,300L265,300ZM293,293L300,293L300,300L293,300ZM314,293L321,293L321,300L314,300ZM328,293L342,293L342,300L328,300ZM356,293L384,293L384,300L356,300ZM391,293L398,293L398,300L391,300ZM405,293L419,293L419,300L405,300ZM34,300L48,300L48,307L34,307ZM62,300L76,300L76,307L62,307ZM83,300L90,300L90,307L83,307ZM125,300L132,300L132,307L125,307ZM139,300L146,300L146,307L139,307ZM160,300L167,300L167,307L160,307ZM181,300L188,300L188,307L181,307ZM195,300L216,300L216,307L195,307ZM237,300L244,300L244,307L237,307ZM251,300L258,300L258,307L251,307ZM265,300L272,300L272,307L265,307ZM307,300L314,300L314,307L307,307ZM321,300L328,300L328,307L321,307ZM342,300L349,300L349,307L342,307ZM356,300L370,300L370,307L356,307ZM391,300L398,300L398,307L391,307ZM41,307L62,307L62,314L41,314ZM69,307L83,307L83,314L69,314ZM97,307L104,307L104,314L97,314ZM118,307L153,307L153,314L118,314ZM167,307L174,307L174,314L167,314ZM181,307L188,307L188,314L181,314ZM216,307L237,307L237,314L216,314ZM244,307L279,307L279,314L244,314ZM293,307L335,307L335,314L293,314ZM349,307L356,307L356,314L349,314ZM363,307L377,307L377,314L363,314ZM391,307L405,307L405,314L391,314ZM27,314L34,314L34,321L27,321ZM55,314L69,314L69,321L55,321ZM104,314L146,314L146,321L104,321ZM167,314L174,314L174,321L167,321ZM195,314L202,314L202,321L195,321ZM223,314L272,314L272,321L223,321ZM307,314L314,314L314,321L307,321ZM342,314L349,314L349,321L342,321ZM356,314L370,314L370,321L356,321ZM377,314L391,314L391,321L377,321ZM20,321L41,321L41,328L20,328ZM55,321L62,321L62,328L55,328ZM83,321L90,321L90,328L83,328ZM153,321L167,321L167,328L153,328ZM181,321L195,321L195,328L181,328ZM202,321L209,321L209,328L202,328ZM216,321L223,321L223,328L216,328ZM251,321L258,321L258,328L251,328ZM279,321L286,321L286,328L279,328ZM307,321L328,321L328,328L307,328ZM335,321L342,321L342,328L335,328ZM349,321L363,321L363,328L349,328ZM398,321L419,321L419,328L398,328ZM20,328L27,328L27,335L20,335ZM34,328L41,328L41,335L34,335ZM48,328L111,328L111,335L48,335ZM118,328L125,328L125,335L118,335ZM132,328L153,328L153,335L132,335ZM160,328L174,328L174,335L160,335ZM181,328L188,328L188,335L181,335ZM216,328L237,328L237,335L216,335ZM244,328L258,328L258,335L244,335ZM265,328L272,328L272,335L265,335ZM286,328L293,328L293,335L286,335ZM321,328L328,328L328,335L321,335ZM342,328L349,328L349,335L342,335ZM384,328L398,328L398,335L384,335ZM41,335L62,335L62,342L41,342ZM90,335L111,335L111,342L90,342ZM118,335L125,335L125,342L118,342ZM132,335L139,335L139,342L132,342ZM146,335L153,335L153,342L146,342ZM167,335L174,335L174,342L167,342ZM195,335L202,335L202,342L195,342ZM223,335L244,335L244,342L223,342ZM272,335L279,335L279,342L272,342ZM300,335L307,335L307,342L300,342ZM314,335L321,335L321,342L314,342ZM328,335L384,335L384,342L328,342ZM391,335L405,335L405,342L391,342ZM412,335L419,335L419,342L412,342ZM20,342L27,342L27,349L20,349ZM34,342L41,342L41,349L34,349ZM55,342L76,342L76,349L55,349ZM118,342L132,342L132,349L118,349ZM146,342L174,342L174,349L146,349ZM181,342L188,342L188,349L181,349ZM195,342L202,342L202,349L195,349ZM209,342L216,342L216,349L209,349ZM251,342L258,342L258,349L251,349ZM286,342L300,342L300,349L286,349ZM307,342L314,342L314,349L307,349ZM321,342L328,342L328,349L321,349ZM335,342L349,342L349,349L335,349ZM356,342L363,342L363,349L356,349ZM370,342L377,342L377,349L370,349ZM384,342L391,342L391,349L384,349ZM20,349L55,349L55,356L20,356ZM69,349L76,349L76,356L69,356ZM97,349L104,349L104,356L97,356ZM111,349L118,349L118,356L111,356ZM125,349L132,349L132,356L125,356ZM139,349L153,349L153,356L139,356ZM167,349L188,349L188,356L167,356ZM202,349L209,349L209,356L202,356ZM223,349L230,349L230,356L223,356ZM237,349L244,349L244,356L237,356ZM279,349L293,349L293,356L279,356ZM314,349L321,349L321,356L314,356ZM335,349L342,349L342,356L335,356ZM370,349L377,349L377,356L370,356ZM391,349L419,349L419,356L391,356ZM62,356L69,356L69,363L62,363ZM76,356L83,356L83,363L76,363ZM104,356L111,356L111,363L104,363ZM118,356L125,356L125,363L118,363ZM139,356L146,356L146,363L139,363ZM167,356L181,356L181,363L167,363ZM202,356L237,356L237,363L202,363ZM286,356L300,356L300,363L286,363ZM307,356L314,356L314,363L307,363ZM321,356L328,356L328,363L321,363ZM342,356L349,356L349,363L342,363ZM356,356L391,356L391,363L356,363ZM405,356L412,356L412,363L405,363ZM76,363L83,363L83,370L76,370ZM90,363L111,363L111,370L90,370ZM118,363L125,363L125,370L118,370ZM132,363L139,363L139,370L132,370ZM146,363L153,363L153,370L146,370ZM160,363L167,363L167,370L160,370ZM195,363L209,363L209,370L195,370ZM230,363L237,363L237,370L230,370ZM258,363L272,363L272,370L258,370ZM279,363L342,363L342,370L279,370ZM349,363L363,363L363,370L349,370ZM384,363L405,363L405,370L384,370ZM20,370L69,370L69,377L20,377ZM104,370L111,370L111,377L104,377ZM153,370L160,370L160,377L153,377ZM167,370L174,370L174,377L167,377ZM181,370L209,370L209,377L181,377ZM216,370L223,370L223,377L216,377ZM230,370L244,370L244,377L230,377ZM265,370L272,370L272,377L265,377ZM307,370L314,370L314,377L307,377ZM335,370L342,370L342,377L335,377ZM349,370L363,370L363,377L349,377ZM370,370L377,370L377,377L370,377ZM384,370L391,370L391,377L384,377ZM405,370L419,370L419,377L405,377ZM20,377L27,377L27,384L20,384ZM62,377L69,377L69,384L62,384ZM104,377L111,377L111,384L104,384ZM146,377L160,377L160,384L146,384ZM174,377L181,377L181,384L174,384ZM188,377L195,377L195,384L188,384ZM202,377L209,377L209,384L202,384ZM230,377L237,377L237,384L230,384ZM244,377L272,377L272,384L244,384ZM300,377L307,377L307,384L300,384ZM314,377L328,377L328,384L314,384ZM335,377L342,377L342,384L335,384ZM356,377L363,377L363,384L356,384ZM384,377L405,377L405,384L384,384ZM412,377L419,377L419,384L412,384ZM20,384L27,384L27,391L20,391ZM34,384L55,384L55,391L34,391ZM62,384L69,384L69,391L62,391ZM76,384L83,384L83,391L76,391ZM90,384L97,384L97,391L90,391ZM104,384L111,384L111,391L104,391ZM132,384L139,384L139,391L132,391ZM167,384L174,384L174,391L167,391ZM195,384L258,384L258,391L195,391ZM265,384L293,384L293,391L265,391ZM300,384L314,384L314,391L300,391ZM328,384L335,384L335,391L328,391ZM342,384L349,384L349,391L342,391ZM356,384L391,384L391,391L356,391ZM398,384L412,384L412,391L398,391ZM20,391L27,391L27,398L20,398ZM34,391L55,391L55,398L34,398ZM62,391L69,391L69,398L62,398ZM76,391L83,391L83,398L76,398ZM90,391L104,391L104,398L90,398ZM111,391L125,391L125,398L111,398ZM132,391L167,391L167,398L132,398ZM174,391L181,391L181,398L174,398ZM188,391L195,391L195,398L188,398ZM209,391L216,391L216,398L209,398ZM223,391L251,391L251,398L223,398ZM279,391L335,391L335,398L279,398ZM356,391L370,391L370,398L356,398ZM377,391L384,391L384,398L377,398ZM398,391L412,391L412,398L398,398ZM20,398L27,398L27,405L20,405ZM34,398L55,398L55,405L34,405ZM62,398L69,398L69,405L62,405ZM76,398L83,398L83,405L76,405ZM90,398L97,398L97,405L90,405ZM111,398L139,398L139,405L111,405ZM146,398L153,398L153,405L146,405ZM167,398L181,398L181,405L167,405ZM188,398L195,398L195,405L188,405ZM209,398L230,398L230,405L209,405ZM244,398L258,398L258,405L244,405ZM265,398L293,398L293,405L265,405ZM307,398L321,398L321,405L307,405ZM342,398L377,398L377,405L342,405ZM391,398L398,398L398,405L391,405ZM20,405L27,405L27,412L20,412ZM62,405L69,405L69,412L62,412ZM97,405L111,405L111,412L97,412ZM139,405L146,405L146,412L139,412ZM167,405L209,405L209,412L167,412ZM223,405L230,405L230,412L223,412ZM244,405L272,405L272,412L244,412ZM293,405L300,405L300,412L293,412ZM314,405L328,405L328,412L314,412ZM349,405L356,405L356,412L349,412ZM384,405L391,405L391,412L384,412ZM405,405L419,405L419,412L405,412ZM20,412L69,412L69,419L20,419ZM83,412L90,412L90,419L83,419ZM104,412L111,412L111,419L104,419ZM125,412L167,412L167,419L125,419ZM188,412L209,412L209,419L188,419ZM230,412L244,412L244,419L230,419ZM251,412L300,412L300,419L251,419ZM307,412L314,412L314,419L307,419ZM321,412L328,412L328,419L321,419ZM335,412L363,412L363,419L335,419ZM391,412L412,412L412,419L391,419Z"/></svg>
