<?xml version="1.0"?>
<svg xmlns="http://www.w3.org/2000/svg" xmlns:xlink="http://www.w3.org/1999/xlink" version="1.1" width="440px" height="440px" viewBox="0 0 440 440"><rect x="0" y="0" width="440" height="440" fill="#ffffff" fill-opacity="1"/><path fill="#000000" fill-opacity="1" d="M20,20L69,20L69,27L20,27ZM76,20L90,20L90,27L76,27ZM97,20L104,20L104,27L97,27ZM111,20L118,20L118,27L111,27ZM125,20L132,20L132,27L125,27ZM139,20L167,20L167,27L139,27ZM174,20L188,20L188,27L174,27ZM195,20L258,20L258,27L195,27ZM300,20L314,20L314,27L300,27ZM328,20L335,20L335,27L328,27ZM342,20L356,20L356,27L342,27ZM370,20L419,20L419,27L370,27ZM20,27L27,27L27,34L20,34ZM62,27L69,27L69,34L62,34ZM76,27L83,27L83,34L76,34ZM104,27L111,27L111,34L104,34ZM125,27L132,27L132,34L125,34ZM167,27L174,27L174,34L167,34ZM188,27L195,27L195,34L188,34ZM230,27L237,27L237,34L230,34ZM251,27L286,27L286,34L251,34ZM293,27L300,27L300,34L293,34ZM307,27L314,27L314,34L307,34ZM335,27L342,27L342,34L335,34ZM349,27L356,27L356,34L349,34ZM370,27L377,27L377,34L370,34ZM412,27L419,27L419,34L412,34ZM20,34L27,34L27,41L20,41ZM34,34L55,34L55,41L34,41ZM62,34L69,34L69,41L62,41ZM76,34L90,34L90,41L76,41ZM118,34L132,34L132,41L118,41ZM146,34L153,34L153,41L146,41ZM160,34L181,34L181,41L160,41ZM188,34L195,34L195,41L188,41ZM223,34L230,34L230,41L223,41ZM279,34L286,34L286,41L279,41ZM300,34L307,34L307,41L300,41ZM314,34L356,34L356,41L314,41ZM370,34L377,34L377,41L370,41ZM384,34L405,34L405,41L384,41ZM412,34L419,34L419,41L412,41ZM20,41L27,41L27,48L20,48ZM34,41L55,41L55,48L34,48ZM62,41L69,41L69,48L62,48ZM83,41L90,41L90,48L83,48ZM132,41L153,41L153,48L132,48ZM167,41L174,41L174,48L167,48ZM195,41L209,41L209,48L195,48ZM216,41L230,41L230,48L216,48ZM237,41L244,41L244,48L237,48ZM286,41L293,41L293,48L286,48ZM307,41L314,41L314,48L307,48ZM321,41L335,41L335,48L321,48ZM349,41L356,41L356,48L349,48ZM370,41L377,41L377,48L370,48ZM384,41L405,41L405,48L384,48ZM412,41L419,41L419,48L412,48ZM20,48L27,48L27,55L20,55ZM34,48L55,48L55,55L34,55ZM62,48L69,48L69,55L62,55ZM83,48L90,48L90,55L83,55ZM97,48L118,48L118,55L97,55ZM146,48L153,48L153,55L146,55ZM167,48L174,48L174,55L167,55ZM181,48L188,48L188,55L181,55ZM202,48L244,48L244,55L202,55ZM258,48L265,48L265,55L258,55ZM272,48L279,48L279,55L272,55ZM300,48L321,48L321,55L300,55ZM328,48L335,48L335,55L328,55ZM349,48L356,48L356,55L349,55ZM370,48L377,48L377,55L370,55ZM384,48L405,48L405,55L384,55ZM412,48L419,48L419,55L412,55ZM20,55L27,55L27,62L20,62ZM62,55L69,55L69,62L62,62ZM76,55L83,55L83,62L76,62ZM90,55L104,55L104,62L90,62ZM125,55L132,55L132,62L125,62ZM139,55L153,55L153,62L139,62ZM160,55L195,55L195,62L160,62ZM202,55L209,55L209,62L202,62ZM230,55L237,55L237,62L230,62ZM244,55L251,55L251,62L244,62ZM258,55L272,55L272,62L258,62ZM279,55L286,55L286,62L279,62ZM293,55L300,55L300,62L293,62ZM314,55L321,55L321,62L314,62ZM335,55L349,55L349,62L335,62ZM370,55L377,55L377,62L370,62ZM412,55L419,55L419,62L412,62ZM20,62L69,62L69,69L20,69ZM76,62L83,62L83,69L76,69ZM90,62L97,62L97,69L90,69ZM104,62L111,62L111,69L104,69ZM118,62L125,62L125,69L118,69ZM132,62L139,62L139,69L132,69ZM146,62L153,62L153,69L146,69ZM160,62L167,62L167,69L160,69ZM174,62L181,62L181,69L174,69ZM188,62L195,62L195,69L188,69ZM202,62L209,62L209,69L202,69ZM216,62L223,62L223,69L216,69ZM230,62L237,62L237,69L230,69ZM244,62L251,62L251,69L244,69ZM258,62L265,62L265,69L258,69ZM272,62L279,62L279,69L272,69ZM286,62L293,62L293,69L286,69ZM300,62L307,62L307,69L300,69ZM314,62L321,62L321,69L314,69ZM328,62L335,62L335,69L328,69ZM342,62L349,62L349,69L342,69ZM356,62L363,62L363,69L356,69ZM370,62L419,62L419,69L370,69ZM76,69L83,69L83,76L76,76ZM90,69L104,69L104,76L90,76ZM125,69L139,69L139,76L125,76ZM153,69L160,69L160,76L153,76ZM167,69L181,69L181,76L167,76ZM202,69L209,69L209,76L202,76ZM230,69L237,69L237,76L230,76ZM258,69L265,69L265,76L258,76ZM272,69L279,69L279,76L272,76ZM314,69L342,69L342,76L314,76ZM349,69L363,69L363,76L349,76ZM34,76L55,76L55,83L34,83ZM62,76L69,76L69,83L62,83ZM76,76L104,76L104,83L76,83ZM118,76L125,76L125,83L118,83ZM132,76L153,76L153,83L132,83ZM167,76L174,76L174,83L167,83ZM188,76L244,76L244,83L188,83ZM265,76L314,76L314,83L265,83ZM342,76L356,76L356,83L342,83ZM363,76L384,76L384,83L363,83ZM398,76L419,76L419,83L398,83ZM34,83L41,83L41,90L34,90ZM69,83L76,83L76,90L69,90ZM111,83L118,83L118,90L111,90ZM139,83L153,83L153,90L139,90ZM188,83L202,83L202,90L188,90ZM209,83L223,83L223,90L209,90ZM244,83L265,83L265,90L244,90ZM272,83L286,83L286,90L272,90ZM300,83L314,83L314,90L300,90ZM328,83L342,83L342,90L328,90ZM349,83L370,83L370,90L349,90ZM384,83L391,83L391,90L384,90ZM398,83L405,83L405,90L398,90ZM20,90L34,90L34,97L20,97ZM62,90L83,90L83,97L62,97ZM97,90L104,90L104,97L97,97ZM125,90L132,90L132,97L125,97ZM146,90L167,90L167,97L146,97ZM181,90L188,90L188,97L181,97ZM216,90L223,90L223,97L216,97ZM230,90L251,90L251,97L230,97ZM272,90L279,90L279,97L272,97ZM293,90L300,90L300,97L293,97ZM307,90L328,90L328,97L307,97ZM342,90L356,90L356,97L342,97ZM391,90L398,90L398,97L391,97ZM412,90L419,90L419,97L412,97ZM20,97L27,97L27,104L20,104ZM41,97L55,97L55,104L41,104ZM69,97L83,97L83,104L69,104ZM90,97L97,97L97,104L90,104ZM104,97L118,97L118,104L104,104ZM125,97L139,97L139,104L125,104ZM174,97L195,97L195,104L174,104ZM209,97L216,97L216,104L209,104ZM223,97L230,97L230,104L223,104ZM258,97L272,97L272,104L258,104ZM279,97L286,97L286,104L279,104ZM307,97L321,97L321,104L307,104ZM328,97L335,97L335,104L328,104ZM356,97L370,97L370,104L356,104ZM377,97L384,97L384,104L377,104ZM398,97L419,97L419,104L398,104ZM34,104L69,104L69,111L34,111ZM90,104L104,104L104,111L90,111ZM111,104L118,104L118,111L111,111ZM132,104L153,104L153,111L132,111ZM167,104L174,104L174,111L167,111ZM188,104L195,104L195,111L188,111ZM216,104L230,104L230,111L216,111ZM237,104L244,104L244,111L237,111ZM258,104L265,104L265,111L258,111ZM286,104L307,104L307,111L286,111ZM342,104L349,104L349,111L342,111ZM370,104L398,104L398,111L370,111ZM20,111L27,111L27,118L20,118ZM34,111L62,111L62,118L34,118ZM83,111L90,111L90,118L83,118ZM118,111L132,111L132,118L118,118ZM146,111L153,111L153,118L146,118ZM160,111L174,111L174,118L160,118ZM188,111L209,111L209,118L188,118ZM216,111L223,111L223,118L216,118ZM237,111L244,111L244,118L237,118ZM258,111L272,111L272,118L258,118ZM300,111L307,111L307,118L300,118ZM314,111L342,111L342,118L314,118ZM356,111L419,111L419,118L356,118ZM20,118L34,118L34,125L20,125ZM41,118L97,118L97,125L41,125ZM104,118L111,118L111,125L104,125ZM139,118L146,118L146,125L139,125ZM153,118L160,118L160,125L153,125ZM167,118L174,118L174,125L167,125ZM188,118L216,118L216,125L188,125ZM223,118L230,118L230,125L223,125ZM237,118L244,118L244,125L237,125ZM251,118L286,118L286,125L251,125ZM293,118L300,118L300,125L293,125ZM307,118L314,118L314,125L307,125ZM335,118L342,118L342,125L335,125ZM363,118L370,118L370,125L363,125ZM405,118L419,118L419,125L405,125ZM20,125L48,125L48,132L20,132ZM55,125L62,125L62,132L55,132ZM69,125L90,125L90,132L69,132ZM125,125L153,125L153,132L125,132ZM160,125L167,125L167,132L160,132ZM174,125L188,125L188,132L174,132ZM195,125L202,125L202,132L195,132ZM223,125L230,125L230,132L223,132ZM237,125L251,125L251,132L237,132ZM265,125L286,125L286,132L265,132ZM300,125L328,125L328,132L300,132ZM335,125L342,125L342,132L335,132ZM349,125L363,125L363,132L349,132ZM377,125L384,125L384,132L377,132ZM398,125L405,125L405,132L398,132ZM412,125L419,125L419,132L412,132ZM27,132L34,132L34,139L27,139ZM48,132L55,132L55,139L48,139ZM62,132L69,132L69,139L62,139ZM76,132L83,132L83,139L76,139ZM97,132L111,132L111,139L97,139ZM118,132L139,132L139,139L118,139ZM160,132L167,132L167,139L160,139ZM181,132L209,132L209,139L181,139ZM216,132L223,132L223,139L216,139ZM230,132L251,132L251,139L230,139ZM272,132L279,132L279,139L272,139ZM286,132L293,132L293,139L286,139ZM342,132L356,132L356,139L342,139ZM363,132L377,132L377,139L363,139ZM391,132L405,132L405,139L391,139ZM20,139L27,139L27,146L20,146ZM41,139L48,139L48,146L41,146ZM69,139L76,139L76,146L69,146ZM90,139L139,139L139,146L90,146ZM153,139L160,139L160,146L153,146ZM174,139L202,139L202,146L174,146ZM223,139L230,139L230,146L223,146ZM244,139L251,139L251,146L244,146ZM258,139L279,139L279,146L258,146ZM293,139L307,139L307,146L293,146ZM314,139L342,139L342,146L314,146ZM349,139L356,139L356,146L349,146ZM363,139L391,139L391,146L363,146ZM398,139L405,139L405,146L398,146ZM27,146L41,146L41,153L27,153ZM62,146L69,146L69,153L62,153ZM76,146L97,146L97,153L76,153ZM111,146L125,146L125,153L111,153ZM132,146L146,146L146,153L132,153ZM160,146L167,146L167,153L160,153ZM188,146L195,146L195,153L188,153ZM209,146L237,146L237,153L209,153ZM244,146L251,146L251,153L244,153ZM258,146L286,146L286,153L258,153ZM307,146L321,146L321,153L307,153ZM335,146L342,146L342,153L335,153ZM363,146L377,146L377,153L363,153ZM391,146L398,146L398,153L391,153ZM412,146L419,146L419,153L412,153ZM20,153L27,153L27,160L20,160ZM41,153L48,153L48,160L41,160ZM83,153L104,153L104,160L83,160ZM118,153L125,153L125,160L118,160ZM139,153L146,153L146,160L139,160ZM167,153L181,153L181,160L167,160ZM188,153L195,153L195,160L188,160ZM209,153L223,153L223,160L209,160ZM244,153L272,153L272,160L244,160ZM300,153L342,153L342,160L300,160ZM349,153L363,153L363,160L349,160ZM398,153L405,153L405,160L398,160ZM412,153L419,153L419,160L412,160ZM20,160L69,160L69,167L20,167ZM83,160L90,160L90,167L83,167ZM104,160L111,160L111,167L104,167ZM118,160L125,160L125,167L118,167ZM132,160L160,160L160,167L132,167ZM167,160L181,160L181,167L167,167ZM188,160L195,160L195,167L188,167ZM202,160L209,160L209,167L202,167ZM216,160L223,160L223,167L216,167ZM244,160L251,160L251,167L244,167ZM265,160L300,160L300,167L265,167ZM342,160L356,160L356,167L342,167ZM363,160L384,160L384,167L363,167ZM391,160L398,160L398,167L391,167ZM405,160L412,160L412,167L405,167ZM20,167L41,167L41,174L20,174ZM69,167L83,167L83,174L69,174ZM97,167L118,167L118,174L97,174ZM125,167L132,167L132,174L125,174ZM139,167L153,167L153,174L139,174ZM167,167L174,167L174,174L167,174ZM181,167L188,167L188,174L181,174ZM202,167L237,167L237,174L202,174ZM258,167L272,167L272,174L258,174ZM279,167L286,167L286,174L279,174ZM293,167L342,167L342,174L293,174ZM349,167L356,167L356,174L349,174ZM384,167L391,167L391,174L384,174ZM398,167L405,167L405,174L398,174ZM20,174L34,174L34,181L20,181ZM41,174L55,174L55,181L41,181ZM62,174L69,174L69,181L62,181ZM90,174L104,174L104,181L90,181ZM125,174L132,174L132,181L125,181ZM146,174L160,174L160,181L146,181ZM188,174L195,174L195,181L188,181ZM230,174L237,174L237,181L230,181ZM244,174L251,174L251,181L244,181ZM272,174L293,174L293,181L272,181ZM314,174L321,174L321,181L314,181ZM349,174L363,174L363,181L349,181ZM370,174L384,174L384,181L370,181ZM391,174L398,174L398,181L391,181ZM405,174L412,174L412,181L405,181ZM20,181L41,181L41,188L20,188ZM48,181L62,181L62,188L48,188ZM69,181L90,181L90,188L69,188ZM97,181L125,181L125,188L97,188ZM132,181L153,181L153,188L132,188ZM160,181L174,181L174,188L160,188ZM181,181L195,181L195,188L181,188ZM202,181L223,181L223,188L202,188ZM265,181L272,181L272,188L265,188ZM279,181L286,181L286,188L279,188ZM293,181L307,181L307,188L293,188ZM314,181L321,181L321,188L314,188ZM328,181L335,181L335,188L328,188ZM349,181L363,181L363,188L349,188ZM377,181L384,181L384,188L377,188ZM398,181L405,181L405,188L398,188ZM412,181L419,181L419,188L412,188ZM20,188L34,188L34,195L20,195ZM48,188L76,188L76,195L48,195ZM83,188L90,188L90,195L83,195ZM118,188L125,188L125,195L118,195ZM139,188L153,188L153,195L139,195ZM167,188L174,188L174,195L167,195ZM181,188L209,188L209,195L181,195ZM216,188L258,188L258,195L216,195ZM265,188L272,188L272,195L265,195ZM286,188L293,188L293,195L286,195ZM307,188L314,188L314,195L307,195ZM321,188L349,188L349,195L321,195ZM356,188L384,188L384,195L356,195ZM391,188L398,188L398,195L391,195ZM412,188L419,188L419,195L412,195ZM20,195L27,195L27,202L20,202ZM41,195L62,195L62,202L41,202ZM69,195L104,195L104,202L69,202ZM111,195L125,195L125,202L111,202ZM132,195L153,195L153,202L132,202ZM167,195L230,195L230,202L167,202ZM237,195L258,195L258,202L237,202ZM272,195L279,195L279,202L272,202ZM300,195L321,195L321,202L300,202ZM328,195L349,195L349,202L328,202ZM370,195L377,195L377,202L370,202ZM384,195L391,195L391,202L384,202ZM398,195L419,195L419,202L398,202ZM34,202L83,202L83,209L34,209ZM90,202L104,202L104,209L90,209ZM125,202L132,202L132,209L125,209ZM139,202L146,202L146,209L139,209ZM160,202L181,202L181,209L160,209ZM188,202L195,202L195,209L188,209ZM202,202L237,202L237,209L202,209ZM244,202L258,202L258,209L244,209ZM265,202L279,202L279,209L265,209ZM286,202L300,202L300,209L286,209ZM314,202L328,202L328,209L314,209ZM342,202L391,202L391,209L342,209ZM398,202L405,202L405,209L398,209ZM20,209L27,209L27,216L20,216ZM41,209L55,209L55,216L41,216ZM76,209L90,209L90,216L76,216ZM139,209L153,209L153,216L139,216ZM160,209L167,209L167,216L160,216ZM174,209L188,209L188,216L174,216ZM202,209L209,209L209,216L202,216ZM230,209L251,209L251,216L230,216ZM258,209L272,209L272,216L258,216ZM300,209L321,209L321,216L300,216ZM328,209L335,209L335,216L328,216ZM349,209L363,209L363,216L349,216ZM384,209L391,209L391,216L384,216ZM398,209L405,209L405,216L398,216ZM412,209L419,209L419,216L412,216ZM20,216L27,216L27,223L20,223ZM34,216L55,216L55,223L34,223ZM62,216L69,216L69,223L62,223ZM76,216L111,216L111,223L76,223ZM132,216L146,216L146,223L132,223ZM153,216L160,216L160,223L153,223ZM195,216L209,216L209,223L195,223ZM216,216L223,216L223,223L216,223ZM230,216L251,216L251,223L230,223ZM265,216L293,216L293,223L265,223ZM321,216L328,216L328,223L321,223ZM335,216L349,216L349,223L335,223ZM356,216L363,216L363,223L356,223ZM370,216L377,216L377,223L370,223ZM384,216L391,216L391,223L384,223ZM398,216L412,216L412,223L398,223ZM27,223L55,223L55,230L27,230ZM76,223L83,223L83,230L76,230ZM90,223L97,223L97,230L90,230ZM104,223L111,223L111,230L104,230ZM125,223L132,223L132,230L125,230ZM146,223L153,223L153,230L146,230ZM160,223L209,223L209,230L160,230ZM230,223L237,223L237,230L230,230ZM244,223L265,223L265,230L244,230ZM272,223L279,223L279,230L272,230ZM286,223L293,223L293,230L286,230ZM300,223L314,223L314,230L300,230ZM321,223L342,223L342,230L321,230ZM356,223L363,223L363,230L356,230ZM384,223L419,223L419,230L384,230ZM27,230L34,230L34,237L27,237ZM41,230L90,230L90,237L41,237ZM97,230L104,230L104,237L97,237ZM132,230L174,230L174,237L132,237ZM188,230L195,230L195,237L188,237ZM202,230L237,230L237,237L202,237ZM244,230L251,230L251,237L244,237ZM265,230L286,230L286,237L265,237ZM293,230L300,230L300,237L293,237ZM314,230L321,230L321,237L314,237ZM335,230L349,230L349,237L335,237ZM356,230L391,230L391,237L356,237ZM405,230L412,230L412,237L405,237ZM20,237L27,237L27,244L20,244ZM34,237L48,237L48,244L34,244ZM55,237L62,237L62,244L55,244ZM69,237L90,237L90,244L69,244ZM104,237L118,237L118,244L104,244ZM125,237L132,237L132,244L125,244ZM139,237L146,237L146,244L139,244ZM174,237L188,237L188,244L174,244ZM209,237L216,237L216,244L209,244ZM223,237L258,237L258,244L223,244ZM265,237L279,237L279,244L265,244ZM300,237L321,237L321,244L300,244ZM377,237L384,237L384,244L377,244ZM391,237L398,237L398,244L391,244ZM405,237L419,237L419,244L405,244ZM20,244L27,244L27,251L20,251ZM34,244L41,244L41,251L34,251ZM62,244L76,244L76,251L62,251ZM83,244L90,244L90,251L83,251ZM97,244L111,244L111,251L97,251ZM132,244L160,244L160,251L132,251ZM174,244L181,244L181,251L174,251ZM188,244L223,244L223,251L188,251ZM230,244L237,244L237,251L230,251ZM251,244L300,244L300,251L251,251ZM307,244L314,244L314,251L307,251ZM335,244L349,244L349,251L335,251ZM384,244L398,244L398,251L384,251ZM20,251L27,251L27,258L20,258ZM34,251L41,251L41,258L34,258ZM48,251L62,251L62,258L48,258ZM83,251L90,251L90,258L83,258ZM97,251L104,251L104,258L97,258ZM132,251L146,251L146,258L132,258ZM160,251L181,251L181,258L160,258ZM188,251L195,251L195,258L188,258ZM202,251L216,251L216,258L202,258ZM223,251L230,251L230,258L223,258ZM272,251L279,251L279,258L272,258ZM286,251L307,251L307,258L286,258ZM314,251L335,251L335,258L314,258ZM349,251L356,251L356,258L349,258ZM363,251L384,251L384,258L363,258ZM391,251L405,251L405,258L391,258ZM20,258L34,258L34,265L20,265ZM41,258L48,258L48,265L41,265ZM62,258L69,258L69,265L62,265ZM76,258L83,258L83,265L76,265ZM90,258L97,258L97,265L90,265ZM104,258L139,258L139,265L104,265ZM146,258L160,258L160,265L146,265ZM174,258L195,258L195,265L174,265ZM216,258L223,258L223,265L216,265ZM230,258L237,258L237,265L230,265ZM244,258L251,258L251,265L244,265ZM258,258L265,258L265,265L258,265ZM279,258L286,258L286,265L279,265ZM314,258L321,258L321,265L314,265ZM377,258L398,258L398,265L377,265ZM405,258L412,258L412,265L405,265ZM27,265L55,265L55,272L27,272ZM69,265L76,265L76,272L69,272ZM83,265L90,265L90,272L83,272ZM97,265L125,265L125,272L97,272ZM153,265L167,265L167,272L153,272ZM181,265L188,265L188,272L181,272ZM209,265L216,265L216,272L209,272ZM237,265L244,265L244,272L237,272ZM265,265L272,265L272,272L265,272ZM293,265L307,265L307,272L293,272ZM314,265L342,265L342,272L314,272ZM356,265L363,265L363,272L356,272ZM391,265L405,265L405,272L391,272ZM412,265L419,265L419,272L412,272ZM34,272L55,272L55,279L34,279ZM62,272L69,272L69,279L62,279ZM104,272L146,272L146,279L104,279ZM153,272L160,272L160,279L153,279ZM167,272L174,272L174,279L167,279ZM181,272L188,272L188,279L181,279ZM195,272L202,272L202,279L195,279ZM209,272L223,272L223,279L209,279ZM230,272L251,272L251,279L230,279ZM258,272L293,272L293,279L258,279ZM307,272L314,272L314,279L307,279ZM321,272L335,272L335,279L321,279ZM342,272L356,272L356,279L342,279ZM377,272L391,272L391,279L377,279ZM398,272L412,272L412,279L398,279ZM27,279L34,279L34,286L27,286ZM41,279L48,279L48,286L41,286ZM55,279L62,279L62,286L55,286ZM76,279L83,279L83,286L76,286ZM90,279L97,279L97,286L90,286ZM125,279L132,279L132,286L125,286ZM139,279L153,279L153,286L139,286ZM174,279L181,279L181,286L174,286ZM195,279L202,279L202,286L195,286ZM216,279L230,279L230,286L216,286ZM237,279L244,279L244,286L237,286ZM251,279L265,279L265,286L251,286ZM293,279L307,279L307,286L293,286ZM314,279L321,279L321,286L314,286ZM328,279L342,279L342,286L328,286ZM349,279L384,279L384,286L349,286ZM391,279L405,279L405,286L391,286ZM27,286L34,286L34,293L27,293ZM41,286L48,286L48,293L41,293ZM62,286L69,286L69,293L62,293ZM83,286L118,286L118,293L83,293ZM139,286L146,286L146,293L139,293ZM160,286L167,286L167,293L160,293ZM181,286L188,286L188,293L181,293ZM202,286L209,286L209,293L202,293ZM223,286L230,286L230,293L223,293ZM237,286L244,286L244,293L237,293ZM258,286L265,286L265,293L258,293ZM272,286L279,286L279,293L272,293ZM307,286L321,286L321,293L307,293ZM370,286L377,286L377,293L370,293ZM384,286L412,286L412,293L384,293ZM20,293L27,293L27,300L20,300ZM34,293L48,293L48,300L34,300ZM97,293L111,293L111,300L97,300ZM132,293L195,293L195,300L132,300ZM209,293L216,293L216,300L209,300ZM223,293L244,293L244,300L223,300ZM265,293L279,293L279,300L265,300ZM314,293L342,293L342,300L314,300ZM349,293L370,293L370,300L349,300ZM377,293L384,293L384,300L377,300ZM391,293L398,293L398,300L391,300ZM405,293L419,293L419,300L405,300ZM20,300L27,300L27,307L20,307ZM55,300L76,300L76,307L55,307ZM83,300L90,300L90,307L83,307ZM97,300L111,300L111,307L97,307ZM125,300L132,300L132,307L125,307ZM139,300L146,300L146,307L139,307ZM153,300L188,300L188,307L153,307ZM195,300L216,300L216,307L195,307ZM237,300L244,300L244,307L237,307ZM251,300L258,300L258,307L251,307ZM293,300L300,300L300,307L293,307ZM307,300L314,300L314,307L307,307ZM321,300L328,300L328,307L321,307ZM342,300L349,300L349,307L342,307ZM356,300L370,300L370,307L356,307ZM391,300L398,300L398,307L391,307ZM20,307L27,307L27,314L20,314ZM34,307L62,307L62,314L34,314ZM69,307L76,307L76,314L69,314ZM97,307L118,307L118,314L97,314ZM125,307L153,307L153,314L125,314ZM181,307L188,307L188,314L181,314ZM216,307L230,307L230,314L216,314ZM244,307L265,307L265,314L244,314ZM300,307L342,307L342,314L300,314ZM349,307L356,307L356,314L349,314ZM363,307L377,307L377,314L363,314ZM398,307L405,307L405,314L398,314ZM412,307L419,307L419,314L412,314ZM20,314L27,314L27,321L20,321ZM48,314L83,314L83,321L48,321ZM97,314L146,314L146,321L97,321ZM153,314L160,314L160,321L153,321ZM195,314L202,314L202,321L195,321ZM237,314L279,314L279,321L237,321ZM293,314L300,314L300,321L293,321ZM307,314L314,314L314,321L307,321ZM342,314L349,314L349,321L342,321ZM363,314L370,314L370,321L363,321ZM377,314L398,314L398,321L377,321ZM405,314L412,314L412,321L405,321ZM27,321L62,321L62,328L27,328ZM83,321L90,321L90,328L83,328ZM111,321L125,321L125,328L111,328ZM153,321L167,321L167,328L153,328ZM174,321L209,321L209,328L174,328ZM216,321L237,321L237,328L216,328ZM314,321L321,321L321,328L314,328ZM335,321L342,321L342,328L335,328ZM405,321L419,321L419,328L405,328ZM27,328L41,328L41,335L27,335ZM55,328L69,328L69,335L55,335ZM83,328L97,328L97,335L83,335ZM104,328L111,328L111,335L104,335ZM118,328L125,328L125,335L118,335ZM139,328L174,328L174,335L139,335ZM188,328L195,328L195,335L188,335ZM202,328L216,328L216,335L202,335ZM223,328L230,328L230,335L223,335ZM244,328L251,328L251,335L244,335ZM258,328L265,328L265,335L258,335ZM279,328L300,328L300,335L279,335ZM307,328L314,328L314,335L307,335ZM342,328L349,328L349,335L342,335ZM356,328L363,328L363,335L356,335ZM384,328L405,328L405,335L384,335ZM41,335L62,335L62,342L41,342ZM69,335L76,335L76,342L69,342ZM90,335L97,335L97,342L90,342ZM125,335L132,335L132,342L125,342ZM146,335L153,335L153,342L146,342ZM174,335L216,335L216,342L174,342ZM223,335L230,335L230,342L223,342ZM237,335L244,335L244,342L237,342ZM251,335L258,335L258,342L251,342ZM265,335L279,335L279,342L265,342ZM300,335L307,335L307,342L300,342ZM321,335L356,335L356,342L321,342ZM363,335L384,335L384,342L363,342ZM391,335L405,335L405,342L391,342ZM412,335L419,335L419,342L412,342ZM20,342L27,342L27,349L20,349ZM34,342L41,342L41,349L34,349ZM55,342L90,342L90,349L55,349ZM97,342L111,342L111,349L97,349ZM125,342L153,342L153,349L125,349ZM160,342L167,342L167,349L160,349ZM174,342L181,342L181,349L174,349ZM202,342L216,342L216,349L202,349ZM251,342L258,342L258,349L251,349ZM279,342L286,342L286,349L279,349ZM293,342L300,342L300,349L293,349ZM307,342L321,342L321,349L307,349ZM335,342L349,342L349,349L335,349ZM370,342L377,342L377,349L370,349ZM384,342L391,342L391,349L384,349ZM20,349L55,349L55,356L20,356ZM69,349L83,349L83,356L69,356ZM104,349L111,349L111,356L104,356ZM146,349L160,349L160,356L146,356ZM174,349L181,349L181,356L174,356ZM188,349L230,349L230,356L188,356ZM237,349L265,349L265,356L237,356ZM272,349L293,349L293,356L272,356ZM314,349L321,349L321,356L314,356ZM328,349L342,349L342,356L328,356ZM356,349L363,349L363,356L356,356ZM370,349L377,349L377,356L370,356ZM398,349L419,349L419,356L398,356ZM62,356L69,356L69,363L62,363ZM76,356L83,356L83,363L76,363ZM90,356L104,356L104,363L90,363ZM111,356L125,356L125,363L111,363ZM167,356L188,356L188,363L167,363ZM195,356L244,356L244,363L195,363ZM251,356L258,356L258,363L251,363ZM272,356L279,356L279,363L272,363ZM286,356L300,356L300,363L286,363ZM307,356L314,356L314,363L307,363ZM342,356L349,356L349,363L342,363ZM356,356L412,356L412,363L356,363ZM76,363L90,363L90,370L76,370ZM104,363L111,363L111,370L104,370ZM125,363L132,363L132,370L125,370ZM160,363L174,363L174,370L160,370ZM181,363L188,363L188,370L181,370ZM202,363L209,363L209,370L202,370ZM230,363L237,363L237,370L230,370ZM244,363L251,363L251,370L244,370ZM265,363L342,363L342,370L265,370ZM349,363L363,363L363,370L349,370ZM384,363L391,363L391,370L384,370ZM398,363L405,363L405,370L398,370ZM20,370L69,370L69,377L20,377ZM83,370L90,370L90,377L83,377ZM125,370L139,370L139,377L125,377ZM146,370L174,370L174,377L146,377ZM181,370L209,370L209,377L181,377ZM216,370L223,370L223,377L216,377ZM230,370L237,370L237,377L230,377ZM244,370L251,370L251,377L244,377ZM258,370L279,370L279,377L258,377ZM307,370L314,370L314,377L307,377ZM335,370L342,370L342,377L335,377ZM349,370L363,370L363,377L349,377ZM370,370L377,370L377,377L370,377ZM384,370L398,370L398,377L384,377ZM405,370L419,370L419,377L405,377ZM20,377L27,377L27,384L20,384ZM62,377L69,377L69,384L62,384ZM90,377L132,377L132,384L90,384ZM139,377L146,377L146,384L139,384ZM160,377L181,377L181,384L160,384ZM195,377L209,377L209,384L195,384ZM230,377L251,377L251,384L230,384ZM265,377L279,377L279,384L265,384ZM300,377L307,377L307,384L300,384ZM314,377L321,377L321,384L314,384ZM335,377L342,377L342,384L335,384ZM356,377L363,377L363,384L356,384ZM384,377L391,377L391,384L384,384ZM398,377L405,377L405,384L398,384ZM412,377L419,377L419,384L412,384ZM20,384L27,384L27,391L20,391ZM34,384L55,384L55,391L34,391ZM62,384L69,384L69,391L62,391ZM76,384L97,384L97,391L76,391ZM104,384L111,384L111,391L104,391ZM125,384L132,384L132,391L125,391ZM167,384L181,384L181,391L167,391ZM202,384L237,384L237,391L202,391ZM244,384L258,384L258,391L244,391ZM272,384L293,384L293,391L272,391ZM300,384L314,384L314,391L300,391ZM342,384L349,384L349,391L342,391ZM356,384L391,384L391,391L356,391ZM398,384L412,384L412,391L398,391ZM20,391L27,391L27,398L20,398ZM34,391L55,391L55,398L34,398ZM62,391L69,391L69,398L62,398ZM76,391L90,391L90,398L76,398ZM97,391L104,391L104,398L97,398ZM111,391L118,391L118,398L111,398ZM125,391L132,391L132,398L125,398ZM146,391L167,391L167,398L146,398ZM174,391L181,391L181,398L174,398ZM195,391L209,391L209,398L195,398ZM216,391L223,391L223,398L216,398ZM265,391L335,391L335,398L265,398ZM356,391L370,391L370,398L356,398ZM377,391L384,391L384,398L377,398ZM391,391L412,391L412,398L391,398ZM20,398L27,398L27,405L20,405ZM34,398L55,398L55,405L34,405ZM62,398L69,398L69,405L62,405ZM76,398L83,398L83,405L76,405ZM90,398L97,398L97,405L90,405ZM111,398L132,398L132,405L111,405ZM146,398L153,398L153,405L146,405ZM167,398L181,398L181,405L167,405ZM188,398L195,398L195,405L188,405ZM237,398L251,398L251,405L237,405ZM265,398L272,398L272,405L265,405ZM279,398L293,398L293,405L279,405ZM307,398L321,398L321,405L307,405ZM342,398L377,398L377,405L342,405ZM20,405L27,405L27,412L20,412ZM62,405L69,405L69,412L62,412ZM97,405L111,405L111,412L97,412ZM132,405L139,405L139,412L132,412ZM146,405L153,405L153,412L146,412ZM167,405L202,405L202,412L167,412ZM209,405L223,405L223,412L209,412ZM230,405L244,405L244,412L230,412ZM251,405L258,405L258,412L251,412ZM265,405L272,405L272,412L265,412ZM307,405L328,405L328,412L307,412ZM349,405L356,405L356,412L349,412ZM384,405L391,405L391,412L384,412ZM398,405L419,405L419,412L398,412ZM20,412L69,412L69,419L20,419ZM83,412L97,412L97,419L83,419ZM104,412L111,412L111,419L104,419ZM132,412L139,412L139,419L132,419ZM146,412L167,412L167,419L146,419ZM181,412L188,412L188,419L181,419ZM223,412L258,412L258,419L223,419ZM265,412L300,412L300,419L265,419ZM321,412L328,412L328,419L321,419ZM335,412L363,412L363,419L335,419ZM391,412L412,412L412,419L391,419Z"/></svg>
