<?xml version="1.0"?>
<svg xmlns="http://www.w3.org/2000/svg" xmlns:xlink="http://www.w3.org/1999/xlink" version="1.1" width="440px" height="440px" viewBox="0 0 440 440"><rect x="0" y="0" width="440" height="440" fill="#ffffff" fill-opacity="1"/><path fill="#000000" fill-opacity="1" d="M20,20L69,20L69,27L20,27ZM76,20L111,20L111,27L76,27ZM118,20L125,20L125,27L118,27ZM132,20L139,20L139,27L132,27ZM153,20L160,20L160,27L153,27ZM181,20L188,20L188,27L181,27ZM195,20L223,20L223,27L195,27ZM230,20L237,20L237,27L230,27ZM244,20L258,20L258,27L244,27ZM286,20L293,20L293,27L286,27ZM300,20L314,20L314,27L300,27ZM328,20L335,20L335,27L328,27ZM342,20L356,20L356,27L342,27ZM370,20L419,20L419,27L370,27ZM20,27L27,27L27,34L20,34ZM62,27L69,27L69,34L62,34ZM76,27L83,27L83,34L76,34ZM118,27L132,27L132,34L118,34ZM139,27L153,27L153,34L139,34ZM181,27L195,27L195,34L181,34ZM223,27L230,27L230,34L223,34ZM237,27L244,27L244,34L237,34ZM251,27L258,27L258,34L251,34ZM272,27L286,27L286,34L272,34ZM293,27L300,27L300,34L293,34ZM307,27L314,27L314,34L307,34ZM349,27L356,27L356,34L349,34ZM370,27L377,27L377,34L370,34ZM412,27L419,27L419,34L412,34ZM20,34L27,34L27,41L20,41ZM34,34L55,34L55,41L34,41ZM62,34L69,34L69,41L62,41ZM76,34L125,34L125,41L76,41ZM132,34L146,34L146,41L132,41ZM153,34L195,34L195,41L153,41ZM209,34L216,34L216,41L209,41ZM230,34L251,34L251,41L230,41ZM279,34L286,34L286,41L279,41ZM300,34L307,34L307,41L300,41ZM314,34L356,34L356,41L314,41ZM370,34L377,34L377,41L370,41ZM384,34L405,34L405,41L384,41ZM412,34L419,34L419,41L412,41ZM20,41L27,41L27,48L20,48ZM34,41L55,41L55,48L34,48ZM62,41L69,41L69,48L62,48ZM83,41L118,41L118,48L83,48ZM132,41L146,41L146,48L132,48ZM153,41L160,41L160,48L153,48ZM167,41L181,41L181,48L167,48ZM195,41L230,41L230,48L195,48ZM237,41L251,41L251,48L237,48ZM265,41L279,41L279,48L265,48ZM286,41L300,41L300,48L286,48ZM307,41L314,41L314,48L307,48ZM321,41L342,41L342,48L321,48ZM349,41L356,41L356,48L349,48ZM370,41L377,41L377,48L370,48ZM384,41L405,41L405,48L384,48ZM412,41L419,41L419,48L412,48ZM20,48L27,48L27,55L20,55ZM34,48L55,48L55,55L34,55ZM62,48L69,48L69,55L62,55ZM83,48L90,48L90,55L83,55ZM118,48L125,48L125,55L118,55ZM153,48L160,48L160,55L153,55ZM174,48L188,48L188,55L174,55ZM202,48L251,48L251,55L202,55ZM258,48L272,48L272,55L258,55ZM293,48L321,48L321,55L293,55ZM328,48L335,48L335,55L328,55ZM349,48L356,48L356,55L349,55ZM370,48L377,48L377,55L370,55ZM384,48L405,48L405,55L384,55ZM412,48L419,48L419,55L412,55ZM20,55L27,55L27,62L20,62ZM62,55L69,55L69,62L62,62ZM76,55L83,55L83,62L76,62ZM90,55L97,55L97,62L90,62ZM104,55L118,55L118,62L104,62ZM125,55L132,55L132,62L125,62ZM139,55L195,55L195,62L139,62ZM202,55L209,55L209,62L202,62ZM230,55L244,55L244,62L230,62ZM258,55L272,55L272,62L258,62ZM286,55L293,55L293,62L286,62ZM314,55L321,55L321,62L314,62ZM335,55L349,55L349,62L335,62ZM370,55L377,55L377,62L370,62ZM412,55L419,55L419,62L412,62ZM20,62L69,62L69,69L20,69ZM76,62L83,62L83,69L76,69ZM90,62L97,62L97,69L90,69ZM104,62L111,62L111,69L104,69ZM118,62L125,62L125,69L118,69ZM132,62L139,62L139,69L132,69ZM146,62L153,62L153,69L146,69ZM160,62L167,62L167,69L160,69ZM174,62L181,62L181,69L174,69ZM188,62L195,62L195,69L188,69ZM202,62L209,62L209,69L202,69ZM216,62L223,62L223,69L216,69ZM230,62L237,62L237,69L230,69ZM244,62L251,62L251,69L244,69ZM258,62L265,62L265,69L258,69ZM272,62L279,62L279,69L272,69ZM286,62L293,62L293,69L286,69ZM300,62L307,62L307,69L300,69ZM314,62L321,62L321,69L314,69ZM328,62L335,62L335,69L328,69ZM342,62L349,62L349,69L342,69ZM356,62L363,62L363,69L356,69ZM370,62L419,62L419,69L370,69ZM76,69L83,69L83,76L76,76ZM90,69L97,69L97,76L90,76ZM118,69L139,69L139,76L118,76ZM202,69L209,69L209,76L202,76ZM230,69L237,69L237,76L230,76ZM258,69L265,69L265,76L258,76ZM314,69L328,69L328,76L314,76ZM335,69L342,69L342,76L335,76ZM356,69L363,69L363,76L356,76ZM34,76L55,76L55,83L34,83ZM62,76L69,76L69,83L62,83ZM76,76L97,76L97,83L76,83ZM104,76L111,76L111,83L104,83ZM118,76L125,76L125,83L118,83ZM132,76L153,76L153,83L132,83ZM160,76L167,76L167,83L160,83ZM188,76L244,76L244,83L188,83ZM279,76L300,76L300,83L279,83ZM307,76L314,76L314,83L307,83ZM321,76L328,76L328,83L321,83ZM342,76L349,76L349,83L342,83ZM363,76L384,76L384,83L363,83ZM398,76L419,76L419,83L398,83ZM20,83L34,83L34,90L20,90ZM41,83L48,83L48,90L41,90ZM69,83L76,83L76,90L69,90ZM97,83L111,83L111,90L97,90ZM139,83L167,83L167,90L139,90ZM188,83L195,83L195,90L188,90ZM202,83L223,83L223,90L202,90ZM244,83L265,83L265,90L244,90ZM272,83L286,83L286,90L272,90ZM293,83L314,83L314,90L293,90ZM321,83L335,83L335,90L321,90ZM356,83L370,83L370,90L356,90ZM384,83L412,83L412,90L384,90ZM41,90L83,90L83,97L41,97ZM97,90L104,90L104,97L97,97ZM111,90L132,90L132,97L111,97ZM146,90L167,90L167,97L146,97ZM174,90L188,90L188,97L174,97ZM216,90L223,90L223,97L216,97ZM230,90L251,90L251,97L230,97ZM265,90L293,90L293,97L265,97ZM307,90L321,90L321,97L307,97ZM335,90L349,90L349,97L335,97ZM405,90L412,90L412,97L405,97ZM20,97L27,97L27,104L20,104ZM34,97L41,97L41,104L34,104ZM48,97L62,97L62,104L48,104ZM76,97L83,97L83,104L76,104ZM90,97L111,97L111,104L90,104ZM118,97L139,97L139,104L118,104ZM181,97L209,97L209,104L181,104ZM216,97L223,97L223,104L216,104ZM258,97L286,97L286,104L258,104ZM314,97L328,97L328,104L314,104ZM349,97L370,97L370,104L349,104ZM377,97L384,97L384,104L377,104ZM391,97L419,97L419,104L391,104ZM27,104L48,104L48,111L27,111ZM62,104L69,104L69,111L62,111ZM76,104L83,104L83,111L76,111ZM90,104L111,104L111,111L90,111ZM125,104L132,104L132,111L125,111ZM139,104L153,104L153,111L139,111ZM160,104L174,104L174,111L160,111ZM181,104L195,104L195,111L181,111ZM202,104L209,104L209,111L202,111ZM237,104L244,104L244,111L237,111ZM251,104L258,104L258,111L251,111ZM272,104L279,104L279,111L272,111ZM286,104L314,104L314,111L286,111ZM342,104L349,104L349,111L342,111ZM370,104L391,104L391,111L370,111ZM34,111L62,111L62,118L34,118ZM69,111L90,111L90,118L69,118ZM118,111L132,111L132,118L118,118ZM146,111L153,111L153,118L146,118ZM174,111L188,111L188,118L174,118ZM223,111L230,111L230,118L223,118ZM237,111L244,111L244,118L237,118ZM272,111L279,111L279,118L272,118ZM300,111L307,111L307,118L300,118ZM314,111L321,111L321,118L314,118ZM328,111L342,111L342,118L328,118ZM356,111L419,111L419,118L356,118ZM20,118L34,118L34,125L20,125ZM41,118L48,118L48,125L41,125ZM62,118L69,118L69,125L62,125ZM97,118L118,118L118,125L97,125ZM153,118L167,118L167,125L153,125ZM174,118L209,118L209,125L174,125ZM237,118L244,118L244,125L237,125ZM251,118L272,118L272,125L251,125ZM279,118L286,118L286,125L279,125ZM293,118L300,118L300,125L293,125ZM307,118L314,118L314,125L307,125ZM321,118L328,118L328,125L321,125ZM335,118L342,118L342,125L335,125ZM363,118L370,118L370,125L363,125ZM405,118L419,118L419,125L405,125ZM20,125L34,125L34,132L20,132ZM41,125L48,125L48,132L41,132ZM55,125L62,125L62,132L55,132ZM76,125L83,125L83,132L76,132ZM90,125L97,125L97,132L90,132ZM104,125L139,125L139,132L104,132ZM153,125L174,125L174,132L153,132ZM188,125L230,125L230,132L188,132ZM244,125L251,125L251,132L244,132ZM258,125L265,125L265,132L258,132ZM279,125L286,125L286,132L279,132ZM300,125L321,125L321,132L300,132ZM335,125L342,125L342,132L335,132ZM349,125L363,125L363,132L349,132ZM377,125L384,125L384,132L377,132ZM391,125L405,125L405,132L391,132ZM412,125L419,125L419,132L412,132ZM27,132L34,132L34,139L27,139ZM48,132L55,132L55,139L48,139ZM62,132L83,132L83,139L62,139ZM97,132L111,132L111,139L97,139ZM125,132L132,132L132,139L125,139ZM153,132L160,132L160,139L153,139ZM174,132L188,132L188,139L174,139ZM195,132L216,132L216,139L195,139ZM223,132L251,132L251,139L223,139ZM258,132L265,132L265,139L258,139ZM272,132L279,132L279,139L272,139ZM286,132L293,132L293,139L286,139ZM321,132L328,132L328,139L321,139ZM342,132L356,132L356,139L342,139ZM363,132L377,132L377,139L363,139ZM391,132L405,132L405,139L391,139ZM20,139L27,139L27,146L20,146ZM34,139L48,139L48,146L34,146ZM97,139L104,139L104,146L97,146ZM118,139L139,139L139,146L118,146ZM153,139L160,139L160,146L153,146ZM167,139L181,139L181,146L167,146ZM202,139L223,139L223,146L202,146ZM230,139L265,139L265,146L230,146ZM293,139L307,139L307,146L293,146ZM314,139L321,139L321,146L314,146ZM328,139L342,139L342,146L328,146ZM349,139L356,139L356,146L349,146ZM363,139L377,139L377,146L363,146ZM384,139L391,139L391,146L384,146ZM398,139L405,139L405,146L398,146ZM27,146L41,146L41,153L27,153ZM48,146L69,146L69,153L48,153ZM83,146L90,146L90,153L83,153ZM118,146L139,146L139,153L118,153ZM146,146L160,146L160,153L146,153ZM167,146L174,146L174,153L167,153ZM188,146L209,146L209,153L188,153ZM223,146L237,146L237,153L223,153ZM258,146L272,146L272,153L258,153ZM279,146L286,146L286,153L279,153ZM321,146L328,146L328,153L321,153ZM335,146L342,146L342,153L335,153ZM363,146L384,146L384,153L363,153ZM391,146L398,146L398,153L391,153ZM412,146L419,146L419,153L412,153ZM20,153L27,153L27,160L20,160ZM34,153L41,153L41,160L34,160ZM69,153L76,153L76,160L69,160ZM90,153L97,153L97,160L90,160ZM104,153L118,153L118,160L104,160ZM125,153L146,153L146,160L125,160ZM153,153L174,153L174,160L153,160ZM188,153L195,153L195,160L188,160ZM237,153L279,153L279,160L237,160ZM300,153L342,153L342,160L300,160ZM349,153L363,153L363,160L349,160ZM377,153L391,153L391,160L377,160ZM412,153L419,153L419,160L412,160ZM20,160L41,160L41,167L20,167ZM48,160L90,160L90,167L48,167ZM104,160L118,160L118,167L104,167ZM125,160L132,160L132,167L125,167ZM153,160L160,160L160,167L153,167ZM167,160L174,160L174,167L167,167ZM181,160L223,160L223,167L181,167ZM230,160L237,160L237,167L230,167ZM251,160L258,160L258,167L251,167ZM265,160L300,160L300,167L265,167ZM321,160L328,160L328,167L321,167ZM342,160L356,160L356,167L342,167ZM363,160L384,160L384,167L363,167ZM391,160L412,160L412,167L391,167ZM20,167L48,167L48,174L20,174ZM97,167L111,167L111,174L97,174ZM118,167L125,167L125,174L118,174ZM146,167L153,167L153,174L146,174ZM167,167L188,167L188,174L167,174ZM209,167L216,167L216,174L209,174ZM223,167L244,167L244,174L223,174ZM251,167L265,167L265,174L251,174ZM279,167L286,167L286,174L279,174ZM293,167L307,167L307,174L293,174ZM314,167L342,167L342,174L314,174ZM349,167L356,167L356,174L349,174ZM363,167L370,167L370,174L363,174ZM384,167L405,167L405,174L384,174ZM20,174L27,174L27,181L20,181ZM41,174L55,174L55,181L41,181ZM62,174L76,174L76,181L62,181ZM83,174L90,174L90,181L83,181ZM97,174L104,174L104,181L97,181ZM125,174L132,174L132,181L125,181ZM139,174L160,174L160,181L139,181ZM181,174L188,174L188,181L181,181ZM202,174L209,174L209,181L202,181ZM216,174L223,174L223,181L216,181ZM237,174L251,174L251,181L237,181ZM272,174L286,174L286,181L272,181ZM349,174L384,174L384,181L349,181ZM405,174L412,174L412,181L405,181ZM27,181L41,181L41,188L27,188ZM48,181L62,181L62,188L48,188ZM69,181L139,181L139,188L69,188ZM160,181L174,181L174,188L160,188ZM188,181L202,181L202,188L188,188ZM216,181L223,181L223,188L216,188ZM258,181L272,181L272,188L258,188ZM279,181L286,181L286,188L279,188ZM314,181L321,181L321,188L314,188ZM328,181L335,181L335,188L328,188ZM349,181L370,181L370,188L349,188ZM377,181L391,181L391,188L377,188ZM398,181L405,181L405,188L398,188ZM412,181L419,181L419,188L412,188ZM27,188L34,188L34,195L27,195ZM48,188L76,188L76,195L48,195ZM90,188L97,188L97,195L90,195ZM118,188L153,188L153,195L118,195ZM167,188L174,188L174,195L167,195ZM188,188L209,188L209,195L188,195ZM216,188L237,188L237,195L216,195ZM251,188L258,188L258,195L251,195ZM265,188L272,188L272,195L265,195ZM286,188L314,188L314,195L286,195ZM321,188L349,188L349,195L321,195ZM356,188L363,188L363,195L356,195ZM370,188L384,188L384,195L370,195ZM412,188L419,188L419,195L412,195ZM27,195L62,195L62,202L27,202ZM69,195L83,195L83,202L69,202ZM90,195L104,195L104,202L90,202ZM111,195L139,195L139,202L111,202ZM146,195L153,195L153,202L146,202ZM167,195L181,195L181,202L167,202ZM223,195L230,195L230,202L223,202ZM237,195L244,195L244,202L237,202ZM258,195L265,195L265,202L258,202ZM272,195L279,195L279,202L272,202ZM300,195L307,195L307,202L300,202ZM314,195L321,195L321,202L314,202ZM328,195L349,195L349,202L328,202ZM377,195L391,195L391,202L377,202ZM398,195L412,195L412,202L398,202ZM20,202L34,202L34,209L20,209ZM48,202L90,202L90,209L48,209ZM97,202L104,202L104,209L97,209ZM125,202L132,202L132,209L125,209ZM139,202L153,202L153,209L139,209ZM160,202L181,202L181,209L160,209ZM188,202L237,202L237,209L188,209ZM244,202L251,202L251,209L244,209ZM265,202L286,202L286,209L265,209ZM293,202L300,202L300,209L293,209ZM314,202L328,202L328,209L314,209ZM342,202L391,202L391,209L342,209ZM398,202L412,202L412,209L398,209ZM20,209L27,209L27,216L20,216ZM34,209L55,209L55,216L34,216ZM76,209L97,209L97,216L76,216ZM160,209L167,209L167,216L160,216ZM174,209L181,209L181,216L174,216ZM195,209L209,209L209,216L195,216ZM230,209L251,209L251,216L230,216ZM258,209L272,209L272,216L258,216ZM279,209L286,209L286,216L279,216ZM300,209L321,209L321,216L300,216ZM328,209L342,209L342,216L328,216ZM349,209L363,209L363,216L349,216ZM384,209L391,209L391,216L384,216ZM398,209L419,209L419,216L398,216ZM34,216L55,216L55,223L34,223ZM62,216L69,216L69,223L62,223ZM76,216L90,216L90,223L76,223ZM97,216L104,216L104,223L97,223ZM125,216L132,216L132,223L125,223ZM153,216L167,216L167,223L153,223ZM181,216L188,216L188,223L181,223ZM195,216L209,216L209,223L195,223ZM216,216L223,216L223,223L216,223ZM230,216L237,216L237,223L230,223ZM244,216L251,216L251,223L244,223ZM265,216L279,216L279,223L265,223ZM286,216L293,216L293,223L286,223ZM321,216L328,216L328,223L321,223ZM342,216L349,216L349,223L342,223ZM356,216L363,216L363,223L356,223ZM370,216L377,216L377,223L370,223ZM384,216L391,216L391,223L384,223ZM398,216L405,216L405,223L398,223ZM20,223L27,223L27,230L20,230ZM34,223L55,223L55,230L34,230ZM76,223L104,223L104,230L76,230ZM132,223L160,223L160,230L132,230ZM167,223L181,223L181,230L167,230ZM202,223L209,223L209,230L202,230ZM230,223L244,223L244,230L230,230ZM251,223L258,223L258,230L251,230ZM272,223L279,223L279,230L272,230ZM300,223L314,223L314,230L300,230ZM321,223L349,223L349,230L321,230ZM356,223L363,223L363,230L356,230ZM384,223L419,223L419,230L384,230ZM41,230L83,230L83,237L41,237ZM90,230L153,230L153,237L90,237ZM160,230L167,230L167,237L160,237ZM188,230L251,230L251,237L188,237ZM265,230L286,230L286,237L265,237ZM293,230L300,230L300,237L293,237ZM314,230L321,230L321,237L314,237ZM356,230L391,230L391,237L356,237ZM405,230L412,230L412,237L405,237ZM20,237L27,237L27,244L20,244ZM34,237L48,237L48,244L34,244ZM55,237L62,237L62,244L55,244ZM69,237L104,237L104,244L69,244ZM118,237L125,237L125,244L118,244ZM132,237L146,237L146,244L132,244ZM153,237L188,237L188,244L153,244ZM209,237L258,237L258,244L209,244ZM265,237L279,237L279,244L265,244ZM300,237L321,237L321,244L300,244ZM335,237L342,237L342,244L335,244ZM363,237L377,237L377,244L363,244ZM391,237L398,237L398,244L391,244ZM405,237L419,237L419,244L405,244ZM34,244L41,244L41,251L34,251ZM55,244L76,244L76,251L55,251ZM83,244L97,244L97,251L83,251ZM111,244L125,244L125,251L111,251ZM146,244L153,244L153,251L146,251ZM160,244L167,244L167,251L160,251ZM174,244L181,244L181,251L174,251ZM188,244L202,244L202,251L188,251ZM216,244L223,244L223,251L216,251ZM230,244L237,244L237,251L230,251ZM265,244L272,244L272,251L265,251ZM279,244L300,244L300,251L279,251ZM307,244L314,244L314,251L307,251ZM342,244L349,244L349,251L342,251ZM384,244L398,244L398,251L384,251ZM34,251L41,251L41,258L34,258ZM55,251L62,251L62,258L55,258ZM90,251L111,251L111,258L90,258ZM118,251L132,251L132,258L118,258ZM202,251L216,251L216,258L202,258ZM223,251L230,251L230,258L223,258ZM237,251L244,251L244,258L237,258ZM265,251L286,251L286,258L265,258ZM300,251L307,251L307,258L300,258ZM314,251L342,251L342,258L314,258ZM349,251L356,251L356,258L349,258ZM363,251L384,251L384,258L363,258ZM391,251L412,251L412,258L391,258ZM20,258L34,258L34,265L20,265ZM41,258L55,258L55,265L41,265ZM62,258L69,258L69,265L62,265ZM76,258L83,258L83,265L76,265ZM90,258L97,258L97,265L90,265ZM104,258L132,258L132,265L104,265ZM153,258L216,258L216,265L153,265ZM230,258L258,258L258,265L230,265ZM265,258L279,258L279,265L265,265ZM293,258L300,258L300,265L293,265ZM314,258L321,258L321,265L314,265ZM342,258L349,258L349,265L342,265ZM384,258L398,258L398,265L384,265ZM405,258L412,258L412,265L405,265ZM20,265L27,265L27,272L20,272ZM34,265L55,265L55,272L34,272ZM69,265L76,265L76,272L69,272ZM118,265L146,265L146,272L118,272ZM160,265L174,265L174,272L160,272ZM188,265L195,265L195,272L188,272ZM202,265L216,265L216,272L202,272ZM237,265L244,265L244,272L237,272ZM272,265L286,265L286,272L272,272ZM293,265L300,265L300,272L293,272ZM314,265L335,265L335,272L314,272ZM356,265L363,265L363,272L356,272ZM377,265L384,265L384,272L377,272ZM391,265L405,265L405,272L391,272ZM412,265L419,265L419,272L412,272ZM34,272L41,272L41,279L34,279ZM48,272L55,272L55,279L48,279ZM62,272L83,272L83,279L62,279ZM90,272L97,272L97,279L90,279ZM104,272L146,272L146,279L104,279ZM174,272L188,272L188,279L174,279ZM195,272L202,272L202,279L195,279ZM209,272L223,272L223,279L209,279ZM244,272L251,272L251,279L244,279ZM258,272L279,272L279,279L258,279ZM286,272L314,272L314,279L286,279ZM321,272L349,272L349,279L321,279ZM356,272L363,272L363,279L356,279ZM377,272L391,272L391,279L377,279ZM398,272L412,272L412,279L398,279ZM20,279L41,279L41,286L20,286ZM83,279L90,279L90,286L83,286ZM97,279L111,279L111,286L97,286ZM125,279L132,279L132,286L125,286ZM139,279L146,279L146,286L139,286ZM167,279L181,279L181,286L167,286ZM195,279L202,279L202,286L195,286ZM216,279L223,279L223,286L216,286ZM230,279L265,279L265,286L230,286ZM272,279L279,279L279,286L272,286ZM300,279L307,279L307,286L300,286ZM314,279L321,279L321,286L314,286ZM328,279L342,279L342,286L328,286ZM349,279L356,279L356,286L349,286ZM363,279L384,279L384,286L363,286ZM391,279L412,279L412,286L391,286ZM20,286L27,286L27,293L20,293ZM34,286L48,286L48,293L34,293ZM62,286L76,286L76,293L62,293ZM83,286L104,286L104,293L83,293ZM118,286L125,286L125,293L118,293ZM139,286L146,286L146,293L139,293ZM160,286L167,286L167,293L160,293ZM181,286L188,286L188,293L181,293ZM202,286L209,286L209,293L202,293ZM230,286L244,286L244,293L230,293ZM258,286L265,286L265,293L258,293ZM279,286L286,286L286,293L279,293ZM293,286L300,286L300,293L293,293ZM307,286L321,286L321,293L307,293ZM356,286L363,286L363,293L356,293ZM384,286L405,286L405,293L384,293ZM412,286L419,286L419,293L412,293ZM34,293L41,293L41,300L34,300ZM48,293L62,293L62,300L48,300ZM69,293L76,293L76,300L69,300ZM104,293L118,293L118,300L104,300ZM132,293L160,293L160,300L132,300ZM167,293L195,293L195,300L167,300ZM209,293L216,293L216,300L209,300ZM230,293L244,293L244,300L230,300ZM265,293L279,293L279,300L265,300ZM293,293L300,293L300,300L293,300ZM314,293L335,293L335,300L314,300ZM356,293L363,293L363,300L356,300ZM370,293L384,293L384,300L370,300ZM391,293L398,293L398,300L391,300ZM405,293L419,293L419,300L405,300ZM48,300L55,300L55,307L48,307ZM62,300L76,300L76,307L62,307ZM83,300L90,300L90,307L83,307ZM118,300L132,300L132,307L118,307ZM139,300L146,300L146,307L139,307ZM153,300L160,300L160,307L153,307ZM174,300L188,300L188,307L174,307ZM195,300L216,300L216,307L195,307ZM223,300L230,300L230,307L223,307ZM237,300L244,300L244,307L237,307ZM251,300L258,300L258,307L251,307ZM265,300L272,300L272,307L265,307ZM307,300L314,300L314,307L307,307ZM335,300L349,300L349,307L335,307ZM363,300L370,300L370,307L363,307ZM391,300L398,300L398,307L391,307ZM20,307L27,307L27,314L20,314ZM41,307L48,307L48,314L41,314ZM55,307L62,307L62,314L55,314ZM69,307L76,307L76,314L69,314ZM104,307L111,307L111,314L104,314ZM125,307L174,307L174,314L125,314ZM181,307L188,307L188,314L181,314ZM216,307L223,307L223,314L216,314ZM244,307L265,307L265,314L244,314ZM272,307L279,307L279,314L272,314ZM293,307L307,307L307,314L293,314ZM314,307L321,307L321,314L314,314ZM328,307L342,307L342,314L328,314ZM349,307L377,307L377,314L349,314ZM398,307L405,307L405,314L398,314ZM20,314L41,314L41,321L20,321ZM48,314L83,314L83,321L48,321ZM97,314L146,314L146,321L97,321ZM167,314L181,314L181,321L167,321ZM195,314L202,314L202,321L195,321ZM230,314L265,314L265,321L230,321ZM307,314L314,314L314,321L307,321ZM321,314L328,314L328,321L321,321ZM335,314L349,314L349,321L335,321ZM363,314L370,314L370,321L363,321ZM377,314L398,314L398,321L377,321ZM412,314L419,314L419,321L412,321ZM20,321L27,321L27,328L20,328ZM41,321L48,321L48,328L41,328ZM55,321L62,321L62,328L55,328ZM83,321L90,321L90,328L83,328ZM97,321L118,321L118,328L97,328ZM153,321L174,321L174,328L153,328ZM181,321L209,321L209,328L181,328ZM216,321L237,321L237,328L216,328ZM265,321L286,321L286,328L265,328ZM314,321L321,321L321,328L314,328ZM335,321L342,321L342,328L335,328ZM349,321L363,321L363,328L349,328ZM391,321L419,321L419,328L391,328ZM41,328L48,328L48,335L41,335ZM62,328L69,328L69,335L62,335ZM83,328L97,328L97,335L83,335ZM104,328L111,328L111,335L104,335ZM125,328L132,328L132,335L125,335ZM139,328L160,328L160,335L139,335ZM167,328L174,328L174,335L167,335ZM188,328L195,328L195,335L188,335ZM209,328L223,328L223,335L209,335ZM230,328L237,328L237,335L230,335ZM244,328L279,328L279,335L244,335ZM286,328L300,328L300,335L286,335ZM307,328L314,328L314,335L307,335ZM328,328L335,328L335,335L328,335ZM342,328L349,328L349,335L342,335ZM356,328L363,328L363,335L356,335ZM384,328L398,328L398,335L384,335ZM27,335L34,335L34,342L27,342ZM41,335L48,335L48,342L41,342ZM55,335L62,335L62,342L55,342ZM76,335L83,335L83,342L76,342ZM90,335L111,335L111,342L90,342ZM118,335L132,335L132,342L118,342ZM146,335L160,335L160,342L146,342ZM181,335L223,335L223,342L181,342ZM237,335L244,335L244,342L237,342ZM251,335L286,335L286,342L251,342ZM300,335L356,335L356,342L300,342ZM363,335L384,335L384,342L363,342ZM398,335L405,335L405,342L398,342ZM412,335L419,335L419,342L412,342ZM20,342L27,342L27,349L20,349ZM34,342L41,342L41,349L34,349ZM55,342L69,342L69,349L55,349ZM83,342L90,342L90,349L83,349ZM97,342L104,342L104,349L97,349ZM118,342L139,342L139,349L118,349ZM153,342L160,342L160,349L153,349ZM174,342L181,342L181,349L174,349ZM188,342L195,342L195,349L188,349ZM202,342L230,342L230,349L202,349ZM251,342L272,342L272,349L251,349ZM286,342L300,342L300,349L286,349ZM335,342L349,342L349,349L335,349ZM370,342L377,342L377,349L370,349ZM384,342L398,342L398,349L384,349ZM20,349L55,349L55,356L20,356ZM69,349L76,349L76,356L69,356ZM83,349L132,349L132,356L83,356ZM153,349L160,349L160,356L153,356ZM167,349L174,349L174,356L167,356ZM181,349L188,349L188,356L181,356ZM209,349L244,349L244,356L209,356ZM251,349L272,349L272,356L251,356ZM279,349L293,349L293,356L279,356ZM314,349L321,349L321,356L314,356ZM335,349L342,349L342,356L335,356ZM356,349L363,349L363,356L356,356ZM370,349L377,349L377,356L370,356ZM391,349L419,349L419,356L391,356ZM62,356L83,356L83,363L62,363ZM104,356L125,356L125,363L104,363ZM132,356L139,356L139,363L132,363ZM146,356L153,356L153,363L146,363ZM195,356L244,356L244,363L195,363ZM272,356L279,356L279,363L272,363ZM286,356L300,356L300,363L286,363ZM307,356L314,356L314,363L307,363ZM342,356L349,356L349,363L342,363ZM356,356L412,356L412,363L356,363ZM76,363L83,363L83,370L76,370ZM90,363L118,363L118,370L90,370ZM125,363L139,363L139,370L125,370ZM146,363L153,363L153,370L146,370ZM167,363L174,363L174,370L167,370ZM181,363L209,363L209,370L181,370ZM230,363L237,363L237,370L230,370ZM244,363L258,363L258,370L244,370ZM265,363L272,363L272,370L265,370ZM279,363L307,363L307,370L279,370ZM314,363L342,363L342,370L314,370ZM356,363L363,363L363,370L356,370ZM384,363L391,363L391,370L384,370ZM398,363L405,363L405,370L398,370ZM20,370L69,370L69,377L20,377ZM90,370L132,370L132,377L90,377ZM139,370L153,370L153,377L139,377ZM160,370L174,370L174,377L160,377ZM181,370L188,370L188,377L181,377ZM202,370L209,370L209,377L202,377ZM216,370L223,370L223,377L216,377ZM230,370L237,370L237,377L230,377ZM244,370L251,370L251,377L244,377ZM314,370L321,370L321,377L314,377ZM335,370L342,370L342,377L335,377ZM349,370L363,370L363,377L349,377ZM370,370L377,370L377,377L370,377ZM384,370L398,370L398,377L384,377ZM405,370L419,370L419,377L405,377ZM20,377L27,377L27,384L20,384ZM62,377L69,377L69,384L62,384ZM83,377L97,377L97,384L83,384ZM104,377L111,377L111,384L104,384ZM125,377L153,377L153,384L125,384ZM160,377L167,377L167,384L160,384ZM202,377L209,377L209,384L202,384ZM230,377L237,377L237,384L230,384ZM244,377L251,377L251,384L244,384ZM272,377L279,377L279,384L272,384ZM300,377L328,377L328,384L300,384ZM335,377L342,377L342,384L335,384ZM349,377L363,377L363,384L349,384ZM384,377L391,377L391,384L384,384ZM398,377L405,377L405,384L398,384ZM412,377L419,377L419,384L412,384ZM20,384L27,384L27,391L20,391ZM34,384L55,384L55,391L34,391ZM62,384L69,384L69,391L62,391ZM76,384L83,384L83,391L76,391ZM90,384L97,384L97,391L90,391ZM104,384L111,384L111,391L104,391ZM118,384L132,384L132,391L118,391ZM139,384L146,384L146,391L139,391ZM167,384L181,384L181,391L167,391ZM202,384L244,384L244,391L202,391ZM258,384L293,384L293,391L258,391ZM300,384L307,384L307,391L300,391ZM321,384L328,384L328,391L321,391ZM342,384L349,384L349,391L342,391ZM356,384L398,384L398,391L356,391ZM405,384L412,384L412,391L405,391ZM20,391L27,391L27,398L20,398ZM34,391L55,391L55,398L34,398ZM62,391L69,391L69,398L62,398ZM76,391L90,391L90,398L76,398ZM97,391L104,391L104,398L97,398ZM111,391L118,391L118,398L111,398ZM139,391L167,391L167,398L139,398ZM174,391L181,391L181,398L174,398ZM223,391L244,391L244,398L223,398ZM265,391L272,391L272,398L265,398ZM279,391L335,391L335,398L279,398ZM356,391L370,391L370,398L356,398ZM377,391L384,391L384,398L377,398ZM391,391L412,391L412,398L391,398ZM20,398L27,398L27,405L20,405ZM34,398L55,398L55,405L34,405ZM62,398L69,398L69,405L62,405ZM76,398L97,398L97,405L76,405ZM111,398L132,398L132,405L111,405ZM139,398L153,398L153,405L139,405ZM167,398L188,398L188,405L167,405ZM195,398L202,398L202,405L195,405ZM209,398L216,398L216,405L209,405ZM223,398L251,398L251,405L223,405ZM258,398L265,398L265,405L258,405ZM272,398L293,398L293,405L272,405ZM307,398L321,398L321,405L307,405ZM342,398L377,398L377,405L342,405ZM20,405L27,405L27,412L20,412ZM62,405L69,405L69,412L62,412ZM97,405L111,405L111,412L97,412ZM139,405L153,405L153,412L139,412ZM167,405L188,405L188,412L167,412ZM209,405L216,405L216,412L209,412ZM237,405L251,405L251,412L237,412ZM258,405L272,405L272,412L258,412ZM300,405L307,405L307,412L300,412ZM314,405L328,405L328,412L314,412ZM349,405L356,405L356,412L349,412ZM384,405L419,405L419,412L384,412ZM20,412L69,412L69,419L20,419ZM104,412L111,412L111,419L104,419ZM132,412L139,412L139,419L132,419ZM153,412L167,412L167,419L153,419ZM181,412L188,412L188,419L181,419ZM202,412L216,412L216,419L202,419ZM244,412L300,412L300,419L244,419ZM307,412L314,412L314,419L307,419ZM321,412L328,412L328,419L321,419ZM335,412L363,412L363,419L335,419ZM391,412L412,412L412,419L391,419Z"/></svg>
