<?xml version="1.0"?>
<svg xmlns="http://www.w3.org/2000/svg" xmlns:xlink="http://www.w3.org/1999/xlink" version="1.1" width="440px" height="440px" viewBox="0 0 440 440"><rect x="0" y="0" width="440" height="440" fill="#ffffff" fill-opacity="1"/><path fill="#000000" fill-opacity="1" d="M20,20L69,20L69,27L20,27ZM76,20L83,20L83,27L76,27ZM118,20L132,20L132,27L118,27ZM139,20L146,20L146,27L139,27ZM174,20L188,20L188,27L174,27ZM195,20L223,20L223,27L195,27ZM237,20L286,20L286,27L237,27ZM300,20L314,20L314,27L300,27ZM328,20L335,20L335,27L328,27ZM342,20L356,20L356,27L342,27ZM370,20L419,20L419,27L370,27ZM20,27L27,27L27,34L20,34ZM62,27L69,27L69,34L62,34ZM76,27L83,27L83,34L76,34ZM104,27L139,27L139,34L104,34ZM146,27L153,27L153,34L146,34ZM160,27L181,27L181,34L160,34ZM202,27L223,27L223,34L202,34ZM230,27L265,27L265,34L230,34ZM286,27L300,27L300,34L286,34ZM307,27L314,27L314,34L307,34ZM349,27L356,27L356,34L349,34ZM370,27L377,27L377,34L370,34ZM412,27L419,27L419,34L412,34ZM20,34L27,34L27,41L20,41ZM34,34L55,34L55,41L34,41ZM62,34L69,34L69,41L62,41ZM76,34L83,34L83,41L76,41ZM90,34L97,34L97,41L90,41ZM111,34L118,34L118,41L111,41ZM139,34L153,34L153,41L139,41ZM181,34L195,34L195,41L181,41ZM209,34L216,34L216,41L209,41ZM237,34L258,34L258,41L237,41ZM265,34L272,34L272,41L265,41ZM279,34L286,34L286,41L279,41ZM293,34L307,34L307,41L293,41ZM314,34L356,34L356,41L314,41ZM370,34L377,34L377,41L370,41ZM384,34L405,34L405,41L384,41ZM412,34L419,34L419,41L412,41ZM20,41L27,41L27,48L20,48ZM34,41L55,41L55,48L34,48ZM62,41L69,41L69,48L62,48ZM83,41L90,41L90,48L83,48ZM97,41L104,41L104,48L97,48ZM132,41L153,41L153,48L132,48ZM160,41L167,41L167,48L160,48ZM195,41L216,41L216,48L195,48ZM251,41L265,41L265,48L251,48ZM272,41L279,41L279,48L272,48ZM286,41L300,41L300,48L286,48ZM307,41L314,41L314,48L307,48ZM321,41L335,41L335,48L321,48ZM349,41L356,41L356,48L349,48ZM370,41L377,41L377,48L370,48ZM384,41L405,41L405,48L384,48ZM412,41L419,41L419,48L412,48ZM20,48L27,48L27,55L20,55ZM34,48L55,48L55,55L34,55ZM62,48L69,48L69,55L62,55ZM90,48L104,48L104,55L90,55ZM118,48L125,48L125,55L118,55ZM167,48L188,48L188,55L167,55ZM202,48L251,48L251,55L202,55ZM272,48L279,48L279,55L272,55ZM300,48L314,48L314,55L300,55ZM328,48L342,48L342,55L328,55ZM349,48L356,48L356,55L349,55ZM370,48L377,48L377,55L370,55ZM384,48L405,48L405,55L384,55ZM412,48L419,48L419,55L412,55ZM20,55L27,55L27,62L20,62ZM62,55L69,55L69,62L62,62ZM76,55L83,55L83,62L76,62ZM111,55L118,55L118,62L111,62ZM125,55L132,55L132,62L125,62ZM146,55L153,55L153,62L146,62ZM160,55L167,55L167,62L160,62ZM181,55L195,55L195,62L181,62ZM202,55L209,55L209,62L202,62ZM230,55L237,55L237,62L230,62ZM258,55L265,55L265,62L258,62ZM272,55L300,55L300,62L272,62ZM307,55L321,55L321,62L307,62ZM335,55L349,55L349,62L335,62ZM370,55L377,55L377,62L370,62ZM412,55L419,55L419,62L412,62ZM20,62L69,62L69,69L20,69ZM76,62L83,62L83,69L76,69ZM90,62L97,62L97,69L90,69ZM104,62L111,62L111,69L104,69ZM118,62L125,62L125,69L118,69ZM132,62L139,62L139,69L132,69ZM146,62L153,62L153,69L146,69ZM160,62L167,62L167,69L160,69ZM174,62L181,62L181,69L174,69ZM188,62L195,62L195,69L188,69ZM202,62L209,62L209,69L202,69ZM216,62L223,62L223,69L216,69ZM230,62L237,62L237,69L230,69ZM244,62L251,62L251,69L244,69ZM258,62L265,62L265,69L258,69ZM272,62L279,62L279,69L272,69ZM286,62L293,62L293,69L286,69ZM300,62L307,62L307,69L300,69ZM314,62L321,62L321,69L314,69ZM328,62L335,62L335,69L328,69ZM342,62L349,62L349,69L342,69ZM356,62L363,62L363,69L356,69ZM370,62L419,62L419,69L370,69ZM76,69L83,69L83,76L76,76ZM111,69L174,69L174,76L111,76ZM202,69L209,69L209,76L202,76ZM230,69L237,69L237,76L230,76ZM258,69L265,69L265,76L258,76ZM272,69L279,69L279,76L272,76ZM293,69L328,69L328,76L293,76ZM342,69L349,69L349,76L342,76ZM356,69L363,69L363,76L356,76ZM34,76L55,76L55,83L34,83ZM62,76L69,76L69,83L62,83ZM76,76L90,76L90,83L76,83ZM125,76L139,76L139,83L125,83ZM146,76L160,76L160,83L146,83ZM167,76L174,76L174,83L167,83ZM181,76L244,76L244,83L181,83ZM265,76L272,76L272,83L265,83ZM279,76L286,76L286,83L279,83ZM293,76L300,76L300,83L293,83ZM335,76L384,76L384,83L335,83ZM398,76L419,76L419,83L398,83ZM34,83L48,83L48,90L34,90ZM76,83L83,83L83,90L76,90ZM90,83L104,83L104,90L90,90ZM118,83L132,83L132,90L118,90ZM139,83L146,83L146,90L139,90ZM153,83L160,83L160,90L153,90ZM167,83L181,83L181,90L167,90ZM195,83L202,83L202,90L195,90ZM223,83L237,83L237,90L223,90ZM244,83L265,83L265,90L244,90ZM272,83L279,83L279,90L272,90ZM300,83L307,83L307,90L300,90ZM314,83L328,83L328,90L314,90ZM342,83L370,83L370,90L342,90ZM384,83L391,83L391,90L384,90ZM398,83L405,83L405,90L398,90ZM412,83L419,83L419,90L412,90ZM20,90L34,90L34,97L20,97ZM41,90L48,90L48,97L41,97ZM55,90L83,90L83,97L55,97ZM104,90L125,90L125,97L104,97ZM146,90L153,90L153,97L146,97ZM160,90L174,90L174,97L160,97ZM188,90L195,90L195,97L188,97ZM202,90L223,90L223,97L202,97ZM237,90L251,90L251,97L237,97ZM279,90L286,90L286,97L279,97ZM293,90L300,90L300,97L293,97ZM307,90L314,90L314,97L307,97ZM335,90L342,90L342,97L335,97ZM349,90L356,90L356,97L349,97ZM391,90L398,90L398,97L391,97ZM20,97L34,97L34,104L20,104ZM41,97L62,97L62,104L41,104ZM69,97L83,97L83,104L69,104ZM90,97L97,97L97,104L90,104ZM118,97L125,97L125,104L118,104ZM132,97L139,97L139,104L132,104ZM153,97L160,97L160,104L153,104ZM167,97L174,97L174,104L167,104ZM188,97L195,97L195,104L188,104ZM202,97L230,97L230,104L202,104ZM237,97L286,97L286,104L237,104ZM293,97L300,97L300,104L293,104ZM314,97L328,97L328,104L314,104ZM356,97L363,97L363,104L356,104ZM377,97L384,97L384,104L377,104ZM398,97L405,97L405,104L398,104ZM412,97L419,97L419,104L412,104ZM20,104L27,104L27,111L20,111ZM34,104L41,104L41,111L34,111ZM55,104L83,104L83,111L55,111ZM90,104L97,104L97,111L90,111ZM111,104L132,104L132,111L111,111ZM139,104L153,104L153,111L139,111ZM181,104L195,104L195,111L181,111ZM202,104L265,104L265,111L202,111ZM286,104L293,104L293,111L286,111ZM307,104L314,104L314,111L307,111ZM321,104L328,104L328,111L321,111ZM342,104L356,104L356,111L342,111ZM363,104L391,104L391,111L363,111ZM405,104L412,104L412,111L405,111ZM20,111L27,111L27,118L20,118ZM41,111L48,111L48,118L41,118ZM55,111L62,111L62,118L55,118ZM76,111L90,111L90,118L76,118ZM97,111L118,111L118,118L97,118ZM125,111L139,111L139,118L125,118ZM146,111L181,111L181,118L146,118ZM209,111L244,111L244,118L209,118ZM251,111L265,111L265,118L251,118ZM293,111L342,111L342,118L293,118ZM349,111L419,111L419,118L349,118ZM34,118L41,118L41,125L34,125ZM48,118L55,118L55,125L48,125ZM62,118L83,118L83,125L62,125ZM97,118L118,118L118,125L97,125ZM139,118L146,118L146,125L139,125ZM181,118L188,118L188,125L181,125ZM195,118L209,118L209,125L195,125ZM223,118L230,118L230,125L223,125ZM244,118L258,118L258,125L244,125ZM279,118L286,118L286,125L279,125ZM307,118L321,118L321,125L307,125ZM335,118L342,118L342,125L335,125ZM349,118L356,118L356,125L349,125ZM363,118L377,118L377,125L363,125ZM405,118L419,118L419,125L405,125ZM20,125L27,125L27,132L20,132ZM41,125L48,125L48,132L41,132ZM55,125L62,125L62,132L55,132ZM69,125L104,125L104,132L69,132ZM118,125L139,125L139,132L118,132ZM146,125L153,125L153,132L146,132ZM160,125L174,125L174,132L160,132ZM188,125L195,125L195,132L188,132ZM223,125L230,125L230,132L223,132ZM237,125L244,125L244,132L237,132ZM251,125L272,125L272,132L251,132ZM279,125L286,125L286,132L279,132ZM300,125L307,125L307,132L300,132ZM314,125L328,125L328,132L314,132ZM335,125L342,125L342,132L335,132ZM356,125L370,125L370,132L356,132ZM391,125L405,125L405,132L391,132ZM412,125L419,125L419,132L412,132ZM27,132L34,132L34,139L27,139ZM41,132L83,132L83,139L41,139ZM104,132L132,132L132,139L104,139ZM139,132L153,132L153,139L139,139ZM160,132L167,132L167,139L160,139ZM174,132L181,132L181,139L174,139ZM188,132L202,132L202,139L188,139ZM230,132L237,132L237,139L230,139ZM258,132L265,132L265,139L258,139ZM286,132L293,132L293,139L286,139ZM307,132L314,132L314,139L307,139ZM342,132L349,132L349,139L342,139ZM370,132L384,132L384,139L370,139ZM41,139L55,139L55,146L41,146ZM69,139L83,139L83,146L69,146ZM97,139L104,139L104,146L97,146ZM118,139L132,139L132,146L118,146ZM146,139L160,139L160,146L146,146ZM167,139L174,139L174,146L167,146ZM181,139L195,139L195,146L181,146ZM202,139L230,139L230,146L202,146ZM237,139L244,139L244,146L237,146ZM251,139L258,139L258,146L251,146ZM293,139L307,139L307,146L293,146ZM314,139L321,139L321,146L314,146ZM328,139L342,139L342,146L328,146ZM349,139L363,139L363,146L349,146ZM398,139L405,139L405,146L398,146ZM27,146L48,146L48,153L27,153ZM62,146L69,146L69,153L62,153ZM76,146L90,146L90,153L76,153ZM97,146L104,146L104,153L97,153ZM132,146L160,146L160,153L132,153ZM167,146L181,146L181,153L167,153ZM188,146L195,146L195,153L188,153ZM202,146L216,146L216,153L202,153ZM230,146L244,146L244,153L230,153ZM258,146L286,146L286,153L258,153ZM307,146L314,146L314,153L307,153ZM321,146L328,146L328,153L321,153ZM335,146L342,146L342,153L335,153ZM370,146L384,146L384,153L370,153ZM391,146L398,146L398,153L391,153ZM412,146L419,146L419,153L412,153ZM20,153L27,153L27,160L20,160ZM34,153L41,153L41,160L34,160ZM55,153L62,153L62,160L55,160ZM69,153L90,153L90,160L69,160ZM118,153L139,153L139,160L118,160ZM153,153L167,153L167,160L153,160ZM181,153L195,153L195,160L181,160ZM209,153L251,153L251,160L209,160ZM265,153L272,153L272,160L265,160ZM300,153L307,153L307,160L300,160ZM314,153L328,153L328,160L314,160ZM349,153L363,153L363,160L349,160ZM391,153L405,153L405,160L391,160ZM412,153L419,153L419,160L412,160ZM20,160L55,160L55,167L20,167ZM62,160L69,160L69,167L62,167ZM83,160L90,160L90,167L83,167ZM104,160L118,160L118,167L104,167ZM153,160L160,160L160,167L153,167ZM167,160L181,160L181,167L167,167ZM188,160L216,160L216,167L188,167ZM223,160L230,160L230,167L223,167ZM244,160L258,160L258,167L244,167ZM272,160L300,160L300,167L272,167ZM307,160L314,160L314,167L307,167ZM328,160L356,160L356,167L328,167ZM363,160L384,160L384,167L363,167ZM398,160L412,160L412,167L398,167ZM20,167L41,167L41,174L20,174ZM48,167L62,167L62,174L48,174ZM69,167L76,167L76,174L69,174ZM90,167L118,167L118,174L90,174ZM125,167L139,167L139,174L125,174ZM146,167L153,167L153,174L146,174ZM174,167L195,167L195,174L174,174ZM202,167L216,167L216,174L202,174ZM230,167L237,167L237,174L230,174ZM265,167L286,167L286,174L265,174ZM293,167L307,167L307,174L293,174ZM321,167L356,167L356,174L321,174ZM363,167L370,167L370,174L363,174ZM377,167L391,167L391,174L377,174ZM398,167L405,167L405,174L398,174ZM27,174L34,174L34,181L27,181ZM41,174L83,174L83,181L41,181ZM90,174L104,174L104,181L90,181ZM125,174L139,174L139,181L125,181ZM153,174L160,174L160,181L153,181ZM174,174L188,174L188,181L174,181ZM223,174L230,174L230,181L223,181ZM237,174L244,174L244,181L237,181ZM251,174L258,174L258,181L251,181ZM265,174L286,174L286,181L265,181ZM314,174L321,174L321,181L314,181ZM342,174L349,174L349,181L342,181ZM391,174L412,174L412,181L391,181ZM20,181L27,181L27,188L20,188ZM41,181L62,181L62,188L41,188ZM69,181L83,181L83,188L69,188ZM90,181L118,181L118,188L90,188ZM132,181L146,181L146,188L132,188ZM160,181L167,181L167,188L160,188ZM181,181L195,181L195,188L181,188ZM216,181L223,181L223,188L216,188ZM244,181L272,181L272,188L244,188ZM293,181L300,181L300,188L293,188ZM307,181L314,181L314,188L307,188ZM321,181L335,181L335,188L321,188ZM349,181L363,181L363,188L349,188ZM398,181L405,181L405,188L398,188ZM412,181L419,181L419,188L412,188ZM20,188L27,188L27,195L20,195ZM34,188L76,188L76,195L34,195ZM90,188L104,188L104,195L90,195ZM132,188L139,188L139,195L132,195ZM146,188L153,188L153,195L146,195ZM209,188L223,188L223,195L209,195ZM244,188L251,188L251,195L244,195ZM265,188L272,188L272,195L265,195ZM279,188L293,188L293,195L279,195ZM300,188L307,188L307,195L300,195ZM321,188L328,188L328,195L321,195ZM335,188L349,188L349,195L335,195ZM356,188L377,188L377,195L356,195ZM391,188L405,188L405,195L391,195ZM412,188L419,188L419,195L412,195ZM34,195L41,195L41,202L34,202ZM48,195L62,195L62,202L48,202ZM69,195L83,195L83,202L69,202ZM90,195L97,195L97,202L90,202ZM132,195L139,195L139,202L132,202ZM146,195L153,195L153,202L146,202ZM160,195L167,195L167,202L160,202ZM174,195L195,195L195,202L174,202ZM209,195L216,195L216,202L209,202ZM230,195L237,195L237,202L230,202ZM251,195L265,195L265,202L251,202ZM272,195L279,195L279,202L272,202ZM286,195L314,195L314,202L286,202ZM321,195L342,195L342,202L321,202ZM363,195L370,195L370,202L363,202ZM384,195L391,195L391,202L384,202ZM398,195L405,195L405,202L398,202ZM27,202L34,202L34,209L27,209ZM48,202L90,202L90,209L48,209ZM104,202L111,202L111,209L104,209ZM125,202L132,202L132,209L125,209ZM139,202L146,202L146,209L139,209ZM153,202L160,202L160,209L153,209ZM167,202L237,202L237,209L167,209ZM251,202L258,202L258,209L251,209ZM265,202L286,202L286,209L265,209ZM300,202L307,202L307,209L300,209ZM314,202L321,202L321,209L314,209ZM349,202L391,202L391,209L349,209ZM398,202L419,202L419,209L398,209ZM20,209L27,209L27,216L20,216ZM48,209L55,209L55,216L48,216ZM76,209L90,209L90,216L76,216ZM146,209L153,209L153,216L146,216ZM160,209L167,209L167,216L160,216ZM174,209L181,209L181,216L174,216ZM188,209L209,209L209,216L188,216ZM230,209L237,209L237,216L230,216ZM244,209L251,209L251,216L244,216ZM265,209L272,209L272,216L265,216ZM279,209L286,209L286,216L279,216ZM300,209L321,209L321,216L300,216ZM328,209L335,209L335,216L328,216ZM349,209L363,209L363,216L349,216ZM384,209L391,209L391,216L384,216ZM398,209L405,209L405,216L398,216ZM412,209L419,209L419,216L412,216ZM20,216L55,216L55,223L20,223ZM62,216L69,216L69,223L62,223ZM76,216L83,216L83,223L76,223ZM90,216L111,216L111,223L90,223ZM132,216L139,216L139,223L132,223ZM153,216L160,216L160,223L153,223ZM181,216L195,216L195,223L181,223ZM202,216L209,216L209,223L202,223ZM216,216L223,216L223,223L216,223ZM230,216L251,216L251,223L230,223ZM258,216L272,216L272,223L258,223ZM286,216L300,216L300,223L286,223ZM321,216L349,216L349,223L321,223ZM356,216L363,216L363,223L356,223ZM370,216L377,216L377,223L370,223ZM384,216L391,216L391,223L384,223ZM398,216L419,216L419,223L398,223ZM27,223L55,223L55,230L27,230ZM76,223L83,223L83,230L76,230ZM104,223L111,223L111,230L104,230ZM139,223L146,223L146,230L139,230ZM153,223L188,223L188,230L153,230ZM195,223L209,223L209,230L195,230ZM230,223L237,223L237,230L230,230ZM244,223L258,223L258,230L244,230ZM300,223L314,223L314,230L300,230ZM328,223L342,223L342,230L328,230ZM356,223L363,223L363,230L356,230ZM384,223L412,223L412,230L384,230ZM27,230L34,230L34,237L27,237ZM41,230L90,230L90,237L41,237ZM97,230L139,230L139,237L97,237ZM153,230L181,230L181,237L153,237ZM188,230L237,230L237,237L188,237ZM251,230L258,230L258,237L251,237ZM265,230L286,230L286,237L265,237ZM293,230L300,230L300,237L293,237ZM314,230L328,230L328,237L314,237ZM356,230L391,230L391,237L356,237ZM405,230L412,230L412,237L405,237ZM20,237L27,237L27,244L20,244ZM34,237L48,237L48,244L34,244ZM55,237L62,237L62,244L55,244ZM69,237L104,237L104,244L69,244ZM125,237L146,237L146,244L125,244ZM153,237L174,237L174,244L153,244ZM181,237L195,237L195,244L181,244ZM223,237L230,237L230,244L223,244ZM251,237L272,237L272,244L251,244ZM300,237L321,237L321,244L300,244ZM335,237L342,237L342,244L335,244ZM370,237L384,237L384,244L370,244ZM391,237L398,237L398,244L391,244ZM412,237L419,237L419,244L412,244ZM20,244L34,244L34,251L20,251ZM62,244L69,244L69,251L62,251ZM97,244L111,244L111,251L97,251ZM118,244L132,244L132,251L118,251ZM139,244L146,244L146,251L139,251ZM153,244L160,244L160,251L153,251ZM195,244L202,244L202,251L195,251ZM216,244L223,244L223,251L216,251ZM230,244L244,244L244,251L230,251ZM251,244L258,244L258,251L251,251ZM279,244L300,244L300,251L279,251ZM307,244L314,244L314,251L307,251ZM342,244L349,244L349,251L342,251ZM363,244L370,244L370,251L363,251ZM391,244L398,244L398,251L391,251ZM405,244L412,244L412,251L405,251ZM20,251L41,251L41,258L20,258ZM55,251L62,251L62,258L55,258ZM76,251L83,251L83,258L76,258ZM97,251L111,251L111,258L97,258ZM132,251L146,251L146,258L132,258ZM160,251L195,251L195,258L160,258ZM209,251L216,251L216,258L209,258ZM223,251L230,251L230,258L223,258ZM244,251L251,251L251,258L244,258ZM272,251L286,251L286,258L272,258ZM300,251L307,251L307,258L300,258ZM314,251L335,251L335,258L314,258ZM349,251L356,251L356,258L349,258ZM370,251L377,251L377,258L370,258ZM398,251L412,251L412,258L398,258ZM20,258L34,258L34,265L20,265ZM48,258L69,258L69,265L48,265ZM76,258L83,258L83,265L76,265ZM97,258L104,258L104,265L97,265ZM132,258L146,258L146,265L132,265ZM153,258L174,258L174,265L153,265ZM188,258L195,258L195,265L188,265ZM202,258L209,258L209,265L202,265ZM216,258L223,258L223,265L216,265ZM230,258L258,258L258,265L230,265ZM272,258L279,258L279,265L272,265ZM293,258L300,258L300,265L293,265ZM314,258L321,258L321,265L314,265ZM335,258L349,258L349,265L335,265ZM363,258L370,258L370,265L363,265ZM377,258L398,258L398,265L377,265ZM412,258L419,258L419,265L412,265ZM20,265L41,265L41,272L20,272ZM83,265L90,265L90,272L83,272ZM97,265L104,265L104,272L97,272ZM132,265L139,265L139,272L132,272ZM146,265L174,265L174,272L146,272ZM181,265L202,265L202,272L181,272ZM209,265L223,265L223,272L209,272ZM237,265L251,265L251,272L237,272ZM272,265L279,265L279,272L272,272ZM300,265L335,265L335,272L300,272ZM356,265L363,265L363,272L356,272ZM370,265L377,265L377,272L370,272ZM398,265L419,265L419,272L398,272ZM27,272L55,272L55,279L27,279ZM62,272L111,272L111,279L62,279ZM118,272L139,272L139,279L118,279ZM174,272L188,272L188,279L174,279ZM202,272L230,272L230,279L202,279ZM258,272L265,272L265,279L258,279ZM272,272L293,272L293,279L272,279ZM321,272L349,272L349,279L321,279ZM363,272L405,272L405,279L363,279ZM27,279L34,279L34,286L27,286ZM48,279L55,279L55,286L48,286ZM69,279L83,279L83,286L69,286ZM111,279L118,279L118,286L111,286ZM125,279L132,279L132,286L125,286ZM139,279L153,279L153,286L139,286ZM167,279L181,279L181,286L167,286ZM202,279L209,279L209,286L202,286ZM216,279L230,279L230,286L216,286ZM237,279L251,279L251,286L237,286ZM258,279L265,279L265,286L258,286ZM286,279L293,279L293,286L286,286ZM300,279L321,279L321,286L300,286ZM328,279L342,279L342,286L328,286ZM356,279L363,279L363,286L356,286ZM370,279L384,279L384,286L370,286ZM398,279L405,279L405,286L398,286ZM412,279L419,279L419,286L412,286ZM20,286L27,286L27,293L20,293ZM34,286L41,286L41,293L34,293ZM48,286L55,286L55,293L48,293ZM62,286L69,286L69,293L62,293ZM83,286L90,286L90,293L83,293ZM104,286L111,286L111,293L104,293ZM167,286L188,286L188,293L167,293ZM251,286L272,286L272,293L251,293ZM293,286L300,286L300,293L293,293ZM314,286L321,286L321,293L314,293ZM363,286L398,286L398,293L363,293ZM34,293L55,293L55,300L34,300ZM69,293L83,293L83,300L69,300ZM90,293L97,293L97,300L90,300ZM132,293L146,293L146,300L132,300ZM160,293L167,293L167,300L160,300ZM181,293L195,293L195,300L181,300ZM202,293L216,293L216,300L202,300ZM223,293L244,293L244,300L223,300ZM272,293L293,293L293,300L272,300ZM314,293L321,293L321,300L314,300ZM335,293L342,293L342,300L335,300ZM398,293L405,293L405,300L398,300ZM412,293L419,293L419,300L412,300ZM20,300L27,300L27,307L20,307ZM41,300L48,300L48,307L41,307ZM62,300L76,300L76,307L62,307ZM90,300L125,300L125,307L90,307ZM132,300L146,300L146,307L132,307ZM174,300L181,300L181,307L174,307ZM188,300L244,300L244,307L188,307ZM251,300L258,300L258,307L251,307ZM272,300L279,300L279,307L272,307ZM286,300L293,300L293,307L286,307ZM307,300L314,300L314,307L307,307ZM321,300L335,300L335,307L321,307ZM363,300L370,300L370,307L363,307ZM377,300L384,300L384,307L377,307ZM391,300L398,300L398,307L391,307ZM405,300L412,300L412,307L405,307ZM20,307L41,307L41,314L20,314ZM48,307L62,307L62,314L48,314ZM104,307L132,307L132,314L104,314ZM139,307L160,307L160,314L139,314ZM167,307L174,307L174,314L167,314ZM181,307L195,307L195,314L181,314ZM209,307L216,307L216,314L209,314ZM244,307L265,307L265,314L244,314ZM272,307L293,307L293,314L272,314ZM300,307L307,307L307,314L300,314ZM314,307L321,307L321,314L314,314ZM328,307L342,307L342,314L328,314ZM349,307L384,307L384,314L349,314ZM391,307L412,307L412,314L391,314ZM27,314L76,314L76,321L27,321ZM125,314L146,314L146,321L125,321ZM160,314L181,314L181,321L160,321ZM188,314L202,314L202,321L188,321ZM209,314L223,314L223,321L209,321ZM237,314L265,314L265,321L237,321ZM272,314L279,314L279,321L272,321ZM293,314L300,314L300,321L293,321ZM307,314L314,314L314,321L307,321ZM321,314L335,314L335,321L321,321ZM356,314L370,314L370,321L356,321ZM384,314L391,314L391,321L384,321ZM405,314L412,314L412,321L405,321ZM20,321L34,321L34,328L20,328ZM41,321L48,321L48,328L41,328ZM55,321L62,321L62,328L55,328ZM69,321L76,321L76,328L69,328ZM83,321L90,321L90,328L83,328ZM97,321L118,321L118,328L97,328ZM125,321L139,321L139,328L125,328ZM153,321L160,321L160,328L153,328ZM174,321L181,321L181,328L174,328ZM188,321L223,321L223,328L188,328ZM237,321L244,321L244,328L237,328ZM251,321L258,321L258,328L251,328ZM293,321L300,321L300,328L293,328ZM314,321L328,321L328,328L314,328ZM335,321L342,321L342,328L335,328ZM377,321L384,321L384,328L377,328ZM391,321L405,321L405,328L391,328ZM412,321L419,321L419,328L412,328ZM27,328L48,328L48,335L27,335ZM55,328L97,328L97,335L55,335ZM104,328L111,328L111,335L104,335ZM118,328L125,328L125,335L118,335ZM132,328L160,328L160,335L132,335ZM167,328L181,328L181,335L167,335ZM188,328L195,328L195,335L188,335ZM202,328L209,328L209,335L202,335ZM216,328L223,328L223,335L216,335ZM307,328L314,328L314,335L307,335ZM321,328L328,328L328,335L321,335ZM342,328L349,328L349,335L342,335ZM356,328L363,328L363,335L356,335ZM384,328L391,328L391,335L384,335ZM405,328L412,328L412,335L405,335ZM34,335L48,335L48,342L34,342ZM55,335L62,335L62,342L55,342ZM90,335L97,335L97,342L90,342ZM104,335L111,335L111,342L104,342ZM125,335L132,335L132,342L125,342ZM146,335L188,335L188,342L146,342ZM209,335L216,335L216,342L209,342ZM223,335L230,335L230,342L223,342ZM251,335L265,335L265,342L251,342ZM272,335L279,335L279,342L272,342ZM293,335L321,335L321,342L293,342ZM328,335L356,335L356,342L328,342ZM363,335L384,335L384,342L363,342ZM398,335L405,335L405,342L398,342ZM412,335L419,335L419,342L412,342ZM20,342L27,342L27,349L20,349ZM34,342L41,342L41,349L34,349ZM55,342L69,342L69,349L55,349ZM104,342L111,342L111,349L104,349ZM153,342L160,342L160,349L153,349ZM174,342L195,342L195,349L174,349ZM202,342L258,342L258,349L202,349ZM272,342L279,342L279,349L272,349ZM307,342L328,342L328,349L307,349ZM335,342L349,342L349,349L335,349ZM370,342L377,342L377,349L370,349ZM384,342L398,342L398,349L384,349ZM20,349L55,349L55,356L20,356ZM97,349L104,349L104,356L97,356ZM125,349L167,349L167,356L125,356ZM174,349L181,349L181,356L174,356ZM195,349L202,349L202,356L195,356ZM230,349L237,349L237,356L230,356ZM265,349L279,349L279,356L265,356ZM307,349L321,349L321,356L307,356ZM328,349L342,349L342,356L328,356ZM349,349L363,349L363,356L349,356ZM370,349L377,349L377,356L370,356ZM405,349L419,349L419,356L405,356ZM62,356L104,356L104,363L62,363ZM111,356L125,356L125,363L111,363ZM132,356L146,356L146,363L132,363ZM160,356L167,356L167,363L160,363ZM181,356L195,356L195,363L181,363ZM202,356L265,356L265,363L202,363ZM279,356L286,356L286,363L279,363ZM293,356L300,356L300,363L293,363ZM321,356L328,356L328,363L321,363ZM342,356L349,356L349,363L342,363ZM356,356L412,356L412,363L356,363ZM76,363L118,363L118,370L76,370ZM125,363L160,363L160,370L125,370ZM167,363L209,363L209,370L167,370ZM230,363L251,363L251,370L230,370ZM272,363L279,363L279,370L272,370ZM293,363L342,363L342,370L293,370ZM356,363L363,363L363,370L356,370ZM384,363L391,363L391,370L384,370ZM398,363L405,363L405,370L398,370ZM20,370L69,370L69,377L20,377ZM90,370L97,370L97,377L90,377ZM111,370L118,370L118,377L111,377ZM125,370L132,370L132,377L125,377ZM174,370L188,370L188,377L174,377ZM195,370L209,370L209,377L195,377ZM216,370L223,370L223,377L216,377ZM230,370L258,370L258,377L230,377ZM279,370L286,370L286,377L279,377ZM314,370L321,370L321,377L314,377ZM335,370L342,370L342,377L335,377ZM349,370L363,370L363,377L349,377ZM370,370L377,370L377,377L370,377ZM384,370L398,370L398,377L384,377ZM405,370L419,370L419,377L405,377ZM20,377L27,377L27,384L20,384ZM62,377L69,377L69,384L62,384ZM90,377L97,377L97,384L90,384ZM104,377L111,377L111,384L104,384ZM118,377L132,377L132,384L118,384ZM139,377L146,377L146,384L139,384ZM153,377L195,377L195,384L153,384ZM202,377L209,377L209,384L202,384ZM230,377L244,377L244,384L230,384ZM251,377L265,377L265,384L251,384ZM272,377L279,377L279,384L272,384ZM300,377L307,377L307,384L300,384ZM314,377L321,377L321,384L314,384ZM328,377L335,377L335,384L328,384ZM349,377L363,377L363,384L349,384ZM384,377L391,377L391,384L384,384ZM398,377L405,377L405,384L398,384ZM412,377L419,377L419,384L412,384ZM20,384L27,384L27,391L20,391ZM34,384L55,384L55,391L34,391ZM62,384L69,384L69,391L62,391ZM76,384L90,384L90,391L76,391ZM104,384L111,384L111,391L104,391ZM118,384L146,384L146,391L118,391ZM167,384L174,384L174,391L167,391ZM181,384L188,384L188,391L181,391ZM195,384L237,384L237,391L195,391ZM244,384L251,384L251,391L244,391ZM265,384L279,384L279,391L265,391ZM286,384L293,384L293,391L286,391ZM300,384L314,384L314,391L300,391ZM335,384L349,384L349,391L335,391ZM356,384L391,384L391,391L356,391ZM398,384L412,384L412,391L398,391ZM20,391L27,391L27,398L20,398ZM34,391L55,391L55,398L34,398ZM62,391L69,391L69,398L62,398ZM76,391L83,391L83,398L76,398ZM97,391L104,391L104,398L97,398ZM118,391L125,391L125,398L118,398ZM132,391L139,391L139,398L132,398ZM153,391L174,391L174,398L153,398ZM181,391L188,391L188,398L181,398ZM195,391L202,391L202,398L195,398ZM216,391L272,391L272,398L216,398ZM293,391L335,391L335,398L293,398ZM363,391L370,391L370,398L363,398ZM391,391L398,391L398,398L391,398ZM405,391L412,391L412,398L405,398ZM20,398L27,398L27,405L20,405ZM34,398L55,398L55,405L34,405ZM62,398L69,398L69,405L62,405ZM76,398L97,398L97,405L76,405ZM111,398L118,398L118,405L111,405ZM139,398L153,398L153,405L139,405ZM167,398L188,398L188,405L167,405ZM195,398L209,398L209,405L195,405ZM216,398L237,398L237,405L216,405ZM244,398L251,398L251,405L244,405ZM258,398L272,398L272,405L258,405ZM279,398L293,398L293,405L279,405ZM314,398L321,398L321,405L314,405ZM356,398L377,398L377,405L356,405ZM20,405L27,405L27,412L20,412ZM62,405L69,405L69,412L62,412ZM90,405L111,405L111,412L90,412ZM118,405L139,405L139,412L118,412ZM146,405L153,405L153,412L146,412ZM174,405L188,405L188,412L174,412ZM195,405L209,405L209,412L195,412ZM230,405L251,405L251,412L230,412ZM258,405L272,405L272,412L258,412ZM314,405L321,405L321,412L314,412ZM328,405L342,405L342,412L328,412ZM349,405L356,405L356,412L349,412ZM363,405L370,405L370,412L363,412ZM377,405L398,405L398,412L377,412ZM405,405L419,405L419,412L405,412ZM20,412L69,412L69,419L20,419ZM83,412L97,412L97,419L83,419ZM118,412L125,412L125,419L118,419ZM132,412L153,412L153,419L132,419ZM167,412L174,412L174,419L167,419ZM188,412L195,412L195,419L188,419ZM209,412L216,412L216,419L209,419ZM223,412L230,412L230,419L223,419ZM251,412L300,412L300,419L251,419ZM307,412L321,412L321,419L307,419ZM342,412L349,412L349,419L342,419ZM356,412L363,412L363,419L356,419ZM398,412L412,412L412,419L398,419Z"/></svg>
