<?xml version="1.0"?>
<svg xmlns="http://www.w3.org/2000/svg" xmlns:xlink="http://www.w3.org/1999/xlink" version="1.1" width="440px" height="440px" viewBox="0 0 440 440"><rect x="0" y="0" width="440" height="440" fill="#ffffff" fill-opacity="1"/><path fill="#000000" fill-opacity="1" d="M20,20L69,20L69,27L20,27ZM76,20L83,20L83,27L76,27ZM90,20L97,20L97,27L90,27ZM111,20L118,20L118,27L111,27ZM125,20L132,20L132,27L125,27ZM139,20L153,20L153,27L139,27ZM160,20L167,20L167,27L160,27ZM188,20L209,20L209,27L188,27ZM216,20L223,20L223,27L216,27ZM237,20L258,20L258,27L237,27ZM272,20L286,20L286,27L272,27ZM293,20L321,20L321,27L293,27ZM328,20L335,20L335,27L328,27ZM342,20L356,20L356,27L342,27ZM370,20L419,20L419,27L370,27ZM20,27L27,27L27,34L20,34ZM62,27L69,27L69,34L62,34ZM76,27L83,27L83,34L76,34ZM90,27L104,27L104,34L90,34ZM111,27L139,27L139,34L111,34ZM167,27L195,27L195,34L167,34ZM202,27L209,27L209,34L202,34ZM244,27L265,27L265,34L244,34ZM307,27L328,27L328,34L307,34ZM349,27L356,27L356,34L349,34ZM370,27L377,27L377,34L370,34ZM412,27L419,27L419,34L412,34ZM20,34L27,34L27,41L20,41ZM34,34L55,34L55,41L34,41ZM62,34L69,34L69,41L62,41ZM76,34L83,34L83,41L76,41ZM97,34L104,34L104,41L97,41ZM132,34L139,34L139,41L132,41ZM153,34L167,34L167,41L153,41ZM216,34L223,34L223,41L216,41ZM230,34L265,34L265,41L230,41ZM272,34L279,34L279,41L272,41ZM293,34L335,34L335,41L293,41ZM342,34L356,34L356,41L342,41ZM370,34L377,34L377,41L370,41ZM384,34L405,34L405,41L384,41ZM412,34L419,34L419,41L412,41ZM20,41L27,41L27,48L20,48ZM34,41L55,41L55,48L34,48ZM62,41L69,41L69,48L62,48ZM97,41L104,41L104,48L97,48ZM118,41L125,41L125,48L118,48ZM146,41L160,41L160,48L146,48ZM174,41L195,41L195,48L174,48ZM202,41L209,41L209,48L202,48ZM237,41L244,41L244,48L237,48ZM258,41L293,41L293,48L258,48ZM321,41L342,41L342,48L321,48ZM349,41L356,41L356,48L349,48ZM370,41L377,41L377,48L370,48ZM384,41L405,41L405,48L384,48ZM412,41L419,41L419,48L412,48ZM20,48L27,48L27,55L20,55ZM34,48L55,48L55,55L34,55ZM62,48L69,48L69,55L62,55ZM90,48L139,48L139,55L90,55ZM174,48L181,48L181,55L174,55ZM188,48L237,48L237,55L188,55ZM265,48L279,48L279,55L265,55ZM300,48L307,48L307,55L300,55ZM328,48L342,48L342,55L328,55ZM349,48L356,48L356,55L349,55ZM370,48L377,48L377,55L370,55ZM384,48L405,48L405,55L384,55ZM412,48L419,48L419,55L412,55ZM20,55L27,55L27,62L20,62ZM62,55L69,55L69,62L62,62ZM76,55L83,55L83,62L76,62ZM90,55L104,55L104,62L90,62ZM111,55L125,55L125,62L111,62ZM181,55L188,55L188,62L181,62ZM195,55L209,55L209,62L195,62ZM230,55L244,55L244,62L230,62ZM251,55L258,55L258,62L251,62ZM265,55L279,55L279,62L265,62ZM293,55L300,55L300,62L293,62ZM307,55L321,55L321,62L307,62ZM342,55L349,55L349,62L342,62ZM370,55L377,55L377,62L370,62ZM412,55L419,55L419,62L412,62ZM20,62L69,62L69,69L20,69ZM76,62L83,62L83,69L76,69ZM90,62L97,62L97,69L90,69ZM104,62L111,62L111,69L104,69ZM118,62L125,62L125,69L118,69ZM132,62L139,62L139,69L132,69ZM146,62L153,62L153,69L146,69ZM160,62L167,62L167,69L160,69ZM174,62L181,62L181,69L174,69ZM188,62L195,62L195,69L188,69ZM202,62L209,62L209,69L202,69ZM216,62L223,62L223,69L216,69ZM230,62L237,62L237,69L230,69ZM244,62L251,62L251,69L244,69ZM258,62L265,62L265,69L258,69ZM272,62L279,62L279,69L272,69ZM286,62L293,62L293,69L286,69ZM300,62L307,62L307,69L300,69ZM314,62L321,62L321,69L314,69ZM328,62L335,62L335,69L328,69ZM342,62L349,62L349,69L342,69ZM356,62L363,62L363,69L356,69ZM370,62L419,62L419,69L370,69ZM76,69L83,69L83,76L76,76ZM111,69L118,69L118,76L111,76ZM125,69L132,69L132,76L125,76ZM160,69L174,69L174,76L160,76ZM188,69L209,69L209,76L188,76ZM230,69L237,69L237,76L230,76ZM251,69L258,69L258,76L251,76ZM279,69L293,69L293,76L279,76ZM314,69L321,69L321,76L314,76ZM335,69L342,69L342,76L335,76ZM356,69L363,69L363,76L356,76ZM34,76L55,76L55,83L34,83ZM62,76L69,76L69,83L62,83ZM76,76L90,76L90,83L76,83ZM97,76L104,76L104,83L97,83ZM118,76L125,76L125,83L118,83ZM132,76L146,76L146,83L132,83ZM160,76L167,76L167,83L160,83ZM174,76L181,76L181,83L174,83ZM195,76L244,76L244,83L195,83ZM258,76L265,76L265,83L258,83ZM272,76L279,76L279,83L272,83ZM286,76L293,76L293,83L286,83ZM307,76L314,76L314,83L307,83ZM328,76L335,76L335,83L328,83ZM342,76L384,76L384,83L342,83ZM398,76L419,76L419,83L398,83ZM27,83L41,83L41,90L27,90ZM55,83L62,83L62,90L55,90ZM69,83L83,83L83,90L69,90ZM125,83L132,83L132,90L125,90ZM146,83L174,83L174,90L146,90ZM181,83L188,83L188,90L181,90ZM195,83L202,83L202,90L195,90ZM209,83L223,83L223,90L209,90ZM237,83L251,83L251,90L237,90ZM272,83L293,83L293,90L272,90ZM300,83L349,83L349,90L300,90ZM363,83L370,83L370,90L363,90ZM384,83L405,83L405,90L384,90ZM20,90L41,90L41,97L20,97ZM48,90L55,90L55,97L48,97ZM62,90L69,90L69,97L62,97ZM76,90L83,90L83,97L76,97ZM104,90L111,90L111,97L104,97ZM118,90L125,90L125,97L118,97ZM146,90L153,90L153,97L146,97ZM160,90L174,90L174,97L160,97ZM188,90L202,90L202,97L188,97ZM209,90L223,90L223,97L209,97ZM230,90L237,90L237,97L230,97ZM258,90L279,90L279,97L258,97ZM293,90L300,90L300,97L293,97ZM307,90L314,90L314,97L307,97ZM349,90L356,90L356,97L349,97ZM405,90L412,90L412,97L405,97ZM20,97L27,97L27,104L20,104ZM34,97L41,97L41,104L34,104ZM83,97L90,97L90,104L83,104ZM97,97L104,97L104,104L97,104ZM118,97L153,97L153,104L118,104ZM160,97L174,97L174,104L160,104ZM181,97L223,97L223,104L181,104ZM237,97L244,97L244,104L237,104ZM251,97L286,97L286,104L251,104ZM300,97L307,97L307,104L300,104ZM314,97L321,97L321,104L314,104ZM356,97L370,97L370,104L356,104ZM377,97L384,97L384,104L377,104ZM391,97L419,97L419,104L391,104ZM20,104L69,104L69,111L20,111ZM76,104L90,104L90,111L76,111ZM104,104L111,104L111,111L104,111ZM160,104L167,104L167,111L160,111ZM174,104L181,104L181,111L174,111ZM188,104L195,104L195,111L188,111ZM223,104L230,104L230,111L223,111ZM237,104L244,104L244,111L237,111ZM286,104L293,104L293,111L286,111ZM300,104L314,104L314,111L300,111ZM342,104L356,104L356,111L342,111ZM370,104L391,104L391,111L370,111ZM398,104L412,104L412,111L398,111ZM34,111L41,111L41,118L34,118ZM83,111L118,111L118,118L83,118ZM125,111L132,111L132,118L125,118ZM146,111L167,111L167,118L146,118ZM188,111L202,111L202,118L188,118ZM216,111L251,111L251,118L216,118ZM258,111L279,111L279,118L258,118ZM293,111L342,111L342,118L293,118ZM356,111L412,111L412,118L356,118ZM34,118L90,118L90,125L34,125ZM97,118L104,118L104,125L97,125ZM174,118L209,118L209,125L174,125ZM237,118L244,118L244,125L237,125ZM258,118L286,118L286,125L258,125ZM293,118L300,118L300,125L293,125ZM314,118L321,118L321,125L314,125ZM335,118L342,118L342,125L335,125ZM370,118L377,118L377,125L370,125ZM412,118L419,118L419,125L412,125ZM20,125L62,125L62,132L20,132ZM69,125L83,125L83,132L69,132ZM90,125L104,125L104,132L90,132ZM132,125L139,125L139,132L132,132ZM153,125L160,125L160,132L153,132ZM167,125L195,125L195,132L167,132ZM202,125L209,125L209,132L202,132ZM258,125L272,125L272,132L258,132ZM279,125L286,125L286,132L279,132ZM300,125L307,125L307,132L300,132ZM314,125L328,125L328,132L314,132ZM349,125L370,125L370,132L349,132ZM391,125L419,125L419,132L391,132ZM20,132L27,132L27,139L20,139ZM41,132L48,132L48,139L41,139ZM55,132L83,132L83,139L55,139ZM90,132L104,132L104,139L90,139ZM111,132L132,132L132,139L111,139ZM153,132L160,132L160,139L153,139ZM174,132L195,132L195,139L174,139ZM216,132L223,132L223,139L216,139ZM230,132L237,132L237,139L230,139ZM244,132L251,132L251,139L244,139ZM272,132L293,132L293,139L272,139ZM300,132L314,132L314,139L300,139ZM321,132L328,132L328,139L321,139ZM335,132L363,132L363,139L335,139ZM370,132L384,132L384,139L370,139ZM398,132L412,132L412,139L398,139ZM27,139L34,139L34,146L27,146ZM90,139L97,139L97,146L90,146ZM104,139L118,139L118,146L104,146ZM125,139L132,139L132,146L125,146ZM146,139L209,139L209,146L146,146ZM216,139L230,139L230,146L216,146ZM237,139L258,139L258,146L237,146ZM272,139L279,139L279,146L272,146ZM293,139L307,139L307,146L293,146ZM321,139L335,139L335,146L321,146ZM342,139L356,139L356,146L342,146ZM363,139L370,139L370,146L363,146ZM384,139L405,139L405,146L384,146ZM20,146L41,146L41,153L20,153ZM48,146L55,146L55,153L48,153ZM62,146L69,146L69,153L62,153ZM83,146L104,146L104,153L83,153ZM111,146L118,146L118,153L111,153ZM160,146L174,146L174,153L160,153ZM202,146L209,146L209,153L202,153ZM216,146L223,146L223,153L216,153ZM237,146L244,146L244,153L237,153ZM251,146L265,146L265,153L251,153ZM272,146L279,146L279,153L272,153ZM293,146L300,146L300,153L293,153ZM314,146L321,146L321,153L314,153ZM349,146L356,146L356,153L349,153ZM363,146L370,146L370,153L363,153ZM377,146L384,146L384,153L377,153ZM412,146L419,146L419,153L412,153ZM48,153L55,153L55,160L48,160ZM83,153L90,153L90,160L83,160ZM97,153L118,153L118,160L97,160ZM125,153L132,153L132,160L125,160ZM139,153L174,153L174,160L139,160ZM181,153L188,153L188,160L181,160ZM195,153L209,153L209,160L195,160ZM223,153L279,153L279,160L223,160ZM300,153L335,153L335,160L300,160ZM356,153L370,153L370,160L356,160ZM377,153L384,153L384,160L377,160ZM391,153L405,153L405,160L391,160ZM412,153L419,153L419,160L412,160ZM27,160L34,160L34,167L27,167ZM41,160L48,160L48,167L41,167ZM55,160L69,160L69,167L55,167ZM83,160L97,160L97,167L83,167ZM118,160L125,160L125,167L118,167ZM153,160L160,160L160,167L153,167ZM167,160L174,160L174,167L167,167ZM188,160L223,160L223,167L188,167ZM230,160L237,160L237,167L230,167ZM251,160L258,160L258,167L251,167ZM265,160L300,160L300,167L265,167ZM342,160L356,160L356,167L342,167ZM370,160L377,160L377,167L370,167ZM398,160L412,160L412,167L398,167ZM20,167L34,167L34,174L20,174ZM55,167L62,167L62,174L55,174ZM97,167L111,167L111,174L97,174ZM146,167L174,167L174,174L146,174ZM202,167L209,167L209,174L202,174ZM223,167L230,167L230,174L223,174ZM272,167L286,167L286,174L272,174ZM293,167L335,167L335,174L293,174ZM349,167L356,167L356,174L349,174ZM363,167L370,167L370,174L363,174ZM377,167L405,167L405,174L377,174ZM20,174L48,174L48,181L20,181ZM55,174L90,174L90,181L55,181ZM104,174L111,174L111,181L104,181ZM139,174L146,174L146,181L139,181ZM174,174L181,174L181,181L174,181ZM188,174L195,174L195,181L188,181ZM202,174L223,174L223,181L202,181ZM258,174L272,174L272,181L258,181ZM286,174L293,174L293,181L286,181ZM314,174L321,174L321,181L314,181ZM335,174L349,174L349,181L335,181ZM405,174L412,174L412,181L405,181ZM41,181L55,181L55,188L41,188ZM69,181L76,181L76,188L69,188ZM90,181L97,181L97,188L90,188ZM125,181L132,181L132,188L125,188ZM146,181L153,181L153,188L146,188ZM174,181L181,181L181,188L174,188ZM188,181L195,181L195,188L188,188ZM202,181L209,181L209,188L202,188ZM216,181L230,181L230,188L216,188ZM244,181L251,181L251,188L244,188ZM258,181L265,181L265,188L258,188ZM272,181L279,181L279,188L272,188ZM314,181L321,181L321,188L314,188ZM328,181L342,181L342,188L328,188ZM356,181L363,181L363,188L356,188ZM391,181L405,181L405,188L391,188ZM412,181L419,181L419,188L412,188ZM41,188L55,188L55,195L41,195ZM62,188L76,188L76,195L62,195ZM167,188L174,188L174,195L167,195ZM195,188L244,188L244,195L195,195ZM251,188L258,188L258,195L251,195ZM272,188L300,188L300,195L272,195ZM314,188L321,188L321,195L314,195ZM342,188L377,188L377,195L342,195ZM412,188L419,188L419,195L412,195ZM20,195L27,195L27,202L20,202ZM55,195L62,195L62,202L55,202ZM69,195L76,195L76,202L69,202ZM83,195L90,195L90,202L83,202ZM97,195L111,195L111,202L97,202ZM132,195L139,195L139,202L132,202ZM160,195L167,195L167,202L160,202ZM174,195L188,195L188,202L174,202ZM202,195L216,195L216,202L202,202ZM230,195L237,195L237,202L230,202ZM244,195L251,195L251,202L244,202ZM258,195L279,195L279,202L258,202ZM286,195L293,195L293,202L286,202ZM314,195L342,195L342,202L314,202ZM356,195L370,195L370,202L356,202ZM377,195L391,195L391,202L377,202ZM398,195L419,195L419,202L398,202ZM41,202L104,202L104,209L41,209ZM111,202L132,202L132,209L111,209ZM139,202L153,202L153,209L139,209ZM160,202L167,202L167,209L160,209ZM174,202L188,202L188,209L174,209ZM202,202L265,202L265,209L202,209ZM272,202L286,202L286,209L272,209ZM293,202L300,202L300,209L293,209ZM314,202L321,202L321,209L314,209ZM356,202L391,202L391,209L356,209ZM398,202L412,202L412,209L398,209ZM34,209L41,209L41,216L34,216ZM48,209L55,209L55,216L48,216ZM76,209L111,209L111,216L76,216ZM118,209L125,209L125,216L118,216ZM139,209L153,209L153,216L139,216ZM181,209L209,209L209,216L181,216ZM230,209L237,209L237,216L230,216ZM251,209L265,209L265,216L251,216ZM279,209L286,209L286,216L279,216ZM293,209L300,209L300,216L293,216ZM307,209L321,209L321,216L307,216ZM328,209L342,209L342,216L328,216ZM349,209L363,209L363,216L349,216ZM384,209L391,209L391,216L384,216ZM398,209L419,209L419,216L398,216ZM34,216L41,216L41,223L34,223ZM48,216L55,216L55,223L48,223ZM62,216L69,216L69,223L62,223ZM76,216L90,216L90,223L76,223ZM97,216L104,216L104,223L97,223ZM111,216L125,216L125,223L111,223ZM139,216L146,216L146,223L139,223ZM153,216L167,216L167,223L153,223ZM174,216L181,216L181,223L174,223ZM195,216L209,216L209,223L195,223ZM216,216L223,216L223,223L216,223ZM230,216L237,216L237,223L230,223ZM244,216L251,216L251,223L244,223ZM258,216L272,216L272,223L258,223ZM286,216L300,216L300,223L286,223ZM342,216L363,216L363,223L342,223ZM370,216L377,216L377,223L370,223ZM384,216L391,216L391,223L384,223ZM398,216L405,216L405,223L398,223ZM27,223L55,223L55,230L27,230ZM76,223L104,223L104,230L76,230ZM125,223L132,223L132,230L125,230ZM146,223L174,223L174,230L146,230ZM202,223L209,223L209,230L202,230ZM230,223L286,223L286,230L230,230ZM300,223L314,223L314,230L300,230ZM321,223L342,223L342,230L321,230ZM356,223L363,223L363,230L356,230ZM384,223L412,223L412,230L384,230ZM20,230L27,230L27,237L20,237ZM34,230L41,230L41,237L34,237ZM48,230L90,230L90,237L48,237ZM104,230L111,230L111,237L104,237ZM118,230L139,230L139,237L118,237ZM153,230L160,230L160,237L153,237ZM167,230L181,230L181,237L167,237ZM188,230L251,230L251,237L188,237ZM272,230L279,230L279,237L272,237ZM293,230L300,230L300,237L293,237ZM314,230L328,230L328,237L314,237ZM342,230L349,230L349,237L342,237ZM356,230L391,230L391,237L356,237ZM20,237L48,237L48,244L20,244ZM55,237L62,237L62,244L55,244ZM76,237L97,237L97,244L76,244ZM104,237L132,237L132,244L104,244ZM139,237L146,237L146,244L139,244ZM153,237L160,237L160,244L153,244ZM188,237L202,237L202,244L188,244ZM216,237L237,237L237,244L216,244ZM272,237L279,237L279,244L272,244ZM293,237L321,237L321,244L293,244ZM328,237L335,237L335,244L328,244ZM370,237L377,237L377,244L370,244ZM391,237L398,237L398,244L391,244ZM405,237L419,237L419,244L405,244ZM27,244L41,244L41,251L27,251ZM48,244L55,244L55,251L48,251ZM62,244L76,244L76,251L62,251ZM97,244L104,244L104,251L97,251ZM111,244L139,244L139,251L111,251ZM146,244L153,244L153,251L146,251ZM160,244L167,244L167,251L160,251ZM181,244L202,244L202,251L181,251ZM209,244L230,244L230,251L209,251ZM237,244L244,244L244,251L237,251ZM258,244L265,244L265,251L258,251ZM272,244L293,244L293,251L272,251ZM335,244L349,244L349,251L335,251ZM384,244L398,244L398,251L384,251ZM41,251L62,251L62,258L41,258ZM83,251L90,251L90,258L83,258ZM97,251L111,251L111,258L97,258ZM125,251L132,251L132,258L125,258ZM160,251L167,251L167,258L160,258ZM188,251L230,251L230,258L188,258ZM237,251L251,251L251,258L237,258ZM265,251L279,251L279,258L265,258ZM300,251L314,251L314,258L300,258ZM321,251L335,251L335,258L321,258ZM349,251L356,251L356,258L349,258ZM363,251L377,251L377,258L363,258ZM391,251L412,251L412,258L391,258ZM27,258L34,258L34,265L27,265ZM55,258L83,258L83,265L55,265ZM97,258L118,258L118,265L97,265ZM132,258L139,258L139,265L132,265ZM160,258L167,258L167,265L160,265ZM174,258L188,258L188,265L174,265ZM223,258L244,258L244,265L223,265ZM258,258L265,258L265,265L258,265ZM279,258L286,258L286,265L279,265ZM293,258L300,258L300,265L293,265ZM321,258L328,258L328,265L321,265ZM356,258L370,258L370,265L356,265ZM384,258L391,258L391,265L384,265ZM412,258L419,258L419,265L412,265ZM20,265L27,265L27,272L20,272ZM34,265L41,265L41,272L34,272ZM48,265L55,265L55,272L48,272ZM83,265L90,265L90,272L83,272ZM97,265L104,265L104,272L97,272ZM111,265L118,265L118,272L111,272ZM125,265L139,265L139,272L125,272ZM160,265L174,265L174,272L160,272ZM188,265L209,265L209,272L188,272ZM216,265L237,265L237,272L216,272ZM244,265L251,265L251,272L244,272ZM258,265L265,265L265,272L258,272ZM272,265L286,265L286,272L272,272ZM293,265L300,265L300,272L293,272ZM307,265L335,265L335,272L307,272ZM349,265L363,265L363,272L349,272ZM377,265L384,265L384,272L377,272ZM391,265L398,265L398,272L391,272ZM405,265L419,265L419,272L405,272ZM20,272L27,272L27,279L20,279ZM48,272L55,272L55,279L48,279ZM62,272L97,272L97,279L62,279ZM125,272L132,272L132,279L125,279ZM139,272L174,272L174,279L139,279ZM195,272L202,272L202,279L195,279ZM237,272L251,272L251,279L237,279ZM286,272L307,272L307,279L286,279ZM321,272L349,272L349,279L321,279ZM384,272L405,272L405,279L384,279ZM34,279L48,279L48,286L34,286ZM55,279L62,279L62,286L55,286ZM69,279L83,279L83,286L69,286ZM90,279L111,279L111,286L90,286ZM118,279L132,279L132,286L118,286ZM160,279L167,279L167,286L160,286ZM216,279L223,279L223,286L216,286ZM230,279L244,279L244,286L230,286ZM258,279L265,279L265,286L258,286ZM272,279L286,279L286,286L272,286ZM300,279L321,279L321,286L300,286ZM328,279L335,279L335,286L328,286ZM349,279L412,279L412,286L349,286ZM20,286L41,286L41,293L20,293ZM62,286L69,286L69,293L62,293ZM76,286L83,286L83,293L76,293ZM97,286L111,286L111,293L97,293ZM118,286L125,286L125,293L118,293ZM146,286L160,286L160,293L146,293ZM167,286L181,286L181,293L167,293ZM188,286L223,286L223,293L188,293ZM230,286L251,286L251,293L230,293ZM272,286L279,286L279,293L272,293ZM286,286L300,286L300,293L286,293ZM335,286L342,286L342,293L335,293ZM363,286L370,286L370,293L363,293ZM377,286L391,286L391,293L377,293ZM27,293L34,293L34,300L27,300ZM41,293L55,293L55,300L41,300ZM69,293L83,293L83,300L69,300ZM90,293L104,293L104,300L90,300ZM111,293L125,293L125,300L111,300ZM132,293L139,293L139,300L132,300ZM146,293L153,293L153,300L146,300ZM160,293L167,293L167,300L160,300ZM181,293L188,293L188,300L181,300ZM202,293L230,293L230,300L202,300ZM237,293L244,293L244,300L237,300ZM258,293L279,293L279,300L258,300ZM307,293L328,293L328,300L307,300ZM349,293L363,293L363,300L349,300ZM370,293L377,293L377,300L370,300ZM391,293L398,293L398,300L391,300ZM412,293L419,293L419,300L412,300ZM20,300L27,300L27,307L20,307ZM41,300L55,300L55,307L41,307ZM62,300L69,300L69,307L62,307ZM90,300L97,300L97,307L90,307ZM111,300L125,300L125,307L111,307ZM146,300L153,300L153,307L146,307ZM167,300L174,300L174,307L167,307ZM181,300L188,300L188,307L181,307ZM216,300L244,300L244,307L216,307ZM251,300L258,300L258,307L251,307ZM265,300L272,300L272,307L265,307ZM279,300L286,300L286,307L279,307ZM321,300L328,300L328,307L321,307ZM335,300L349,300L349,307L335,307ZM356,300L370,300L370,307L356,307ZM391,300L398,300L398,307L391,307ZM405,300L412,300L412,307L405,307ZM27,307L48,307L48,314L27,314ZM55,307L62,307L62,314L55,314ZM69,307L83,307L83,314L69,314ZM111,307L153,307L153,314L111,314ZM160,307L167,307L167,314L160,314ZM181,307L195,307L195,314L181,314ZM202,307L216,307L216,314L202,314ZM223,307L251,307L251,314L223,314ZM258,307L265,307L265,314L258,314ZM272,307L279,307L279,314L272,314ZM293,307L307,307L307,314L293,314ZM314,307L342,307L342,314L314,314ZM349,307L356,307L356,314L349,314ZM363,307L377,307L377,314L363,314ZM398,307L419,307L419,314L398,314ZM20,314L27,314L27,321L20,321ZM41,314L55,314L55,321L41,321ZM62,314L76,314L76,321L62,321ZM83,314L97,314L97,321L83,321ZM118,314L132,314L132,321L118,321ZM153,314L167,314L167,321L153,321ZM181,314L188,314L188,321L181,321ZM216,314L230,314L230,321L216,321ZM237,314L272,314L272,321L237,321ZM279,314L286,314L286,321L279,321ZM307,314L314,314L314,321L307,321ZM335,314L349,314L349,321L335,321ZM356,314L370,314L370,321L356,321ZM377,314L398,314L398,321L377,321ZM405,314L419,314L419,321L405,321ZM27,321L48,321L48,328L27,328ZM76,321L83,321L83,328L76,328ZM90,321L97,321L97,328L90,328ZM111,321L125,321L125,328L111,328ZM139,321L153,321L153,328L139,328ZM174,321L181,321L181,328L174,328ZM188,321L209,321L209,328L188,328ZM216,321L223,321L223,328L216,328ZM230,321L251,321L251,328L230,328ZM258,321L272,321L272,328L258,328ZM279,321L286,321L286,328L279,328ZM307,321L321,321L321,328L307,328ZM335,321L342,321L342,328L335,328ZM398,321L419,321L419,328L398,328ZM20,328L55,328L55,335L20,335ZM62,328L83,328L83,335L62,335ZM97,328L104,328L104,335L97,335ZM139,328L153,328L153,335L139,335ZM167,328L174,328L174,335L167,335ZM181,328L216,328L216,335L181,335ZM230,328L279,328L279,335L230,335ZM286,328L307,328L307,335L286,335ZM321,328L328,328L328,335L321,335ZM342,328L349,328L349,335L342,335ZM384,328L405,328L405,335L384,335ZM41,335L62,335L62,342L41,342ZM69,335L90,335L90,342L69,342ZM97,335L104,335L104,342L97,342ZM111,335L118,335L118,342L111,342ZM132,335L160,335L160,342L132,342ZM167,335L188,335L188,342L167,342ZM195,335L216,335L216,342L195,342ZM230,335L244,335L244,342L230,342ZM300,335L307,335L307,342L300,342ZM314,335L321,335L321,342L314,342ZM328,335L363,335L363,342L328,342ZM370,335L384,335L384,342L370,342ZM391,335L412,335L412,342L391,342ZM20,342L27,342L27,349L20,349ZM34,342L41,342L41,349L34,349ZM55,342L69,342L69,349L55,349ZM83,342L90,342L90,349L83,349ZM97,342L104,342L104,349L97,349ZM118,342L132,342L132,349L118,349ZM153,342L174,342L174,349L153,349ZM195,342L202,342L202,349L195,349ZM209,342L216,342L216,349L209,349ZM237,342L244,342L244,349L237,349ZM251,342L265,342L265,349L251,349ZM272,342L286,342L286,349L272,349ZM321,342L328,342L328,349L321,349ZM335,342L349,342L349,349L335,349ZM356,342L377,342L377,349L356,349ZM384,342L391,342L391,349L384,349ZM20,349L55,349L55,356L20,356ZM69,349L118,349L118,356L69,356ZM132,349L139,349L139,356L132,356ZM153,349L167,349L167,356L153,356ZM195,349L202,349L202,356L195,356ZM209,349L216,349L216,356L209,356ZM223,349L237,349L237,356L223,356ZM244,349L272,349L272,356L244,356ZM279,349L293,349L293,356L279,356ZM307,349L321,349L321,356L307,356ZM349,349L377,349L377,356L349,356ZM398,349L405,349L405,356L398,356ZM412,349L419,349L419,356L412,356ZM62,356L83,356L83,363L62,363ZM111,356L118,356L118,363L111,363ZM125,356L132,356L132,363L125,363ZM146,356L153,356L153,363L146,363ZM160,356L167,356L167,363L160,363ZM188,356L195,356L195,363L188,363ZM202,356L237,356L237,363L202,363ZM258,356L272,356L272,363L258,363ZM286,356L300,356L300,363L286,363ZM321,356L328,356L328,363L321,363ZM335,356L349,356L349,363L335,363ZM356,356L391,356L391,363L356,363ZM405,356L412,356L412,363L405,363ZM76,363L90,363L90,370L76,370ZM104,363L111,363L111,370L104,370ZM125,363L132,363L132,370L125,370ZM146,363L153,363L153,370L146,370ZM160,363L181,363L181,370L160,370ZM195,363L209,363L209,370L195,370ZM230,363L237,363L237,370L230,370ZM244,363L258,363L258,370L244,370ZM265,363L272,363L272,370L265,370ZM279,363L307,363L307,370L279,370ZM314,363L321,363L321,370L314,370ZM328,363L342,363L342,370L328,370ZM349,363L363,363L363,370L349,370ZM384,363L405,363L405,370L384,370ZM20,370L69,370L69,377L20,377ZM90,370L97,370L97,377L90,377ZM111,370L118,370L118,377L111,377ZM125,370L139,370L139,377L125,377ZM167,370L209,370L209,377L167,377ZM216,370L223,370L223,377L216,377ZM230,370L237,370L237,377L230,377ZM244,370L251,370L251,377L244,377ZM265,370L279,370L279,377L265,377ZM307,370L328,370L328,377L307,377ZM349,370L363,370L363,377L349,377ZM370,370L377,370L377,377L370,377ZM384,370L391,370L391,377L384,377ZM405,370L419,370L419,377L405,377ZM20,377L27,377L27,384L20,384ZM62,377L69,377L69,384L62,384ZM83,377L104,377L104,384L83,384ZM118,377L125,377L125,384L118,384ZM132,377L139,377L139,384L132,384ZM153,377L167,377L167,384L153,384ZM181,377L188,377L188,384L181,384ZM195,377L209,377L209,384L195,384ZM230,377L244,377L244,384L230,384ZM251,377L258,377L258,384L251,384ZM265,377L272,377L272,384L265,384ZM279,377L286,377L286,384L279,384ZM300,377L307,377L307,384L300,384ZM314,377L321,377L321,384L314,384ZM356,377L363,377L363,384L356,384ZM384,377L405,377L405,384L384,384ZM412,377L419,377L419,384L412,384ZM20,384L27,384L27,391L20,391ZM34,384L55,384L55,391L34,391ZM62,384L69,384L69,391L62,391ZM76,384L90,384L90,391L76,391ZM104,384L125,384L125,391L104,391ZM153,384L167,384L167,391L153,391ZM181,384L237,384L237,391L181,391ZM279,384L293,384L293,391L279,391ZM300,384L314,384L314,391L300,391ZM321,384L328,384L328,391L321,391ZM335,384L349,384L349,391L335,391ZM356,384L391,384L391,391L356,391ZM398,384L412,384L412,391L398,391ZM20,391L27,391L27,398L20,398ZM34,391L55,391L55,398L34,398ZM62,391L69,391L69,398L62,398ZM76,391L97,391L97,398L76,398ZM104,391L132,391L132,398L104,398ZM153,391L174,391L174,398L153,398ZM181,391L188,391L188,398L181,398ZM195,391L223,391L223,398L195,398ZM230,391L251,391L251,398L230,398ZM258,391L265,391L265,398L258,398ZM286,391L307,391L307,398L286,398ZM321,391L335,391L335,398L321,398ZM363,391L370,391L370,398L363,398ZM377,391L384,391L384,398L377,398ZM398,391L412,391L412,398L398,398ZM20,398L27,398L27,405L20,405ZM34,398L55,398L55,405L34,405ZM62,398L69,398L69,405L62,405ZM76,398L83,398L83,405L76,405ZM111,398L139,398L139,405L111,405ZM153,398L160,398L160,405L153,405ZM188,398L195,398L195,405L188,405ZM223,398L237,398L237,405L223,405ZM265,398L293,398L293,405L265,405ZM307,398L321,398L321,405L307,405ZM349,398L356,398L356,405L349,405ZM363,398L384,398L384,405L363,405ZM391,398L398,398L398,405L391,405ZM20,405L27,405L27,412L20,412ZM62,405L69,405L69,412L62,412ZM83,405L90,405L90,412L83,412ZM104,405L111,405L111,412L104,412ZM118,405L125,405L125,412L118,412ZM139,405L188,405L188,412L139,412ZM195,405L202,405L202,412L195,412ZM216,405L230,405L230,412L216,412ZM237,405L251,405L251,412L237,412ZM258,405L265,405L265,412L258,412ZM272,405L279,405L279,412L272,412ZM293,405L300,405L300,412L293,412ZM307,405L314,405L314,412L307,412ZM321,405L335,405L335,412L321,412ZM363,405L370,405L370,412L363,412ZM384,405L391,405L391,412L384,412ZM398,405L419,405L419,412L398,412ZM20,412L69,412L69,419L20,419ZM83,412L97,412L97,419L83,419ZM104,412L111,412L111,419L104,419ZM118,412L125,412L125,419L118,419ZM139,412L146,412L146,419L139,419ZM153,412L167,412L167,419L153,419ZM202,412L216,412L216,419L202,419ZM223,412L230,412L230,419L223,419ZM237,412L244,412L244,419L237,419ZM258,412L272,412L272,419L258,419ZM300,412L307,412L307,419L300,419ZM335,412L363,412L363,419L335,419ZM391,412L398,412L398,419L391,419ZM405,412L412,412L412,419L405,419Z"/></svg>
