<?xml version="1.0"?>
<svg xmlns="http://www.w3.org/2000/svg" xmlns:xlink="http://www.w3.org/1999/xlink" version="1.1" width="440px" height="440px" viewBox="0 0 440 440"><rect x="0" y="0" width="440" height="440" fill="#ffffff" fill-opacity="1"/><path fill="#000000" fill-opacity="1" d="M20,20L69,20L69,27L20,27ZM76,20L83,20L83,27L76,27ZM118,20L132,20L132,27L118,27ZM139,20L160,20L160,27L139,27ZM174,20L181,20L181,27L174,27ZM195,20L223,20L223,27L195,27ZM230,20L258,20L258,27L230,27ZM265,20L279,20L279,27L265,27ZM286,20L293,20L293,27L286,27ZM300,20L314,20L314,27L300,27ZM328,20L335,20L335,27L328,27ZM342,20L356,20L356,27L342,27ZM370,20L419,20L419,27L370,27ZM20,27L27,27L27,34L20,34ZM62,27L69,27L69,34L62,34ZM76,27L90,27L90,34L76,34ZM125,27L132,27L132,34L125,34ZM139,27L153,27L153,34L139,34ZM167,27L174,27L174,34L167,34ZM223,27L286,27L286,34L223,34ZM293,27L300,27L300,34L293,34ZM307,27L314,27L314,34L307,34ZM349,27L356,27L356,34L349,34ZM370,27L377,27L377,34L370,34ZM412,27L419,27L419,34L412,34ZM20,34L27,34L27,41L20,41ZM34,34L55,34L55,41L34,41ZM62,34L69,34L69,41L62,41ZM76,34L83,34L83,41L76,41ZM90,34L97,34L97,41L90,41ZM104,34L153,34L153,41L104,41ZM167,34L174,34L174,41L167,41ZM216,34L230,34L230,41L216,41ZM237,34L251,34L251,41L237,41ZM265,34L286,34L286,41L265,41ZM293,34L307,34L307,41L293,41ZM314,34L335,34L335,41L314,41ZM342,34L356,34L356,41L342,41ZM370,34L377,34L377,41L370,41ZM384,34L405,34L405,41L384,41ZM412,34L419,34L419,41L412,41ZM20,41L27,41L27,48L20,48ZM34,41L55,41L55,48L34,48ZM62,41L69,41L69,48L62,48ZM90,41L97,41L97,48L90,48ZM104,41L111,41L111,48L104,48ZM118,41L125,41L125,48L118,48ZM132,41L146,41L146,48L132,48ZM167,41L181,41L181,48L167,48ZM195,41L209,41L209,48L195,48ZM237,41L251,41L251,48L237,48ZM272,41L279,41L279,48L272,48ZM286,41L293,41L293,48L286,48ZM307,41L314,41L314,48L307,48ZM321,41L342,41L342,48L321,48ZM349,41L356,41L356,48L349,48ZM370,41L377,41L377,48L370,48ZM384,41L405,41L405,48L384,48ZM412,41L419,41L419,48L412,48ZM20,48L27,48L27,55L20,55ZM34,48L55,48L55,55L34,55ZM62,48L69,48L69,55L62,55ZM83,48L90,48L90,55L83,55ZM104,48L111,48L111,55L104,55ZM153,48L160,48L160,55L153,55ZM181,48L188,48L188,55L181,55ZM202,48L244,48L244,55L202,55ZM258,48L265,48L265,55L258,55ZM279,48L286,48L286,55L279,55ZM293,48L321,48L321,55L293,55ZM328,48L342,48L342,55L328,55ZM349,48L356,48L356,55L349,55ZM370,48L377,48L377,55L370,55ZM384,48L405,48L405,55L384,55ZM412,48L419,48L419,55L412,55ZM20,55L27,55L27,62L20,62ZM62,55L69,55L69,62L62,62ZM76,55L83,55L83,62L76,62ZM90,55L104,55L104,62L90,62ZM118,55L132,55L132,62L118,62ZM139,55L160,55L160,62L139,62ZM167,55L174,55L174,62L167,62ZM181,55L195,55L195,62L181,62ZM202,55L209,55L209,62L202,62ZM230,55L244,55L244,62L230,62ZM258,55L279,55L279,62L258,62ZM286,55L293,55L293,62L286,62ZM314,55L321,55L321,62L314,62ZM342,55L349,55L349,62L342,62ZM370,55L377,55L377,62L370,62ZM412,55L419,55L419,62L412,62ZM20,62L69,62L69,69L20,69ZM76,62L83,62L83,69L76,69ZM90,62L97,62L97,69L90,69ZM104,62L111,62L111,69L104,69ZM118,62L125,62L125,69L118,69ZM132,62L139,62L139,69L132,69ZM146,62L153,62L153,69L146,69ZM160,62L167,62L167,69L160,69ZM174,62L181,62L181,69L174,69ZM188,62L195,62L195,69L188,69ZM202,62L209,62L209,69L202,69ZM216,62L223,62L223,69L216,69ZM230,62L237,62L237,69L230,69ZM244,62L251,62L251,69L244,69ZM258,62L265,62L265,69L258,69ZM272,62L279,62L279,69L272,69ZM286,62L293,62L293,69L286,69ZM300,62L307,62L307,69L300,69ZM314,62L321,62L321,69L314,69ZM328,62L335,62L335,69L328,69ZM342,62L349,62L349,69L342,69ZM356,62L363,62L363,69L356,69ZM370,62L419,62L419,69L370,69ZM76,69L83,69L83,76L76,76ZM90,69L97,69L97,76L90,76ZM104,69L111,69L111,76L104,76ZM125,69L139,69L139,76L125,76ZM202,69L209,69L209,76L202,76ZM230,69L237,69L237,76L230,76ZM258,69L272,69L272,76L258,76ZM314,69L335,69L335,76L314,76ZM356,69L363,69L363,76L356,76ZM34,76L55,76L55,83L34,83ZM62,76L69,76L69,83L62,83ZM76,76L97,76L97,83L76,83ZM111,76L125,76L125,83L111,83ZM132,76L160,76L160,83L132,83ZM167,76L174,76L174,83L167,83ZM188,76L244,76L244,83L188,83ZM265,76L300,76L300,83L265,83ZM307,76L314,76L314,83L307,83ZM335,76L384,76L384,83L335,83ZM398,76L419,76L419,83L398,83ZM20,83L34,83L34,90L20,90ZM41,83L55,83L55,90L41,90ZM69,83L83,83L83,90L69,90ZM104,83L125,83L125,90L104,90ZM139,83L153,83L153,90L139,90ZM167,83L174,83L174,90L167,90ZM188,83L209,83L209,90L188,90ZM216,83L237,83L237,90L216,90ZM244,83L265,83L265,90L244,90ZM279,83L286,83L286,90L279,90ZM300,83L314,83L314,90L300,90ZM328,83L335,83L335,90L328,90ZM356,83L370,83L370,90L356,90ZM384,83L412,83L412,90L384,90ZM20,90L41,90L41,97L20,97ZM55,90L83,90L83,97L55,97ZM118,90L132,90L132,97L118,97ZM146,90L188,90L188,97L146,97ZM216,90L251,90L251,97L216,97ZM265,90L272,90L272,97L265,97ZM279,90L300,90L300,97L279,97ZM307,90L328,90L328,97L307,97ZM335,90L356,90L356,97L335,97ZM41,97L55,97L55,104L41,104ZM76,97L83,97L83,104L76,104ZM90,97L97,97L97,104L90,104ZM111,97L118,97L118,104L111,104ZM125,97L139,97L139,104L125,104ZM160,97L167,97L167,104L160,104ZM181,97L195,97L195,104L181,104ZM209,97L237,97L237,104L209,104ZM251,97L265,97L265,104L251,104ZM272,97L286,97L286,104L272,104ZM307,97L335,97L335,104L307,104ZM356,97L370,97L370,104L356,104ZM377,97L384,97L384,104L377,104ZM391,97L419,97L419,104L391,104ZM20,104L34,104L34,111L20,111ZM41,104L69,104L69,111L41,111ZM76,104L83,104L83,111L76,111ZM90,104L97,104L97,111L90,111ZM118,104L132,104L132,111L118,111ZM139,104L153,104L153,111L139,111ZM167,104L188,104L188,111L167,111ZM195,104L202,104L202,111L195,111ZM209,104L216,104L216,111L209,111ZM237,104L244,104L244,111L237,111ZM251,104L258,104L258,111L251,111ZM265,104L272,104L272,111L265,111ZM286,104L307,104L307,111L286,111ZM321,104L328,104L328,111L321,111ZM342,104L363,104L363,111L342,111ZM370,104L405,104L405,111L370,111ZM20,111L27,111L27,118L20,118ZM34,111L62,111L62,118L34,118ZM69,111L90,111L90,118L69,118ZM97,111L111,111L111,118L97,118ZM118,111L139,111L139,118L118,118ZM146,111L153,111L153,118L146,118ZM167,111L174,111L174,118L167,118ZM230,111L244,111L244,118L230,118ZM258,111L272,111L272,118L258,118ZM300,111L307,111L307,118L300,118ZM314,111L342,111L342,118L314,118ZM356,111L391,111L391,118L356,118ZM398,111L419,111L419,118L398,118ZM20,118L55,118L55,125L20,125ZM62,118L69,118L69,125L62,125ZM76,118L83,118L83,125L76,125ZM118,118L132,118L132,125L118,125ZM146,118L153,118L153,125L146,125ZM160,118L167,118L167,125L160,125ZM174,118L202,118L202,125L174,125ZM209,118L216,118L216,125L209,125ZM230,118L244,118L244,125L230,125ZM251,118L265,118L265,125L251,125ZM279,118L286,118L286,125L279,125ZM293,118L300,118L300,125L293,125ZM307,118L314,118L314,125L307,125ZM335,118L342,118L342,125L335,125ZM349,118L356,118L356,125L349,125ZM363,118L370,118L370,125L363,125ZM391,118L398,118L398,125L391,125ZM405,118L419,118L419,125L405,125ZM20,125L48,125L48,132L20,132ZM69,125L83,125L83,132L69,132ZM90,125L97,125L97,132L90,132ZM118,125L125,125L125,132L118,132ZM139,125L146,125L146,132L139,132ZM153,125L160,125L160,132L153,132ZM167,125L174,125L174,132L167,132ZM181,125L188,125L188,132L181,132ZM202,125L209,125L209,132L202,132ZM230,125L237,125L237,132L230,132ZM244,125L251,125L251,132L244,132ZM272,125L286,125L286,132L272,132ZM300,125L321,125L321,132L300,132ZM335,125L342,125L342,132L335,132ZM356,125L363,125L363,132L356,132ZM377,125L391,125L391,132L377,132ZM412,125L419,125L419,132L412,132ZM27,132L34,132L34,139L27,139ZM55,132L69,132L69,139L55,139ZM76,132L83,132L83,139L76,139ZM90,132L97,132L97,139L90,139ZM104,132L111,132L111,139L104,139ZM118,132L132,132L132,139L118,139ZM153,132L160,132L160,139L153,139ZM167,132L174,132L174,139L167,139ZM181,132L195,132L195,139L181,139ZM209,132L216,132L216,139L209,139ZM244,132L251,132L251,139L244,139ZM265,132L272,132L272,139L265,139ZM286,132L293,132L293,139L286,139ZM342,132L356,132L356,139L342,139ZM363,132L384,132L384,139L363,139ZM398,132L405,132L405,139L398,139ZM20,139L27,139L27,146L20,146ZM41,139L62,139L62,146L41,146ZM76,139L97,139L97,146L76,146ZM111,139L118,139L118,146L111,146ZM132,139L139,139L139,146L132,146ZM153,139L167,139L167,146L153,146ZM181,139L209,139L209,146L181,146ZM216,139L230,139L230,146L216,146ZM244,139L265,139L265,146L244,146ZM272,139L279,139L279,146L272,146ZM293,139L342,139L342,146L293,146ZM349,139L356,139L356,146L349,146ZM363,139L377,139L377,146L363,146ZM384,139L405,139L405,146L384,146ZM27,146L34,146L34,153L27,153ZM41,146L48,146L48,153L41,153ZM62,146L69,146L69,153L62,153ZM76,146L83,146L83,153L76,153ZM90,146L97,146L97,153L90,153ZM111,146L118,146L118,153L111,153ZM132,146L160,146L160,153L132,153ZM167,146L188,146L188,153L167,153ZM202,146L216,146L216,153L202,153ZM223,146L251,146L251,153L223,153ZM272,146L286,146L286,153L272,153ZM314,146L321,146L321,153L314,153ZM335,146L342,146L342,153L335,153ZM363,146L384,146L384,153L363,153ZM412,146L419,146L419,153L412,153ZM20,153L27,153L27,160L20,160ZM41,153L48,153L48,160L41,160ZM76,153L83,153L83,160L76,160ZM90,153L111,153L111,160L90,160ZM118,153L125,153L125,160L118,160ZM139,153L146,153L146,160L139,160ZM153,153L174,153L174,160L153,160ZM195,153L202,153L202,160L195,160ZM209,153L216,153L216,160L209,160ZM237,153L244,153L244,160L237,160ZM265,153L272,153L272,160L265,160ZM300,153L307,153L307,160L300,160ZM314,153L328,153L328,160L314,160ZM335,153L342,153L342,160L335,160ZM349,153L363,153L363,160L349,160ZM398,153L405,153L405,160L398,160ZM412,153L419,153L419,160L412,160ZM20,160L34,160L34,167L20,167ZM41,160L69,160L69,167L41,167ZM76,160L90,160L90,167L76,167ZM104,160L118,160L118,167L104,167ZM153,160L160,160L160,167L153,167ZM174,160L202,160L202,167L174,167ZM209,160L230,160L230,167L209,167ZM272,160L300,160L300,167L272,167ZM307,160L314,160L314,167L307,167ZM321,160L328,160L328,167L321,167ZM342,160L356,160L356,167L342,167ZM363,160L384,160L384,167L363,167ZM405,160L412,160L412,167L405,167ZM20,167L41,167L41,174L20,174ZM83,167L90,167L90,174L83,174ZM97,167L111,167L111,174L97,174ZM132,167L139,167L139,174L132,174ZM167,167L195,167L195,174L167,174ZM223,167L230,167L230,174L223,174ZM237,167L279,167L279,174L237,174ZM293,167L307,167L307,174L293,174ZM321,167L342,167L342,174L321,174ZM349,167L356,167L356,174L349,174ZM363,167L370,167L370,174L363,174ZM377,167L405,167L405,174L377,174ZM20,174L41,174L41,181L20,181ZM48,174L55,174L55,181L48,181ZM62,174L90,174L90,181L62,181ZM97,174L104,174L104,181L97,181ZM125,174L132,174L132,181L125,181ZM139,174L146,174L146,181L139,181ZM153,174L160,174L160,181L153,181ZM188,174L202,174L202,181L188,181ZM209,174L216,174L216,181L209,181ZM230,174L237,174L237,181L230,181ZM258,174L265,174L265,181L258,181ZM272,174L293,174L293,181L272,181ZM314,174L321,174L321,181L314,181ZM349,174L377,174L377,181L349,181ZM405,174L412,174L412,181L405,181ZM34,181L62,181L62,188L34,188ZM69,181L83,181L83,188L69,188ZM97,181L132,181L132,188L97,188ZM139,181L153,181L153,188L139,188ZM160,181L174,181L174,188L160,188ZM202,181L209,181L209,188L202,188ZM216,181L223,181L223,188L216,188ZM244,181L251,181L251,188L244,188ZM265,181L272,181L272,188L265,188ZM300,181L321,181L321,188L300,188ZM328,181L335,181L335,188L328,188ZM349,181L370,181L370,188L349,188ZM377,181L391,181L391,188L377,188ZM398,181L405,181L405,188L398,188ZM412,181L419,181L419,188L412,188ZM20,188L34,188L34,195L20,195ZM48,188L76,188L76,195L48,195ZM83,188L97,188L97,195L83,195ZM118,188L125,188L125,195L118,195ZM132,188L139,188L139,195L132,195ZM146,188L153,188L153,195L146,195ZM167,188L174,188L174,195L167,195ZM181,188L188,188L188,195L181,195ZM195,188L209,188L209,195L195,195ZM216,188L244,188L244,195L216,195ZM258,188L272,188L272,195L258,195ZM279,188L300,188L300,195L279,195ZM321,188L349,188L349,195L321,195ZM356,188L363,188L363,195L356,195ZM370,188L384,188L384,195L370,195ZM391,188L398,188L398,195L391,195ZM412,188L419,188L419,195L412,195ZM27,195L34,195L34,202L27,202ZM48,195L62,195L62,202L48,202ZM69,195L104,195L104,202L69,202ZM111,195L146,195L146,202L111,202ZM167,195L181,195L181,202L167,202ZM188,195L195,195L195,202L188,202ZM202,195L209,195L209,202L202,202ZM223,195L230,195L230,202L223,202ZM244,195L258,195L258,202L244,202ZM272,195L279,195L279,202L272,202ZM293,195L307,195L307,202L293,202ZM314,195L321,195L321,202L314,202ZM328,195L349,195L349,202L328,202ZM377,195L391,195L391,202L377,202ZM398,195L405,195L405,202L398,202ZM27,202L41,202L41,209L27,209ZM48,202L83,202L83,209L48,209ZM90,202L104,202L104,209L90,209ZM125,202L153,202L153,209L125,209ZM160,202L258,202L258,209L160,209ZM265,202L293,202L293,209L265,209ZM321,202L328,202L328,209L321,209ZM342,202L391,202L391,209L342,209ZM398,202L412,202L412,209L398,209ZM20,209L27,209L27,216L20,216ZM34,209L41,209L41,216L34,216ZM48,209L55,209L55,216L48,216ZM76,209L90,209L90,216L76,216ZM125,209L132,209L132,216L125,216ZM139,209L146,209L146,216L139,216ZM160,209L167,209L167,216L160,216ZM174,209L181,209L181,216L174,216ZM202,209L209,209L209,216L202,216ZM230,209L237,209L237,216L230,216ZM258,209L272,209L272,216L258,216ZM279,209L286,209L286,216L279,216ZM293,209L300,209L300,216L293,216ZM307,209L321,209L321,216L307,216ZM328,209L335,209L335,216L328,216ZM349,209L363,209L363,216L349,216ZM384,209L391,209L391,216L384,216ZM398,209L419,209L419,216L398,216ZM27,216L55,216L55,223L27,223ZM62,216L69,216L69,223L62,223ZM76,216L83,216L83,223L76,223ZM97,216L111,216L111,223L97,223ZM132,216L139,216L139,223L132,223ZM153,216L167,216L167,223L153,223ZM181,216L188,216L188,223L181,223ZM195,216L209,216L209,223L195,223ZM216,216L223,216L223,223L216,223ZM230,216L251,216L251,223L230,223ZM258,216L279,216L279,223L258,223ZM286,216L293,216L293,223L286,223ZM321,216L328,216L328,223L321,223ZM335,216L349,216L349,223L335,223ZM356,216L363,216L363,223L356,223ZM370,216L377,216L377,223L370,223ZM384,216L391,216L391,223L384,223ZM398,216L405,216L405,223L398,223ZM27,223L55,223L55,230L27,230ZM76,223L83,223L83,230L76,230ZM97,223L104,223L104,230L97,230ZM125,223L132,223L132,230L125,230ZM139,223L146,223L146,230L139,230ZM160,223L209,223L209,230L160,230ZM230,223L237,223L237,230L230,230ZM244,223L251,223L251,230L244,230ZM258,223L265,223L265,230L258,230ZM272,223L286,223L286,230L272,230ZM293,223L314,223L314,230L293,230ZM321,223L342,223L342,230L321,230ZM356,223L363,223L363,230L356,230ZM384,223L405,223L405,230L384,230ZM412,223L419,223L419,230L412,230ZM20,230L27,230L27,237L20,237ZM41,230L90,230L90,237L41,237ZM104,230L125,230L125,237L104,237ZM132,230L139,230L139,237L132,237ZM146,230L153,230L153,237L146,237ZM167,230L181,230L181,237L167,237ZM188,230L237,230L237,237L188,237ZM244,230L258,230L258,237L244,237ZM265,230L279,230L279,237L265,237ZM314,230L321,230L321,237L314,237ZM342,230L349,230L349,237L342,237ZM356,230L391,230L391,237L356,237ZM27,237L48,237L48,244L27,244ZM55,237L62,237L62,244L55,244ZM69,237L83,237L83,244L69,244ZM97,237L104,237L104,244L97,244ZM111,237L132,237L132,244L111,244ZM181,237L188,237L188,244L181,244ZM209,237L216,237L216,244L209,244ZM223,237L244,237L244,244L223,244ZM258,237L272,237L272,244L258,244ZM279,237L286,237L286,244L279,244ZM293,237L300,237L300,244L293,244ZM307,237L321,237L321,244L307,244ZM363,237L377,237L377,244L363,244ZM391,237L398,237L398,244L391,244ZM412,237L419,237L419,244L412,244ZM20,244L27,244L27,251L20,251ZM34,244L41,244L41,251L34,251ZM62,244L76,244L76,251L62,251ZM125,244L139,244L139,251L125,251ZM146,244L153,244L153,251L146,251ZM167,244L216,244L216,251L167,251ZM230,244L244,244L244,251L230,251ZM251,244L258,244L258,251L251,251ZM265,244L279,244L279,251L265,251ZM286,244L314,244L314,251L286,251ZM335,244L349,244L349,251L335,251ZM363,244L370,244L370,251L363,251ZM384,244L398,244L398,251L384,251ZM405,244L412,244L412,251L405,251ZM27,251L41,251L41,258L27,258ZM83,251L118,251L118,258L83,258ZM132,251L139,251L139,258L132,258ZM146,251L160,251L160,258L146,258ZM167,251L174,251L174,258L167,258ZM181,251L188,251L188,258L181,258ZM202,251L216,251L216,258L202,258ZM223,251L230,251L230,258L223,258ZM251,251L258,251L258,258L251,258ZM272,251L286,251L286,258L272,258ZM300,251L307,251L307,258L300,258ZM314,251L342,251L342,258L314,258ZM349,251L356,251L356,258L349,258ZM370,251L384,251L384,258L370,258ZM391,251L405,251L405,258L391,258ZM41,258L55,258L55,265L41,265ZM62,258L69,258L69,265L62,265ZM76,258L83,258L83,265L76,265ZM97,258L111,258L111,265L97,265ZM118,258L146,258L146,265L118,265ZM167,258L202,258L202,265L167,265ZM230,258L237,258L237,265L230,265ZM251,258L258,258L258,265L251,265ZM265,258L272,258L272,265L265,265ZM279,258L286,258L286,265L279,265ZM293,258L300,258L300,265L293,265ZM314,258L321,258L321,265L314,265ZM335,258L349,258L349,265L335,265ZM363,258L370,258L370,265L363,265ZM377,258L398,258L398,265L377,265ZM405,258L412,258L412,265L405,265ZM20,265L27,265L27,272L20,272ZM34,265L48,265L48,272L34,272ZM69,265L76,265L76,272L69,272ZM83,265L97,265L97,272L83,272ZM104,265L111,265L111,272L104,272ZM125,265L160,265L160,272L125,272ZM167,265L195,265L195,272L167,272ZM202,265L209,265L209,272L202,272ZM237,265L244,265L244,272L237,272ZM300,265L307,265L307,272L300,272ZM314,265L335,265L335,272L314,272ZM349,265L356,265L356,272L349,272ZM370,265L377,265L377,272L370,272ZM391,265L405,265L405,272L391,272ZM412,265L419,265L419,272L412,272ZM27,272L48,272L48,279L27,279ZM55,272L76,272L76,279L55,279ZM118,272L160,272L160,279L118,279ZM167,272L188,272L188,279L167,279ZM195,272L202,272L202,279L195,279ZM209,272L244,272L244,279L209,279ZM258,272L265,272L265,279L258,279ZM279,272L293,272L293,279L279,279ZM307,272L314,272L314,279L307,279ZM321,272L349,272L349,279L321,279ZM377,272L391,272L391,279L377,279ZM398,272L412,272L412,279L398,279ZM34,279L41,279L41,286L34,286ZM48,279L62,279L62,286L48,286ZM69,279L76,279L76,286L69,286ZM83,279L90,279L90,286L83,286ZM97,279L111,279L111,286L97,286ZM125,279L132,279L132,286L125,286ZM146,279L160,279L160,286L146,286ZM167,279L174,279L174,286L167,286ZM195,279L202,279L202,286L195,286ZM216,279L244,279L244,286L216,286ZM251,279L265,279L265,286L251,286ZM300,279L307,279L307,286L300,286ZM314,279L321,279L321,286L314,286ZM328,279L335,279L335,286L328,286ZM349,279L384,279L384,286L349,286ZM391,279L419,279L419,286L391,286ZM20,286L27,286L27,293L20,293ZM34,286L48,286L48,293L34,293ZM62,286L76,286L76,293L62,293ZM83,286L97,286L97,293L83,293ZM104,286L111,286L111,293L104,293ZM118,286L125,286L125,293L118,293ZM139,286L146,286L146,293L139,293ZM153,286L160,286L160,293L153,293ZM181,286L188,286L188,293L181,293ZM202,286L209,286L209,293L202,293ZM258,286L265,286L265,293L258,293ZM286,286L300,286L300,293L286,293ZM307,286L321,286L321,293L307,293ZM335,286L349,286L349,293L335,293ZM384,286L405,286L405,293L384,293ZM27,293L34,293L34,300L27,300ZM48,293L62,293L62,300L48,300ZM76,293L83,293L83,300L76,300ZM97,293L104,293L104,300L97,300ZM118,293L125,293L125,300L118,300ZM132,293L153,293L153,300L132,300ZM167,293L195,293L195,300L167,300ZM209,293L216,293L216,300L209,300ZM237,293L244,293L244,300L237,300ZM300,293L307,293L307,300L300,300ZM314,293L328,293L328,300L314,300ZM335,293L342,293L342,300L335,300ZM356,293L384,293L384,300L356,300ZM391,293L398,293L398,300L391,300ZM405,293L419,293L419,300L405,300ZM20,300L41,300L41,307L20,307ZM55,300L69,300L69,307L55,307ZM76,300L90,300L90,307L76,307ZM118,300L132,300L132,307L118,307ZM139,300L146,300L146,307L139,307ZM181,300L188,300L188,307L181,307ZM195,300L216,300L216,307L195,307ZM223,300L230,300L230,307L223,307ZM237,300L244,300L244,307L237,307ZM251,300L258,300L258,307L251,307ZM272,300L279,300L279,307L272,307ZM293,300L300,300L300,307L293,307ZM307,300L314,300L314,307L307,307ZM321,300L328,300L328,307L321,307ZM342,300L356,300L356,307L342,307ZM363,300L370,300L370,307L363,307ZM391,300L398,300L398,307L391,307ZM20,307L27,307L27,314L20,314ZM69,307L83,307L83,314L69,314ZM111,307L188,307L188,314L111,314ZM216,307L230,307L230,314L216,314ZM244,307L272,307L272,314L244,314ZM293,307L321,307L321,314L293,314ZM328,307L342,307L342,314L328,314ZM349,307L377,307L377,314L349,314ZM391,307L419,307L419,314L391,314ZM20,314L41,314L41,321L20,321ZM48,314L55,314L55,321L48,321ZM62,314L69,314L69,321L62,321ZM97,314L111,314L111,321L97,321ZM125,314L146,314L146,321L125,321ZM153,314L160,314L160,321L153,321ZM167,314L174,314L174,321L167,321ZM195,314L202,314L202,321L195,321ZM237,314L265,314L265,321L237,321ZM272,314L279,314L279,321L272,321ZM307,314L328,314L328,321L307,321ZM335,314L342,314L342,321L335,321ZM363,314L370,314L370,321L363,321ZM377,314L391,314L391,321L377,321ZM405,314L412,314L412,321L405,321ZM20,321L27,321L27,328L20,328ZM34,321L55,321L55,328L34,328ZM76,321L90,321L90,328L76,328ZM97,321L111,321L111,328L97,328ZM153,321L160,321L160,328L153,328ZM174,321L195,321L195,328L174,328ZM202,321L209,321L209,328L202,328ZM216,321L223,321L223,328L216,328ZM272,321L279,321L279,328L272,328ZM314,321L321,321L321,328L314,328ZM335,321L342,321L342,328L335,328ZM398,321L419,321L419,328L398,328ZM20,328L41,328L41,335L20,335ZM48,328L76,328L76,335L48,335ZM83,328L97,328L97,335L83,335ZM118,328L160,328L160,335L118,335ZM188,328L195,328L195,335L188,335ZM202,328L237,328L237,335L202,335ZM244,328L258,328L258,335L244,335ZM265,328L300,328L300,335L265,335ZM307,328L314,328L314,335L307,335ZM321,328L328,328L328,335L321,335ZM342,328L349,328L349,335L342,335ZM384,328L398,328L398,335L384,335ZM20,335L27,335L27,342L20,342ZM41,335L62,335L62,342L41,342ZM69,335L76,335L76,342L69,342ZM90,335L97,335L97,342L90,342ZM132,335L139,335L139,342L132,342ZM146,335L174,335L174,342L146,342ZM188,335L209,335L209,342L188,342ZM237,335L244,335L244,342L237,342ZM286,335L293,335L293,342L286,342ZM300,335L307,335L307,342L300,342ZM314,335L384,335L384,342L314,342ZM398,335L405,335L405,342L398,342ZM412,335L419,335L419,342L412,342ZM20,342L27,342L27,349L20,349ZM34,342L41,342L41,349L34,349ZM55,342L69,342L69,349L55,349ZM76,342L83,342L83,349L76,349ZM97,342L104,342L104,349L97,349ZM111,342L118,342L118,349L111,349ZM125,342L139,342L139,349L125,349ZM167,342L188,342L188,349L167,349ZM195,342L237,342L237,349L195,349ZM251,342L258,342L258,349L251,349ZM265,342L272,342L272,349L265,349ZM279,342L286,342L286,349L279,349ZM293,342L300,342L300,349L293,349ZM314,342L321,342L321,349L314,349ZM335,342L349,342L349,349L335,349ZM356,342L363,342L363,349L356,349ZM370,342L377,342L377,349L370,349ZM384,342L398,342L398,349L384,349ZM20,349L55,349L55,356L20,356ZM69,349L76,349L76,356L69,356ZM83,349L97,349L97,356L83,356ZM132,349L139,349L139,356L132,356ZM146,349L153,349L153,356L146,356ZM167,349L188,349L188,356L167,356ZM202,349L223,349L223,356L202,356ZM230,349L237,349L237,356L230,356ZM258,349L272,349L272,356L258,356ZM279,349L293,349L293,356L279,356ZM307,349L321,349L321,356L307,356ZM328,349L342,349L342,356L328,356ZM349,349L363,349L363,356L349,356ZM370,349L377,349L377,356L370,356ZM405,349L419,349L419,356L405,356ZM62,356L76,356L76,363L62,363ZM83,356L118,356L118,363L83,363ZM132,356L139,356L139,363L132,363ZM146,356L153,356L153,363L146,363ZM167,356L174,356L174,363L167,363ZM181,356L188,356L188,363L181,363ZM195,356L244,356L244,363L195,363ZM265,356L272,356L272,363L265,363ZM286,356L300,356L300,363L286,363ZM342,356L349,356L349,363L342,363ZM356,356L391,356L391,363L356,363ZM398,356L412,356L412,363L398,363ZM76,363L104,363L104,370L76,370ZM118,363L132,363L132,370L118,370ZM139,363L146,363L146,370L139,370ZM160,363L167,363L167,370L160,370ZM174,363L188,363L188,370L174,370ZM202,363L209,363L209,370L202,370ZM230,363L237,363L237,370L230,370ZM244,363L258,363L258,370L244,370ZM265,363L307,363L307,370L265,370ZM314,363L321,363L321,370L314,370ZM328,363L342,363L342,370L328,370ZM356,363L363,363L363,370L356,370ZM384,363L391,363L391,370L384,370ZM398,363L405,363L405,370L398,370ZM20,370L69,370L69,377L20,377ZM90,370L97,370L97,377L90,377ZM104,370L125,370L125,377L104,377ZM139,370L146,370L146,377L139,377ZM174,370L181,370L181,377L174,377ZM188,370L209,370L209,377L188,377ZM216,370L223,370L223,377L216,377ZM230,370L251,370L251,377L230,377ZM258,370L265,370L265,377L258,377ZM272,370L279,370L279,377L272,377ZM307,370L328,370L328,377L307,377ZM335,370L342,370L342,377L335,377ZM349,370L363,370L363,377L349,377ZM370,370L377,370L377,377L370,377ZM384,370L398,370L398,377L384,377ZM405,370L419,370L419,377L405,377ZM20,377L27,377L27,384L20,384ZM62,377L69,377L69,384L62,384ZM83,377L90,377L90,384L83,384ZM139,377L146,377L146,384L139,384ZM160,377L167,377L167,384L160,384ZM174,377L188,377L188,384L174,384ZM202,377L209,377L209,384L202,384ZM230,377L237,377L237,384L230,384ZM258,377L265,377L265,384L258,384ZM300,377L307,377L307,384L300,384ZM314,377L321,377L321,384L314,384ZM335,377L342,377L342,384L335,384ZM349,377L363,377L363,384L349,384ZM384,377L405,377L405,384L384,384ZM412,377L419,377L419,384L412,384ZM20,384L27,384L27,391L20,391ZM34,384L55,384L55,391L34,391ZM62,384L69,384L69,391L62,391ZM76,384L90,384L90,391L76,391ZM104,384L132,384L132,391L104,391ZM139,384L153,384L153,391L139,391ZM181,384L188,384L188,391L181,391ZM195,384L244,384L244,391L195,391ZM251,384L293,384L293,391L251,391ZM300,384L314,384L314,391L300,391ZM328,384L335,384L335,391L328,391ZM342,384L349,384L349,391L342,391ZM356,384L391,384L391,391L356,391ZM405,384L412,384L412,391L405,391ZM20,391L27,391L27,398L20,398ZM34,391L55,391L55,398L34,398ZM62,391L69,391L69,398L62,398ZM76,391L104,391L104,398L76,398ZM125,391L132,391L132,398L125,398ZM153,391L167,391L167,398L153,398ZM174,391L181,391L181,398L174,398ZM188,391L216,391L216,398L188,398ZM223,391L237,391L237,398L223,398ZM251,391L265,391L265,398L251,398ZM272,391L335,391L335,398L272,398ZM356,391L370,391L370,398L356,398ZM377,391L384,391L384,398L377,398ZM391,391L412,391L412,398L391,398ZM20,398L27,398L27,405L20,405ZM34,398L55,398L55,405L34,405ZM62,398L69,398L69,405L62,405ZM76,398L90,398L90,405L76,405ZM111,398L139,398L139,405L111,405ZM146,398L153,398L153,405L146,405ZM167,398L181,398L181,405L167,405ZM209,398L216,398L216,405L209,405ZM244,398L251,398L251,405L244,405ZM272,398L293,398L293,405L272,405ZM314,398L321,398L321,405L314,405ZM342,398L377,398L377,405L342,405ZM20,405L27,405L27,412L20,412ZM62,405L69,405L69,412L62,412ZM83,405L90,405L90,412L83,412ZM97,405L111,405L111,412L97,412ZM125,405L146,405L146,412L125,412ZM167,405L195,405L195,412L167,412ZM244,405L258,405L258,412L244,412ZM265,405L272,405L272,412L265,412ZM300,405L307,405L307,412L300,412ZM314,405L328,405L328,412L314,412ZM349,405L356,405L356,412L349,412ZM384,405L419,405L419,412L384,412ZM20,412L69,412L69,419L20,419ZM104,412L111,412L111,419L104,419ZM125,412L167,412L167,419L125,419ZM181,412L188,412L188,419L181,419ZM202,412L209,412L209,419L202,419ZM237,412L244,412L244,419L237,419ZM265,412L293,412L293,419L265,419ZM307,412L314,412L314,419L307,419ZM321,412L328,412L328,419L321,419ZM335,412L363,412L363,419L335,419ZM391,412L412,412L412,419L391,419Z"/></svg>
