<?xml version="1.0"?>
<svg xmlns="http://www.w3.org/2000/svg" xmlns:xlink="http://www.w3.org/1999/xlink" version="1.1" width="440px" height="440px" viewBox="0 0 440 440"><rect x="0" y="0" width="440" height="440" fill="#ffffff" fill-opacity="1"/><path fill="#000000" fill-opacity="1" d="M20,20L69,20L69,27L20,27ZM76,20L83,20L83,27L76,27ZM90,20L118,20L118,27L90,27ZM132,20L139,20L139,27L132,27ZM146,20L160,20L160,27L146,27ZM167,20L237,20L237,27L167,27ZM265,20L272,20L272,27L265,27ZM279,20L286,20L286,27L279,27ZM293,20L314,20L314,27L293,27ZM328,20L335,20L335,27L328,27ZM342,20L356,20L356,27L342,27ZM370,20L419,20L419,27L370,27ZM20,27L27,27L27,34L20,34ZM62,27L69,27L69,34L62,34ZM76,27L83,27L83,34L76,34ZM104,27L125,27L125,34L104,34ZM153,27L160,27L160,34L153,34ZM181,27L195,27L195,34L181,34ZM223,27L230,27L230,34L223,34ZM237,27L258,27L258,34L237,34ZM286,27L293,27L293,34L286,34ZM307,27L314,27L314,34L307,34ZM349,27L356,27L356,34L349,34ZM370,27L377,27L377,34L370,34ZM412,27L419,27L419,34L412,34ZM20,34L27,34L27,41L20,41ZM34,34L55,34L55,41L34,41ZM62,34L69,34L69,41L62,41ZM76,34L83,34L83,41L76,41ZM90,34L132,34L132,41L90,41ZM146,34L167,34L167,41L146,41ZM209,34L216,34L216,41L209,41ZM237,34L251,34L251,41L237,41ZM265,34L286,34L286,41L265,41ZM314,34L356,34L356,41L314,41ZM370,34L377,34L377,41L370,41ZM384,34L405,34L405,41L384,41ZM412,34L419,34L419,41L412,41ZM20,41L27,41L27,48L20,48ZM34,41L55,41L55,48L34,48ZM62,41L69,41L69,48L62,48ZM90,41L111,41L111,48L90,48ZM132,41L153,41L153,48L132,48ZM160,41L181,41L181,48L160,48ZM195,41L216,41L216,48L195,48ZM230,41L237,41L237,48L230,48ZM244,41L251,41L251,48L244,48ZM286,41L293,41L293,48L286,48ZM307,41L314,41L314,48L307,48ZM321,41L342,41L342,48L321,48ZM349,41L356,41L356,48L349,48ZM370,41L377,41L377,48L370,48ZM384,41L405,41L405,48L384,48ZM412,41L419,41L419,48L412,48ZM20,48L27,48L27,55L20,55ZM34,48L55,48L55,55L34,55ZM62,48L69,48L69,55L62,55ZM83,48L90,48L90,55L83,55ZM104,48L111,48L111,55L104,55ZM146,48L153,48L153,55L146,55ZM174,48L188,48L188,55L174,55ZM202,48L237,48L237,55L202,55ZM258,48L265,48L265,55L258,55ZM272,48L279,48L279,55L272,55ZM300,48L321,48L321,55L300,55ZM328,48L335,48L335,55L328,55ZM349,48L356,48L356,55L349,55ZM370,48L377,48L377,55L370,55ZM384,48L405,48L405,55L384,55ZM412,48L419,48L419,55L412,55ZM20,55L27,55L27,62L20,62ZM62,55L69,55L69,62L62,62ZM76,55L83,55L83,62L76,62ZM90,55L111,55L111,62L90,62ZM125,55L132,55L132,62L125,62ZM139,55L160,55L160,62L139,62ZM181,55L195,55L195,62L181,62ZM202,55L209,55L209,62L202,62ZM230,55L237,55L237,62L230,62ZM244,55L251,55L251,62L244,62ZM258,55L265,55L265,62L258,62ZM272,55L279,55L279,62L272,62ZM286,55L300,55L300,62L286,62ZM314,55L321,55L321,62L314,62ZM335,55L349,55L349,62L335,62ZM370,55L377,55L377,62L370,62ZM412,55L419,55L419,62L412,62ZM20,62L69,62L69,69L20,69ZM76,62L83,62L83,69L76,69ZM90,62L97,62L97,69L90,69ZM104,62L111,62L111,69L104,69ZM118,62L125,62L125,69L118,69ZM132,62L139,62L139,69L132,69ZM146,62L153,62L153,69L146,69ZM160,62L167,62L167,69L160,69ZM174,62L181,62L181,69L174,69ZM188,62L195,62L195,69L188,69ZM202,62L209,62L209,69L202,69ZM216,62L223,62L223,69L216,69ZM230,62L237,62L237,69L230,69ZM244,62L251,62L251,69L244,69ZM258,62L265,62L265,69L258,69ZM272,62L279,62L279,69L272,69ZM286,62L293,62L293,69L286,69ZM300,62L307,62L307,69L300,69ZM314,62L321,62L321,69L314,69ZM328,62L335,62L335,69L328,69ZM342,62L349,62L349,69L342,69ZM356,62L363,62L363,69L356,69ZM370,62L419,62L419,69L370,69ZM76,69L83,69L83,76L76,76ZM90,69L111,69L111,76L90,76ZM125,69L139,69L139,76L125,76ZM202,69L209,69L209,76L202,76ZM230,69L237,69L237,76L230,76ZM258,69L265,69L265,76L258,76ZM293,69L307,69L307,76L293,76ZM314,69L321,69L321,76L314,76ZM328,69L342,69L342,76L328,76ZM356,69L363,69L363,76L356,76ZM34,76L55,76L55,83L34,83ZM62,76L69,76L69,83L62,83ZM76,76L97,76L97,83L76,83ZM111,76L125,76L125,83L111,83ZM132,76L160,76L160,83L132,83ZM167,76L174,76L174,83L167,83ZM188,76L244,76L244,83L188,83ZM279,76L300,76L300,83L279,83ZM307,76L314,76L314,83L307,83ZM321,76L328,76L328,83L321,83ZM342,76L349,76L349,83L342,83ZM363,76L384,76L384,83L363,83ZM398,76L419,76L419,83L398,83ZM41,83L62,83L62,90L41,90ZM69,83L83,83L83,90L69,90ZM97,83L104,83L104,90L97,90ZM111,83L118,83L118,90L111,90ZM139,83L181,83L181,90L139,90ZM188,83L195,83L195,90L188,90ZM202,83L209,83L209,90L202,90ZM216,83L237,83L237,90L216,90ZM244,83L286,83L286,90L244,90ZM300,83L314,83L314,90L300,90ZM321,83L342,83L342,90L321,90ZM356,83L370,83L370,90L356,90ZM384,83L419,83L419,90L384,90ZM27,90L34,90L34,97L27,97ZM41,90L55,90L55,97L41,97ZM62,90L69,90L69,97L62,97ZM97,90L104,90L104,97L97,97ZM125,90L132,90L132,97L125,97ZM146,90L153,90L153,97L146,97ZM160,90L167,90L167,97L160,97ZM181,90L188,90L188,97L181,97ZM195,90L202,90L202,97L195,97ZM209,90L216,90L216,97L209,97ZM223,90L251,90L251,97L223,97ZM272,90L300,90L300,97L272,97ZM307,90L321,90L321,97L307,97ZM27,97L34,97L34,104L27,104ZM41,97L62,97L62,104L41,104ZM90,97L97,97L97,104L90,104ZM118,97L139,97L139,104L118,104ZM181,97L195,97L195,104L181,104ZM209,97L216,97L216,104L209,104ZM230,97L237,97L237,104L230,104ZM258,97L265,97L265,104L258,104ZM272,97L286,97L286,104L272,104ZM293,97L300,97L300,104L293,104ZM307,97L335,97L335,104L307,104ZM349,97L370,97L370,104L349,104ZM377,97L384,97L384,104L377,104ZM391,97L419,97L419,104L391,104ZM20,104L27,104L27,111L20,111ZM34,104L48,104L48,111L34,111ZM55,104L76,104L76,111L55,111ZM90,104L97,104L97,111L90,111ZM104,104L111,104L111,111L104,111ZM132,104L153,104L153,111L132,111ZM160,104L174,104L174,111L160,111ZM181,104L202,104L202,111L181,111ZM230,104L244,104L244,111L230,111ZM251,104L265,104L265,111L251,111ZM286,104L307,104L307,111L286,111ZM342,104L363,104L363,111L342,111ZM370,104L391,104L391,111L370,111ZM398,104L405,104L405,111L398,111ZM20,111L27,111L27,118L20,118ZM55,111L62,111L62,118L55,118ZM69,111L76,111L76,118L69,118ZM83,111L90,111L90,118L83,118ZM97,111L104,111L104,118L97,118ZM111,111L118,111L118,118L111,118ZM132,111L139,111L139,118L132,118ZM146,111L153,111L153,118L146,118ZM167,111L188,111L188,118L167,118ZM195,111L230,111L230,118L195,118ZM237,111L244,111L244,118L237,118ZM251,111L258,111L258,118L251,118ZM265,111L272,111L272,118L265,118ZM300,111L342,111L342,118L300,118ZM356,111L419,111L419,118L356,118ZM20,118L41,118L41,125L20,125ZM48,118L69,118L69,125L48,125ZM83,118L97,118L97,125L83,125ZM118,118L132,118L132,125L118,125ZM139,118L146,118L146,125L139,125ZM153,118L160,118L160,125L153,125ZM167,118L181,118L181,125L167,125ZM195,118L202,118L202,125L195,125ZM216,118L230,118L230,125L216,125ZM237,118L244,118L244,125L237,125ZM258,118L265,118L265,125L258,125ZM272,118L286,118L286,125L272,125ZM293,118L300,118L300,125L293,125ZM307,118L321,118L321,125L307,125ZM335,118L342,118L342,125L335,125ZM349,118L356,118L356,125L349,125ZM363,118L370,118L370,125L363,125ZM405,118L419,118L419,125L405,125ZM20,125L41,125L41,132L20,132ZM76,125L97,125L97,132L76,132ZM104,125L111,125L111,132L104,132ZM125,125L174,125L174,132L125,132ZM188,125L202,125L202,132L188,132ZM209,125L223,125L223,132L209,132ZM237,125L251,125L251,132L237,132ZM265,125L272,125L272,132L265,132ZM279,125L286,125L286,132L279,132ZM300,125L307,125L307,132L300,132ZM314,125L328,125L328,132L314,132ZM335,125L342,125L342,132L335,132ZM356,125L363,125L363,132L356,132ZM391,125L405,125L405,132L391,132ZM412,125L419,125L419,132L412,132ZM27,132L34,132L34,139L27,139ZM41,132L55,132L55,139L41,139ZM62,132L76,132L76,139L62,139ZM97,132L104,132L104,139L97,139ZM132,132L139,132L139,139L132,139ZM153,132L160,132L160,139L153,139ZM167,132L174,132L174,139L167,139ZM181,132L188,132L188,139L181,139ZM209,132L237,132L237,139L209,139ZM251,132L258,132L258,139L251,139ZM265,132L279,132L279,139L265,139ZM286,132L293,132L293,139L286,139ZM307,132L314,132L314,139L307,139ZM342,132L356,132L356,139L342,139ZM363,132L405,132L405,139L363,139ZM20,139L27,139L27,146L20,146ZM41,139L62,139L62,146L41,146ZM83,139L132,139L132,146L83,146ZM153,139L167,139L167,146L153,146ZM174,139L181,139L181,146L174,146ZM202,139L209,139L209,146L202,146ZM223,139L251,139L251,146L223,146ZM265,139L279,139L279,146L265,146ZM293,139L342,139L342,146L293,146ZM349,139L356,139L356,146L349,146ZM363,139L377,139L377,146L363,146ZM384,139L391,139L391,146L384,146ZM398,139L405,139L405,146L398,146ZM27,146L41,146L41,153L27,153ZM62,146L69,146L69,153L62,153ZM83,146L111,146L111,153L83,153ZM125,146L132,146L132,153L125,153ZM146,146L160,146L160,153L146,153ZM181,146L188,146L188,153L181,153ZM195,146L202,146L202,153L195,153ZM244,146L258,146L258,153L244,153ZM279,146L286,146L286,153L279,153ZM307,146L321,146L321,153L307,153ZM335,146L342,146L342,153L335,153ZM363,146L384,146L384,153L363,153ZM391,146L398,146L398,153L391,153ZM412,146L419,146L419,153L412,153ZM20,153L27,153L27,160L20,160ZM34,153L48,153L48,160L34,160ZM83,153L104,153L104,160L83,160ZM111,153L118,153L118,160L111,160ZM125,153L132,153L132,160L125,160ZM139,153L160,153L160,160L139,160ZM174,153L181,153L181,160L174,160ZM188,153L216,153L216,160L188,160ZM237,153L258,153L258,160L237,160ZM272,153L279,153L279,160L272,160ZM300,153L307,153L307,160L300,160ZM314,153L321,153L321,160L314,160ZM335,153L342,153L342,160L335,160ZM349,153L370,153L370,160L349,160ZM384,153L391,153L391,160L384,160ZM398,153L405,153L405,160L398,160ZM412,153L419,153L419,160L412,160ZM20,160L34,160L34,167L20,167ZM48,160L76,160L76,167L48,167ZM90,160L97,160L97,167L90,167ZM104,160L111,160L111,167L104,167ZM118,160L125,160L125,167L118,167ZM139,160L160,160L160,167L139,167ZM188,160L209,160L209,167L188,167ZM216,160L244,160L244,167L216,167ZM251,160L272,160L272,167L251,167ZM279,160L300,160L300,167L279,167ZM307,160L314,160L314,167L307,167ZM321,160L328,160L328,167L321,167ZM342,160L356,160L356,167L342,167ZM370,160L377,160L377,167L370,167ZM405,160L412,160L412,167L405,167ZM20,167L48,167L48,174L20,174ZM69,167L83,167L83,174L69,174ZM90,167L111,167L111,174L90,174ZM118,167L125,167L125,174L118,174ZM132,167L153,167L153,174L132,174ZM167,167L181,167L181,174L167,174ZM209,167L223,167L223,174L209,174ZM230,167L237,167L237,174L230,174ZM258,167L265,167L265,174L258,174ZM286,167L307,167L307,174L286,174ZM314,167L342,167L342,174L314,174ZM349,167L356,167L356,174L349,174ZM384,167L405,167L405,174L384,174ZM20,174L41,174L41,181L20,181ZM48,174L55,174L55,181L48,181ZM62,174L69,174L69,181L62,181ZM76,174L104,174L104,181L76,181ZM139,174L146,174L146,181L139,181ZM153,174L160,174L160,181L153,181ZM195,174L209,174L209,181L195,181ZM223,174L237,174L237,181L223,181ZM244,174L251,174L251,181L244,181ZM258,174L265,174L265,181L258,181ZM279,174L286,174L286,181L279,181ZM307,174L321,174L321,181L307,181ZM349,174L363,174L363,181L349,181ZM370,174L384,174L384,181L370,181ZM405,174L412,174L412,181L405,181ZM34,181L41,181L41,188L34,188ZM48,181L62,181L62,188L48,188ZM69,181L132,181L132,188L69,188ZM160,181L174,181L174,188L160,188ZM195,181L223,181L223,188L195,188ZM244,181L258,181L258,188L244,188ZM265,181L272,181L272,188L265,188ZM279,181L286,181L286,188L279,188ZM300,181L307,181L307,188L300,188ZM314,181L321,181L321,188L314,188ZM328,181L335,181L335,188L328,188ZM349,181L363,181L363,188L349,188ZM391,181L405,181L405,188L391,188ZM412,181L419,181L419,188L412,188ZM20,188L76,188L76,195L20,195ZM83,188L97,188L97,195L83,195ZM118,188L125,188L125,195L118,195ZM139,188L153,188L153,195L139,195ZM167,188L174,188L174,195L167,195ZM181,188L188,188L188,195L181,195ZM195,188L209,188L209,195L195,195ZM216,188L237,188L237,195L216,195ZM258,188L272,188L272,195L258,195ZM286,188L293,188L293,195L286,195ZM307,188L314,188L314,195L307,195ZM321,188L349,188L349,195L321,195ZM356,188L384,188L384,195L356,195ZM391,188L405,188L405,195L391,195ZM412,188L419,188L419,195L412,195ZM20,195L27,195L27,202L20,202ZM34,195L62,195L62,202L34,202ZM69,195L104,195L104,202L69,202ZM111,195L125,195L125,202L111,202ZM132,195L153,195L153,202L132,202ZM167,195L181,195L181,202L167,202ZM188,195L202,195L202,202L188,202ZM209,195L216,195L216,202L209,202ZM223,195L230,195L230,202L223,202ZM244,195L265,195L265,202L244,202ZM272,195L286,195L286,202L272,202ZM300,195L307,195L307,202L300,202ZM314,195L321,195L321,202L314,202ZM328,195L349,195L349,202L328,202ZM384,195L391,195L391,202L384,202ZM398,195L405,195L405,202L398,202ZM412,195L419,195L419,202L412,202ZM27,202L41,202L41,209L27,209ZM48,202L83,202L83,209L48,209ZM97,202L104,202L104,209L97,209ZM125,202L132,202L132,209L125,209ZM160,202L188,202L188,209L160,209ZM195,202L237,202L237,209L195,209ZM244,202L258,202L258,209L244,209ZM265,202L279,202L279,209L265,209ZM293,202L300,202L300,209L293,209ZM307,202L328,202L328,209L307,209ZM342,202L391,202L391,209L342,209ZM398,202L405,202L405,209L398,209ZM20,209L27,209L27,216L20,216ZM41,209L55,209L55,216L41,216ZM76,209L83,209L83,216L76,216ZM125,209L132,209L132,216L125,216ZM160,209L167,209L167,216L160,216ZM174,209L181,209L181,216L174,216ZM195,209L209,209L209,216L195,216ZM230,209L237,209L237,216L230,216ZM265,209L272,209L272,216L265,216ZM293,209L300,209L300,216L293,216ZM307,209L321,209L321,216L307,216ZM328,209L335,209L335,216L328,216ZM349,209L363,209L363,216L349,216ZM384,209L391,209L391,216L384,216ZM398,209L419,209L419,216L398,216ZM34,216L55,216L55,223L34,223ZM62,216L69,216L69,223L62,223ZM76,216L83,216L83,223L76,223ZM104,216L111,216L111,223L104,223ZM125,216L132,216L132,223L125,223ZM139,216L146,216L146,223L139,223ZM153,216L160,216L160,223L153,223ZM195,216L209,216L209,223L195,223ZM216,216L223,216L223,223L216,223ZM230,216L237,216L237,223L230,223ZM265,216L307,216L307,223L265,223ZM321,216L328,216L328,223L321,223ZM335,216L349,216L349,223L335,223ZM356,216L363,216L363,223L356,223ZM370,216L377,216L377,223L370,223ZM384,216L391,216L391,223L384,223ZM398,216L405,216L405,223L398,223ZM27,223L55,223L55,230L27,230ZM76,223L97,223L97,230L76,230ZM104,223L111,223L111,230L104,230ZM125,223L132,223L132,230L125,230ZM139,223L153,223L153,230L139,230ZM160,223L188,223L188,230L160,230ZM202,223L209,223L209,230L202,230ZM230,223L237,223L237,230L230,230ZM251,223L258,223L258,230L251,230ZM272,223L279,223L279,230L272,230ZM286,223L293,223L293,230L286,230ZM300,223L314,223L314,230L300,230ZM321,223L342,223L342,230L321,230ZM356,223L363,223L363,230L356,230ZM384,223L405,223L405,230L384,230ZM20,230L27,230L27,237L20,237ZM41,230L83,230L83,237L41,237ZM90,230L104,230L104,237L90,237ZM111,230L118,230L118,237L111,237ZM125,230L132,230L132,237L125,237ZM139,230L146,230L146,237L139,237ZM167,230L174,230L174,237L167,237ZM202,230L237,230L237,237L202,237ZM251,230L258,230L258,237L251,237ZM265,230L279,230L279,237L265,237ZM293,230L300,230L300,237L293,237ZM314,230L321,230L321,237L314,237ZM356,230L391,230L391,237L356,237ZM405,230L412,230L412,237L405,237ZM34,237L48,237L48,244L34,244ZM55,237L62,237L62,244L55,244ZM69,237L97,237L97,244L69,244ZM104,237L111,237L111,244L104,244ZM139,237L153,237L153,244L139,244ZM160,237L167,237L167,244L160,244ZM209,237L237,237L237,244L209,244ZM244,237L251,237L251,244L244,244ZM272,237L286,237L286,244L272,244ZM293,237L321,237L321,244L293,244ZM370,237L384,237L384,244L370,244ZM391,237L398,237L398,244L391,244ZM405,237L419,237L419,244L405,244ZM20,244L41,244L41,251L20,251ZM48,244L76,244L76,251L48,251ZM83,244L111,244L111,251L83,251ZM118,244L125,244L125,251L118,251ZM153,244L160,244L160,251L153,251ZM167,244L174,244L174,251L167,251ZM181,244L188,244L188,251L181,251ZM195,244L209,244L209,251L195,251ZM216,244L223,244L223,251L216,251ZM230,244L244,244L244,251L230,251ZM251,244L258,244L258,251L251,251ZM286,244L293,244L293,251L286,251ZM307,244L314,244L314,251L307,251ZM335,244L349,244L349,251L335,251ZM384,244L398,244L398,251L384,251ZM20,251L27,251L27,258L20,258ZM34,251L41,251L41,258L34,258ZM48,251L62,251L62,258L48,258ZM83,251L97,251L97,258L83,258ZM104,251L125,251L125,258L104,258ZM146,251L153,251L153,258L146,258ZM167,251L174,251L174,258L167,258ZM202,251L230,251L230,258L202,258ZM237,251L251,251L251,258L237,258ZM258,251L272,251L272,258L258,258ZM300,251L307,251L307,258L300,258ZM314,251L335,251L335,258L314,258ZM349,251L356,251L356,258L349,258ZM363,251L377,251L377,258L363,258ZM391,251L419,251L419,258L391,258ZM20,258L27,258L27,265L20,265ZM41,258L69,258L69,265L41,265ZM76,258L83,258L83,265L76,265ZM90,258L104,258L104,265L90,265ZM118,258L125,258L125,265L118,265ZM146,258L167,258L167,265L146,265ZM216,258L223,258L223,265L216,265ZM230,258L237,258L237,265L230,265ZM251,258L258,258L258,265L251,265ZM272,258L279,258L279,265L272,265ZM286,258L300,258L300,265L286,265ZM314,258L321,258L321,265L314,265ZM335,258L349,258L349,265L335,265ZM370,258L377,258L377,265L370,265ZM384,258L398,258L398,265L384,265ZM405,258L412,258L412,265L405,265ZM20,265L27,265L27,272L20,272ZM34,265L48,265L48,272L34,272ZM69,265L76,265L76,272L69,272ZM90,265L104,265L104,272L90,272ZM111,265L125,265L125,272L111,272ZM139,265L146,265L146,272L139,272ZM153,265L160,265L160,272L153,272ZM188,265L195,265L195,272L188,272ZM216,265L223,265L223,272L216,272ZM237,265L251,265L251,272L237,272ZM293,265L307,265L307,272L293,272ZM314,265L342,265L342,272L314,272ZM349,265L370,265L370,272L349,272ZM377,265L384,265L384,272L377,272ZM391,265L419,265L419,272L391,272ZM20,272L55,272L55,279L20,279ZM62,272L111,272L111,279L62,279ZM125,272L146,272L146,279L125,279ZM167,272L188,272L188,279L167,279ZM195,272L202,272L202,279L195,279ZM209,272L237,272L237,279L209,279ZM258,272L265,272L265,279L258,279ZM279,272L293,272L293,279L279,279ZM307,272L314,272L314,279L307,279ZM321,272L335,272L335,279L321,279ZM342,272L349,272L349,279L342,279ZM356,272L363,272L363,279L356,279ZM377,272L391,272L391,279L377,279ZM398,272L405,272L405,279L398,279ZM20,279L27,279L27,286L20,286ZM90,279L118,279L118,286L90,286ZM125,279L132,279L132,286L125,286ZM139,279L153,279L153,286L139,286ZM160,279L167,279L167,286L160,286ZM195,279L202,279L202,286L195,286ZM216,279L230,279L230,286L216,286ZM237,279L244,279L244,286L237,286ZM251,279L265,279L265,286L251,286ZM286,279L293,279L293,286L286,286ZM300,279L307,279L307,286L300,286ZM314,279L321,279L321,286L314,286ZM328,279L342,279L342,286L328,286ZM349,279L356,279L356,286L349,286ZM363,279L384,279L384,286L363,286ZM391,279L405,279L405,286L391,286ZM412,279L419,279L419,286L412,286ZM48,286L69,286L69,293L48,293ZM76,286L97,286L97,293L76,293ZM104,286L125,286L125,293L104,293ZM139,286L146,286L146,293L139,293ZM174,286L188,286L188,293L174,293ZM202,286L209,286L209,293L202,293ZM223,286L230,286L230,293L223,293ZM258,286L272,286L272,293L258,293ZM279,286L286,286L286,293L279,293ZM293,286L300,286L300,293L293,293ZM307,286L321,286L321,293L307,293ZM384,286L405,286L405,293L384,293ZM20,293L27,293L27,300L20,300ZM41,293L62,293L62,300L41,300ZM97,293L111,293L111,300L97,300ZM118,293L125,293L125,300L118,300ZM132,293L160,293L160,300L132,300ZM167,293L174,293L174,300L167,300ZM181,293L195,293L195,300L181,300ZM209,293L216,293L216,300L209,300ZM237,293L244,293L244,300L237,300ZM272,293L279,293L279,300L272,300ZM300,293L321,293L321,300L300,300ZM328,293L342,293L342,300L328,300ZM356,293L384,293L384,300L356,300ZM391,293L398,293L398,300L391,300ZM412,293L419,293L419,300L412,300ZM34,300L76,300L76,307L34,307ZM83,300L90,300L90,307L83,307ZM97,300L104,300L104,307L97,307ZM125,300L132,300L132,307L125,307ZM139,300L146,300L146,307L139,307ZM153,300L167,300L167,307L153,307ZM174,300L188,300L188,307L174,307ZM195,300L216,300L216,307L195,307ZM223,300L244,300L244,307L223,307ZM251,300L258,300L258,307L251,307ZM265,300L279,300L279,307L265,307ZM293,300L300,300L300,307L293,307ZM342,300L349,300L349,307L342,307ZM363,300L370,300L370,307L363,307ZM391,300L398,300L398,307L391,307ZM405,300L412,300L412,307L405,307ZM27,307L34,307L34,314L27,314ZM55,307L62,307L62,314L55,314ZM69,307L76,307L76,314L69,314ZM97,307L153,307L153,314L97,314ZM167,307L188,307L188,314L167,314ZM216,307L223,307L223,314L216,314ZM244,307L265,307L265,314L244,314ZM293,307L342,307L342,314L293,314ZM349,307L377,307L377,314L349,314ZM398,307L419,307L419,314L398,314ZM27,314L34,314L34,321L27,321ZM48,314L69,314L69,321L48,321ZM76,314L83,314L83,321L76,321ZM97,314L111,314L111,321L97,321ZM118,314L146,314L146,321L118,321ZM153,314L181,314L181,321L153,321ZM195,314L202,314L202,321L195,321ZM237,314L279,314L279,321L237,321ZM314,314L321,314L321,321L314,321ZM335,314L349,314L349,321L335,321ZM356,314L370,314L370,321L356,321ZM377,314L398,314L398,321L377,321ZM20,321L34,321L34,328L20,328ZM41,321L62,321L62,328L41,328ZM76,321L90,321L90,328L76,328ZM104,321L125,321L125,328L104,328ZM153,321L209,321L209,328L153,328ZM216,321L223,321L223,328L216,328ZM251,321L258,321L258,328L251,328ZM272,321L279,321L279,328L272,328ZM307,321L342,321L342,328L307,328ZM391,321L419,321L419,328L391,328ZM20,328L27,328L27,335L20,335ZM34,328L48,328L48,335L34,335ZM55,328L69,328L69,335L55,335ZM83,328L97,328L97,335L83,335ZM104,328L111,328L111,335L104,335ZM118,328L125,328L125,335L118,335ZM132,328L174,328L174,335L132,335ZM181,328L188,328L188,335L181,335ZM195,328L209,328L209,335L195,335ZM216,328L223,328L223,335L216,335ZM244,328L251,328L251,335L244,335ZM279,328L307,328L307,335L279,335ZM342,328L349,328L349,335L342,335ZM356,328L363,328L363,335L356,335ZM384,328L398,328L398,335L384,335ZM20,335L27,335L27,342L20,342ZM34,335L62,335L62,342L34,342ZM69,335L76,335L76,342L69,342ZM90,335L97,335L97,342L90,342ZM104,335L111,335L111,342L104,342ZM118,335L125,335L125,342L118,342ZM146,335L153,335L153,342L146,342ZM181,335L216,335L216,342L181,342ZM223,335L230,335L230,342L223,342ZM237,335L244,335L244,342L237,342ZM251,335L279,335L279,342L251,342ZM300,335L307,335L307,342L300,342ZM314,335L321,335L321,342L314,342ZM328,335L356,335L356,342L328,342ZM363,335L384,335L384,342L363,342ZM398,335L405,335L405,342L398,342ZM412,335L419,335L419,342L412,342ZM20,342L27,342L27,349L20,349ZM34,342L41,342L41,349L34,349ZM55,342L83,342L83,349L55,349ZM118,342L125,342L125,349L118,349ZM160,342L167,342L167,349L160,349ZM174,342L188,342L188,349L174,349ZM195,342L202,342L202,349L195,349ZM216,342L230,342L230,349L216,349ZM272,342L279,342L279,349L272,349ZM286,342L300,342L300,349L286,349ZM307,342L314,342L314,349L307,349ZM321,342L328,342L328,349L321,349ZM335,342L349,342L349,349L335,349ZM370,342L377,342L377,349L370,349ZM384,342L398,342L398,349L384,349ZM20,349L55,349L55,356L20,356ZM90,349L97,349L97,356L90,356ZM111,349L118,349L118,356L111,356ZM139,349L146,349L146,356L139,356ZM167,349L195,349L195,356L167,356ZM202,349L209,349L209,356L202,356ZM237,349L251,349L251,356L237,356ZM258,349L265,349L265,356L258,356ZM272,349L293,349L293,356L272,356ZM307,349L328,349L328,356L307,356ZM335,349L342,349L342,356L335,356ZM356,349L363,349L363,356L356,356ZM370,349L377,349L377,356L370,356ZM398,349L419,349L419,356L398,356ZM62,356L69,356L69,363L62,363ZM76,356L90,356L90,363L76,363ZM111,356L118,356L118,363L111,363ZM132,356L146,356L146,363L132,363ZM153,356L160,356L160,363L153,363ZM174,356L244,356L244,363L174,363ZM258,356L279,356L279,363L258,363ZM286,356L300,356L300,363L286,363ZM342,356L349,356L349,363L342,363ZM356,356L412,356L412,363L356,363ZM76,363L160,363L160,370L76,370ZM167,363L188,363L188,370L167,370ZM202,363L209,363L209,370L202,370ZM230,363L237,363L237,370L230,370ZM258,363L265,363L265,370L258,370ZM272,363L342,363L342,370L272,370ZM349,363L363,363L363,370L349,370ZM384,363L405,363L405,370L384,370ZM20,370L69,370L69,377L20,377ZM83,370L97,370L97,377L83,377ZM104,370L118,370L118,377L104,377ZM160,370L167,370L167,377L160,377ZM174,370L181,370L181,377L174,377ZM188,370L209,370L209,377L188,377ZM216,370L223,370L223,377L216,377ZM230,370L237,370L237,377L230,377ZM244,370L272,370L272,377L244,377ZM335,370L342,370L342,377L335,377ZM349,370L363,370L363,377L349,377ZM370,370L377,370L377,377L370,377ZM384,370L391,370L391,377L384,377ZM405,370L419,370L419,377L405,377ZM20,377L27,377L27,384L20,384ZM62,377L69,377L69,384L62,384ZM83,377L90,377L90,384L83,384ZM97,377L104,377L104,384L97,384ZM132,377L139,377L139,384L132,384ZM153,377L160,377L160,384L153,384ZM167,377L174,377L174,384L167,384ZM188,377L195,377L195,384L188,384ZM202,377L209,377L209,384L202,384ZM230,377L237,377L237,384L230,384ZM244,377L251,377L251,384L244,384ZM258,377L272,377L272,384L258,384ZM300,377L328,377L328,384L300,384ZM335,377L342,377L342,384L335,384ZM356,377L363,377L363,384L356,384ZM384,377L405,377L405,384L384,384ZM412,377L419,377L419,384L412,384ZM20,384L27,384L27,391L20,391ZM34,384L55,384L55,391L34,391ZM62,384L69,384L69,391L62,391ZM76,384L90,384L90,391L76,391ZM104,384L125,384L125,391L104,391ZM167,384L174,384L174,391L167,391ZM195,384L265,384L265,391L195,391ZM272,384L293,384L293,391L272,391ZM300,384L307,384L307,391L300,391ZM321,384L328,384L328,391L321,391ZM342,384L349,384L349,391L342,391ZM356,384L412,384L412,391L356,391ZM20,391L27,391L27,398L20,398ZM34,391L55,391L55,398L34,398ZM62,391L69,391L69,398L62,398ZM76,391L83,391L83,398L76,398ZM97,391L104,391L104,398L97,398ZM132,391L188,391L188,398L132,398ZM195,391L209,391L209,398L195,398ZM216,391L237,391L237,398L216,398ZM244,391L251,391L251,398L244,398ZM265,391L272,391L272,398L265,398ZM279,391L307,391L307,398L279,398ZM314,391L321,391L321,398L314,398ZM328,391L335,391L335,398L328,398ZM356,391L370,391L370,398L356,398ZM377,391L384,391L384,398L377,398ZM391,391L412,391L412,398L391,398ZM20,398L27,398L27,405L20,405ZM34,398L55,398L55,405L34,405ZM62,398L69,398L69,405L62,405ZM76,398L97,398L97,405L76,405ZM111,398L139,398L139,405L111,405ZM146,398L153,398L153,405L146,405ZM167,398L195,398L195,405L167,405ZM202,398L230,398L230,405L202,405ZM244,398L272,398L272,405L244,405ZM279,398L293,398L293,405L279,405ZM307,398L314,398L314,405L307,405ZM321,398L328,398L328,405L321,405ZM342,398L377,398L377,405L342,405ZM20,405L27,405L27,412L20,412ZM62,405L69,405L69,412L62,412ZM83,405L90,405L90,412L83,412ZM97,405L111,405L111,412L97,412ZM125,405L139,405L139,412L125,412ZM146,405L153,405L153,412L146,412ZM167,405L188,405L188,412L167,412ZM202,405L216,405L216,412L202,412ZM223,405L230,405L230,412L223,412ZM237,405L244,405L244,412L237,412ZM258,405L272,405L272,412L258,412ZM314,405L328,405L328,412L314,412ZM349,405L356,405L356,412L349,412ZM384,405L419,405L419,412L384,412ZM20,412L69,412L69,419L20,419ZM90,412L97,412L97,419L90,419ZM104,412L111,412L111,419L104,419ZM125,412L167,412L167,419L125,419ZM181,412L188,412L188,419L181,419ZM195,412L202,412L202,419L195,419ZM209,412L216,412L216,419L209,419ZM230,412L244,412L244,419L230,419ZM251,412L258,412L258,419L251,419ZM265,412L293,412L293,419L265,419ZM307,412L314,412L314,419L307,419ZM321,412L328,412L328,419L321,419ZM335,412L363,412L363,419L335,419ZM405,412L412,412L412,419L405,419Z"/></svg>
