<?xml version="1.0"?>
<svg xmlns="http://www.w3.org/2000/svg" xmlns:xlink="http://www.w3.org/1999/xlink" version="1.1" width="440px" height="440px" viewBox="0 0 440 440"><rect x="0" y="0" width="440" height="440" fill="#ffffff" fill-opacity="1"/><path fill="#000000" fill-opacity="1" d="M20,20L69,20L69,27L20,27ZM76,20L83,20L83,27L76,27ZM111,20L132,20L132,27L111,27ZM139,20L153,20L153,27L139,27ZM160,20L167,20L167,27L160,27ZM202,20L209,20L209,27L202,27ZM223,20L230,20L230,27L223,27ZM258,20L265,20L265,27L258,27ZM272,20L286,20L286,27L272,27ZM300,20L314,20L314,27L300,27ZM328,20L335,20L335,27L328,27ZM342,20L356,20L356,27L342,27ZM370,20L419,20L419,27L370,27ZM20,27L27,27L27,34L20,34ZM62,27L69,27L69,34L62,34ZM76,27L97,27L97,34L76,34ZM104,27L174,27L174,34L104,34ZM209,27L237,27L237,34L209,34ZM244,27L251,27L251,34L244,34ZM258,27L279,27L279,34L258,34ZM293,27L300,27L300,34L293,34ZM307,27L314,27L314,34L307,34ZM335,27L342,27L342,34L335,34ZM349,27L356,27L356,34L349,34ZM370,27L377,27L377,34L370,34ZM412,27L419,27L419,34L412,34ZM20,34L27,34L27,41L20,41ZM34,34L55,34L55,41L34,41ZM62,34L69,34L69,41L62,41ZM76,34L83,34L83,41L76,41ZM90,34L104,34L104,41L90,41ZM160,34L167,34L167,41L160,41ZM174,34L195,34L195,41L174,41ZM230,34L237,34L237,41L230,41ZM244,34L258,34L258,41L244,41ZM272,34L286,34L286,41L272,41ZM300,34L356,34L356,41L300,41ZM370,34L377,34L377,41L370,41ZM384,34L405,34L405,41L384,41ZM412,34L419,34L419,41L412,41ZM20,41L27,41L27,48L20,48ZM34,41L55,41L55,48L34,48ZM62,41L69,41L69,48L62,48ZM83,41L104,41L104,48L83,48ZM118,41L125,41L125,48L118,48ZM132,41L181,41L181,48L132,48ZM195,41L209,41L209,48L195,48ZM216,41L237,41L237,48L216,48ZM251,41L258,41L258,48L251,48ZM286,41L300,41L300,48L286,48ZM321,41L335,41L335,48L321,48ZM349,41L356,41L356,48L349,48ZM370,41L377,41L377,48L370,48ZM384,41L405,41L405,48L384,48ZM412,41L419,41L419,48L412,48ZM20,48L27,48L27,55L20,55ZM34,48L55,48L55,55L34,55ZM62,48L69,48L69,55L62,55ZM90,48L104,48L104,55L90,55ZM111,48L125,48L125,55L111,55ZM146,48L160,48L160,55L146,55ZM181,48L188,48L188,55L181,55ZM202,48L237,48L237,55L202,55ZM244,48L251,48L251,55L244,55ZM265,48L286,48L286,55L265,55ZM300,48L314,48L314,55L300,55ZM328,48L342,48L342,55L328,55ZM349,48L356,48L356,55L349,55ZM370,48L377,48L377,55L370,55ZM384,48L405,48L405,55L384,55ZM412,48L419,48L419,55L412,55ZM20,55L27,55L27,62L20,62ZM62,55L69,55L69,62L62,62ZM76,55L90,55L90,62L76,62ZM97,55L132,55L132,62L97,62ZM139,55L153,55L153,62L139,62ZM160,55L195,55L195,62L160,62ZM202,55L209,55L209,62L202,62ZM230,55L251,55L251,62L230,62ZM258,55L265,55L265,62L258,62ZM272,55L279,55L279,62L272,62ZM286,55L300,55L300,62L286,62ZM307,55L314,55L314,62L307,62ZM335,55L349,55L349,62L335,62ZM370,55L377,55L377,62L370,62ZM412,55L419,55L419,62L412,62ZM20,62L69,62L69,69L20,69ZM76,62L83,62L83,69L76,69ZM90,62L97,62L97,69L90,69ZM104,62L111,62L111,69L104,69ZM118,62L125,62L125,69L118,69ZM132,62L139,62L139,69L132,69ZM146,62L153,62L153,69L146,69ZM160,62L167,62L167,69L160,69ZM174,62L181,62L181,69L174,69ZM188,62L195,62L195,69L188,69ZM202,62L209,62L209,69L202,69ZM216,62L223,62L223,69L216,69ZM230,62L237,62L237,69L230,69ZM244,62L251,62L251,69L244,69ZM258,62L265,62L265,69L258,69ZM272,62L279,62L279,69L272,69ZM286,62L293,62L293,69L286,69ZM300,62L307,62L307,69L300,69ZM314,62L321,62L321,69L314,69ZM328,62L335,62L335,69L328,69ZM342,62L349,62L349,69L342,69ZM356,62L363,62L363,69L356,69ZM370,62L419,62L419,69L370,69ZM76,69L111,69L111,76L76,76ZM118,69L160,69L160,76L118,76ZM167,69L181,69L181,76L167,76ZM202,69L209,69L209,76L202,76ZM230,69L237,69L237,76L230,76ZM258,69L279,69L279,76L258,76ZM293,69L307,69L307,76L293,76ZM314,69L328,69L328,76L314,76ZM342,69L363,69L363,76L342,76ZM34,76L55,76L55,83L34,83ZM62,76L69,76L69,83L62,83ZM76,76L111,76L111,83L76,83ZM125,76L153,76L153,83L125,83ZM160,76L174,76L174,83L160,83ZM181,76L188,76L188,83L181,83ZM195,76L244,76L244,83L195,83ZM265,76L272,76L272,83L265,83ZM279,76L286,76L286,83L279,83ZM293,76L300,76L300,83L293,83ZM307,76L314,76L314,83L307,83ZM335,76L349,76L349,83L335,83ZM363,76L384,76L384,83L363,83ZM398,76L419,76L419,83L398,83ZM27,83L48,83L48,90L27,90ZM69,83L76,83L76,90L69,90ZM90,83L104,83L104,90L90,90ZM111,83L118,83L118,90L111,90ZM132,83L174,83L174,90L132,90ZM202,83L209,83L209,90L202,90ZM223,83L237,83L237,90L223,90ZM244,83L265,83L265,90L244,90ZM272,83L279,83L279,90L272,90ZM293,83L328,83L328,90L293,90ZM342,83L349,83L349,90L342,90ZM356,83L370,83L370,90L356,90ZM384,83L405,83L405,90L384,90ZM27,90L55,90L55,97L27,97ZM62,90L83,90L83,97L62,97ZM97,90L104,90L104,97L97,97ZM118,90L139,90L139,97L118,97ZM146,90L153,90L153,97L146,97ZM160,90L174,90L174,97L160,97ZM188,90L195,90L195,97L188,97ZM209,90L216,90L216,97L209,97ZM237,90L251,90L251,97L237,97ZM265,90L286,90L286,97L265,97ZM307,90L321,90L321,97L307,97ZM335,90L342,90L342,97L335,97ZM349,90L356,90L356,97L349,97ZM41,97L55,97L55,104L41,104ZM69,97L76,97L76,104L69,104ZM90,97L97,97L97,104L90,104ZM111,97L118,97L118,104L111,104ZM132,97L139,97L139,104L132,104ZM174,97L202,97L202,104L174,104ZM216,97L223,97L223,104L216,104ZM251,97L258,97L258,104L251,104ZM272,97L286,97L286,104L272,104ZM293,97L335,97L335,104L293,104ZM356,97L363,97L363,104L356,104ZM377,97L384,97L384,104L377,104ZM398,97L419,97L419,104L398,104ZM20,104L34,104L34,111L20,111ZM41,104L48,104L48,111L41,111ZM55,104L76,104L76,111L55,111ZM90,104L104,104L104,111L90,111ZM111,104L118,104L118,111L111,111ZM125,104L132,104L132,111L125,111ZM139,104L160,104L160,111L139,111ZM167,104L174,104L174,111L167,111ZM181,104L188,104L188,111L181,111ZM195,104L202,104L202,111L195,111ZM209,104L216,104L216,111L209,111ZM230,104L272,104L272,111L230,111ZM286,104L293,104L293,111L286,111ZM300,104L307,104L307,111L300,111ZM342,104L349,104L349,111L342,111ZM356,104L391,104L391,111L356,111ZM20,111L34,111L34,118L20,118ZM41,111L48,111L48,118L41,118ZM55,111L62,111L62,118L55,118ZM69,111L90,111L90,118L69,118ZM104,111L118,111L118,118L104,118ZM132,111L139,111L139,118L132,118ZM146,111L167,111L167,118L146,118ZM195,111L223,111L223,118L195,118ZM230,111L265,111L265,118L230,118ZM272,111L279,111L279,118L272,118ZM293,111L307,111L307,118L293,118ZM314,111L321,111L321,118L314,118ZM328,111L342,111L342,118L328,118ZM356,111L363,111L363,118L356,118ZM377,111L391,111L391,118L377,118ZM398,111L419,111L419,118L398,118ZM20,118L27,118L27,125L20,125ZM34,118L76,118L76,125L34,125ZM97,118L111,118L111,125L97,125ZM118,118L139,118L139,125L118,125ZM160,118L167,118L167,125L160,125ZM174,118L181,118L181,125L174,125ZM209,118L258,118L258,125L209,125ZM279,118L286,118L286,125L279,125ZM321,118L328,118L328,125L321,125ZM335,118L342,118L342,125L335,125ZM349,118L356,118L356,125L349,125ZM391,118L398,118L398,125L391,125ZM405,118L419,118L419,125L405,125ZM20,125L27,125L27,132L20,132ZM41,125L48,125L48,132L41,132ZM55,125L62,125L62,132L55,132ZM69,125L83,125L83,132L69,132ZM90,125L97,125L97,132L90,132ZM104,125L111,125L111,132L104,132ZM118,125L125,125L125,132L118,132ZM139,125L146,125L146,132L139,132ZM167,125L181,125L181,132L167,132ZM195,125L202,125L202,132L195,132ZM209,125L237,125L237,132L209,132ZM251,125L258,125L258,132L251,132ZM265,125L286,125L286,132L265,132ZM300,125L307,125L307,132L300,132ZM314,125L321,125L321,132L314,132ZM335,125L342,125L342,132L335,132ZM356,125L363,125L363,132L356,132ZM377,125L384,125L384,132L377,132ZM391,125L405,125L405,132L391,132ZM412,125L419,125L419,132L412,132ZM20,132L27,132L27,139L20,139ZM34,132L41,132L41,139L34,139ZM48,132L55,132L55,139L48,139ZM62,132L69,132L69,139L62,139ZM83,132L97,132L97,139L83,139ZM111,132L146,132L146,139L111,139ZM174,132L188,132L188,139L174,139ZM209,132L216,132L216,139L209,139ZM223,132L237,132L237,139L223,139ZM244,132L251,132L251,139L244,139ZM258,132L272,132L272,139L258,139ZM286,132L293,132L293,139L286,139ZM307,132L314,132L314,139L307,139ZM342,132L384,132L384,139L342,139ZM41,139L48,139L48,146L41,146ZM55,139L62,139L62,146L55,146ZM69,139L76,139L76,146L69,146ZM90,139L97,139L97,146L90,146ZM104,139L111,139L111,146L104,146ZM118,139L125,139L125,146L118,146ZM132,139L139,139L139,146L132,146ZM167,139L174,139L174,146L167,146ZM181,139L188,139L188,146L181,146ZM195,139L209,139L209,146L195,146ZM237,139L244,139L244,146L237,146ZM251,139L265,139L265,146L251,146ZM293,139L342,139L342,146L293,146ZM349,139L370,139L370,146L349,146ZM377,139L384,139L384,146L377,146ZM391,139L405,139L405,146L391,146ZM27,146L34,146L34,153L27,153ZM55,146L69,146L69,153L55,153ZM76,146L83,146L83,153L76,153ZM97,146L104,146L104,153L97,153ZM125,146L139,146L139,153L125,153ZM146,146L153,146L153,153L146,153ZM167,146L181,146L181,153L167,153ZM188,146L195,146L195,153L188,153ZM202,146L209,146L209,153L202,153ZM230,146L265,146L265,153L230,153ZM272,146L286,146L286,153L272,153ZM335,146L342,146L342,153L335,153ZM370,146L384,146L384,153L370,153ZM412,146L419,146L419,153L412,153ZM20,153L27,153L27,160L20,160ZM41,153L55,153L55,160L41,160ZM76,153L90,153L90,160L76,160ZM104,153L118,153L118,160L104,160ZM132,153L139,153L139,160L132,160ZM146,153L188,153L188,160L146,160ZM195,153L202,153L202,160L195,160ZM216,153L223,153L223,160L216,160ZM230,153L237,153L237,160L230,160ZM265,153L272,153L272,160L265,160ZM300,153L307,153L307,160L300,160ZM314,153L321,153L321,160L314,160ZM328,153L342,153L342,160L328,160ZM349,153L363,153L363,160L349,160ZM391,153L405,153L405,160L391,160ZM412,153L419,153L419,160L412,160ZM20,160L34,160L34,167L20,167ZM48,160L97,160L97,167L48,167ZM104,160L111,160L111,167L104,167ZM118,160L139,160L139,167L118,167ZM153,160L160,160L160,167L153,167ZM174,160L188,160L188,167L174,167ZM202,160L230,160L230,167L202,167ZM237,160L251,160L251,167L237,167ZM265,160L300,160L300,167L265,167ZM307,160L314,160L314,167L307,167ZM342,160L349,160L349,167L342,167ZM363,160L377,160L377,167L363,167ZM398,160L412,160L412,167L398,167ZM20,167L41,167L41,174L20,174ZM69,167L83,167L83,174L69,174ZM90,167L118,167L118,174L90,174ZM125,167L132,167L132,174L125,174ZM167,167L174,167L174,174L167,174ZM181,167L195,167L195,174L181,174ZM202,167L209,167L209,174L202,174ZM216,167L237,167L237,174L216,174ZM244,167L251,167L251,174L244,174ZM265,167L272,167L272,174L265,174ZM279,167L342,167L342,174L279,174ZM356,167L370,167L370,174L356,174ZM377,167L391,167L391,174L377,174ZM398,167L405,167L405,174L398,174ZM20,174L27,174L27,181L20,181ZM34,174L41,174L41,181L34,181ZM55,174L69,174L69,181L55,181ZM76,174L90,174L90,181L76,181ZM97,174L104,174L104,181L97,181ZM111,174L118,174L118,181L111,181ZM125,174L139,174L139,181L125,181ZM146,174L160,174L160,181L146,181ZM167,174L174,174L174,181L167,181ZM181,174L223,174L223,181L181,181ZM230,174L244,174L244,181L230,181ZM279,174L286,174L286,181L279,181ZM307,174L321,174L321,181L307,181ZM349,174L356,174L356,181L349,181ZM363,174L377,174L377,181L363,181ZM391,174L398,174L398,181L391,181ZM405,174L412,174L412,181L405,181ZM34,181L62,181L62,188L34,188ZM69,181L83,181L83,188L69,188ZM90,181L118,181L118,188L90,188ZM132,181L146,181L146,188L132,188ZM160,181L167,181L167,188L160,188ZM181,181L202,181L202,188L181,188ZM216,181L272,181L272,188L216,188ZM293,181L300,181L300,188L293,188ZM307,181L314,181L314,188L307,188ZM321,181L328,181L328,188L321,188ZM335,181L342,181L342,188L335,188ZM356,181L363,181L363,188L356,188ZM412,181L419,181L419,188L412,188ZM20,188L27,188L27,195L20,195ZM48,188L76,188L76,195L48,195ZM83,188L90,188L90,195L83,195ZM111,188L125,188L125,195L111,195ZM132,188L146,188L146,195L132,195ZM153,188L160,188L160,195L153,195ZM167,188L181,188L181,195L167,195ZM188,188L209,188L209,195L188,195ZM223,188L230,188L230,195L223,195ZM244,188L251,188L251,195L244,195ZM265,188L272,188L272,195L265,195ZM279,188L293,188L293,195L279,195ZM300,188L307,188L307,195L300,195ZM342,188L349,188L349,195L342,195ZM356,188L405,188L405,195L356,195ZM412,188L419,188L419,195L412,195ZM27,195L34,195L34,202L27,202ZM48,195L62,195L62,202L48,202ZM69,195L83,195L83,202L69,202ZM97,195L104,195L104,202L97,202ZM111,195L118,195L118,202L111,202ZM153,195L167,195L167,202L153,202ZM188,195L195,195L195,202L188,202ZM209,195L251,195L251,202L209,202ZM258,195L265,195L265,202L258,202ZM272,195L286,195L286,202L272,202ZM293,195L314,195L314,202L293,202ZM328,195L342,195L342,202L328,202ZM384,195L391,195L391,202L384,202ZM398,195L405,195L405,202L398,202ZM20,202L27,202L27,209L20,209ZM48,202L83,202L83,209L48,209ZM104,202L111,202L111,209L104,209ZM125,202L160,202L160,209L125,209ZM167,202L195,202L195,209L167,209ZM202,202L237,202L237,209L202,209ZM244,202L258,202L258,209L244,209ZM265,202L293,202L293,209L265,209ZM300,202L307,202L307,209L300,209ZM314,202L328,202L328,209L314,209ZM335,202L342,202L342,209L335,209ZM349,202L391,202L391,209L349,209ZM398,202L412,202L412,209L398,209ZM20,209L27,209L27,216L20,216ZM41,209L55,209L55,216L41,216ZM76,209L90,209L90,216L76,216ZM97,209L104,209L104,216L97,216ZM132,209L153,209L153,216L132,216ZM174,209L188,209L188,216L174,216ZM202,209L209,209L209,216L202,216ZM230,209L237,209L237,216L230,216ZM258,209L265,209L265,216L258,216ZM272,209L279,209L279,216L272,216ZM307,209L321,209L321,216L307,216ZM335,209L342,209L342,216L335,216ZM349,209L363,209L363,216L349,216ZM384,209L391,209L391,216L384,216ZM398,209L405,209L405,216L398,216ZM412,209L419,209L419,216L412,216ZM34,216L55,216L55,223L34,223ZM62,216L69,216L69,223L62,223ZM76,216L83,216L83,223L76,223ZM97,216L111,216L111,223L97,223ZM125,216L139,216L139,223L125,223ZM146,216L153,216L153,223L146,223ZM195,216L209,216L209,223L195,223ZM216,216L223,216L223,223L216,223ZM230,216L258,216L258,223L230,223ZM265,216L307,216L307,223L265,223ZM321,216L328,216L328,223L321,223ZM342,216L349,216L349,223L342,223ZM356,216L363,216L363,223L356,223ZM370,216L377,216L377,223L370,223ZM384,216L391,216L391,223L384,223ZM398,216L412,216L412,223L398,223ZM20,223L27,223L27,230L20,230ZM34,223L55,223L55,230L34,230ZM76,223L83,223L83,230L76,230ZM90,223L111,223L111,230L90,230ZM125,223L132,223L132,230L125,230ZM139,223L146,223L146,230L139,230ZM160,223L181,223L181,230L160,230ZM202,223L209,223L209,230L202,230ZM230,223L265,223L265,230L230,230ZM272,223L279,223L279,230L272,230ZM286,223L293,223L293,230L286,230ZM300,223L314,223L314,230L300,230ZM321,223L342,223L342,230L321,230ZM356,223L363,223L363,230L356,230ZM384,223L405,223L405,230L384,230ZM20,230L27,230L27,237L20,237ZM41,230L83,230L83,237L41,237ZM111,230L132,230L132,237L111,237ZM146,230L160,230L160,237L146,237ZM174,230L188,230L188,237L174,237ZM202,230L258,230L258,237L202,237ZM293,230L300,230L300,237L293,237ZM314,230L328,230L328,237L314,237ZM356,230L391,230L391,237L356,237ZM412,230L419,230L419,237L412,237ZM27,237L48,237L48,244L27,244ZM55,237L62,237L62,244L55,244ZM69,237L83,237L83,244L69,244ZM104,237L132,237L132,244L104,244ZM139,237L146,237L146,244L139,244ZM153,237L160,237L160,244L153,244ZM188,237L202,237L202,244L188,244ZM216,237L230,237L230,244L216,244ZM258,237L265,237L265,244L258,244ZM272,237L279,237L279,244L272,244ZM300,237L321,237L321,244L300,244ZM335,237L342,237L342,244L335,244ZM363,237L370,237L370,244L363,244ZM377,237L384,237L384,244L377,244ZM391,237L398,237L398,244L391,244ZM405,237L419,237L419,244L405,244ZM20,244L41,244L41,251L20,251ZM55,244L69,244L69,251L55,251ZM83,244L97,244L97,251L83,251ZM104,244L125,244L125,251L104,251ZM132,244L146,244L146,251L132,251ZM153,244L181,244L181,251L153,251ZM188,244L202,244L202,251L188,251ZM230,244L244,244L244,251L230,251ZM251,244L258,244L258,251L251,251ZM265,244L272,244L272,251L265,251ZM279,244L300,244L300,251L279,251ZM307,244L314,244L314,251L307,251ZM342,244L349,244L349,251L342,251ZM363,244L370,244L370,251L363,251ZM391,244L398,244L398,251L391,251ZM34,251L48,251L48,258L34,258ZM55,251L62,251L62,258L55,258ZM76,251L97,251L97,258L76,258ZM104,251L111,251L111,258L104,258ZM118,251L125,251L125,258L118,258ZM132,251L146,251L146,258L132,258ZM174,251L216,251L216,258L174,258ZM223,251L230,251L230,258L223,258ZM244,251L258,251L258,258L244,258ZM286,251L307,251L307,258L286,258ZM314,251L356,251L356,258L314,258ZM370,251L384,251L384,258L370,258ZM398,251L412,251L412,258L398,258ZM20,258L34,258L34,265L20,265ZM41,258L48,258L48,265L41,265ZM55,258L76,258L76,265L55,265ZM90,258L104,258L104,265L90,265ZM118,258L125,258L125,265L118,265ZM139,258L160,258L160,265L139,265ZM167,258L174,258L174,265L167,265ZM181,258L223,258L223,265L181,265ZM230,258L237,258L237,265L230,265ZM251,258L272,258L272,265L251,265ZM279,258L286,258L286,265L279,265ZM314,258L321,258L321,265L314,265ZM363,258L370,258L370,265L363,265ZM384,258L398,258L398,265L384,265ZM405,258L412,258L412,265L405,265ZM41,265L55,265L55,272L41,272ZM69,265L83,265L83,272L69,272ZM90,265L111,265L111,272L90,272ZM132,265L139,265L139,272L132,272ZM146,265L153,265L153,272L146,272ZM174,265L181,265L181,272L174,272ZM188,265L195,265L195,272L188,272ZM216,265L223,265L223,272L216,272ZM237,265L279,265L279,272L237,272ZM300,265L335,265L335,272L300,272ZM356,265L370,265L370,272L356,272ZM377,265L384,265L384,272L377,272ZM398,265L405,265L405,272L398,272ZM412,265L419,265L419,272L412,272ZM20,272L27,272L27,279L20,279ZM34,272L41,272L41,279L34,279ZM48,272L69,272L69,279L48,279ZM83,272L90,272L90,279L83,279ZM97,272L104,272L104,279L97,279ZM111,272L118,272L118,279L111,279ZM125,272L139,272L139,279L125,279ZM153,272L167,272L167,279L153,279ZM181,272L188,272L188,279L181,279ZM202,272L230,272L230,279L202,279ZM244,272L258,272L258,279L244,279ZM265,272L272,272L272,279L265,279ZM279,272L293,272L293,279L279,279ZM321,272L349,272L349,279L321,279ZM363,272L377,272L377,279L363,279ZM384,272L391,272L391,279L384,279ZM398,272L412,272L412,279L398,279ZM27,279L48,279L48,286L27,286ZM125,279L132,279L132,286L125,286ZM167,279L174,279L174,286L167,286ZM202,279L209,279L209,286L202,286ZM216,279L237,279L237,286L216,286ZM251,279L265,279L265,286L251,286ZM279,279L286,279L286,286L279,286ZM300,279L307,279L307,286L300,286ZM328,279L335,279L335,286L328,286ZM356,279L363,279L363,286L356,286ZM370,279L384,279L384,286L370,286ZM398,279L405,279L405,286L398,286ZM34,286L41,286L41,293L34,293ZM48,286L76,286L76,293L48,293ZM83,286L90,286L90,293L83,293ZM97,286L111,286L111,293L97,293ZM118,286L125,286L125,293L118,293ZM139,286L146,286L146,293L139,293ZM153,286L160,286L160,293L153,293ZM167,286L188,286L188,293L167,293ZM223,286L230,286L230,293L223,293ZM237,286L244,286L244,293L237,293ZM272,286L279,286L279,293L272,293ZM286,286L300,286L300,293L286,293ZM307,286L314,286L314,293L307,293ZM335,286L349,286L349,293L335,293ZM356,286L377,286L377,293L356,293ZM384,286L398,286L398,293L384,293ZM405,286L412,286L412,293L405,293ZM20,293L27,293L27,300L20,300ZM55,293L62,293L62,300L55,300ZM69,293L83,293L83,300L69,300ZM97,293L104,293L104,300L97,300ZM132,293L139,293L139,300L132,300ZM146,293L153,293L153,300L146,300ZM181,293L195,293L195,300L181,300ZM202,293L216,293L216,300L202,300ZM237,293L244,293L244,300L237,300ZM279,293L293,293L293,300L279,300ZM314,293L321,293L321,300L314,300ZM335,293L342,293L342,300L335,300ZM349,293L363,293L363,300L349,300ZM377,293L384,293L384,300L377,300ZM391,293L419,293L419,300L391,300ZM20,300L34,300L34,307L20,307ZM41,300L55,300L55,307L41,307ZM62,300L83,300L83,307L62,307ZM111,300L132,300L132,307L111,307ZM139,300L167,300L167,307L139,307ZM188,300L209,300L209,307L188,307ZM216,300L230,300L230,307L216,307ZM237,300L244,300L244,307L237,307ZM251,300L258,300L258,307L251,307ZM265,300L272,300L272,307L265,307ZM286,300L300,300L300,307L286,307ZM307,300L314,300L314,307L307,307ZM321,300L335,300L335,307L321,307ZM356,300L370,300L370,307L356,307ZM377,300L384,300L384,307L377,307ZM34,307L41,307L41,314L34,314ZM48,307L62,307L62,314L48,314ZM83,307L90,307L90,314L83,314ZM118,307L132,307L132,314L118,314ZM146,307L153,307L153,314L146,314ZM160,307L167,307L167,314L160,314ZM174,307L188,307L188,314L174,314ZM209,307L216,307L216,314L209,314ZM230,307L237,307L237,314L230,314ZM244,307L265,307L265,314L244,314ZM272,307L307,307L307,314L272,314ZM314,307L321,307L321,314L314,314ZM328,307L342,307L342,314L328,314ZM349,307L356,307L356,314L349,314ZM363,307L384,307L384,314L363,314ZM398,307L412,307L412,314L398,314ZM20,314L34,314L34,321L20,321ZM48,314L69,314L69,321L48,321ZM76,314L83,314L83,321L76,321ZM118,314L132,314L132,321L118,321ZM139,314L146,314L146,321L139,321ZM167,314L181,314L181,321L167,321ZM195,314L202,314L202,321L195,321ZM223,314L272,314L272,321L223,321ZM314,314L335,314L335,321L314,321ZM363,314L370,314L370,321L363,321ZM384,314L398,314L398,321L384,321ZM405,314L412,314L412,321L405,321ZM20,321L27,321L27,328L20,328ZM55,321L62,321L62,328L55,328ZM76,321L90,321L90,328L76,328ZM97,321L104,321L104,328L97,328ZM118,321L125,321L125,328L118,328ZM132,321L139,321L139,328L132,328ZM181,321L188,321L188,328L181,328ZM195,321L209,321L209,328L195,328ZM216,321L223,321L223,328L216,328ZM230,321L237,321L237,328L230,328ZM258,321L286,321L286,328L258,328ZM307,321L321,321L321,328L307,328ZM335,321L342,321L342,328L335,328ZM377,321L384,321L384,328L377,328ZM398,321L405,321L405,328L398,328ZM412,321L419,321L419,328L412,328ZM48,328L69,328L69,335L48,335ZM83,328L97,328L97,335L83,335ZM125,328L132,328L132,335L125,335ZM139,328L160,328L160,335L139,335ZM188,328L195,328L195,335L188,335ZM202,328L209,328L209,335L202,335ZM216,328L223,328L223,335L216,335ZM244,328L251,328L251,335L244,335ZM265,328L279,328L279,335L265,335ZM286,328L293,328L293,335L286,335ZM342,328L349,328L349,335L342,335ZM356,328L363,328L363,335L356,335ZM384,328L398,328L398,335L384,335ZM405,328L412,328L412,335L405,335ZM34,335L41,335L41,342L34,342ZM48,335L55,335L55,342L48,342ZM69,335L76,335L76,342L69,342ZM90,335L97,335L97,342L90,342ZM111,335L132,335L132,342L111,342ZM146,335L160,335L160,342L146,342ZM167,335L174,335L174,342L167,342ZM181,335L188,335L188,342L181,342ZM195,335L202,335L202,342L195,342ZM223,335L237,335L237,342L223,342ZM251,335L272,335L272,342L251,342ZM293,335L307,335L307,342L293,342ZM314,335L356,335L356,342L314,342ZM363,335L384,335L384,342L363,342ZM391,335L405,335L405,342L391,342ZM412,335L419,335L419,342L412,342ZM20,342L27,342L27,349L20,349ZM34,342L41,342L41,349L34,349ZM55,342L69,342L69,349L55,349ZM76,342L83,342L83,349L76,349ZM97,342L118,342L118,349L97,349ZM139,342L160,342L160,349L139,349ZM230,342L237,342L237,349L230,349ZM251,342L265,342L265,349L251,349ZM272,342L279,342L279,349L272,349ZM286,342L293,342L293,349L286,349ZM335,342L349,342L349,349L335,349ZM370,342L377,342L377,349L370,349ZM384,342L391,342L391,349L384,349ZM20,349L55,349L55,356L20,356ZM76,349L97,349L97,356L76,356ZM111,349L125,349L125,356L111,356ZM146,349L153,349L153,356L146,356ZM167,349L188,349L188,356L167,356ZM195,349L202,349L202,356L195,356ZM209,349L216,349L216,356L209,356ZM223,349L230,349L230,356L223,356ZM244,349L251,349L251,356L244,356ZM258,349L265,349L265,356L258,356ZM272,349L279,349L279,356L272,356ZM307,349L321,349L321,356L307,356ZM335,349L342,349L342,356L335,356ZM370,349L377,349L377,356L370,356ZM391,349L419,349L419,356L391,356ZM62,356L69,356L69,363L62,363ZM76,356L90,356L90,363L76,363ZM104,356L111,356L111,363L104,363ZM118,356L139,356L139,363L118,363ZM167,356L174,356L174,363L167,363ZM181,356L251,356L251,363L181,363ZM279,356L286,356L286,363L279,363ZM293,356L300,356L300,363L293,363ZM321,356L328,356L328,363L321,363ZM342,356L349,356L349,363L342,363ZM356,356L391,356L391,363L356,363ZM405,356L412,356L412,363L405,363ZM76,363L111,363L111,370L76,370ZM118,363L125,363L125,370L118,370ZM132,363L139,363L139,370L132,370ZM146,363L153,363L153,370L146,370ZM167,363L174,363L174,370L167,370ZM181,363L195,363L195,370L181,370ZM202,363L209,363L209,370L202,370ZM230,363L244,363L244,370L230,370ZM258,363L279,363L279,370L258,370ZM293,363L307,363L307,370L293,370ZM314,363L342,363L342,370L314,370ZM349,363L363,363L363,370L349,370ZM384,363L391,363L391,370L384,370ZM398,363L405,363L405,370L398,370ZM20,370L69,370L69,377L20,377ZM83,370L104,370L104,377L83,377ZM111,370L118,370L118,377L111,377ZM125,370L146,370L146,377L125,377ZM153,370L160,370L160,377L153,377ZM167,370L174,370L174,377L167,377ZM181,370L188,370L188,377L181,377ZM195,370L209,370L209,377L195,377ZM216,370L223,370L223,377L216,377ZM230,370L244,370L244,377L230,377ZM265,370L272,370L272,377L265,377ZM279,370L286,370L286,377L279,377ZM307,370L314,370L314,377L307,377ZM335,370L342,370L342,377L335,377ZM349,370L363,370L363,377L349,377ZM370,370L377,370L377,377L370,377ZM384,370L398,370L398,377L384,377ZM405,370L419,370L419,377L405,377ZM20,377L27,377L27,384L20,384ZM62,377L69,377L69,384L62,384ZM97,377L125,377L125,384L97,384ZM132,377L153,377L153,384L132,384ZM160,377L174,377L174,384L160,384ZM188,377L209,377L209,384L188,384ZM230,377L237,377L237,384L230,384ZM244,377L251,377L251,384L244,384ZM258,377L265,377L265,384L258,384ZM279,377L293,377L293,384L279,384ZM300,377L307,377L307,384L300,384ZM314,377L328,377L328,384L314,384ZM335,377L342,377L342,384L335,384ZM356,377L363,377L363,384L356,384ZM384,377L391,377L391,384L384,384ZM398,377L405,377L405,384L398,384ZM412,377L419,377L419,384L412,384ZM20,384L27,384L27,391L20,391ZM34,384L55,384L55,391L34,391ZM62,384L69,384L69,391L62,391ZM76,384L83,384L83,391L76,391ZM104,384L118,384L118,391L104,391ZM125,384L139,384L139,391L125,391ZM167,384L174,384L174,391L167,391ZM188,384L195,384L195,391L188,391ZM202,384L237,384L237,391L202,391ZM244,384L265,384L265,391L244,391ZM286,384L293,384L293,391L286,391ZM300,384L314,384L314,391L300,391ZM328,384L335,384L335,391L328,391ZM342,384L349,384L349,391L342,391ZM356,384L398,384L398,391L356,391ZM405,384L412,384L412,391L405,391ZM20,391L27,391L27,398L20,398ZM34,391L55,391L55,398L34,398ZM62,391L69,391L69,398L62,398ZM76,391L83,391L83,398L76,398ZM90,391L104,391L104,398L90,398ZM111,391L132,391L132,398L111,398ZM139,391L146,391L146,398L139,398ZM153,391L174,391L174,398L153,398ZM195,391L202,391L202,398L195,398ZM209,391L216,391L216,398L209,398ZM230,391L237,391L237,398L230,398ZM244,391L258,391L258,398L244,398ZM272,391L307,391L307,398L272,398ZM321,391L335,391L335,398L321,398ZM342,391L349,391L349,398L342,398ZM356,391L363,391L363,398L356,398ZM398,391L412,391L412,398L398,398ZM20,398L27,398L27,405L20,405ZM34,398L55,398L55,405L34,405ZM62,398L69,398L69,405L62,405ZM76,398L90,398L90,405L76,405ZM125,398L132,398L132,405L125,405ZM146,398L153,398L153,405L146,405ZM174,398L181,398L181,405L174,405ZM195,398L202,398L202,405L195,405ZM216,398L223,398L223,405L216,405ZM237,398L244,398L244,405L237,405ZM251,398L258,398L258,405L251,405ZM279,398L293,398L293,405L279,405ZM314,398L321,398L321,405L314,405ZM342,398L349,398L349,405L342,405ZM356,398L398,398L398,405L356,405ZM20,405L27,405L27,412L20,412ZM62,405L69,405L69,412L62,412ZM83,405L118,405L118,412L83,412ZM139,405L146,405L146,412L139,412ZM167,405L188,405L188,412L167,412ZM195,405L202,405L202,412L195,412ZM216,405L230,405L230,412L216,412ZM244,405L251,405L251,412L244,412ZM258,405L272,405L272,412L258,412ZM314,405L342,405L342,412L314,412ZM349,405L356,405L356,412L349,412ZM377,405L391,405L391,412L377,412ZM405,405L419,405L419,412L405,412ZM20,412L69,412L69,419L20,419ZM90,412L97,412L97,419L90,419ZM139,412L146,412L146,419L139,419ZM153,412L160,412L160,419L153,419ZM174,412L181,412L181,419L174,419ZM188,412L195,412L195,419L188,419ZM202,412L223,412L223,419L202,419ZM251,412L258,412L258,419L251,419ZM265,412L300,412L300,419L265,419ZM307,412L328,412L328,419L307,419ZM342,412L349,412L349,419L342,419ZM356,412L363,412L363,419L356,419ZM398,412L412,412L412,419L398,419Z"/></svg>
