<?xml version="1.0"?>
<svg xmlns="http://www.w3.org/2000/svg" xmlns:xlink="http://www.w3.org/1999/xlink" version="1.1" width="440px" height="440px" viewBox="0 0 440 440"><rect x="0" y="0" width="440" height="440" fill="#ffffff" fill-opacity="1"/><path fill="#000000" fill-opacity="1" d="M20,20L69,20L69,27L20,27ZM76,20L97,20L97,27L76,27ZM104,20L125,20L125,27L104,27ZM139,20L153,20L153,27L139,27ZM167,20L181,20L181,27L167,27ZM195,20L209,20L209,27L195,27ZM216,20L230,20L230,27L216,27ZM237,20L265,20L265,27L237,27ZM272,20L286,20L286,27L272,27ZM293,20L321,20L321,27L293,27ZM328,20L335,20L335,27L328,27ZM342,20L356,20L356,27L342,27ZM370,20L419,20L419,27L370,27ZM20,27L27,27L27,34L20,34ZM62,27L69,27L69,34L62,34ZM76,27L83,27L83,34L76,34ZM90,27L104,27L104,34L90,34ZM125,27L132,27L132,34L125,34ZM139,27L146,27L146,34L139,34ZM153,27L181,27L181,34L153,34ZM202,27L209,27L209,34L202,34ZM230,27L272,27L272,34L230,34ZM307,27L328,27L328,34L307,34ZM349,27L356,27L356,34L349,34ZM370,27L377,27L377,34L370,34ZM412,27L419,27L419,34L412,34ZM20,34L27,34L27,41L20,41ZM34,34L55,34L55,41L34,41ZM62,34L69,34L69,41L62,41ZM76,34L83,34L83,41L76,41ZM104,34L118,34L118,41L104,41ZM132,34L139,34L139,41L132,41ZM146,34L160,34L160,41L146,41ZM167,34L174,34L174,41L167,41ZM181,34L188,34L188,41L181,41ZM216,34L265,34L265,41L216,41ZM272,34L286,34L286,41L272,41ZM293,34L300,34L300,41L293,41ZM307,34L356,34L356,41L307,41ZM370,34L377,34L377,41L370,41ZM384,34L405,34L405,41L384,41ZM412,34L419,34L419,41L412,41ZM20,41L27,41L27,48L20,48ZM34,41L55,41L55,48L34,48ZM62,41L69,41L69,48L62,48ZM97,41L104,41L104,48L97,48ZM118,41L125,41L125,48L118,48ZM153,41L160,41L160,48L153,48ZM181,41L195,41L195,48L181,48ZM202,41L216,41L216,48L202,48ZM230,41L244,41L244,48L230,48ZM258,41L272,41L272,48L258,48ZM286,41L293,41L293,48L286,48ZM321,41L342,41L342,48L321,48ZM349,41L356,41L356,48L349,48ZM370,41L377,41L377,48L370,48ZM384,41L405,41L405,48L384,48ZM412,41L419,41L419,48L412,48ZM20,48L27,48L27,55L20,55ZM34,48L55,48L55,55L34,55ZM62,48L69,48L69,55L62,55ZM104,48L153,48L153,55L104,55ZM160,48L167,48L167,55L160,55ZM188,48L244,48L244,55L188,55ZM265,48L279,48L279,55L265,55ZM300,48L307,48L307,55L300,55ZM328,48L335,48L335,55L328,55ZM349,48L356,48L356,55L349,55ZM370,48L377,48L377,55L370,55ZM384,48L405,48L405,55L384,55ZM412,48L419,48L419,55L412,55ZM20,55L27,55L27,62L20,62ZM62,55L69,55L69,62L62,62ZM76,55L83,55L83,62L76,62ZM90,55L104,55L104,62L90,62ZM111,55L125,55L125,62L111,62ZM167,55L188,55L188,62L167,62ZM195,55L209,55L209,62L195,62ZM230,55L244,55L244,62L230,62ZM251,55L258,55L258,62L251,62ZM272,55L300,55L300,62L272,62ZM307,55L321,55L321,62L307,62ZM335,55L349,55L349,62L335,62ZM370,55L377,55L377,62L370,62ZM412,55L419,55L419,62L412,62ZM20,62L69,62L69,69L20,69ZM76,62L83,62L83,69L76,69ZM90,62L97,62L97,69L90,69ZM104,62L111,62L111,69L104,69ZM118,62L125,62L125,69L118,69ZM132,62L139,62L139,69L132,69ZM146,62L153,62L153,69L146,69ZM160,62L167,62L167,69L160,69ZM174,62L181,62L181,69L174,69ZM188,62L195,62L195,69L188,69ZM202,62L209,62L209,69L202,69ZM216,62L223,62L223,69L216,69ZM230,62L237,62L237,69L230,69ZM244,62L251,62L251,69L244,69ZM258,62L265,62L265,69L258,69ZM272,62L279,62L279,69L272,69ZM286,62L293,62L293,69L286,69ZM300,62L307,62L307,69L300,69ZM314,62L321,62L321,69L314,69ZM328,62L335,62L335,69L328,69ZM342,62L349,62L349,69L342,69ZM356,62L363,62L363,69L356,69ZM370,62L419,62L419,69L370,69ZM76,69L83,69L83,76L76,76ZM104,69L111,69L111,76L104,76ZM125,69L132,69L132,76L125,76ZM153,69L167,69L167,76L153,76ZM188,69L209,69L209,76L188,76ZM230,69L237,69L237,76L230,76ZM251,69L258,69L258,76L251,76ZM272,69L328,69L328,76L272,76ZM356,69L363,69L363,76L356,76ZM34,76L55,76L55,83L34,83ZM62,76L69,76L69,83L62,83ZM76,76L90,76L90,83L76,83ZM104,76L118,76L118,83L104,83ZM132,76L146,76L146,83L132,83ZM160,76L181,76L181,83L160,83ZM195,76L244,76L244,83L195,83ZM258,76L279,76L279,83L258,83ZM286,76L300,76L300,83L286,83ZM335,76L349,76L349,83L335,83ZM356,76L384,76L384,83L356,83ZM398,76L419,76L419,83L398,83ZM27,83L34,83L34,90L27,90ZM48,83L55,83L55,90L48,90ZM76,83L83,83L83,90L76,90ZM97,83L104,83L104,90L97,90ZM118,83L132,83L132,90L118,90ZM146,83L160,83L160,90L146,90ZM174,83L188,83L188,90L174,90ZM195,83L209,83L209,90L195,90ZM230,83L251,83L251,90L230,90ZM272,83L307,83L307,90L272,90ZM314,83L342,83L342,90L314,90ZM349,83L370,83L370,90L349,90ZM384,83L391,83L391,90L384,90ZM398,83L405,83L405,90L398,90ZM34,90L69,90L69,97L34,97ZM97,90L104,90L104,97L97,97ZM111,90L125,90L125,97L111,97ZM146,90L174,90L174,97L146,97ZM188,90L209,90L209,97L188,97ZM223,90L237,90L237,97L223,97ZM258,90L279,90L279,97L258,97ZM342,90L349,90L349,97L342,97ZM391,90L398,90L398,97L391,97ZM405,90L412,90L412,97L405,97ZM20,97L34,97L34,104L20,104ZM41,97L48,97L48,104L41,104ZM69,97L90,97L90,104L69,104ZM104,97L111,97L111,104L104,104ZM118,97L160,97L160,104L118,104ZM167,97L202,97L202,104L167,104ZM216,97L230,97L230,104L216,104ZM237,97L244,97L244,104L237,104ZM251,97L272,97L272,104L251,104ZM279,97L286,97L286,104L279,104ZM300,97L307,97L307,104L300,104ZM314,97L321,97L321,104L314,104ZM349,97L370,97L370,104L349,104ZM377,97L384,97L384,104L377,104ZM398,97L419,97L419,104L398,104ZM20,104L27,104L27,111L20,111ZM34,104L41,104L41,111L34,111ZM48,104L76,104L76,111L48,111ZM83,104L90,104L90,111L83,111ZM111,104L132,104L132,111L111,111ZM153,104L167,104L167,111L153,111ZM174,104L188,104L188,111L174,111ZM195,104L202,104L202,111L195,111ZM209,104L230,104L230,111L209,111ZM237,104L244,104L244,111L237,111ZM258,104L265,104L265,111L258,111ZM272,104L279,104L279,111L272,111ZM286,104L293,104L293,111L286,111ZM300,104L314,104L314,111L300,111ZM342,104L349,104L349,111L342,111ZM356,104L363,104L363,111L356,111ZM370,104L398,104L398,111L370,111ZM405,104L412,104L412,111L405,111ZM27,111L34,111L34,118L27,118ZM48,111L55,111L55,118L48,118ZM69,111L104,111L104,118L69,118ZM111,111L118,111L118,118L111,118ZM125,111L139,111L139,118L125,118ZM146,111L160,111L160,118L146,118ZM174,111L188,111L188,118L174,118ZM195,111L223,111L223,118L195,118ZM230,111L272,111L272,118L230,118ZM293,111L307,111L307,118L293,118ZM321,111L342,111L342,118L321,118ZM349,111L391,111L391,118L349,118ZM398,111L412,111L412,118L398,118ZM41,118L69,118L69,125L41,125ZM83,118L97,118L97,125L83,125ZM111,118L146,118L146,125L111,125ZM160,118L195,118L195,125L160,125ZM209,118L216,118L216,125L209,125ZM230,118L244,118L244,125L230,125ZM258,118L286,118L286,125L258,125ZM293,118L300,118L300,125L293,125ZM314,118L321,118L321,125L314,125ZM335,118L342,118L342,125L335,125ZM349,118L356,118L356,125L349,125ZM370,118L377,118L377,125L370,125ZM391,118L398,118L398,125L391,125ZM412,118L419,118L419,125L412,125ZM20,125L41,125L41,132L20,132ZM90,125L97,125L97,132L90,132ZM104,125L111,125L111,132L104,132ZM118,125L125,125L125,132L118,132ZM132,125L139,125L139,132L132,132ZM153,125L209,125L209,132L153,132ZM216,125L223,125L223,132L216,132ZM244,125L251,125L251,132L244,132ZM265,125L286,125L286,132L265,132ZM300,125L307,125L307,132L300,132ZM314,125L321,125L321,132L314,132ZM328,125L335,125L335,132L328,132ZM356,125L370,125L370,132L356,132ZM405,125L419,125L419,132L405,132ZM20,132L27,132L27,139L20,139ZM34,132L48,132L48,139L34,139ZM55,132L69,132L69,139L55,139ZM76,132L83,132L83,139L76,139ZM97,132L104,132L104,139L97,139ZM132,132L139,132L139,139L132,139ZM146,132L160,132L160,139L146,139ZM181,132L188,132L188,139L181,139ZM202,132L216,132L216,139L202,139ZM230,132L237,132L237,139L230,139ZM265,132L272,132L272,139L265,139ZM279,132L293,132L293,139L279,139ZM300,132L314,132L314,139L300,139ZM335,132L363,132L363,139L335,139ZM370,132L391,132L391,139L370,139ZM398,132L412,132L412,139L398,139ZM27,139L34,139L34,146L27,146ZM41,139L48,139L48,146L41,146ZM55,139L62,139L62,146L55,146ZM69,139L76,139L76,146L69,146ZM83,139L90,139L90,146L83,146ZM97,139L104,139L104,146L97,146ZM111,139L125,139L125,146L111,146ZM146,139L153,139L153,146L146,146ZM160,139L174,139L174,146L160,146ZM188,139L195,139L195,146L188,146ZM202,139L209,139L209,146L202,146ZM244,139L265,139L265,146L244,146ZM293,139L321,139L321,146L293,146ZM328,139L335,139L335,146L328,146ZM342,139L356,139L356,146L342,146ZM363,139L370,139L370,146L363,146ZM384,139L391,139L391,146L384,146ZM398,139L405,139L405,146L398,146ZM20,146L34,146L34,153L20,153ZM62,146L69,146L69,153L62,153ZM90,146L111,146L111,153L90,153ZM118,146L153,146L153,153L118,153ZM160,146L181,146L181,153L160,153ZM188,146L202,146L202,153L188,153ZM209,146L230,146L230,153L209,153ZM237,146L251,146L251,153L237,153ZM258,146L265,146L265,153L258,153ZM293,146L300,146L300,153L293,153ZM314,146L328,146L328,153L314,153ZM349,146L356,146L356,153L349,153ZM363,146L370,146L370,153L363,153ZM377,146L384,146L384,153L377,153ZM391,146L398,146L398,153L391,153ZM412,146L419,146L419,153L412,153ZM41,153L55,153L55,160L41,160ZM69,153L76,153L76,160L69,160ZM83,153L104,153L104,160L83,160ZM111,153L118,153L118,160L111,160ZM132,153L181,153L181,160L132,160ZM202,153L209,153L209,160L202,160ZM230,153L237,153L237,160L230,160ZM244,153L251,153L251,160L244,160ZM300,153L321,153L321,160L300,160ZM328,153L335,153L335,160L328,160ZM356,153L363,153L363,160L356,160ZM377,153L384,153L384,160L377,160ZM398,153L405,153L405,160L398,160ZM412,153L419,153L419,160L412,160ZM27,160L34,160L34,167L27,167ZM41,160L48,160L48,167L41,167ZM55,160L90,160L90,167L55,167ZM125,160L139,160L139,167L125,167ZM153,160L160,160L160,167L153,167ZM195,160L202,160L202,167L195,167ZM209,160L216,160L216,167L209,167ZM244,160L272,160L272,167L244,167ZM279,160L300,160L300,167L279,167ZM321,160L328,160L328,167L321,167ZM342,160L356,160L356,167L342,167ZM363,160L377,160L377,167L363,167ZM405,160L412,160L412,167L405,167ZM20,167L48,167L48,174L20,174ZM55,167L62,167L62,174L55,174ZM83,167L90,167L90,174L83,174ZM97,167L118,167L118,174L97,174ZM125,167L139,167L139,174L125,174ZM153,167L167,167L167,174L153,174ZM174,167L188,167L188,174L174,174ZM209,167L216,167L216,174L209,174ZM223,167L251,167L251,174L223,174ZM258,167L286,167L286,174L258,174ZM293,167L307,167L307,174L293,174ZM314,167L321,167L321,174L314,174ZM328,167L335,167L335,174L328,174ZM349,167L356,167L356,174L349,174ZM370,167L405,167L405,174L370,174ZM27,174L41,174L41,181L27,181ZM55,174L69,174L69,181L55,181ZM83,174L97,174L97,181L83,181ZM104,174L111,174L111,181L104,181ZM125,174L132,174L132,181L125,181ZM139,174L153,174L153,181L139,181ZM174,174L188,174L188,181L174,181ZM195,174L202,174L202,181L195,181ZM209,174L223,174L223,181L209,181ZM230,174L272,174L272,181L230,181ZM279,174L286,174L286,181L279,181ZM307,174L328,174L328,181L307,181ZM335,174L349,174L349,181L335,181ZM363,174L370,174L370,181L363,181ZM405,174L412,174L412,181L405,181ZM20,181L27,181L27,188L20,188ZM48,181L55,181L55,188L48,188ZM69,181L76,181L76,188L69,188ZM83,181L90,181L90,188L83,188ZM125,181L146,181L146,188L125,188ZM174,181L181,181L181,188L174,188ZM209,181L230,181L230,188L209,188ZM237,181L244,181L244,188L237,188ZM258,181L265,181L265,188L258,188ZM272,181L286,181L286,188L272,188ZM314,181L321,181L321,188L314,188ZM335,181L342,181L342,188L335,188ZM356,181L370,181L370,188L356,188ZM377,181L391,181L391,188L377,188ZM398,181L405,181L405,188L398,188ZM412,181L419,181L419,188L412,188ZM48,188L55,188L55,195L48,195ZM62,188L76,188L76,195L62,195ZM83,188L97,188L97,195L83,195ZM125,188L146,188L146,195L125,195ZM167,188L174,188L174,195L167,195ZM202,188L216,188L216,195L202,195ZM223,188L237,188L237,195L223,195ZM258,188L265,188L265,195L258,195ZM272,188L279,188L279,195L272,195ZM286,188L300,188L300,195L286,195ZM314,188L328,188L328,195L314,195ZM342,188L363,188L363,195L342,195ZM370,188L377,188L377,195L370,195ZM412,188L419,188L419,195L412,195ZM20,195L48,195L48,202L20,202ZM55,195L62,195L62,202L55,202ZM69,195L76,195L76,202L69,202ZM83,195L111,195L111,202L83,202ZM132,195L139,195L139,202L132,202ZM146,195L153,195L153,202L146,202ZM160,195L167,195L167,202L160,202ZM174,195L188,195L188,202L174,202ZM202,195L209,195L209,202L202,202ZM230,195L258,195L258,202L230,202ZM265,195L279,195L279,202L265,202ZM314,195L321,195L321,202L314,202ZM328,195L342,195L342,202L328,202ZM356,195L363,195L363,202L356,202ZM384,195L391,195L391,202L384,202ZM398,195L419,195L419,202L398,202ZM20,202L27,202L27,209L20,209ZM41,202L90,202L90,209L41,209ZM97,202L104,202L104,209L97,209ZM111,202L125,202L125,209L111,209ZM146,202L153,202L153,209L146,209ZM160,202L167,202L167,209L160,209ZM174,202L188,202L188,209L174,209ZM202,202L244,202L244,209L202,209ZM272,202L286,202L286,209L272,209ZM293,202L300,202L300,209L293,209ZM314,202L328,202L328,209L314,209ZM356,202L391,202L391,209L356,209ZM398,202L405,202L405,209L398,209ZM27,209L34,209L34,216L27,216ZM48,209L55,209L55,216L48,216ZM76,209L111,209L111,216L76,216ZM118,209L125,209L125,216L118,216ZM132,209L139,209L139,216L132,216ZM146,209L153,209L153,216L146,216ZM181,209L209,209L209,216L181,216ZM230,209L251,209L251,216L230,216ZM279,209L286,209L286,216L279,216ZM307,209L321,209L321,216L307,216ZM328,209L335,209L335,216L328,216ZM349,209L363,209L363,216L349,216ZM384,209L391,209L391,216L384,216ZM398,209L419,209L419,216L398,216ZM34,216L41,216L41,223L34,223ZM48,216L55,216L55,223L48,223ZM62,216L69,216L69,223L62,223ZM76,216L90,216L90,223L76,223ZM97,216L104,216L104,223L97,223ZM111,216L125,216L125,223L111,223ZM146,216L160,216L160,223L146,223ZM174,216L188,216L188,223L174,223ZM202,216L209,216L209,223L202,223ZM216,216L223,216L223,223L216,223ZM230,216L237,216L237,223L230,223ZM258,216L272,216L272,223L258,223ZM286,216L300,216L300,223L286,223ZM335,216L363,216L363,223L335,223ZM370,216L377,216L377,223L370,223ZM384,216L391,216L391,223L384,223ZM398,216L405,216L405,223L398,223ZM27,223L55,223L55,230L27,230ZM76,223L90,223L90,230L76,230ZM104,223L111,223L111,230L104,230ZM125,223L132,223L132,230L125,230ZM139,223L146,223L146,230L139,230ZM153,223L174,223L174,230L153,230ZM195,223L209,223L209,230L195,230ZM230,223L237,223L237,230L230,230ZM244,223L251,223L251,230L244,230ZM258,223L279,223L279,230L258,230ZM293,223L314,223L314,230L293,230ZM321,223L342,223L342,230L321,230ZM356,223L363,223L363,230L356,230ZM384,223L412,223L412,230L384,230ZM34,230L41,230L41,237L34,237ZM48,230L90,230L90,237L48,237ZM132,230L153,230L153,237L132,237ZM160,230L167,230L167,237L160,237ZM202,230L251,230L251,237L202,237ZM272,230L279,230L279,237L272,237ZM286,230L293,230L293,237L286,237ZM314,230L328,230L328,237L314,237ZM342,230L349,230L349,237L342,237ZM356,230L391,230L391,237L356,237ZM405,230L412,230L412,237L405,237ZM20,237L48,237L48,244L20,244ZM55,237L62,237L62,244L55,244ZM76,237L83,237L83,244L76,244ZM97,237L104,237L104,244L97,244ZM111,237L139,237L139,244L111,244ZM146,237L153,237L153,244L146,244ZM167,237L195,237L195,244L167,244ZM216,237L237,237L237,244L216,244ZM244,237L251,237L251,244L244,244ZM258,237L272,237L272,244L258,244ZM307,237L321,237L321,244L307,244ZM328,237L342,237L342,244L328,244ZM363,237L384,237L384,244L363,244ZM391,237L398,237L398,244L391,244ZM412,237L419,237L419,244L412,244ZM34,244L41,244L41,251L34,251ZM55,244L76,244L76,251L55,251ZM104,244L125,244L125,251L104,251ZM132,244L146,244L146,251L132,251ZM160,244L174,244L174,251L160,251ZM181,244L195,244L195,251L181,251ZM202,244L209,244L209,251L202,251ZM223,244L230,244L230,251L223,251ZM237,244L244,244L244,251L237,251ZM265,244L272,244L272,251L265,251ZM279,244L293,244L293,251L279,251ZM342,244L349,244L349,251L342,251ZM377,244L384,244L384,251L377,251ZM391,244L398,244L398,251L391,251ZM405,244L412,244L412,251L405,251ZM20,251L34,251L34,258L20,258ZM41,251L48,251L48,258L41,258ZM55,251L62,251L62,258L55,258ZM111,251L118,251L118,258L111,258ZM125,251L146,251L146,258L125,258ZM153,251L160,251L160,258L153,258ZM181,251L188,251L188,258L181,258ZM195,251L202,251L202,258L195,258ZM216,251L230,251L230,258L216,258ZM237,251L244,251L244,258L237,258ZM251,251L258,251L258,258L251,258ZM265,251L272,251L272,258L265,258ZM286,251L314,251L314,258L286,258ZM321,251L356,251L356,258L321,258ZM363,251L377,251L377,258L363,258ZM391,251L412,251L412,258L391,258ZM20,258L27,258L27,265L20,265ZM48,258L55,258L55,265L48,265ZM62,258L97,258L97,265L62,265ZM104,258L139,258L139,265L104,265ZM160,258L167,258L167,265L160,265ZM174,258L195,258L195,265L174,265ZM202,258L209,258L209,265L202,265ZM216,258L251,258L251,265L216,265ZM265,258L279,258L279,265L265,265ZM321,258L328,258L328,265L321,265ZM335,258L342,258L342,265L335,265ZM356,258L370,258L370,265L356,265ZM384,258L391,258L391,265L384,265ZM405,258L412,258L412,265L405,265ZM34,265L41,265L41,272L34,272ZM48,265L62,265L62,272L48,272ZM83,265L97,265L97,272L83,272ZM125,265L132,265L132,272L125,272ZM139,265L153,265L153,272L139,272ZM160,265L167,265L167,272L160,272ZM174,265L181,265L181,272L174,272ZM195,265L209,265L209,272L195,272ZM223,265L237,265L237,272L223,272ZM258,265L265,265L265,272L258,272ZM272,265L279,265L279,272L272,272ZM293,265L300,265L300,272L293,272ZM307,265L342,265L342,272L307,272ZM363,265L370,265L370,272L363,272ZM377,265L384,265L384,272L377,272ZM391,265L398,265L398,272L391,272ZM405,265L419,265L419,272L405,272ZM20,272L55,272L55,279L20,279ZM62,272L69,272L69,279L62,279ZM76,272L97,272L97,279L76,279ZM111,272L118,272L118,279L111,279ZM125,272L132,272L132,279L125,279ZM146,272L153,272L153,279L146,279ZM160,272L181,272L181,279L160,279ZM195,272L202,272L202,279L195,279ZM223,272L230,272L230,279L223,279ZM244,272L251,272L251,279L244,279ZM265,272L272,272L272,279L265,279ZM279,272L307,272L307,279L279,279ZM321,272L335,272L335,279L321,279ZM342,272L349,272L349,279L342,279ZM356,272L363,272L363,279L356,279ZM384,272L405,272L405,279L384,279ZM20,279L41,279L41,286L20,286ZM48,279L62,279L62,286L48,286ZM111,279L118,279L118,286L111,286ZM125,279L132,279L132,286L125,286ZM139,279L146,279L146,286L139,286ZM153,279L167,279L167,286L153,286ZM216,279L223,279L223,286L216,286ZM244,279L251,279L251,286L244,286ZM258,279L265,279L265,286L258,286ZM272,279L286,279L286,286L272,286ZM300,279L321,279L321,286L300,286ZM328,279L342,279L342,286L328,286ZM349,279L356,279L356,286L349,286ZM363,279L405,279L405,286L363,286ZM34,286L55,286L55,293L34,293ZM62,286L83,286L83,293L62,293ZM97,286L104,286L104,293L97,293ZM146,286L174,286L174,293L146,293ZM188,286L230,286L230,293L188,293ZM237,286L251,286L251,293L237,293ZM286,286L300,286L300,293L286,293ZM335,286L342,286L342,293L335,293ZM356,286L363,286L363,293L356,293ZM370,286L391,286L391,293L370,293ZM412,286L419,286L419,293L412,293ZM27,293L34,293L34,300L27,300ZM41,293L55,293L55,300L41,300ZM90,293L97,293L97,300L90,300ZM111,293L125,293L125,300L111,300ZM132,293L139,293L139,300L132,300ZM146,293L153,293L153,300L146,300ZM167,293L188,293L188,300L167,300ZM202,293L223,293L223,300L202,300ZM237,293L244,293L244,300L237,300ZM258,293L265,293L265,300L258,300ZM307,293L321,293L321,300L307,300ZM335,293L342,293L342,300L335,300ZM356,293L363,293L363,300L356,300ZM391,293L398,293L398,300L391,300ZM405,293L419,293L419,300L405,300ZM34,300L41,300L41,307L34,307ZM48,300L55,300L55,307L48,307ZM62,300L69,300L69,307L62,307ZM90,300L104,300L104,307L90,307ZM118,300L125,300L125,307L118,307ZM146,300L167,300L167,307L146,307ZM181,300L188,300L188,307L181,307ZM216,300L244,300L244,307L216,307ZM251,300L258,300L258,307L251,307ZM265,300L286,300L286,307L265,307ZM293,300L300,300L300,307L293,307ZM328,300L335,300L335,307L328,307ZM342,300L356,300L356,307L342,307ZM363,300L370,300L370,307L363,307ZM391,300L398,300L398,307L391,307ZM27,307L34,307L34,314L27,314ZM69,307L76,307L76,314L69,314ZM125,307L195,307L195,314L125,314ZM202,307L216,307L216,314L202,314ZM223,307L251,307L251,314L223,314ZM258,307L265,307L265,314L258,314ZM272,307L279,307L279,314L272,314ZM300,307L307,307L307,314L300,314ZM314,307L342,307L342,314L314,314ZM349,307L377,307L377,314L349,314ZM398,307L419,307L419,314L398,314ZM27,314L41,314L41,321L27,321ZM55,314L76,314L76,321L55,321ZM83,314L104,314L104,321L83,321ZM111,314L118,314L118,321L111,321ZM125,314L132,314L132,321L125,321ZM153,314L160,314L160,321L153,321ZM181,314L188,314L188,321L181,321ZM216,314L286,314L286,321L216,321ZM293,314L300,314L300,321L293,321ZM307,314L321,314L321,321L307,321ZM335,314L349,314L349,321L335,321ZM363,314L370,314L370,321L363,321ZM377,314L398,314L398,321L377,321ZM405,314L419,314L419,321L405,321ZM20,321L27,321L27,328L20,328ZM48,321L55,321L55,328L48,328ZM69,321L83,321L83,328L69,328ZM90,321L118,321L118,328L90,328ZM139,321L174,321L174,328L139,328ZM188,321L195,321L195,328L188,328ZM202,321L209,321L209,328L202,328ZM216,321L230,321L230,328L216,328ZM237,321L251,321L251,328L237,328ZM258,321L265,321L265,328L258,328ZM314,321L321,321L321,328L314,328ZM335,321L342,321L342,328L335,328ZM356,321L363,321L363,328L356,328ZM391,321L419,321L419,328L391,328ZM20,328L48,328L48,335L20,335ZM55,328L69,328L69,335L55,335ZM104,328L111,328L111,335L104,335ZM118,328L132,328L132,335L118,335ZM139,328L153,328L153,335L139,335ZM160,328L174,328L174,335L160,335ZM188,328L195,328L195,335L188,335ZM216,328L230,328L230,335L216,335ZM237,328L251,328L251,335L237,335ZM258,328L265,328L265,335L258,335ZM272,328L314,328L314,335L272,335ZM321,328L328,328L328,335L321,335ZM342,328L349,328L349,335L342,335ZM384,328L398,328L398,335L384,335ZM27,335L41,335L41,342L27,342ZM48,335L62,335L62,342L48,342ZM83,335L90,335L90,342L83,342ZM104,335L111,335L111,342L104,342ZM125,335L153,335L153,342L125,342ZM174,335L195,335L195,342L174,342ZM202,335L209,335L209,342L202,342ZM216,335L244,335L244,342L216,342ZM251,335L258,335L258,342L251,342ZM286,335L293,335L293,342L286,342ZM300,335L307,335L307,342L300,342ZM314,335L363,335L363,342L314,342ZM370,335L384,335L384,342L370,342ZM398,335L412,335L412,342L398,342ZM20,342L27,342L27,349L20,349ZM34,342L41,342L41,349L34,349ZM55,342L76,342L76,349L55,349ZM83,342L118,342L118,349L83,349ZM132,342L139,342L139,349L132,349ZM146,342L188,342L188,349L146,349ZM202,342L209,342L209,349L202,349ZM216,342L223,342L223,349L216,349ZM237,342L244,342L244,349L237,349ZM265,342L286,342L286,349L265,349ZM307,342L314,342L314,349L307,349ZM335,342L349,342L349,349L335,349ZM363,342L377,342L377,349L363,349ZM384,342L398,342L398,349L384,349ZM20,349L55,349L55,356L20,356ZM69,349L76,349L76,356L69,356ZM83,349L90,349L90,356L83,356ZM118,349L132,349L132,356L118,356ZM139,349L146,349L146,356L139,356ZM174,349L195,349L195,356L174,356ZM202,349L216,349L216,356L202,356ZM237,349L293,349L293,356L237,356ZM307,349L328,349L328,356L307,356ZM363,349L377,349L377,356L363,356ZM391,349L405,349L405,356L391,356ZM412,349L419,349L419,356L412,356ZM62,356L83,356L83,363L62,363ZM90,356L97,356L97,363L90,363ZM104,356L125,356L125,363L104,363ZM139,356L146,356L146,363L139,363ZM160,356L181,356L181,363L160,363ZM195,356L237,356L237,363L195,363ZM251,356L258,356L258,363L251,363ZM265,356L272,356L272,363L265,363ZM286,356L300,356L300,363L286,363ZM335,356L349,356L349,363L335,363ZM356,356L391,356L391,363L356,363ZM405,356L412,356L412,363L405,363ZM76,363L90,363L90,370L76,370ZM104,363L125,363L125,370L104,370ZM132,363L146,363L146,370L132,370ZM153,363L167,363L167,370L153,370ZM181,363L209,363L209,370L181,370ZM230,363L237,363L237,370L230,370ZM251,363L258,363L258,370L251,370ZM265,363L307,363L307,370L265,370ZM314,363L342,363L342,370L314,370ZM356,363L363,363L363,370L356,370ZM384,363L391,363L391,370L384,370ZM398,363L405,363L405,370L398,370ZM20,370L69,370L69,377L20,377ZM83,370L90,370L90,377L83,377ZM118,370L132,370L132,377L118,377ZM139,370L146,370L146,377L139,377ZM153,370L160,370L160,377L153,377ZM181,370L188,370L188,377L181,377ZM202,370L209,370L209,377L202,377ZM216,370L223,370L223,377L216,377ZM230,370L237,370L237,377L230,377ZM307,370L321,370L321,377L307,377ZM349,370L363,370L363,377L349,377ZM370,370L377,370L377,377L370,377ZM384,370L398,370L398,377L384,377ZM405,370L419,370L419,377L405,377ZM20,377L27,377L27,384L20,384ZM62,377L69,377L69,384L62,384ZM83,377L90,377L90,384L83,384ZM104,377L118,377L118,384L104,384ZM139,377L167,377L167,384L139,384ZM174,377L181,377L181,384L174,384ZM188,377L195,377L195,384L188,384ZM202,377L209,377L209,384L202,384ZM230,377L237,377L237,384L230,384ZM251,377L258,377L258,384L251,384ZM279,377L286,377L286,384L279,384ZM300,377L307,377L307,384L300,384ZM314,377L328,377L328,384L314,384ZM349,377L363,377L363,384L349,384ZM384,377L391,377L391,384L384,384ZM412,377L419,377L419,384L412,384ZM20,384L27,384L27,391L20,391ZM34,384L55,384L55,391L34,391ZM62,384L69,384L69,391L62,391ZM76,384L83,384L83,391L76,391ZM104,384L111,384L111,391L104,391ZM118,384L132,384L132,391L118,391ZM139,384L167,384L167,391L139,391ZM181,384L251,384L251,391L181,391ZM258,384L265,384L265,391L258,391ZM272,384L293,384L293,391L272,391ZM300,384L314,384L314,391L300,391ZM335,384L349,384L349,391L335,391ZM356,384L412,384L412,391L356,391ZM20,391L27,391L27,398L20,398ZM34,391L55,391L55,398L34,398ZM62,391L69,391L69,398L62,398ZM76,391L97,391L97,398L76,398ZM104,391L118,391L118,398L104,398ZM125,391L181,391L181,398L125,398ZM188,391L195,391L195,398L188,398ZM202,391L230,391L230,398L202,398ZM244,391L272,391L272,398L244,398ZM286,391L307,391L307,398L286,398ZM321,391L335,391L335,398L321,398ZM363,391L370,391L370,398L363,398ZM377,391L384,391L384,398L377,398ZM391,391L412,391L412,398L391,398ZM20,398L27,398L27,405L20,405ZM34,398L55,398L55,405L34,405ZM62,398L69,398L69,405L62,405ZM76,398L90,398L90,405L76,405ZM111,398L160,398L160,405L111,405ZM202,398L209,398L209,405L202,405ZM230,398L258,398L258,405L230,405ZM265,398L293,398L293,405L265,405ZM307,398L321,398L321,405L307,405ZM349,398L356,398L356,405L349,405ZM363,398L384,398L384,405L363,405ZM20,405L27,405L27,412L20,412ZM62,405L69,405L69,412L62,412ZM104,405L111,405L111,412L104,412ZM118,405L125,405L125,412L118,412ZM132,405L146,405L146,412L132,412ZM153,405L181,405L181,412L153,412ZM195,405L209,405L209,412L195,412ZM230,405L237,405L237,412L230,412ZM258,405L265,405L265,412L258,412ZM272,405L279,405L279,412L272,412ZM293,405L300,405L300,412L293,412ZM307,405L314,405L314,412L307,412ZM363,405L370,405L370,412L363,412ZM384,405L419,405L419,412L384,412ZM20,412L69,412L69,419L20,419ZM90,412L97,412L97,419L90,419ZM104,412L111,412L111,419L104,419ZM118,412L125,412L125,419L118,419ZM132,412L139,412L139,419L132,419ZM153,412L167,412L167,419L153,419ZM188,412L195,412L195,419L188,419ZM209,412L216,412L216,419L209,419ZM223,412L272,412L272,419L223,419ZM300,412L307,412L307,419L300,419ZM321,412L328,412L328,419L321,419ZM335,412L363,412L363,419L335,419ZM391,412L412,412L412,419L391,419Z"/></svg>
