<?xml version="1.0"?>
<svg xmlns="http://www.w3.org/2000/svg" xmlns:xlink="http://www.w3.org/1999/xlink" version="1.1" width="440px" height="440px" viewBox="0 0 440 440"><rect x="0" y="0" width="440" height="440" fill="#ffffff" fill-opacity="1"/><path fill="#000000" fill-opacity="1" d="M20,20L69,20L69,27L20,27ZM76,20L83,20L83,27L76,27ZM90,20L104,20L104,27L90,27ZM111,20L118,20L118,27L111,27ZM132,20L153,20L153,27L132,27ZM160,20L181,20L181,27L160,27ZM195,20L251,20L251,27L195,27ZM258,20L272,20L272,27L258,27ZM286,20L293,20L293,27L286,27ZM300,20L314,20L314,27L300,27ZM328,20L335,20L335,27L328,27ZM342,20L356,20L356,27L342,27ZM370,20L419,20L419,27L370,27ZM20,27L27,27L27,34L20,34ZM62,27L69,27L69,34L62,34ZM76,27L104,27L104,34L76,34ZM111,27L125,27L125,34L111,34ZM146,27L153,27L153,34L146,34ZM160,27L167,27L167,34L160,34ZM188,27L195,27L195,34L188,34ZM244,27L251,27L251,34L244,34ZM272,27L279,27L279,34L272,34ZM293,27L300,27L300,34L293,34ZM307,27L314,27L314,34L307,34ZM349,27L356,27L356,34L349,34ZM370,27L377,27L377,34L370,34ZM412,27L419,27L419,34L412,34ZM20,34L27,34L27,41L20,41ZM34,34L55,34L55,41L34,41ZM62,34L69,34L69,41L62,41ZM76,34L83,34L83,41L76,41ZM111,34L118,34L118,41L111,41ZM125,34L132,34L132,41L125,41ZM160,34L167,34L167,41L160,41ZM209,34L216,34L216,41L209,41ZM223,34L251,34L251,41L223,41ZM272,34L286,34L286,41L272,41ZM314,34L356,34L356,41L314,41ZM370,34L377,34L377,41L370,41ZM384,34L405,34L405,41L384,41ZM412,34L419,34L419,41L412,41ZM20,41L27,41L27,48L20,48ZM34,41L55,41L55,48L34,48ZM62,41L69,41L69,48L62,48ZM104,41L118,41L118,48L104,48ZM132,41L139,41L139,48L132,48ZM146,41L160,41L160,48L146,48ZM174,41L181,41L181,48L174,48ZM195,41L209,41L209,48L195,48ZM216,41L223,41L223,48L216,48ZM237,41L244,41L244,48L237,48ZM286,41L300,41L300,48L286,48ZM307,41L314,41L314,48L307,48ZM321,41L342,41L342,48L321,48ZM349,41L356,41L356,48L349,48ZM370,41L377,41L377,48L370,48ZM384,41L405,41L405,48L384,48ZM412,41L419,41L419,48L412,48ZM20,48L27,48L27,55L20,55ZM34,48L55,48L55,55L34,55ZM62,48L69,48L69,55L62,55ZM83,48L90,48L90,55L83,55ZM97,48L111,48L111,55L97,55ZM146,48L167,48L167,55L146,55ZM181,48L188,48L188,55L181,55ZM202,48L251,48L251,55L202,55ZM258,48L272,48L272,55L258,55ZM279,48L286,48L286,55L279,55ZM300,48L321,48L321,55L300,55ZM328,48L342,48L342,55L328,55ZM349,48L356,48L356,55L349,55ZM370,48L377,48L377,55L370,55ZM384,48L405,48L405,55L384,55ZM412,48L419,48L419,55L412,55ZM20,55L27,55L27,62L20,62ZM62,55L69,55L69,62L62,62ZM76,55L83,55L83,62L76,62ZM90,55L97,55L97,62L90,62ZM104,55L111,55L111,62L104,62ZM118,55L132,55L132,62L118,62ZM139,55L167,55L167,62L139,62ZM181,55L195,55L195,62L181,62ZM202,55L209,55L209,62L202,62ZM230,55L244,55L244,62L230,62ZM258,55L272,55L272,62L258,62ZM279,55L286,55L286,62L279,62ZM293,55L300,55L300,62L293,62ZM314,55L321,55L321,62L314,62ZM342,55L349,55L349,62L342,62ZM370,55L377,55L377,62L370,62ZM412,55L419,55L419,62L412,62ZM20,62L69,62L69,69L20,69ZM76,62L83,62L83,69L76,69ZM90,62L97,62L97,69L90,69ZM104,62L111,62L111,69L104,69ZM118,62L125,62L125,69L118,69ZM132,62L139,62L139,69L132,69ZM146,62L153,62L153,69L146,69ZM160,62L167,62L167,69L160,69ZM174,62L181,62L181,69L174,69ZM188,62L195,62L195,69L188,69ZM202,62L209,62L209,69L202,69ZM216,62L223,62L223,69L216,69ZM230,62L237,62L237,69L230,69ZM244,62L251,62L251,69L244,69ZM258,62L265,62L265,69L258,69ZM272,62L279,62L279,69L272,69ZM286,62L293,62L293,69L286,69ZM300,62L307,62L307,69L300,69ZM314,62L321,62L321,69L314,69ZM328,62L335,62L335,69L328,69ZM342,62L349,62L349,69L342,69ZM356,62L363,62L363,69L356,69ZM370,62L419,62L419,69L370,69ZM76,69L83,69L83,76L76,76ZM90,69L97,69L97,76L90,76ZM125,69L139,69L139,76L125,76ZM160,69L174,69L174,76L160,76ZM202,69L209,69L209,76L202,76ZM230,69L237,69L237,76L230,76ZM258,69L265,69L265,76L258,76ZM272,69L286,69L286,76L272,76ZM293,69L307,69L307,76L293,76ZM314,69L321,69L321,76L314,76ZM335,69L342,69L342,76L335,76ZM356,69L363,69L363,76L356,76ZM34,76L55,76L55,83L34,83ZM62,76L69,76L69,83L62,83ZM76,76L97,76L97,83L76,83ZM104,76L125,76L125,83L104,83ZM132,76L160,76L160,83L132,83ZM188,76L244,76L244,83L188,83ZM265,76L272,76L272,83L265,83ZM286,76L300,76L300,83L286,83ZM307,76L314,76L314,83L307,83ZM321,76L328,76L328,83L321,83ZM342,76L349,76L349,83L342,83ZM363,76L384,76L384,83L363,83ZM398,76L419,76L419,83L398,83ZM20,83L27,83L27,90L20,90ZM34,83L48,83L48,90L34,90ZM76,83L83,83L83,90L76,90ZM97,83L104,83L104,90L97,90ZM118,83L125,83L125,90L118,90ZM139,83L153,83L153,90L139,90ZM167,83L174,83L174,90L167,90ZM188,83L195,83L195,90L188,90ZM202,83L209,83L209,90L202,90ZM230,83L237,83L237,90L230,90ZM244,83L265,83L265,90L244,90ZM279,83L286,83L286,90L279,90ZM300,83L314,83L314,90L300,90ZM328,83L342,83L342,90L328,90ZM356,83L370,83L370,90L356,90ZM384,83L391,83L391,90L384,90ZM398,83L405,83L405,90L398,90ZM55,90L69,90L69,97L55,97ZM97,90L104,90L104,97L97,97ZM111,90L132,90L132,97L111,97ZM146,90L153,90L153,97L146,97ZM160,90L167,90L167,97L160,97ZM174,90L188,90L188,97L174,97ZM202,90L216,90L216,97L202,97ZM223,90L251,90L251,97L223,97ZM286,90L300,90L300,97L286,97ZM307,90L328,90L328,97L307,97ZM335,90L342,90L342,97L335,97ZM349,90L356,90L356,97L349,97ZM391,90L398,90L398,97L391,97ZM405,90L412,90L412,97L405,97ZM20,97L27,97L27,104L20,104ZM41,97L48,97L48,104L41,104ZM69,97L83,97L83,104L69,104ZM90,97L104,97L104,104L90,104ZM118,97L139,97L139,104L118,104ZM153,97L202,97L202,104L153,104ZM209,97L216,97L216,104L209,104ZM279,97L286,97L286,104L279,104ZM300,97L307,97L307,104L300,104ZM314,97L321,97L321,104L314,104ZM356,97L370,97L370,104L356,104ZM377,97L384,97L384,104L377,104ZM391,97L419,97L419,104L391,104ZM34,104L41,104L41,111L34,111ZM55,104L76,104L76,111L55,111ZM90,104L97,104L97,111L90,111ZM111,104L125,104L125,111L111,111ZM139,104L153,104L153,111L139,111ZM160,104L174,104L174,111L160,111ZM188,104L209,104L209,111L188,111ZM216,104L223,104L223,111L216,111ZM237,104L244,104L244,111L237,111ZM251,104L279,104L279,111L251,111ZM286,104L300,104L300,111L286,111ZM307,104L314,104L314,111L307,111ZM328,104L335,104L335,111L328,111ZM342,104L356,104L356,111L342,111ZM370,104L391,104L391,111L370,111ZM398,104L405,104L405,111L398,111ZM48,111L55,111L55,118L48,118ZM76,111L90,111L90,118L76,118ZM97,111L104,111L104,118L97,118ZM111,111L125,111L125,118L111,118ZM132,111L139,111L139,118L132,118ZM146,111L174,111L174,118L146,118ZM181,111L188,111L188,118L181,118ZM209,111L216,111L216,118L209,118ZM230,111L244,111L244,118L230,118ZM251,111L279,111L279,118L251,118ZM300,111L307,111L307,118L300,118ZM314,111L342,111L342,118L314,118ZM356,111L391,111L391,118L356,118ZM398,111L419,111L419,118L398,118ZM20,118L55,118L55,125L20,125ZM62,118L69,118L69,125L62,125ZM76,118L83,118L83,125L76,125ZM90,118L111,118L111,125L90,125ZM125,118L132,118L132,125L125,125ZM139,118L153,118L153,125L139,125ZM167,118L181,118L181,125L167,125ZM195,118L202,118L202,125L195,125ZM209,118L216,118L216,125L209,125ZM223,118L230,118L230,125L223,125ZM237,118L244,118L244,125L237,125ZM258,118L265,118L265,125L258,125ZM272,118L286,118L286,125L272,125ZM293,118L300,118L300,125L293,125ZM314,118L321,118L321,125L314,125ZM335,118L342,118L342,125L335,125ZM363,118L370,118L370,125L363,125ZM391,118L398,118L398,125L391,125ZM405,118L419,118L419,125L405,125ZM20,125L34,125L34,132L20,132ZM41,125L62,125L62,132L41,132ZM69,125L83,125L83,132L69,132ZM90,125L104,125L104,132L90,132ZM111,125L118,125L118,132L111,132ZM125,125L132,125L132,132L125,132ZM146,125L153,125L153,132L146,132ZM160,125L181,125L181,132L160,132ZM188,125L202,125L202,132L188,132ZM216,125L230,125L230,132L216,132ZM251,125L272,125L272,132L251,132ZM279,125L286,125L286,132L279,132ZM300,125L321,125L321,132L300,132ZM328,125L342,125L342,132L328,132ZM349,125L363,125L363,132L349,132ZM391,125L405,125L405,132L391,132ZM412,125L419,125L419,132L412,132ZM27,132L34,132L34,139L27,139ZM55,132L76,132L76,139L55,139ZM90,132L97,132L97,139L90,139ZM104,132L111,132L111,139L104,139ZM118,132L139,132L139,139L118,139ZM153,132L160,132L160,139L153,139ZM167,132L174,132L174,139L167,139ZM181,132L188,132L188,139L181,139ZM216,132L230,132L230,139L216,139ZM258,132L272,132L272,139L258,139ZM286,132L293,132L293,139L286,139ZM321,132L328,132L328,139L321,139ZM342,132L356,132L356,139L342,139ZM363,132L398,132L398,139L363,139ZM20,139L27,139L27,146L20,146ZM34,139L41,139L41,146L34,146ZM55,139L62,139L62,146L55,146ZM83,139L104,139L104,146L83,146ZM118,139L125,139L125,146L118,146ZM132,139L139,139L139,146L132,146ZM146,139L153,139L153,146L146,146ZM167,139L174,139L174,146L167,146ZM181,139L188,139L188,146L181,146ZM195,139L209,139L209,146L195,146ZM216,139L244,139L244,146L216,146ZM251,139L272,139L272,146L251,146ZM293,139L342,139L342,146L293,146ZM349,139L356,139L356,146L349,146ZM363,139L377,139L377,146L363,146ZM384,139L405,139L405,146L384,146ZM27,146L34,146L34,153L27,153ZM41,146L48,146L48,153L41,153ZM55,146L76,146L76,153L55,153ZM83,146L132,146L132,153L83,153ZM146,146L160,146L160,153L146,153ZM167,146L174,146L174,153L167,153ZM181,146L188,146L188,153L181,153ZM195,146L216,146L216,153L195,153ZM244,146L265,146L265,153L244,153ZM272,146L286,146L286,153L272,153ZM307,146L321,146L321,153L307,153ZM335,146L342,146L342,153L335,153ZM363,146L384,146L384,153L363,153ZM412,146L419,146L419,153L412,153ZM20,153L27,153L27,160L20,160ZM34,153L41,153L41,160L34,160ZM76,153L83,153L83,160L76,160ZM90,153L104,153L104,160L90,160ZM132,153L139,153L139,160L132,160ZM146,153L160,153L160,160L146,160ZM167,153L202,153L202,160L167,160ZM216,153L223,153L223,160L216,160ZM244,153L251,153L251,160L244,160ZM300,153L307,153L307,160L300,160ZM314,153L342,153L342,160L314,160ZM349,153L363,153L363,160L349,160ZM377,153L384,153L384,160L377,160ZM398,153L405,153L405,160L398,160ZM412,153L419,153L419,160L412,160ZM20,160L34,160L34,167L20,167ZM48,160L76,160L76,167L48,167ZM83,160L90,160L90,167L83,167ZM104,160L118,160L118,167L104,167ZM132,160L139,160L139,167L132,167ZM153,160L160,160L160,167L153,167ZM167,160L174,160L174,167L167,167ZM216,160L223,160L223,167L216,167ZM237,160L258,160L258,167L237,167ZM279,160L300,160L300,167L279,167ZM307,160L314,160L314,167L307,167ZM342,160L356,160L356,167L342,167ZM363,160L398,160L398,167L363,167ZM405,160L412,160L412,167L405,167ZM20,167L41,167L41,174L20,174ZM69,167L76,167L76,174L69,174ZM90,167L111,167L111,174L90,174ZM118,167L125,167L125,174L118,174ZM132,167L139,167L139,174L132,174ZM167,167L174,167L174,174L167,174ZM202,167L209,167L209,174L202,174ZM223,167L230,167L230,174L223,174ZM258,167L265,167L265,174L258,174ZM272,167L286,167L286,174L272,174ZM293,167L307,167L307,174L293,174ZM321,167L342,167L342,174L321,174ZM349,167L356,167L356,174L349,174ZM384,167L405,167L405,174L384,174ZM27,174L34,174L34,181L27,181ZM48,174L55,174L55,181L48,181ZM62,174L69,174L69,181L62,181ZM83,174L104,174L104,181L83,181ZM139,174L146,174L146,181L139,181ZM153,174L160,174L160,181L153,181ZM209,174L216,174L216,181L209,181ZM230,174L237,174L237,181L230,181ZM251,174L279,174L279,181L251,181ZM307,174L321,174L321,181L307,181ZM349,174L363,174L363,181L349,181ZM377,174L384,174L384,181L377,181ZM405,174L412,174L412,181L405,181ZM27,181L62,181L62,188L27,188ZM69,181L90,181L90,188L69,188ZM97,181L125,181L125,188L97,188ZM132,181L146,181L146,188L132,188ZM160,181L174,181L174,188L160,188ZM181,181L202,181L202,188L181,188ZM209,181L223,181L223,188L209,188ZM237,181L244,181L244,188L237,188ZM258,181L272,181L272,188L258,188ZM293,181L321,181L321,188L293,188ZM328,181L335,181L335,188L328,188ZM349,181L370,181L370,188L349,188ZM377,181L405,181L405,188L377,188ZM412,181L419,181L419,188L412,188ZM27,188L76,188L76,195L27,195ZM83,188L97,188L97,195L83,195ZM118,188L139,188L139,195L118,195ZM167,188L174,188L174,195L167,195ZM202,188L237,188L237,195L202,195ZM251,188L258,188L258,195L251,195ZM265,188L272,188L272,195L265,195ZM279,188L300,188L300,195L279,195ZM321,188L349,188L349,195L321,195ZM356,188L363,188L363,195L356,195ZM370,188L384,188L384,195L370,195ZM391,188L405,188L405,195L391,195ZM412,188L419,188L419,195L412,195ZM20,195L27,195L27,202L20,202ZM34,195L62,195L62,202L34,202ZM69,195L104,195L104,202L69,202ZM111,195L125,195L125,202L111,202ZM132,195L153,195L153,202L132,202ZM167,195L188,195L188,202L167,202ZM216,195L230,195L230,202L216,202ZM272,195L279,195L279,202L272,202ZM293,195L321,195L321,202L293,202ZM328,195L349,195L349,202L328,202ZM363,195L370,195L370,202L363,202ZM384,195L391,195L391,202L384,202ZM398,195L405,195L405,202L398,202ZM412,195L419,195L419,202L412,202ZM20,202L34,202L34,209L20,209ZM41,202L83,202L83,209L41,209ZM97,202L104,202L104,209L97,209ZM132,202L139,202L139,209L132,209ZM160,202L237,202L237,209L160,209ZM265,202L279,202L279,209L265,209ZM286,202L293,202L293,209L286,209ZM314,202L328,202L328,209L314,209ZM342,202L391,202L391,209L342,209ZM398,202L405,202L405,209L398,209ZM27,209L41,209L41,216L27,216ZM48,209L55,209L55,216L48,216ZM76,209L83,209L83,216L76,216ZM90,209L97,209L97,216L90,216ZM125,209L132,209L132,216L125,216ZM139,209L146,209L146,216L139,216ZM160,209L167,209L167,216L160,216ZM174,209L188,209L188,216L174,216ZM195,209L209,209L209,216L195,216ZM230,209L244,209L244,216L230,216ZM265,209L272,209L272,216L265,216ZM293,209L300,209L300,216L293,216ZM307,209L321,209L321,216L307,216ZM328,209L342,209L342,216L328,216ZM349,209L363,209L363,216L349,216ZM384,209L391,209L391,216L384,216ZM398,209L419,209L419,216L398,216ZM34,216L55,216L55,223L34,223ZM62,216L69,216L69,223L62,223ZM76,216L83,216L83,223L76,223ZM90,216L104,216L104,223L90,223ZM125,216L139,216L139,223L125,223ZM146,216L160,216L160,223L146,223ZM188,216L195,216L195,223L188,223ZM202,216L209,216L209,223L202,223ZM216,216L223,216L223,223L216,223ZM230,216L237,216L237,223L230,223ZM244,216L258,216L258,223L244,223ZM265,216L307,216L307,223L265,223ZM321,216L328,216L328,223L321,223ZM342,216L349,216L349,223L342,223ZM356,216L363,216L363,223L356,223ZM370,216L377,216L377,223L370,223ZM384,216L391,216L391,223L384,223ZM398,216L405,216L405,223L398,223ZM20,223L55,223L55,230L20,230ZM76,223L83,223L83,230L76,230ZM97,223L104,223L104,230L97,230ZM139,223L209,223L209,230L139,230ZM230,223L251,223L251,230L230,230ZM272,223L286,223L286,230L272,230ZM300,223L314,223L314,230L300,230ZM321,223L349,223L349,230L321,230ZM356,223L363,223L363,230L356,230ZM384,223L405,223L405,230L384,230ZM412,223L419,223L419,230L412,230ZM27,230L34,230L34,237L27,237ZM41,230L97,230L97,237L41,237ZM104,230L111,230L111,237L104,237ZM132,230L153,230L153,237L132,237ZM188,230L237,230L237,237L188,237ZM251,230L279,230L279,237L251,237ZM286,230L300,230L300,237L286,237ZM314,230L321,230L321,237L314,237ZM356,230L391,230L391,237L356,237ZM405,230L412,230L412,237L405,237ZM20,237L48,237L48,244L20,244ZM55,237L62,237L62,244L55,244ZM69,237L83,237L83,244L69,244ZM90,237L97,237L97,244L90,244ZM111,237L118,237L118,244L111,244ZM153,237L160,237L160,244L153,244ZM195,237L209,237L209,244L195,244ZM223,237L237,237L237,244L223,244ZM258,237L272,237L272,244L258,244ZM279,237L286,237L286,244L279,244ZM293,237L321,237L321,244L293,244ZM335,237L342,237L342,244L335,244ZM377,237L384,237L384,244L377,244ZM391,237L398,237L398,244L391,244ZM412,237L419,237L419,244L412,244ZM20,244L27,244L27,251L20,251ZM34,244L41,244L41,251L34,251ZM48,244L55,244L55,251L48,251ZM62,244L76,244L76,251L62,251ZM83,244L90,244L90,251L83,251ZM97,244L104,244L104,251L97,251ZM125,244L146,244L146,251L125,251ZM153,244L160,244L160,251L153,251ZM167,244L174,244L174,251L167,251ZM181,244L188,244L188,251L181,251ZM209,244L216,244L216,251L209,251ZM230,244L237,244L237,251L230,251ZM244,244L251,244L251,251L244,251ZM258,244L265,244L265,251L258,251ZM286,244L300,244L300,251L286,251ZM307,244L314,244L314,251L307,251ZM342,244L349,244L349,251L342,251ZM363,244L370,244L370,251L363,251ZM377,244L398,244L398,251L377,251ZM405,244L412,244L412,251L405,251ZM20,251L27,251L27,258L20,258ZM34,251L41,251L41,258L34,258ZM48,251L55,251L55,258L48,258ZM83,251L90,251L90,258L83,258ZM104,251L111,251L111,258L104,258ZM118,251L125,251L125,258L118,258ZM132,251L153,251L153,258L132,258ZM167,251L181,251L181,258L167,258ZM188,251L195,251L195,258L188,258ZM202,251L209,251L209,258L202,258ZM216,251L230,251L230,258L216,258ZM237,251L244,251L244,258L237,258ZM251,251L286,251L286,258L251,258ZM300,251L307,251L307,258L300,258ZM314,251L335,251L335,258L314,258ZM349,251L356,251L356,258L349,258ZM370,251L384,251L384,258L370,258ZM391,251L419,251L419,258L391,258ZM27,258L34,258L34,265L27,265ZM41,258L69,258L69,265L41,265ZM76,258L83,258L83,265L76,265ZM90,258L97,258L97,265L90,265ZM118,258L132,258L132,265L118,265ZM146,258L153,258L153,265L146,265ZM167,258L181,258L181,265L167,265ZM188,258L202,258L202,265L188,265ZM230,258L244,258L244,265L230,265ZM258,258L272,258L272,265L258,265ZM286,258L300,258L300,265L286,265ZM314,258L321,258L321,265L314,265ZM356,258L363,258L363,265L356,265ZM377,258L398,258L398,265L377,265ZM20,265L27,265L27,272L20,272ZM34,265L55,265L55,272L34,272ZM69,265L76,265L76,272L69,272ZM90,265L104,265L104,272L90,272ZM111,265L132,265L132,272L111,272ZM139,265L146,265L146,272L139,272ZM153,265L160,265L160,272L153,272ZM167,265L188,265L188,272L167,272ZM209,265L216,265L216,272L209,272ZM244,265L251,265L251,272L244,272ZM279,265L286,265L286,272L279,272ZM293,265L300,265L300,272L293,272ZM314,265L335,265L335,272L314,272ZM356,265L363,265L363,272L356,272ZM370,265L377,265L377,272L370,272ZM391,265L419,265L419,272L391,272ZM27,272L41,272L41,279L27,279ZM48,272L55,272L55,279L48,279ZM62,272L76,272L76,279L62,279ZM83,272L97,272L97,279L83,279ZM111,272L139,272L139,279L111,279ZM146,272L153,272L153,279L146,279ZM174,272L188,272L188,279L174,279ZM195,272L202,272L202,279L195,279ZM209,272L223,272L223,279L209,279ZM244,272L251,272L251,279L244,279ZM258,272L265,272L265,279L258,279ZM286,272L293,272L293,279L286,279ZM307,272L314,272L314,279L307,279ZM321,272L349,272L349,279L321,279ZM363,272L370,272L370,279L363,279ZM377,272L391,272L391,279L377,279ZM398,272L405,272L405,279L398,279ZM20,279L55,279L55,286L20,286ZM69,279L76,279L76,286L69,286ZM83,279L104,279L104,286L83,286ZM118,279L132,279L132,286L118,286ZM139,279L167,279L167,286L139,286ZM195,279L202,279L202,286L195,286ZM216,279L230,279L230,286L216,286ZM237,279L286,279L286,286L237,286ZM300,279L307,279L307,286L300,286ZM314,279L321,279L321,286L314,286ZM328,279L342,279L342,286L328,286ZM349,279L363,279L363,286L349,286ZM370,279L384,279L384,286L370,286ZM391,279L405,279L405,286L391,286ZM20,286L27,286L27,293L20,293ZM34,286L69,286L69,293L34,293ZM76,286L97,286L97,293L76,293ZM104,286L111,286L111,293L104,293ZM139,286L146,286L146,293L139,293ZM153,286L160,286L160,293L153,293ZM174,286L188,286L188,293L174,293ZM202,286L209,286L209,293L202,293ZM230,286L244,286L244,293L230,293ZM258,286L265,286L265,293L258,293ZM279,286L286,286L286,293L279,293ZM293,286L300,286L300,293L293,293ZM342,286L349,286L349,293L342,293ZM356,286L363,286L363,293L356,293ZM384,286L405,286L405,293L384,293ZM20,293L62,293L62,300L20,300ZM69,293L83,293L83,300L69,300ZM104,293L111,293L111,300L104,300ZM118,293L125,293L125,300L118,300ZM132,293L153,293L153,300L132,300ZM167,293L195,293L195,300L167,300ZM209,293L216,293L216,300L209,300ZM223,293L244,293L244,300L223,300ZM265,293L272,293L272,300L265,300ZM293,293L300,293L300,300L293,300ZM307,293L321,293L321,300L307,300ZM328,293L335,293L335,300L328,300ZM370,293L384,293L384,300L370,300ZM391,293L398,293L398,300L391,300ZM405,293L419,293L419,300L405,300ZM27,300L41,300L41,307L27,307ZM48,300L90,300L90,307L48,307ZM97,300L104,300L104,307L97,307ZM111,300L118,300L118,307L111,307ZM125,300L132,300L132,307L125,307ZM139,300L146,300L146,307L139,307ZM153,300L174,300L174,307L153,307ZM181,300L188,300L188,307L181,307ZM195,300L216,300L216,307L195,307ZM230,300L244,300L244,307L230,307ZM251,300L258,300L258,307L251,307ZM265,300L279,300L279,307L265,307ZM335,300L349,300L349,307L335,307ZM356,300L370,300L370,307L356,307ZM391,300L398,300L398,307L391,307ZM27,307L62,307L62,314L27,314ZM69,307L83,307L83,314L69,314ZM111,307L118,307L118,314L111,314ZM125,307L167,307L167,314L125,314ZM174,307L188,307L188,314L174,314ZM216,307L223,307L223,314L216,314ZM230,307L237,307L237,314L230,314ZM244,307L265,307L265,314L244,314ZM300,307L307,307L307,314L300,314ZM314,307L321,307L321,314L314,314ZM328,307L342,307L342,314L328,314ZM349,307L356,307L356,314L349,314ZM363,307L377,307L377,314L363,314ZM391,307L405,307L405,314L391,314ZM27,314L34,314L34,321L27,321ZM48,314L76,314L76,321L48,321ZM104,314L118,314L118,321L104,321ZM125,314L146,314L146,321L125,321ZM153,314L167,314L167,321L153,321ZM195,314L202,314L202,321L195,321ZM237,314L279,314L279,321L237,321ZM293,314L300,314L300,321L293,321ZM307,314L328,314L328,321L307,321ZM356,314L370,314L370,321L356,321ZM377,314L391,314L391,321L377,321ZM20,321L34,321L34,328L20,328ZM41,321L55,321L55,328L41,328ZM69,321L90,321L90,328L69,328ZM97,321L111,321L111,328L97,328ZM118,321L125,321L125,328L118,328ZM160,321L174,321L174,328L160,328ZM181,321L209,321L209,328L181,328ZM216,321L230,321L230,328L216,328ZM265,321L272,321L272,328L265,328ZM314,321L328,321L328,328L314,328ZM335,321L342,321L342,328L335,328ZM398,321L419,321L419,328L398,328ZM55,328L69,328L69,335L55,335ZM83,328L97,328L97,335L83,335ZM111,328L132,328L132,335L111,335ZM139,328L174,328L174,335L139,335ZM181,328L188,328L188,335L181,335ZM209,328L216,328L216,335L209,335ZM244,328L251,328L251,335L244,335ZM272,328L293,328L293,335L272,335ZM307,328L314,328L314,335L307,335ZM321,328L328,328L328,335L321,335ZM342,328L349,328L349,335L342,335ZM384,328L391,328L391,335L384,335ZM27,335L34,335L34,342L27,342ZM41,335L62,335L62,342L41,342ZM69,335L83,335L83,342L69,342ZM90,335L97,335L97,342L90,342ZM118,335L125,335L125,342L118,342ZM132,335L139,335L139,342L132,342ZM146,335L153,335L153,342L146,342ZM174,335L181,335L181,342L174,342ZM202,335L216,335L216,342L202,342ZM230,335L244,335L244,342L230,342ZM251,335L265,335L265,342L251,342ZM286,335L293,335L293,342L286,342ZM300,335L384,335L384,342L300,342ZM391,335L405,335L405,342L391,342ZM412,335L419,335L419,342L412,342ZM20,342L27,342L27,349L20,349ZM34,342L41,342L41,349L34,349ZM55,342L69,342L69,349L55,349ZM90,342L104,342L104,349L90,349ZM125,342L132,342L132,349L125,349ZM139,342L153,342L153,349L139,349ZM174,342L181,342L181,349L174,349ZM216,342L223,342L223,349L216,349ZM230,342L237,342L237,349L230,349ZM251,342L258,342L258,349L251,349ZM265,342L286,342L286,349L265,349ZM293,342L300,342L300,349L293,349ZM307,342L314,342L314,349L307,349ZM335,342L349,342L349,349L335,349ZM356,342L363,342L363,349L356,349ZM370,342L377,342L377,349L370,349ZM384,342L391,342L391,349L384,349ZM20,349L55,349L55,356L20,356ZM76,349L90,349L90,356L76,356ZM97,349L104,349L104,356L97,356ZM125,349L132,349L132,356L125,356ZM139,349L153,349L153,356L139,356ZM160,349L167,349L167,356L160,356ZM174,349L195,349L195,356L174,356ZM216,349L244,349L244,356L216,356ZM258,349L272,349L272,356L258,356ZM279,349L293,349L293,356L279,356ZM314,349L328,349L328,356L314,356ZM335,349L342,349L342,356L335,356ZM356,349L363,349L363,356L356,356ZM370,349L377,349L377,356L370,356ZM398,349L419,349L419,356L398,356ZM62,356L83,356L83,363L62,363ZM90,356L104,356L104,363L90,363ZM125,356L132,356L132,363L125,363ZM174,356L244,356L244,363L174,363ZM265,356L272,356L272,363L265,363ZM286,356L300,356L300,363L286,363ZM307,356L314,356L314,363L307,363ZM342,356L398,356L398,363L342,363ZM405,356L412,356L412,363L405,363ZM76,363L83,363L83,370L76,370ZM125,363L132,363L132,370L125,370ZM160,363L167,363L167,370L160,370ZM181,363L209,363L209,370L181,370ZM230,363L251,363L251,370L230,370ZM258,363L307,363L307,370L258,370ZM328,363L342,363L342,370L328,370ZM349,363L363,363L363,370L349,370ZM384,363L391,363L391,370L384,370ZM398,363L405,363L405,370L398,370ZM20,370L69,370L69,377L20,377ZM90,370L97,370L97,377L90,377ZM125,370L132,370L132,377L125,377ZM139,370L153,370L153,377L139,377ZM181,370L188,370L188,377L181,377ZM195,370L209,370L209,377L195,377ZM216,370L223,370L223,377L216,377ZM230,370L237,370L237,377L230,377ZM258,370L279,370L279,377L258,377ZM307,370L328,370L328,377L307,377ZM335,370L342,370L342,377L335,377ZM349,370L363,370L363,377L349,377ZM370,370L377,370L377,377L370,377ZM384,370L398,370L398,377L384,377ZM405,370L419,370L419,377L405,377ZM20,377L27,377L27,384L20,384ZM62,377L69,377L69,384L62,384ZM83,377L97,377L97,384L83,384ZM104,377L132,377L132,384L104,384ZM188,377L195,377L195,384L188,384ZM202,377L209,377L209,384L202,384ZM230,377L237,377L237,384L230,384ZM251,377L258,377L258,384L251,384ZM265,377L272,377L272,384L265,384ZM300,377L328,377L328,384L300,384ZM335,377L342,377L342,384L335,384ZM356,377L363,377L363,384L356,384ZM384,377L391,377L391,384L384,384ZM398,377L405,377L405,384L398,384ZM412,377L419,377L419,384L412,384ZM20,384L27,384L27,391L20,391ZM34,384L55,384L55,391L34,391ZM62,384L69,384L69,391L62,391ZM76,384L97,384L97,391L76,391ZM104,384L125,384L125,391L104,391ZM132,384L146,384L146,391L132,391ZM174,384L237,384L237,391L174,391ZM244,384L251,384L251,391L244,391ZM272,384L293,384L293,391L272,391ZM300,384L307,384L307,391L300,391ZM342,384L349,384L349,391L342,391ZM356,384L412,384L412,391L356,391ZM20,391L27,391L27,398L20,398ZM34,391L55,391L55,398L34,398ZM62,391L69,391L69,398L62,398ZM76,391L83,391L83,398L76,398ZM97,391L104,391L104,398L97,398ZM139,391L181,391L181,398L139,398ZM195,391L209,391L209,398L195,398ZM216,391L223,391L223,398L216,398ZM258,391L265,391L265,398L258,398ZM272,391L307,391L307,398L272,398ZM314,391L335,391L335,398L314,398ZM356,391L370,391L370,398L356,398ZM377,391L384,391L384,398L377,398ZM398,391L412,391L412,398L398,398ZM20,398L27,398L27,405L20,405ZM34,398L55,398L55,405L34,405ZM62,398L69,398L69,405L62,405ZM76,398L90,398L90,405L76,405ZM111,398L125,398L125,405L111,405ZM139,398L153,398L153,405L139,405ZM167,398L195,398L195,405L167,405ZM216,398L237,398L237,405L216,405ZM244,398L258,398L258,405L244,405ZM272,398L293,398L293,405L272,405ZM307,398L321,398L321,405L307,405ZM342,398L377,398L377,405L342,405ZM391,398L398,398L398,405L391,405ZM20,405L27,405L27,412L20,412ZM62,405L69,405L69,412L62,412ZM90,405L111,405L111,412L90,412ZM125,405L139,405L139,412L125,412ZM167,405L195,405L195,412L167,412ZM202,405L209,405L209,412L202,412ZM223,405L272,405L272,412L223,412ZM293,405L300,405L300,412L293,412ZM314,405L328,405L328,412L314,412ZM349,405L356,405L356,412L349,412ZM384,405L391,405L391,412L384,412ZM398,405L419,405L419,412L398,412ZM20,412L69,412L69,419L20,419ZM104,412L111,412L111,419L104,419ZM139,412L146,412L146,419L139,419ZM153,412L167,412L167,419L153,419ZM181,412L216,412L216,419L181,419ZM230,412L237,412L237,419L230,419ZM265,412L314,412L314,419L265,419ZM321,412L328,412L328,419L321,419ZM335,412L363,412L363,419L335,419ZM398,412L412,412L412,419L398,419Z"/></svg>
