<?xml version="1.0"?>
<svg xmlns="http://www.w3.org/2000/svg" xmlns:xlink="http://www.w3.org/1999/xlink" version="1.1" width="440px" height="440px" viewBox="0 0 440 440"><rect x="0" y="0" width="440" height="440" fill="#ffffff" fill-opacity="1"/><path fill="#000000" fill-opacity="1" d="M20,20L69,20L69,27L20,27ZM76,20L97,20L97,27L76,27ZM104,20L111,20L111,27L104,27ZM125,20L132,20L132,27L125,27ZM139,20L146,20L146,27L139,27ZM160,20L181,20L181,27L160,27ZM188,20L223,20L223,27L188,27ZM279,20L286,20L286,27L279,27ZM300,20L314,20L314,27L300,27ZM328,20L335,20L335,27L328,27ZM342,20L356,20L356,27L342,27ZM370,20L419,20L419,27L370,27ZM20,27L27,27L27,34L20,34ZM62,27L69,27L69,34L62,34ZM76,27L83,27L83,34L76,34ZM90,27L118,27L118,34L90,34ZM146,27L167,27L167,34L146,34ZM188,27L195,27L195,34L188,34ZM258,27L265,27L265,34L258,34ZM279,27L286,27L286,34L279,34ZM293,27L300,27L300,34L293,34ZM307,27L314,27L314,34L307,34ZM335,27L342,27L342,34L335,34ZM349,27L356,27L356,34L349,34ZM370,27L377,27L377,34L370,34ZM412,27L419,27L419,34L412,34ZM20,34L27,34L27,41L20,41ZM34,34L55,34L55,41L34,41ZM62,34L69,34L69,41L62,41ZM76,34L97,34L97,41L76,41ZM118,34L139,34L139,41L118,41ZM153,34L174,34L174,41L153,41ZM223,34L244,34L244,41L223,41ZM265,34L279,34L279,41L265,41ZM293,34L300,34L300,41L293,41ZM314,34L356,34L356,41L314,41ZM370,34L377,34L377,41L370,41ZM384,34L405,34L405,41L384,41ZM412,34L419,34L419,41L412,41ZM20,41L27,41L27,48L20,48ZM34,41L55,41L55,48L34,48ZM62,41L69,41L69,48L62,48ZM90,41L104,41L104,48L90,48ZM111,41L125,41L125,48L111,48ZM132,41L139,41L139,48L132,48ZM146,41L167,41L167,48L146,48ZM174,41L181,41L181,48L174,48ZM195,41L209,41L209,48L195,48ZM216,41L223,41L223,48L216,48ZM230,41L237,41L237,48L230,48ZM244,41L251,41L251,48L244,48ZM265,41L293,41L293,48L265,48ZM307,41L314,41L314,48L307,48ZM321,41L335,41L335,48L321,48ZM349,41L356,41L356,48L349,48ZM370,41L377,41L377,48L370,48ZM384,41L405,41L405,48L384,48ZM412,41L419,41L419,48L412,48ZM20,48L27,48L27,55L20,55ZM34,48L55,48L55,55L34,55ZM62,48L69,48L69,55L62,55ZM83,48L90,48L90,55L83,55ZM97,48L125,48L125,55L97,55ZM139,48L160,48L160,55L139,55ZM167,48L174,48L174,55L167,55ZM181,48L188,48L188,55L181,55ZM202,48L237,48L237,55L202,55ZM258,48L265,48L265,55L258,55ZM279,48L286,48L286,55L279,55ZM300,48L321,48L321,55L300,55ZM328,48L342,48L342,55L328,55ZM349,48L356,48L356,55L349,55ZM370,48L377,48L377,55L370,55ZM384,48L405,48L405,55L384,55ZM412,48L419,48L419,55L412,55ZM20,55L27,55L27,62L20,62ZM62,55L69,55L69,62L62,62ZM76,55L83,55L83,62L76,62ZM90,55L97,55L97,62L90,62ZM111,55L118,55L118,62L111,62ZM125,55L132,55L132,62L125,62ZM139,55L167,55L167,62L139,62ZM174,55L195,55L195,62L174,62ZM202,55L209,55L209,62L202,62ZM230,55L244,55L244,62L230,62ZM258,55L279,55L279,62L258,62ZM293,55L300,55L300,62L293,62ZM314,55L321,55L321,62L314,62ZM335,55L349,55L349,62L335,62ZM370,55L377,55L377,62L370,62ZM412,55L419,55L419,62L412,62ZM20,62L69,62L69,69L20,69ZM76,62L83,62L83,69L76,69ZM90,62L97,62L97,69L90,69ZM104,62L111,62L111,69L104,69ZM118,62L125,62L125,69L118,69ZM132,62L139,62L139,69L132,69ZM146,62L153,62L153,69L146,69ZM160,62L167,62L167,69L160,69ZM174,62L181,62L181,69L174,69ZM188,62L195,62L195,69L188,69ZM202,62L209,62L209,69L202,69ZM216,62L223,62L223,69L216,69ZM230,62L237,62L237,69L230,69ZM244,62L251,62L251,69L244,69ZM258,62L265,62L265,69L258,69ZM272,62L279,62L279,69L272,69ZM286,62L293,62L293,69L286,69ZM300,62L307,62L307,69L300,69ZM314,62L321,62L321,69L314,69ZM328,62L335,62L335,69L328,69ZM342,62L349,62L349,69L342,69ZM356,62L363,62L363,69L356,69ZM370,62L419,62L419,69L370,69ZM76,69L83,69L83,76L76,76ZM90,69L118,69L118,76L90,76ZM125,69L139,69L139,76L125,76ZM153,69L167,69L167,76L153,76ZM174,69L181,69L181,76L174,76ZM202,69L209,69L209,76L202,76ZM230,69L237,69L237,76L230,76ZM258,69L272,69L272,76L258,76ZM293,69L300,69L300,76L293,76ZM314,69L328,69L328,76L314,76ZM335,69L342,69L342,76L335,76ZM349,69L363,69L363,76L349,76ZM34,76L55,76L55,83L34,83ZM62,76L69,76L69,83L62,83ZM76,76L125,76L125,83L76,83ZM132,76L153,76L153,83L132,83ZM167,76L181,76L181,83L167,83ZM188,76L244,76L244,83L188,83ZM265,76L272,76L272,83L265,83ZM279,76L314,76L314,83L279,83ZM321,76L328,76L328,83L321,83ZM342,76L356,76L356,83L342,83ZM363,76L384,76L384,83L363,83ZM398,76L419,76L419,83L398,83ZM20,83L41,83L41,90L20,90ZM48,83L62,83L62,90L48,90ZM76,83L83,83L83,90L76,90ZM104,83L118,83L118,90L104,90ZM139,83L160,83L160,90L139,90ZM188,83L202,83L202,90L188,90ZM209,83L223,83L223,90L209,90ZM230,83L237,83L237,90L230,90ZM244,83L265,83L265,90L244,90ZM286,83L293,83L293,90L286,90ZM300,83L314,83L314,90L300,90ZM328,83L349,83L349,90L328,90ZM356,83L370,83L370,90L356,90ZM384,83L419,83L419,90L384,90ZM20,90L27,90L27,97L20,97ZM48,90L69,90L69,97L48,97ZM76,90L83,90L83,97L76,97ZM104,90L111,90L111,97L104,97ZM125,90L132,90L132,97L125,97ZM146,90L167,90L167,97L146,97ZM174,90L188,90L188,97L174,97ZM209,90L216,90L216,97L209,97ZM223,90L230,90L230,97L223,97ZM237,90L251,90L251,97L237,97ZM265,90L286,90L286,97L265,97ZM293,90L300,90L300,97L293,97ZM307,90L328,90L328,97L307,97ZM405,90L412,90L412,97L405,97ZM27,97L34,97L34,104L27,104ZM41,97L55,97L55,104L41,104ZM69,97L83,97L83,104L69,104ZM90,97L97,97L97,104L90,104ZM111,97L139,97L139,104L111,104ZM153,97L167,97L167,104L153,104ZM181,97L195,97L195,104L181,104ZM209,97L223,97L223,104L209,104ZM230,97L237,97L237,104L230,104ZM251,97L258,97L258,104L251,104ZM279,97L286,97L286,104L279,104ZM293,97L300,97L300,104L293,104ZM307,97L328,97L328,104L307,104ZM349,97L370,97L370,104L349,104ZM377,97L384,97L384,104L377,104ZM398,97L419,97L419,104L398,104ZM41,104L83,104L83,111L41,111ZM90,104L118,104L118,111L90,111ZM132,104L153,104L153,111L132,111ZM160,104L174,104L174,111L160,111ZM188,104L202,104L202,111L188,111ZM237,104L244,104L244,111L237,111ZM251,104L279,104L279,111L251,111ZM286,104L293,104L293,111L286,111ZM342,104L349,104L349,111L342,111ZM356,104L363,104L363,111L356,111ZM370,104L405,104L405,111L370,111ZM34,111L41,111L41,118L34,118ZM69,111L76,111L76,118L69,118ZM83,111L90,111L90,118L83,118ZM104,111L111,111L111,118L104,118ZM118,111L132,111L132,118L118,118ZM146,111L153,111L153,118L146,118ZM167,111L174,111L174,118L167,118ZM202,111L209,111L209,118L202,118ZM216,111L230,111L230,118L216,118ZM237,111L244,111L244,118L237,118ZM258,111L265,111L265,118L258,118ZM272,111L279,111L279,118L272,118ZM300,111L307,111L307,118L300,118ZM314,111L321,111L321,118L314,118ZM328,111L342,111L342,118L328,118ZM349,111L419,111L419,118L349,118ZM20,118L34,118L34,125L20,125ZM41,118L55,118L55,125L41,125ZM62,118L69,118L69,125L62,125ZM76,118L83,118L83,125L76,125ZM104,118L111,118L111,125L104,125ZM118,118L125,118L125,125L118,125ZM132,118L146,118L146,125L132,125ZM153,118L160,118L160,125L153,125ZM167,118L174,118L174,125L167,125ZM202,118L209,118L209,125L202,125ZM223,118L244,118L244,125L223,125ZM272,118L286,118L286,125L272,125ZM293,118L300,118L300,125L293,125ZM307,118L328,118L328,125L307,125ZM335,118L342,118L342,125L335,125ZM349,118L356,118L356,125L349,125ZM363,118L370,118L370,125L363,125ZM405,118L419,118L419,125L405,125ZM20,125L41,125L41,132L20,132ZM48,125L62,125L62,132L48,132ZM76,125L90,125L90,132L76,132ZM111,125L125,125L125,132L111,132ZM139,125L153,125L153,132L139,132ZM167,125L195,125L195,132L167,132ZM202,125L216,125L216,132L202,132ZM230,125L244,125L244,132L230,132ZM251,125L258,125L258,132L251,132ZM272,125L286,125L286,132L272,132ZM300,125L342,125L342,132L300,132ZM356,125L363,125L363,132L356,132ZM384,125L405,125L405,132L384,132ZM412,125L419,125L419,132L412,132ZM27,132L34,132L34,139L27,139ZM41,132L48,132L48,139L41,139ZM55,132L69,132L69,139L55,139ZM76,132L97,132L97,139L76,139ZM104,132L111,132L111,139L104,139ZM132,132L153,132L153,139L132,139ZM202,132L216,132L216,139L202,139ZM237,132L244,132L244,139L237,139ZM272,132L279,132L279,139L272,139ZM286,132L293,132L293,139L286,139ZM321,132L328,132L328,139L321,139ZM342,132L356,132L356,139L342,139ZM363,132L384,132L384,139L363,139ZM20,139L27,139L27,146L20,146ZM34,139L41,139L41,146L34,146ZM48,139L62,139L62,146L48,146ZM90,139L104,139L104,146L90,146ZM125,139L132,139L132,146L125,146ZM146,139L160,139L160,146L146,146ZM167,139L174,139L174,146L167,146ZM181,139L188,139L188,146L181,146ZM195,139L209,139L209,146L195,146ZM216,139L223,139L223,146L216,146ZM230,139L237,139L237,146L230,146ZM244,139L258,139L258,146L244,146ZM293,139L342,139L342,146L293,146ZM349,139L356,139L356,146L349,146ZM363,139L377,139L377,146L363,146ZM384,139L405,139L405,146L384,146ZM27,146L48,146L48,153L27,153ZM62,146L76,146L76,153L62,153ZM111,146L118,146L118,153L111,153ZM139,146L146,146L146,153L139,153ZM153,146L167,146L167,153L153,153ZM188,146L195,146L195,153L188,153ZM202,146L216,146L216,153L202,153ZM230,146L244,146L244,153L230,153ZM251,146L258,146L258,153L251,153ZM265,146L286,146L286,153L265,153ZM307,146L321,146L321,153L307,153ZM335,146L342,146L342,153L335,153ZM363,146L384,146L384,153L363,153ZM412,146L419,146L419,153L412,153ZM20,153L27,153L27,160L20,160ZM41,153L48,153L48,160L41,160ZM69,153L83,153L83,160L69,160ZM97,153L111,153L111,160L97,160ZM118,153L132,153L132,160L118,160ZM139,153L146,153L146,160L139,160ZM153,153L167,153L167,160L153,160ZM202,153L230,153L230,160L202,160ZM244,153L251,153L251,160L244,160ZM258,153L265,153L265,160L258,160ZM272,153L279,153L279,160L272,160ZM300,153L321,153L321,160L300,160ZM335,153L342,153L342,160L335,160ZM349,153L370,153L370,160L349,160ZM398,153L405,153L405,160L398,160ZM412,153L419,153L419,160L412,160ZM20,160L34,160L34,167L20,167ZM48,160L69,160L69,167L48,167ZM104,160L111,160L111,167L104,167ZM125,160L139,160L139,167L125,167ZM153,160L160,160L160,167L153,167ZM188,160L195,160L195,167L188,167ZM209,160L223,160L223,167L209,167ZM230,160L251,160L251,167L230,167ZM265,160L272,160L272,167L265,167ZM279,160L300,160L300,167L279,167ZM342,160L356,160L356,167L342,167ZM370,160L377,160L377,167L370,167ZM391,160L398,160L398,167L391,167ZM405,160L412,160L412,167L405,167ZM20,167L41,167L41,174L20,174ZM97,167L132,167L132,174L97,174ZM139,167L153,167L153,174L139,174ZM167,167L174,167L174,174L167,174ZM181,167L188,167L188,174L181,174ZM209,167L216,167L216,174L209,174ZM237,167L244,167L244,174L237,174ZM251,167L272,167L272,174L251,174ZM279,167L286,167L286,174L279,174ZM293,167L342,167L342,174L293,174ZM349,167L356,167L356,174L349,174ZM384,167L391,167L391,174L384,174ZM398,167L405,167L405,174L398,174ZM20,174L34,174L34,181L20,181ZM41,174L55,174L55,181L41,181ZM62,174L90,174L90,181L62,181ZM97,174L104,174L104,181L97,181ZM125,174L160,174L160,181L125,181ZM181,174L195,174L195,181L181,181ZM209,174L223,174L223,181L209,181ZM230,174L244,174L244,181L230,181ZM251,174L258,174L258,181L251,181ZM265,174L272,174L272,181L265,181ZM286,174L293,174L293,181L286,181ZM314,174L321,174L321,181L314,181ZM349,174L384,174L384,181L349,181ZM391,174L398,174L398,181L391,181ZM405,174L412,174L412,181L405,181ZM41,181L62,181L62,188L41,188ZM69,181L139,181L139,188L69,188ZM160,181L174,181L174,188L160,188ZM202,181L216,181L216,188L202,188ZM237,181L251,181L251,188L237,188ZM258,181L272,181L272,188L258,188ZM293,181L300,181L300,188L293,188ZM307,181L321,181L321,188L307,188ZM328,181L335,181L335,188L328,188ZM349,181L370,181L370,188L349,188ZM384,181L405,181L405,188L384,188ZM412,181L419,181L419,188L412,188ZM20,188L27,188L27,195L20,195ZM34,188L41,188L41,195L34,195ZM48,188L76,188L76,195L48,195ZM118,188L132,188L132,195L118,195ZM139,188L146,188L146,195L139,195ZM167,188L174,188L174,195L167,195ZM181,188L188,188L188,195L181,195ZM202,188L209,188L209,195L202,195ZM216,188L244,188L244,195L216,195ZM251,188L272,188L272,195L251,195ZM279,188L300,188L300,195L279,195ZM321,188L349,188L349,195L321,195ZM356,188L363,188L363,195L356,195ZM370,188L384,188L384,195L370,195ZM398,188L405,188L405,195L398,195ZM412,188L419,188L419,195L412,195ZM20,195L27,195L27,202L20,202ZM48,195L62,195L62,202L48,202ZM69,195L83,195L83,202L69,202ZM97,195L104,195L104,202L97,202ZM111,195L125,195L125,202L111,202ZM132,195L153,195L153,202L132,202ZM167,195L181,195L181,202L167,202ZM216,195L230,195L230,202L216,202ZM237,195L244,195L244,202L237,202ZM251,195L265,195L265,202L251,202ZM272,195L286,195L286,202L272,202ZM300,195L307,195L307,202L300,202ZM314,195L321,195L321,202L314,202ZM328,195L349,195L349,202L328,202ZM377,195L391,195L391,202L377,202ZM398,195L412,195L412,202L398,202ZM20,202L34,202L34,209L20,209ZM48,202L104,202L104,209L48,209ZM125,202L146,202L146,209L125,209ZM160,202L181,202L181,209L160,209ZM188,202L258,202L258,209L188,209ZM265,202L279,202L279,209L265,209ZM286,202L300,202L300,209L286,209ZM321,202L328,202L328,209L321,209ZM342,202L391,202L391,209L342,209ZM398,202L405,202L405,209L398,209ZM34,209L41,209L41,216L34,216ZM48,209L55,209L55,216L48,216ZM76,209L97,209L97,216L76,216ZM125,209L153,209L153,216L125,216ZM160,209L167,209L167,216L160,216ZM174,209L195,209L195,216L174,216ZM202,209L209,209L209,216L202,216ZM230,209L237,209L237,216L230,216ZM265,209L272,209L272,216L265,216ZM279,209L286,209L286,216L279,216ZM293,209L321,209L321,216L293,216ZM328,209L342,209L342,216L328,216ZM349,209L363,209L363,216L349,216ZM384,209L391,209L391,216L384,216ZM398,209L405,209L405,216L398,216ZM412,209L419,209L419,216L412,216ZM20,216L55,216L55,223L20,223ZM62,216L69,216L69,223L62,223ZM76,216L90,216L90,223L76,223ZM97,216L104,216L104,223L97,223ZM125,216L132,216L132,223L125,223ZM153,216L167,216L167,223L153,223ZM202,216L209,216L209,223L202,223ZM216,216L223,216L223,223L216,223ZM230,216L251,216L251,223L230,223ZM258,216L279,216L279,223L258,223ZM286,216L300,216L300,223L286,223ZM321,216L328,216L328,223L321,223ZM342,216L349,216L349,223L342,223ZM356,216L363,216L363,223L356,223ZM370,216L377,216L377,223L370,223ZM384,216L391,216L391,223L384,223ZM398,216L412,216L412,223L398,223ZM34,223L55,223L55,230L34,230ZM76,223L90,223L90,230L76,230ZM97,223L111,223L111,230L97,230ZM167,223L188,223L188,230L167,230ZM195,223L209,223L209,230L195,230ZM230,223L237,223L237,230L230,230ZM244,223L251,223L251,230L244,230ZM258,223L265,223L265,230L258,230ZM272,223L279,223L279,230L272,230ZM300,223L314,223L314,230L300,230ZM321,223L335,223L335,230L321,230ZM356,223L363,223L363,230L356,230ZM384,223L419,223L419,230L384,230ZM20,230L34,230L34,237L20,237ZM41,230L83,230L83,237L41,237ZM90,230L125,230L125,237L90,237ZM153,230L167,230L167,237L153,237ZM181,230L195,230L195,237L181,237ZM202,230L244,230L244,237L202,237ZM265,230L279,230L279,237L265,237ZM286,230L300,230L300,237L286,237ZM314,230L321,230L321,237L314,237ZM342,230L349,230L349,237L342,237ZM356,230L391,230L391,237L356,237ZM405,230L412,230L412,237L405,237ZM20,237L48,237L48,244L20,244ZM55,237L62,237L62,244L55,244ZM69,237L97,237L97,244L69,244ZM104,237L111,237L111,244L104,244ZM125,237L132,237L132,244L125,244ZM146,237L160,237L160,244L146,244ZM167,237L174,237L174,244L167,244ZM188,237L202,237L202,244L188,244ZM216,237L237,237L237,244L216,244ZM244,237L272,237L272,244L244,244ZM307,237L321,237L321,244L307,244ZM335,237L342,237L342,244L335,244ZM363,237L370,237L370,244L363,244ZM391,237L398,237L398,244L391,244ZM405,237L419,237L419,244L405,244ZM34,244L41,244L41,251L34,251ZM62,244L76,244L76,251L62,251ZM90,244L97,244L97,251L90,251ZM104,244L118,244L118,251L104,251ZM125,244L132,244L132,251L125,251ZM153,244L160,244L160,251L153,251ZM167,244L181,244L181,251L167,251ZM209,244L216,244L216,251L209,251ZM230,244L237,244L237,251L230,251ZM251,244L258,244L258,251L251,251ZM265,244L272,244L272,251L265,251ZM279,244L300,244L300,251L279,251ZM307,244L314,244L314,251L307,251ZM342,244L349,244L349,251L342,251ZM363,244L370,244L370,251L363,251ZM384,244L398,244L398,251L384,251ZM20,251L27,251L27,258L20,258ZM34,251L41,251L41,258L34,258ZM48,251L62,251L62,258L48,258ZM90,251L97,251L97,258L90,258ZM111,251L125,251L125,258L111,258ZM132,251L139,251L139,258L132,258ZM146,251L153,251L153,258L146,258ZM160,251L188,251L188,258L160,258ZM195,251L216,251L216,258L195,258ZM223,251L230,251L230,258L223,258ZM244,251L258,251L258,258L244,258ZM272,251L286,251L286,258L272,258ZM293,251L307,251L307,258L293,258ZM314,251L335,251L335,258L314,258ZM349,251L356,251L356,258L349,258ZM370,251L377,251L377,258L370,258ZM391,251L419,251L419,258L391,258ZM27,258L34,258L34,265L27,265ZM41,258L69,258L69,265L41,265ZM76,258L104,258L104,265L76,265ZM111,258L125,258L125,265L111,265ZM132,258L139,258L139,265L132,265ZM153,258L160,258L160,265L153,265ZM167,258L195,258L195,265L167,265ZM202,258L223,258L223,265L202,265ZM230,258L237,258L237,265L230,265ZM251,258L258,258L258,265L251,265ZM272,258L286,258L286,265L272,265ZM314,258L321,258L321,265L314,265ZM335,258L349,258L349,265L335,265ZM356,258L363,258L363,265L356,265ZM384,258L398,258L398,265L384,265ZM27,265L55,265L55,272L27,272ZM69,265L76,265L76,272L69,272ZM111,265L125,265L125,272L111,272ZM139,265L153,265L153,272L139,272ZM160,265L174,265L174,272L160,272ZM181,265L188,265L188,272L181,272ZM202,265L216,265L216,272L202,272ZM279,265L286,265L286,272L279,272ZM314,265L335,265L335,272L314,272ZM356,265L384,265L384,272L356,272ZM391,265L419,265L419,272L391,272ZM20,272L41,272L41,279L20,279ZM62,272L69,272L69,279L62,279ZM83,272L90,272L90,279L83,279ZM104,272L160,272L160,279L104,279ZM167,272L188,272L188,279L167,279ZM195,272L202,272L202,279L195,279ZM209,272L223,272L223,279L209,279ZM244,272L251,272L251,279L244,279ZM258,272L265,272L265,279L258,279ZM272,272L279,272L279,279L272,279ZM286,272L314,272L314,279L286,279ZM321,272L356,272L356,279L321,279ZM377,272L391,272L391,279L377,279ZM398,272L405,272L405,279L398,279ZM34,279L55,279L55,286L34,286ZM97,279L104,279L104,286L97,286ZM111,279L132,279L132,286L111,286ZM139,279L153,279L153,286L139,286ZM160,279L181,279L181,286L160,286ZM195,279L202,279L202,286L195,286ZM216,279L286,279L286,286L216,286ZM300,279L307,279L307,286L300,286ZM314,279L321,279L321,286L314,286ZM328,279L335,279L335,286L328,286ZM349,279L384,279L384,286L349,286ZM391,279L405,279L405,286L391,286ZM20,286L27,286L27,293L20,293ZM34,286L97,286L97,293L34,293ZM104,286L118,286L118,293L104,293ZM139,286L146,286L146,293L139,293ZM153,286L160,286L160,293L153,293ZM167,286L188,286L188,293L167,293ZM202,286L209,286L209,293L202,293ZM223,286L230,286L230,293L223,293ZM237,286L244,286L244,293L237,293ZM258,286L265,286L265,293L258,293ZM272,286L279,286L279,293L272,293ZM286,286L300,286L300,293L286,293ZM356,286L370,286L370,293L356,293ZM384,286L405,286L405,293L384,293ZM34,293L41,293L41,300L34,300ZM69,293L76,293L76,300L69,300ZM104,293L111,293L111,300L104,300ZM132,293L174,293L174,300L132,300ZM181,293L195,293L195,300L181,300ZM209,293L216,293L216,300L209,300ZM223,293L230,293L230,300L223,300ZM237,293L244,293L244,300L237,300ZM265,293L279,293L279,300L265,300ZM300,293L342,293L342,300L300,300ZM363,293L370,293L370,300L363,300ZM377,293L384,293L384,300L377,300ZM391,293L398,293L398,300L391,300ZM405,293L419,293L419,300L405,300ZM20,300L27,300L27,307L20,307ZM34,300L48,300L48,307L34,307ZM62,300L90,300L90,307L62,307ZM97,300L132,300L132,307L97,307ZM139,300L146,300L146,307L139,307ZM153,300L160,300L160,307L153,307ZM167,300L188,300L188,307L167,307ZM195,300L216,300L216,307L195,307ZM223,300L230,300L230,307L223,307ZM237,300L244,300L244,307L237,307ZM251,300L258,300L258,307L251,307ZM265,300L279,300L279,307L265,307ZM293,300L300,300L300,307L293,307ZM321,300L328,300L328,307L321,307ZM342,300L349,300L349,307L342,307ZM356,300L370,300L370,307L356,307ZM391,300L398,300L398,307L391,307ZM41,307L62,307L62,314L41,314ZM69,307L83,307L83,314L69,314ZM97,307L104,307L104,314L97,314ZM111,307L160,307L160,314L111,314ZM174,307L188,307L188,314L174,314ZM216,307L237,307L237,314L216,314ZM244,307L265,307L265,314L244,314ZM272,307L279,307L279,314L272,314ZM300,307L307,307L307,314L300,314ZM314,307L342,307L342,314L314,314ZM349,307L356,307L356,314L349,314ZM363,307L377,307L377,314L363,314ZM398,307L419,307L419,314L398,314ZM41,314L48,314L48,321L41,321ZM55,314L69,314L69,321L55,321ZM97,314L104,314L104,321L97,321ZM118,314L146,314L146,321L118,321ZM167,314L174,314L174,321L167,321ZM195,314L202,314L202,321L195,321ZM230,314L265,314L265,321L230,321ZM272,314L279,314L279,321L272,321ZM293,314L300,314L300,321L293,321ZM342,314L349,314L349,321L342,321ZM356,314L370,314L370,321L356,321ZM377,314L398,314L398,321L377,321ZM405,314L412,314L412,321L405,321ZM41,321L48,321L48,328L41,328ZM76,321L90,321L90,328L76,328ZM111,321L125,321L125,328L111,328ZM153,321L167,321L167,328L153,328ZM174,321L195,321L195,328L174,328ZM202,321L209,321L209,328L202,328ZM216,321L223,321L223,328L216,328ZM258,321L286,321L286,328L258,328ZM307,321L321,321L321,328L307,328ZM335,321L342,321L342,328L335,328ZM349,321L363,321L363,328L349,328ZM391,321L419,321L419,328L391,328ZM27,328L34,328L34,335L27,335ZM41,328L48,328L48,335L41,335ZM62,328L76,328L76,335L62,335ZM83,328L97,328L97,335L83,335ZM118,328L125,328L125,335L118,335ZM139,328L153,328L153,335L139,335ZM160,328L174,328L174,335L160,335ZM195,328L209,328L209,335L195,335ZM216,328L223,328L223,335L216,335ZM230,328L237,328L237,335L230,335ZM244,328L251,328L251,335L244,335ZM265,328L272,328L272,335L265,335ZM286,328L293,328L293,335L286,335ZM321,328L328,328L328,335L321,335ZM342,328L349,328L349,335L342,335ZM356,328L363,328L363,335L356,335ZM384,328L391,328L391,335L384,335ZM20,335L55,335L55,342L20,342ZM69,335L83,335L83,342L69,342ZM90,335L104,335L104,342L90,342ZM111,335L139,335L139,342L111,342ZM146,335L160,335L160,342L146,342ZM174,335L188,335L188,342L174,342ZM195,335L202,335L202,342L195,342ZM223,335L230,335L230,342L223,342ZM237,335L244,335L244,342L237,342ZM251,335L258,335L258,342L251,342ZM300,335L321,335L321,342L300,342ZM328,335L356,335L356,342L328,342ZM363,335L384,335L384,342L363,342ZM391,335L405,335L405,342L391,342ZM412,335L419,335L419,342L412,342ZM20,342L27,342L27,349L20,349ZM34,342L41,342L41,349L34,349ZM55,342L90,342L90,349L55,349ZM97,342L104,342L104,349L97,349ZM125,342L167,342L167,349L125,349ZM174,342L181,342L181,349L174,349ZM188,342L209,342L209,349L188,349ZM223,342L230,342L230,349L223,349ZM258,342L265,342L265,349L258,349ZM272,342L286,342L286,349L272,349ZM293,342L300,342L300,349L293,349ZM321,342L328,342L328,349L321,349ZM335,342L349,342L349,349L335,349ZM356,342L363,342L363,349L356,349ZM370,342L377,342L377,349L370,349ZM384,342L391,342L391,349L384,349ZM20,349L55,349L55,356L20,356ZM69,349L76,349L76,356L69,356ZM90,349L104,349L104,356L90,356ZM111,349L118,349L118,356L111,356ZM125,349L132,349L132,356L125,356ZM139,349L153,349L153,356L139,356ZM188,349L216,349L216,356L188,356ZM223,349L237,349L237,356L223,356ZM244,349L251,349L251,356L244,356ZM279,349L293,349L293,356L279,356ZM314,349L342,349L342,356L314,356ZM349,349L356,349L356,356L349,356ZM370,349L377,349L377,356L370,356ZM398,349L419,349L419,356L398,356ZM62,356L69,356L69,363L62,363ZM97,356L104,356L104,363L97,363ZM146,356L153,356L153,363L146,363ZM160,356L181,356L181,363L160,363ZM202,356L237,356L237,363L202,363ZM244,356L251,356L251,363L244,363ZM286,356L300,356L300,363L286,363ZM307,356L314,356L314,363L307,363ZM321,356L328,356L328,363L321,363ZM342,356L349,356L349,363L342,363ZM356,356L412,356L412,363L356,363ZM76,363L83,363L83,370L76,370ZM97,363L104,363L104,370L97,370ZM111,363L118,363L118,370L111,370ZM125,363L139,363L139,370L125,370ZM146,363L209,363L209,370L146,370ZM230,363L237,363L237,370L230,370ZM244,363L251,363L251,370L244,370ZM279,363L342,363L342,370L279,370ZM356,363L363,363L363,370L356,370ZM384,363L405,363L405,370L384,370ZM20,370L69,370L69,377L20,377ZM111,370L125,370L125,377L111,377ZM139,370L146,370L146,377L139,377ZM167,370L174,370L174,377L167,377ZM188,370L209,370L209,377L188,377ZM216,370L223,370L223,377L216,377ZM230,370L258,370L258,377L230,377ZM335,370L342,370L342,377L335,377ZM349,370L363,370L363,377L349,377ZM370,370L377,370L377,377L370,377ZM384,370L391,370L391,377L384,377ZM405,370L419,370L419,377L405,377ZM20,377L27,377L27,384L20,384ZM62,377L69,377L69,384L62,384ZM90,377L104,377L104,384L90,384ZM132,377L139,377L139,384L132,384ZM146,377L167,377L167,384L146,384ZM174,377L181,377L181,384L174,384ZM188,377L195,377L195,384L188,384ZM202,377L209,377L209,384L202,384ZM230,377L244,377L244,384L230,384ZM300,377L342,377L342,384L300,384ZM349,377L363,377L363,384L349,384ZM384,377L405,377L405,384L384,384ZM412,377L419,377L419,384L412,384ZM20,384L27,384L27,391L20,391ZM34,384L55,384L55,391L34,391ZM62,384L69,384L69,391L62,391ZM76,384L97,384L97,391L76,391ZM104,384L132,384L132,391L104,391ZM181,384L188,384L188,391L181,391ZM202,384L237,384L237,391L202,391ZM265,384L293,384L293,391L265,391ZM300,384L307,384L307,391L300,391ZM342,384L349,384L349,391L342,391ZM356,384L412,384L412,391L356,391ZM20,391L27,391L27,398L20,398ZM34,391L55,391L55,398L34,398ZM62,391L69,391L69,398L62,398ZM76,391L83,391L83,398L76,398ZM90,391L104,391L104,398L90,398ZM118,391L125,391L125,398L118,398ZM139,391L181,391L181,398L139,398ZM188,391L202,391L202,398L188,398ZM216,391L223,391L223,398L216,398ZM230,391L258,391L258,398L230,398ZM265,391L321,391L321,398L265,398ZM328,391L335,391L335,398L328,398ZM356,391L370,391L370,398L356,398ZM377,391L384,391L384,398L377,398ZM398,391L412,391L412,398L398,398ZM20,398L27,398L27,405L20,405ZM34,398L55,398L55,405L34,405ZM62,398L69,398L69,405L62,405ZM76,398L97,398L97,405L76,405ZM111,398L132,398L132,405L111,405ZM139,398L153,398L153,405L139,405ZM167,398L181,398L181,405L167,405ZM202,398L216,398L216,405L202,405ZM223,398L244,398L244,405L223,405ZM251,398L293,398L293,405L251,405ZM314,398L328,398L328,405L314,405ZM342,398L377,398L377,405L342,405ZM391,398L398,398L398,405L391,405ZM20,405L27,405L27,412L20,412ZM62,405L69,405L69,412L62,412ZM97,405L111,405L111,412L97,412ZM125,405L132,405L132,412L125,412ZM139,405L146,405L146,412L139,412ZM167,405L188,405L188,412L167,412ZM209,405L223,405L223,412L209,412ZM230,405L237,405L237,412L230,412ZM251,405L258,405L258,412L251,412ZM265,405L272,405L272,412L265,412ZM300,405L307,405L307,412L300,412ZM314,405L328,405L328,412L314,412ZM349,405L356,405L356,412L349,412ZM384,405L419,405L419,412L384,412ZM20,412L69,412L69,419L20,419ZM104,412L111,412L111,419L104,419ZM146,412L167,412L167,419L146,419ZM188,412L202,412L202,419L188,419ZM209,412L223,412L223,419L209,419ZM244,412L251,412L251,419L244,419ZM265,412L293,412L293,419L265,419ZM307,412L314,412L314,419L307,419ZM321,412L328,412L328,419L321,419ZM335,412L363,412L363,419L335,419ZM391,412L412,412L412,419L391,419Z"/></svg>
