<?xml version="1.0"?>
<svg xmlns="http://www.w3.org/2000/svg" xmlns:xlink="http://www.w3.org/1999/xlink" version="1.1" width="440px" height="440px" viewBox="0 0 440 440"><rect x="0" y="0" width="440" height="440" fill="#ffffff" fill-opacity="1"/><path fill="#000000" fill-opacity="1" d="M20,20L69,20L69,27L20,27ZM76,20L83,20L83,27L76,27ZM97,20L104,20L104,27L97,27ZM111,20L118,20L118,27L111,27ZM132,20L139,20L139,27L132,27ZM153,20L160,20L160,27L153,27ZM174,20L181,20L181,27L174,27ZM195,20L230,20L230,27L195,27ZM237,20L265,20L265,27L237,27ZM279,20L286,20L286,27L279,27ZM293,20L314,20L314,27L293,27ZM328,20L335,20L335,27L328,27ZM342,20L356,20L356,27L342,27ZM370,20L419,20L419,27L370,27ZM20,27L27,27L27,34L20,34ZM62,27L69,27L69,34L62,34ZM76,27L90,27L90,34L76,34ZM104,27L125,27L125,34L104,34ZM132,27L153,27L153,34L132,34ZM188,27L195,27L195,34L188,34ZM223,27L230,27L230,34L223,34ZM251,27L258,27L258,34L251,34ZM272,27L286,27L286,34L272,34ZM307,27L314,27L314,34L307,34ZM335,27L342,27L342,34L335,34ZM349,27L356,27L356,34L349,34ZM370,27L377,27L377,34L370,34ZM412,27L419,27L419,34L412,34ZM20,34L27,34L27,41L20,41ZM34,34L55,34L55,41L34,41ZM62,34L69,34L69,41L62,41ZM76,34L97,34L97,41L76,41ZM104,34L111,34L111,41L104,41ZM118,34L132,34L132,41L118,41ZM139,34L167,34L167,41L139,41ZM181,34L195,34L195,41L181,41ZM209,34L223,34L223,41L209,41ZM237,34L251,34L251,41L237,41ZM265,34L272,34L272,41L265,41ZM279,34L286,34L286,41L279,41ZM300,34L307,34L307,41L300,41ZM314,34L356,34L356,41L314,41ZM370,34L377,34L377,41L370,41ZM384,34L405,34L405,41L384,41ZM412,34L419,34L419,41L412,41ZM20,41L27,41L27,48L20,48ZM34,41L55,41L55,48L34,48ZM62,41L69,41L69,48L62,48ZM104,41L118,41L118,48L104,48ZM132,41L139,41L139,48L132,48ZM153,41L181,41L181,48L153,48ZM195,41L209,41L209,48L195,48ZM216,41L223,41L223,48L216,48ZM265,41L272,41L272,48L265,48ZM286,41L293,41L293,48L286,48ZM307,41L314,41L314,48L307,48ZM321,41L342,41L342,48L321,48ZM349,41L356,41L356,48L349,48ZM370,41L377,41L377,48L370,48ZM384,41L405,41L405,48L384,48ZM412,41L419,41L419,48L412,48ZM20,48L27,48L27,55L20,55ZM34,48L55,48L55,55L34,55ZM62,48L69,48L69,55L62,55ZM83,48L97,48L97,55L83,55ZM104,48L125,48L125,55L104,55ZM139,48L146,48L146,55L139,55ZM160,48L188,48L188,55L160,55ZM202,48L251,48L251,55L202,55ZM258,48L272,48L272,55L258,55ZM300,48L321,48L321,55L300,55ZM328,48L342,48L342,55L328,55ZM349,48L356,48L356,55L349,55ZM370,48L377,48L377,55L370,55ZM384,48L405,48L405,55L384,55ZM412,48L419,48L419,55L412,55ZM20,55L27,55L27,62L20,62ZM62,55L69,55L69,62L62,62ZM76,55L83,55L83,62L76,62ZM90,55L104,55L104,62L90,62ZM125,55L132,55L132,62L125,62ZM139,55L153,55L153,62L139,62ZM160,55L167,55L167,62L160,62ZM181,55L195,55L195,62L181,62ZM202,55L209,55L209,62L202,62ZM230,55L244,55L244,62L230,62ZM258,55L265,55L265,62L258,62ZM272,55L300,55L300,62L272,62ZM314,55L321,55L321,62L314,62ZM342,55L349,55L349,62L342,62ZM370,55L377,55L377,62L370,62ZM412,55L419,55L419,62L412,62ZM20,62L69,62L69,69L20,69ZM76,62L83,62L83,69L76,69ZM90,62L97,62L97,69L90,69ZM104,62L111,62L111,69L104,69ZM118,62L125,62L125,69L118,69ZM132,62L139,62L139,69L132,69ZM146,62L153,62L153,69L146,69ZM160,62L167,62L167,69L160,69ZM174,62L181,62L181,69L174,69ZM188,62L195,62L195,69L188,69ZM202,62L209,62L209,69L202,69ZM216,62L223,62L223,69L216,69ZM230,62L237,62L237,69L230,69ZM244,62L251,62L251,69L244,69ZM258,62L265,62L265,69L258,69ZM272,62L279,62L279,69L272,69ZM286,62L293,62L293,69L286,69ZM300,62L307,62L307,69L300,69ZM314,62L321,62L321,69L314,69ZM328,62L335,62L335,69L328,69ZM342,62L349,62L349,69L342,69ZM356,62L363,62L363,69L356,69ZM370,62L419,62L419,69L370,69ZM76,69L83,69L83,76L76,76ZM90,69L97,69L97,76L90,76ZM104,69L139,69L139,76L104,76ZM153,69L167,69L167,76L153,76ZM174,69L181,69L181,76L174,76ZM202,69L209,69L209,76L202,76ZM230,69L237,69L237,76L230,76ZM258,69L272,69L272,76L258,76ZM300,69L307,69L307,76L300,76ZM314,69L335,69L335,76L314,76ZM349,69L363,69L363,76L349,76ZM34,76L55,76L55,83L34,83ZM62,76L69,76L69,83L62,83ZM76,76L111,76L111,83L76,83ZM118,76L125,76L125,83L118,83ZM132,76L181,76L181,83L132,83ZM188,76L244,76L244,83L188,83ZM272,76L293,76L293,83L272,83ZM307,76L314,76L314,83L307,83ZM335,76L349,76L349,83L335,83ZM356,76L384,76L384,83L356,83ZM398,76L419,76L419,83L398,83ZM48,83L55,83L55,90L48,90ZM69,83L76,83L76,90L69,90ZM97,83L111,83L111,90L97,90ZM139,83L153,83L153,90L139,90ZM160,83L181,83L181,90L160,90ZM188,83L195,83L195,90L188,90ZM216,83L223,83L223,90L216,90ZM244,83L286,83L286,90L244,90ZM300,83L314,83L314,90L300,90ZM328,83L342,83L342,90L328,90ZM356,83L370,83L370,90L356,90ZM384,83L391,83L391,90L384,90ZM398,83L412,83L412,90L398,90ZM27,90L41,90L41,97L27,97ZM48,90L55,90L55,97L48,97ZM62,90L76,90L76,97L62,97ZM104,90L118,90L118,97L104,97ZM125,90L132,90L132,97L125,97ZM146,90L167,90L167,97L146,97ZM181,90L188,90L188,97L181,97ZM195,90L223,90L223,97L195,97ZM230,90L251,90L251,97L230,97ZM272,90L279,90L279,97L272,97ZM286,90L300,90L300,97L286,97ZM307,90L328,90L328,97L307,97ZM335,90L356,90L356,97L335,97ZM391,90L398,90L398,97L391,97ZM405,90L412,90L412,97L405,97ZM20,97L27,97L27,104L20,104ZM34,97L55,97L55,104L34,104ZM69,97L76,97L76,104L69,104ZM90,97L111,97L111,104L90,104ZM125,97L139,97L139,104L125,104ZM174,97L209,97L209,104L174,104ZM223,97L230,97L230,104L223,104ZM258,97L286,97L286,104L258,104ZM293,97L300,97L300,104L293,104ZM307,97L335,97L335,104L307,104ZM356,97L370,97L370,104L356,104ZM377,97L384,97L384,104L377,104ZM391,97L419,97L419,104L391,104ZM20,104L48,104L48,111L20,111ZM62,104L69,104L69,111L62,111ZM76,104L83,104L83,111L76,111ZM90,104L97,104L97,111L90,111ZM111,104L118,104L118,111L111,111ZM139,104L160,104L160,111L139,111ZM174,104L181,104L181,111L174,111ZM195,104L202,104L202,111L195,111ZM209,104L216,104L216,111L209,111ZM230,104L244,104L244,111L230,111ZM258,104L279,104L279,111L258,111ZM286,104L300,104L300,111L286,111ZM342,104L349,104L349,111L342,111ZM370,104L391,104L391,111L370,111ZM398,104L405,104L405,111L398,111ZM20,111L62,111L62,118L20,118ZM76,111L90,111L90,118L76,118ZM104,111L118,111L118,118L104,118ZM132,111L139,111L139,118L132,118ZM146,111L160,111L160,118L146,118ZM167,111L174,111L174,118L167,118ZM202,111L216,111L216,118L202,118ZM237,111L244,111L244,118L237,118ZM251,111L258,111L258,118L251,118ZM265,111L279,111L279,118L265,118ZM300,111L307,111L307,118L300,118ZM314,111L342,111L342,118L314,118ZM356,111L419,111L419,118L356,118ZM20,118L34,118L34,125L20,125ZM62,118L83,118L83,125L62,125ZM104,118L111,118L111,125L104,125ZM118,118L125,118L125,125L118,125ZM132,118L139,118L139,125L132,125ZM167,118L181,118L181,125L167,125ZM195,118L244,118L244,125L195,125ZM251,118L258,118L258,125L251,125ZM279,118L286,118L286,125L279,125ZM293,118L300,118L300,125L293,125ZM307,118L321,118L321,125L307,125ZM335,118L342,118L342,125L335,125ZM349,118L356,118L356,125L349,125ZM363,118L370,118L370,125L363,125ZM405,118L419,118L419,125L405,125ZM20,125L34,125L34,132L20,132ZM41,125L55,125L55,132L41,132ZM69,125L76,125L76,132L69,132ZM83,125L90,125L90,132L83,132ZM104,125L118,125L118,132L104,132ZM125,125L139,125L139,132L125,132ZM146,125L153,125L153,132L146,132ZM167,125L174,125L174,132L167,132ZM195,125L202,125L202,132L195,132ZM216,125L251,125L251,132L216,132ZM265,125L272,125L272,132L265,132ZM279,125L286,125L286,132L279,132ZM300,125L307,125L307,132L300,132ZM314,125L321,125L321,132L314,132ZM335,125L342,125L342,132L335,132ZM356,125L363,125L363,132L356,132ZM391,125L405,125L405,132L391,132ZM412,125L419,125L419,132L412,132ZM27,132L55,132L55,139L27,139ZM62,132L69,132L69,139L62,139ZM76,132L83,132L83,139L76,139ZM139,132L146,132L146,139L139,139ZM153,132L160,132L160,139L153,139ZM181,132L188,132L188,139L181,139ZM237,132L251,132L251,139L237,139ZM258,132L279,132L279,139L258,139ZM286,132L293,132L293,139L286,139ZM307,132L314,132L314,139L307,139ZM321,132L328,132L328,139L321,139ZM342,132L356,132L356,139L342,139ZM363,132L384,132L384,139L363,139ZM398,132L405,132L405,139L398,139ZM20,139L27,139L27,146L20,146ZM41,139L48,139L48,146L41,146ZM55,139L62,139L62,146L55,146ZM76,139L104,139L104,146L76,146ZM139,139L153,139L153,146L139,146ZM160,139L188,139L188,146L160,146ZM195,139L209,139L209,146L195,146ZM230,139L237,139L237,146L230,146ZM244,139L251,139L251,146L244,146ZM258,139L265,139L265,146L258,146ZM272,139L279,139L279,146L272,146ZM293,139L321,139L321,146L293,146ZM328,139L342,139L342,146L328,146ZM349,139L356,139L356,146L349,146ZM363,139L391,139L391,146L363,146ZM398,139L405,139L405,146L398,146ZM27,146L34,146L34,153L27,153ZM41,146L69,146L69,153L41,153ZM83,146L97,146L97,153L83,153ZM104,146L111,146L111,153L104,153ZM118,146L125,146L125,153L118,153ZM139,146L153,146L153,153L139,153ZM160,146L167,146L167,153L160,153ZM188,146L195,146L195,153L188,153ZM202,146L209,146L209,153L202,153ZM216,146L223,146L223,153L216,153ZM244,146L251,146L251,153L244,153ZM265,146L286,146L286,153L265,153ZM307,146L328,146L328,153L307,153ZM335,146L342,146L342,153L335,153ZM363,146L377,146L377,153L363,153ZM391,146L398,146L398,153L391,153ZM412,146L419,146L419,153L412,153ZM20,153L27,153L27,160L20,160ZM41,153L48,153L48,160L41,160ZM76,153L90,153L90,160L76,160ZM97,153L104,153L104,160L97,160ZM125,153L132,153L132,160L125,160ZM139,153L146,153L146,160L139,160ZM153,153L160,153L160,160L153,160ZM181,153L188,153L188,160L181,160ZM195,153L202,153L202,160L195,160ZM209,153L223,153L223,160L209,160ZM237,153L251,153L251,160L237,160ZM258,153L272,153L272,160L258,160ZM300,153L307,153L307,160L300,160ZM314,153L328,153L328,160L314,160ZM335,153L342,153L342,160L335,160ZM349,153L363,153L363,160L349,160ZM377,153L384,153L384,160L377,160ZM391,153L405,153L405,160L391,160ZM412,153L419,153L419,160L412,160ZM20,160L41,160L41,167L20,167ZM48,160L69,160L69,167L48,167ZM90,160L97,160L97,167L90,167ZM104,160L118,160L118,167L104,167ZM132,160L139,160L139,167L132,167ZM153,160L160,160L160,167L153,167ZM167,160L202,160L202,167L167,167ZM216,160L223,160L223,167L216,167ZM230,160L251,160L251,167L230,167ZM272,160L300,160L300,167L272,167ZM307,160L314,160L314,167L307,167ZM342,160L356,160L356,167L342,167ZM363,160L412,160L412,167L363,167ZM20,167L48,167L48,174L20,174ZM83,167L90,167L90,174L83,174ZM97,167L111,167L111,174L97,174ZM118,167L132,167L132,174L118,174ZM146,167L153,167L153,174L146,174ZM174,167L181,167L181,174L174,174ZM216,167L223,167L223,174L216,174ZM244,167L251,167L251,174L244,174ZM258,167L272,167L272,174L258,174ZM279,167L286,167L286,174L279,174ZM293,167L342,167L342,174L293,174ZM349,167L356,167L356,174L349,174ZM384,167L391,167L391,174L384,174ZM398,167L405,167L405,174L398,174ZM27,174L34,174L34,181L27,181ZM48,174L55,174L55,181L48,181ZM62,174L69,174L69,181L62,181ZM76,174L83,174L83,181L76,181ZM97,174L104,174L104,181L97,181ZM132,174L146,174L146,181L132,181ZM153,174L160,174L160,181L153,181ZM188,174L195,174L195,181L188,181ZM209,174L223,174L223,181L209,181ZM230,174L237,174L237,181L230,181ZM286,174L293,174L293,181L286,181ZM307,174L321,174L321,181L307,181ZM349,174L363,174L363,181L349,181ZM370,174L384,174L384,181L370,181ZM391,174L398,174L398,181L391,181ZM405,174L412,174L412,181L405,181ZM27,181L34,181L34,188L27,188ZM41,181L62,181L62,188L41,188ZM69,181L125,181L125,188L69,188ZM146,181L153,181L153,188L146,188ZM160,181L174,181L174,188L160,188ZM181,181L188,181L188,188L181,188ZM209,181L223,181L223,188L209,188ZM237,181L251,181L251,188L237,188ZM258,181L272,181L272,188L258,188ZM279,181L286,181L286,188L279,188ZM300,181L307,181L307,188L300,188ZM314,181L321,181L321,188L314,188ZM328,181L335,181L335,188L328,188ZM349,181L370,181L370,188L349,188ZM377,181L405,181L405,188L377,188ZM412,181L419,181L419,188L412,188ZM27,188L76,188L76,195L27,195ZM118,188L125,188L125,195L118,195ZM132,188L146,188L146,195L132,195ZM167,188L174,188L174,195L167,195ZM181,188L188,188L188,195L181,195ZM202,188L216,188L216,195L202,195ZM223,188L237,188L237,195L223,195ZM244,188L251,188L251,195L244,195ZM265,188L272,188L272,195L265,195ZM286,188L300,188L300,195L286,195ZM307,188L314,188L314,195L307,195ZM321,188L349,188L349,195L321,195ZM356,188L363,188L363,195L356,195ZM370,188L377,188L377,195L370,195ZM398,188L405,188L405,195L398,195ZM412,188L419,188L419,195L412,195ZM27,195L34,195L34,202L27,202ZM41,195L62,195L62,202L41,202ZM69,195L104,195L104,202L69,202ZM111,195L132,195L132,202L111,202ZM146,195L153,195L153,202L146,202ZM167,195L181,195L181,202L167,202ZM195,195L230,195L230,202L195,202ZM237,195L251,195L251,202L237,202ZM258,195L265,195L265,202L258,202ZM272,195L286,195L286,202L272,202ZM300,195L307,195L307,202L300,202ZM328,195L349,195L349,202L328,202ZM363,195L370,195L370,202L363,202ZM384,195L391,195L391,202L384,202ZM398,195L412,195L412,202L398,202ZM27,202L83,202L83,209L27,209ZM90,202L104,202L104,209L90,209ZM125,202L132,202L132,209L125,209ZM160,202L181,202L181,209L160,209ZM195,202L237,202L237,209L195,209ZM244,202L286,202L286,209L244,209ZM293,202L300,202L300,209L293,209ZM314,202L328,202L328,209L314,209ZM342,202L391,202L391,209L342,209ZM398,202L405,202L405,209L398,209ZM27,209L41,209L41,216L27,216ZM48,209L55,209L55,216L48,216ZM76,209L83,209L83,216L76,216ZM125,209L146,209L146,216L125,216ZM160,209L167,209L167,216L160,216ZM174,209L195,209L195,216L174,216ZM202,209L209,209L209,216L202,216ZM230,209L237,209L237,216L230,216ZM244,209L258,209L258,216L244,216ZM265,209L272,209L272,216L265,216ZM293,209L300,209L300,216L293,216ZM307,209L321,209L321,216L307,216ZM328,209L335,209L335,216L328,216ZM349,209L363,209L363,216L349,216ZM384,209L391,209L391,216L384,216ZM398,209L405,209L405,216L398,216ZM412,209L419,209L419,216L412,216ZM34,216L55,216L55,223L34,223ZM62,216L69,216L69,223L62,223ZM76,216L83,216L83,223L76,223ZM90,216L97,216L97,223L90,223ZM125,216L132,216L132,223L125,223ZM139,216L146,216L146,223L139,223ZM160,216L167,216L167,223L160,223ZM181,216L188,216L188,223L181,223ZM202,216L209,216L209,223L202,223ZM216,216L223,216L223,223L216,223ZM230,216L244,216L244,223L230,223ZM265,216L307,216L307,223L265,223ZM321,216L328,216L328,223L321,223ZM335,216L349,216L349,223L335,223ZM356,216L363,216L363,223L356,223ZM370,216L377,216L377,223L370,223ZM384,216L391,216L391,223L384,223ZM398,216L412,216L412,223L398,223ZM34,223L55,223L55,230L34,230ZM76,223L83,223L83,230L76,230ZM90,223L97,223L97,230L90,230ZM104,223L111,223L111,230L104,230ZM132,223L146,223L146,230L132,230ZM160,223L181,223L181,230L160,230ZM188,223L209,223L209,230L188,230ZM230,223L237,223L237,230L230,230ZM251,223L258,223L258,230L251,230ZM272,223L279,223L279,230L272,230ZM300,223L314,223L314,230L300,230ZM321,223L335,223L335,230L321,230ZM356,223L363,223L363,230L356,230ZM384,223L405,223L405,230L384,230ZM412,223L419,223L419,230L412,230ZM20,230L34,230L34,237L20,237ZM41,230L90,230L90,237L41,237ZM118,230L125,230L125,237L118,237ZM132,230L139,230L139,237L132,237ZM146,230L153,230L153,237L146,237ZM160,230L181,230L181,237L160,237ZM195,230L244,230L244,237L195,237ZM265,230L279,230L279,237L265,237ZM293,230L300,230L300,237L293,237ZM314,230L321,230L321,237L314,237ZM335,230L342,230L342,237L335,237ZM356,230L391,230L391,237L356,237ZM405,230L412,230L412,237L405,237ZM27,237L48,237L48,244L27,244ZM55,237L62,237L62,244L55,244ZM69,237L83,237L83,244L69,244ZM111,237L132,237L132,244L111,244ZM160,237L167,237L167,244L160,244ZM174,237L188,237L188,244L174,244ZM202,237L216,237L216,244L202,244ZM223,237L244,237L244,244L223,244ZM272,237L279,237L279,244L272,244ZM307,237L321,237L321,244L307,244ZM377,237L384,237L384,244L377,244ZM391,237L398,237L398,244L391,244ZM405,237L419,237L419,244L405,244ZM20,244L41,244L41,251L20,251ZM48,244L55,244L55,251L48,251ZM62,244L76,244L76,251L62,251ZM90,244L97,244L97,251L90,251ZM139,244L146,244L146,251L139,251ZM195,244L202,244L202,251L195,251ZM209,244L216,244L216,251L209,251ZM230,244L237,244L237,251L230,251ZM244,244L272,244L272,251L244,251ZM279,244L293,244L293,251L279,251ZM307,244L314,244L314,251L307,251ZM335,244L349,244L349,251L335,251ZM363,244L370,244L370,251L363,251ZM391,244L398,244L398,251L391,251ZM20,251L41,251L41,258L20,258ZM55,251L62,251L62,258L55,258ZM83,251L97,251L97,258L83,258ZM111,251L118,251L118,258L111,258ZM153,251L160,251L160,258L153,258ZM167,251L188,251L188,258L167,258ZM195,251L209,251L209,258L195,258ZM216,251L230,251L230,258L216,258ZM237,251L265,251L265,258L237,258ZM272,251L279,251L279,258L272,258ZM300,251L307,251L307,258L300,258ZM314,251L335,251L335,258L314,258ZM349,251L356,251L356,258L349,258ZM370,251L384,251L384,258L370,258ZM391,251L419,251L419,258L391,258ZM20,258L27,258L27,265L20,265ZM41,258L69,258L69,265L41,265ZM76,258L90,258L90,265L76,265ZM97,258L139,258L139,265L97,265ZM153,258L160,258L160,265L153,265ZM167,258L181,258L181,265L167,265ZM188,258L195,258L195,265L188,265ZM209,258L223,258L223,265L209,265ZM230,258L237,258L237,265L230,265ZM244,258L258,258L258,265L244,265ZM265,258L300,258L300,265L265,265ZM314,258L321,258L321,265L314,265ZM335,258L342,258L342,265L335,265ZM363,258L370,258L370,265L363,265ZM384,258L398,258L398,265L384,265ZM34,265L48,265L48,272L34,272ZM69,265L76,265L76,272L69,272ZM83,265L111,265L111,272L83,272ZM139,265L153,265L153,272L139,272ZM160,265L188,265L188,272L160,272ZM202,265L216,265L216,272L202,272ZM237,265L251,265L251,272L237,272ZM272,265L286,265L286,272L272,272ZM293,265L300,265L300,272L293,272ZM314,265L342,265L342,272L314,272ZM370,265L384,265L384,272L370,272ZM391,265L405,265L405,272L391,272ZM412,265L419,265L419,272L412,272ZM20,272L27,272L27,279L20,279ZM41,272L55,272L55,279L41,279ZM62,272L76,272L76,279L62,279ZM83,272L90,272L90,279L83,279ZM104,272L118,272L118,279L104,279ZM125,272L139,272L139,279L125,279ZM160,272L174,272L174,279L160,279ZM181,272L188,272L188,279L181,279ZM195,272L202,272L202,279L195,279ZM209,272L230,272L230,279L209,279ZM237,272L244,272L244,279L237,279ZM258,272L279,272L279,279L258,279ZM286,272L300,272L300,279L286,279ZM307,272L314,272L314,279L307,279ZM321,272L335,272L335,279L321,279ZM342,272L349,272L349,279L342,279ZM356,272L370,272L370,279L356,279ZM377,272L391,272L391,279L377,279ZM398,272L412,272L412,279L398,279ZM20,279L55,279L55,286L20,286ZM76,279L83,279L83,286L76,286ZM90,279L97,279L97,286L90,286ZM104,279L118,279L118,286L104,286ZM125,279L132,279L132,286L125,286ZM139,279L146,279L146,286L139,286ZM153,279L160,279L160,286L153,286ZM167,279L174,279L174,286L167,286ZM195,279L202,279L202,286L195,286ZM216,279L230,279L230,286L216,286ZM244,279L265,279L265,286L244,286ZM279,279L286,279L286,286L279,286ZM300,279L307,279L307,286L300,286ZM314,279L321,279L321,286L314,286ZM328,279L335,279L335,286L328,286ZM349,279L356,279L356,286L349,286ZM370,279L384,279L384,286L370,286ZM391,279L419,279L419,286L391,286ZM20,286L55,286L55,293L20,293ZM62,286L69,286L69,293L62,293ZM76,286L104,286L104,293L76,293ZM118,286L125,286L125,293L118,293ZM139,286L146,286L146,293L139,293ZM153,286L160,286L160,293L153,293ZM167,286L188,286L188,293L167,293ZM202,286L209,286L209,293L202,293ZM230,286L237,286L237,293L230,293ZM244,286L251,286L251,293L244,293ZM258,286L279,286L279,293L258,293ZM293,286L300,286L300,293L293,293ZM307,286L321,286L321,293L307,293ZM342,286L349,286L349,293L342,293ZM356,286L370,286L370,293L356,293ZM384,286L412,286L412,293L384,293ZM20,293L62,293L62,300L20,300ZM69,293L83,293L83,300L69,300ZM97,293L104,293L104,300L97,300ZM111,293L125,293L125,300L111,300ZM132,293L167,293L167,300L132,300ZM174,293L195,293L195,300L174,300ZM209,293L216,293L216,300L209,300ZM230,293L244,293L244,300L230,300ZM265,293L272,293L272,300L265,300ZM293,293L300,293L300,300L293,300ZM314,293L328,293L328,300L314,300ZM335,293L342,293L342,300L335,300ZM370,293L384,293L384,300L370,300ZM391,293L398,293L398,300L391,300ZM405,293L419,293L419,300L405,300ZM41,300L48,300L48,307L41,307ZM62,300L76,300L76,307L62,307ZM83,300L90,300L90,307L83,307ZM97,300L104,300L104,307L97,307ZM111,300L118,300L118,307L111,307ZM125,300L132,300L132,307L125,307ZM139,300L146,300L146,307L139,307ZM153,300L160,300L160,307L153,307ZM167,300L188,300L188,307L167,307ZM195,300L216,300L216,307L195,307ZM223,300L244,300L244,307L223,307ZM251,300L258,300L258,307L251,307ZM272,300L279,300L279,307L272,307ZM293,300L300,300L300,307L293,307ZM307,300L314,300L314,307L307,307ZM321,300L328,300L328,307L321,307ZM342,300L349,300L349,307L342,307ZM356,300L370,300L370,307L356,307ZM391,300L398,300L398,307L391,307ZM27,307L34,307L34,314L27,314ZM41,307L48,307L48,314L41,314ZM55,307L62,307L62,314L55,314ZM69,307L83,307L83,314L69,314ZM111,307L118,307L118,314L111,314ZM125,307L167,307L167,314L125,314ZM174,307L188,307L188,314L174,314ZM216,307L223,307L223,314L216,314ZM244,307L279,307L279,314L244,314ZM300,307L307,307L307,314L300,314ZM314,307L321,307L321,314L314,314ZM328,307L342,307L342,314L328,314ZM349,307L356,307L356,314L349,314ZM363,307L377,307L377,314L363,314ZM391,307L419,307L419,314L391,314ZM20,314L27,314L27,321L20,321ZM41,314L69,314L69,321L41,321ZM104,314L111,314L111,321L104,321ZM125,314L146,314L146,321L125,321ZM153,314L160,314L160,321L153,321ZM195,314L202,314L202,321L195,321ZM237,314L265,314L265,321L237,321ZM272,314L279,314L279,321L272,321ZM293,314L300,314L300,321L293,321ZM321,314L328,314L328,321L321,321ZM335,314L349,314L349,321L335,321ZM363,314L370,314L370,321L363,321ZM377,314L391,314L391,321L377,321ZM27,321L48,321L48,328L27,328ZM55,321L62,321L62,328L55,328ZM69,321L76,321L76,328L69,328ZM83,321L90,321L90,328L83,328ZM104,321L111,321L111,328L104,328ZM160,321L167,321L167,328L160,328ZM174,321L209,321L209,328L174,328ZM216,321L237,321L237,328L216,328ZM251,321L265,321L265,328L251,328ZM272,321L279,321L279,328L272,328ZM293,321L321,321L321,328L293,328ZM335,321L342,321L342,328L335,328ZM356,321L363,321L363,328L356,328ZM391,321L419,321L419,328L391,328ZM41,328L55,328L55,335L41,335ZM62,328L76,328L76,335L62,335ZM83,328L97,328L97,335L83,335ZM104,328L111,328L111,335L104,335ZM125,328L132,328L132,335L125,335ZM139,328L174,328L174,335L139,335ZM195,328L202,328L202,335L195,335ZM223,328L230,328L230,335L223,335ZM244,328L258,328L258,335L244,335ZM279,328L300,328L300,335L279,335ZM321,328L328,328L328,335L321,335ZM342,328L356,328L356,335L342,335ZM384,328L405,328L405,335L384,335ZM41,335L55,335L55,342L41,342ZM90,335L97,335L97,342L90,342ZM104,335L118,335L118,342L104,342ZM146,335L174,335L174,342L146,342ZM181,335L188,335L188,342L181,342ZM195,335L202,335L202,342L195,342ZM223,335L230,335L230,342L223,342ZM237,335L244,335L244,342L237,342ZM251,335L272,335L272,342L251,342ZM300,335L321,335L321,342L300,342ZM328,335L384,335L384,342L328,342ZM391,335L405,335L405,342L391,342ZM412,335L419,335L419,342L412,342ZM20,342L27,342L27,349L20,349ZM34,342L41,342L41,349L34,349ZM55,342L69,342L69,349L55,349ZM76,342L90,342L90,349L76,349ZM104,342L118,342L118,349L104,349ZM125,342L139,342L139,349L125,349ZM146,342L153,342L153,349L146,349ZM160,342L174,342L174,349L160,349ZM181,342L202,342L202,349L181,349ZM209,342L216,342L216,349L209,349ZM251,342L265,342L265,349L251,349ZM293,342L300,342L300,349L293,349ZM321,342L328,342L328,349L321,349ZM335,342L349,342L349,349L335,349ZM370,342L377,342L377,349L370,349ZM384,342L391,342L391,349L384,349ZM20,349L55,349L55,356L20,356ZM76,349L83,349L83,356L76,356ZM90,349L97,349L97,356L90,356ZM104,349L111,349L111,356L104,356ZM118,349L132,349L132,356L118,356ZM139,349L146,349L146,356L139,356ZM167,349L188,349L188,356L167,356ZM195,349L202,349L202,356L195,356ZM223,349L237,349L237,356L223,356ZM251,349L272,349L272,356L251,356ZM279,349L293,349L293,356L279,356ZM314,349L342,349L342,356L314,356ZM370,349L377,349L377,356L370,356ZM398,349L419,349L419,356L398,356ZM62,356L69,356L69,363L62,363ZM76,356L97,356L97,363L76,363ZM111,356L125,356L125,363L111,363ZM146,356L160,356L160,363L146,363ZM167,356L181,356L181,363L167,363ZM188,356L195,356L195,363L188,363ZM202,356L251,356L251,363L202,363ZM286,356L300,356L300,363L286,363ZM307,356L314,356L314,363L307,363ZM342,356L349,356L349,363L342,363ZM356,356L398,356L398,363L356,363ZM405,356L412,356L412,363L405,363ZM76,363L111,363L111,370L76,370ZM118,363L139,363L139,370L118,370ZM146,363L167,363L167,370L146,370ZM174,363L188,363L188,370L174,370ZM195,363L209,363L209,370L195,370ZM230,363L237,363L237,370L230,370ZM251,363L258,363L258,370L251,370ZM265,363L321,363L321,370L265,370ZM328,363L342,363L342,370L328,370ZM349,363L363,363L363,370L349,370ZM384,363L405,363L405,370L384,370ZM20,370L69,370L69,377L20,377ZM97,370L104,370L104,377L97,377ZM111,370L132,370L132,377L111,377ZM146,370L153,370L153,377L146,377ZM167,370L174,370L174,377L167,377ZM181,370L195,370L195,377L181,377ZM202,370L209,370L209,377L202,377ZM216,370L223,370L223,377L216,377ZM230,370L244,370L244,377L230,377ZM258,370L265,370L265,377L258,377ZM272,370L279,370L279,377L272,377ZM314,370L328,370L328,377L314,377ZM335,370L342,370L342,377L335,377ZM349,370L363,370L363,377L349,377ZM370,370L377,370L377,377L370,377ZM384,370L391,370L391,377L384,377ZM405,370L419,370L419,377L405,377ZM20,377L27,377L27,384L20,384ZM62,377L69,377L69,384L62,384ZM90,377L97,377L97,384L90,384ZM104,377L118,377L118,384L104,384ZM125,377L132,377L132,384L125,384ZM160,377L195,377L195,384L160,384ZM202,377L209,377L209,384L202,384ZM230,377L265,377L265,384L230,384ZM300,377L307,377L307,384L300,384ZM314,377L321,377L321,384L314,384ZM328,377L342,377L342,384L328,384ZM356,377L363,377L363,384L356,384ZM384,377L391,377L391,384L384,384ZM398,377L405,377L405,384L398,384ZM412,377L419,377L419,384L412,384ZM20,384L27,384L27,391L20,391ZM34,384L55,384L55,391L34,391ZM62,384L69,384L69,391L62,391ZM76,384L83,384L83,391L76,391ZM90,384L97,384L97,391L90,391ZM104,384L111,384L111,391L104,391ZM125,384L132,384L132,391L125,391ZM139,384L153,384L153,391L139,391ZM167,384L174,384L174,391L167,391ZM188,384L244,384L244,391L188,391ZM265,384L272,384L272,391L265,391ZM279,384L293,384L293,391L279,391ZM300,384L314,384L314,391L300,391ZM321,384L328,384L328,391L321,391ZM342,384L349,384L349,391L342,391ZM356,384L398,384L398,391L356,391ZM405,384L412,384L412,391L405,391ZM20,391L27,391L27,398L20,398ZM34,391L55,391L55,398L34,398ZM62,391L69,391L69,398L62,398ZM76,391L83,391L83,398L76,398ZM90,391L104,391L104,398L90,398ZM118,391L132,391L132,398L118,398ZM146,391L202,391L202,398L146,398ZM216,391L223,391L223,398L216,398ZM230,391L307,391L307,398L230,398ZM314,391L321,391L321,398L314,398ZM328,391L335,391L335,398L328,398ZM356,391L370,391L370,398L356,398ZM377,391L384,391L384,398L377,398ZM398,391L412,391L412,398L398,398ZM20,398L27,398L27,405L20,405ZM34,398L55,398L55,405L34,405ZM62,398L69,398L69,405L62,405ZM76,398L90,398L90,405L76,405ZM111,398L132,398L132,405L111,405ZM167,398L188,398L188,405L167,405ZM195,398L202,398L202,405L195,405ZM209,398L216,398L216,405L209,405ZM230,398L237,398L237,405L230,405ZM279,398L293,398L293,405L279,405ZM321,398L328,398L328,405L321,405ZM342,398L377,398L377,405L342,405ZM391,398L398,398L398,405L391,405ZM20,405L27,405L27,412L20,412ZM62,405L69,405L69,412L62,412ZM83,405L90,405L90,412L83,412ZM97,405L111,405L111,412L97,412ZM132,405L139,405L139,412L132,412ZM167,405L188,405L188,412L167,412ZM195,405L209,405L209,412L195,412ZM216,405L272,405L272,412L216,412ZM293,405L307,405L307,412L293,412ZM314,405L328,405L328,412L314,412ZM349,405L356,405L356,412L349,412ZM384,405L391,405L391,412L384,412ZM398,405L419,405L419,412L398,412ZM20,412L69,412L69,419L20,419ZM83,412L90,412L90,419L83,419ZM104,412L111,412L111,419L104,419ZM132,412L146,412L146,419L132,419ZM153,412L167,412L167,419L153,419ZM181,412L188,412L188,419L181,419ZM230,412L237,412L237,419L230,419ZM244,412L258,412L258,419L244,419ZM265,412L300,412L300,419L265,419ZM307,412L314,412L314,419L307,419ZM321,412L328,412L328,419L321,419ZM335,412L363,412L363,419L335,419ZM391,412L398,412L398,419L391,419ZM405,412L412,412L412,419L405,419Z"/></svg>
