<?xml version="1.0"?>
<svg xmlns="http://www.w3.org/2000/svg" xmlns:xlink="http://www.w3.org/1999/xlink" version="1.1" width="440px" height="440px" viewBox="0 0 440 440"><rect x="0" y="0" width="440" height="440" fill="#ffffff" fill-opacity="1"/><path fill="#000000" fill-opacity="1" d="M20,20L69,20L69,27L20,27ZM76,20L90,20L90,27L76,27ZM97,20L104,20L104,27L97,27ZM111,20L153,20L153,27L111,27ZM160,20L174,20L174,27L160,27ZM195,20L237,20L237,27L195,27ZM244,20L286,20L286,27L244,27ZM300,20L314,20L314,27L300,27ZM328,20L335,20L335,27L328,27ZM342,20L356,20L356,27L342,27ZM370,20L419,20L419,27L370,27ZM20,27L27,27L27,34L20,34ZM62,27L69,27L69,34L62,34ZM76,27L83,27L83,34L76,34ZM90,27L97,27L97,34L90,34ZM104,27L111,27L111,34L104,34ZM118,27L125,27L125,34L118,34ZM139,27L146,27L146,34L139,34ZM160,27L167,27L167,34L160,34ZM174,27L188,27L188,34L174,34ZM223,27L230,27L230,34L223,34ZM237,27L244,27L244,34L237,34ZM251,27L272,27L272,34L251,34ZM293,27L300,27L300,34L293,34ZM307,27L314,27L314,34L307,34ZM349,27L356,27L356,34L349,34ZM370,27L377,27L377,34L370,34ZM412,27L419,27L419,34L412,34ZM20,34L27,34L27,41L20,41ZM34,34L55,34L55,41L34,41ZM62,34L69,34L69,41L62,41ZM76,34L90,34L90,41L76,41ZM97,34L125,34L125,41L97,41ZM132,34L146,34L146,41L132,41ZM167,34L174,34L174,41L167,41ZM188,34L195,34L195,41L188,41ZM230,34L251,34L251,41L230,41ZM272,34L286,34L286,41L272,41ZM314,34L356,34L356,41L314,41ZM370,34L377,34L377,41L370,41ZM384,34L405,34L405,41L384,41ZM412,34L419,34L419,41L412,41ZM20,41L27,41L27,48L20,48ZM34,41L55,41L55,48L34,48ZM62,41L69,41L69,48L62,48ZM97,41L104,41L104,48L97,48ZM111,41L118,41L118,48L111,48ZM132,41L160,41L160,48L132,48ZM167,41L174,41L174,48L167,48ZM195,41L223,41L223,48L195,48ZM230,41L237,41L237,48L230,48ZM244,41L251,41L251,48L244,48ZM265,41L272,41L272,48L265,48ZM286,41L293,41L293,48L286,48ZM307,41L314,41L314,48L307,48ZM321,41L342,41L342,48L321,48ZM349,41L356,41L356,48L349,48ZM370,41L377,41L377,48L370,48ZM384,41L405,41L405,48L384,48ZM412,41L419,41L419,48L412,48ZM20,48L27,48L27,55L20,55ZM34,48L55,48L55,55L34,55ZM62,48L69,48L69,55L62,55ZM83,48L111,48L111,55L83,55ZM118,48L125,48L125,55L118,55ZM139,48L146,48L146,55L139,55ZM160,48L167,48L167,55L160,55ZM174,48L188,48L188,55L174,55ZM202,48L251,48L251,55L202,55ZM258,48L265,48L265,55L258,55ZM279,48L286,48L286,55L279,55ZM293,48L321,48L321,55L293,55ZM328,48L342,48L342,55L328,55ZM349,48L356,48L356,55L349,55ZM370,48L377,48L377,55L370,55ZM384,48L405,48L405,55L384,55ZM412,48L419,48L419,55L412,55ZM20,55L27,55L27,62L20,62ZM62,55L69,55L69,62L62,62ZM76,55L83,55L83,62L76,62ZM90,55L97,55L97,62L90,62ZM104,55L111,55L111,62L104,62ZM125,55L132,55L132,62L125,62ZM139,55L160,55L160,62L139,62ZM174,55L195,55L195,62L174,62ZM202,55L209,55L209,62L202,62ZM230,55L244,55L244,62L230,62ZM258,55L265,55L265,62L258,62ZM272,55L286,55L286,62L272,62ZM314,55L321,55L321,62L314,62ZM342,55L349,55L349,62L342,62ZM370,55L377,55L377,62L370,62ZM412,55L419,55L419,62L412,62ZM20,62L69,62L69,69L20,69ZM76,62L83,62L83,69L76,69ZM90,62L97,62L97,69L90,69ZM104,62L111,62L111,69L104,69ZM118,62L125,62L125,69L118,69ZM132,62L139,62L139,69L132,69ZM146,62L153,62L153,69L146,69ZM160,62L167,62L167,69L160,69ZM174,62L181,62L181,69L174,69ZM188,62L195,62L195,69L188,69ZM202,62L209,62L209,69L202,69ZM216,62L223,62L223,69L216,69ZM230,62L237,62L237,69L230,69ZM244,62L251,62L251,69L244,69ZM258,62L265,62L265,69L258,69ZM272,62L279,62L279,69L272,69ZM286,62L293,62L293,69L286,69ZM300,62L307,62L307,69L300,69ZM314,62L321,62L321,69L314,69ZM328,62L335,62L335,69L328,69ZM342,62L349,62L349,69L342,69ZM356,62L363,62L363,69L356,69ZM370,62L419,62L419,69L370,69ZM76,69L83,69L83,76L76,76ZM90,69L97,69L97,76L90,76ZM111,69L118,69L118,76L111,76ZM125,69L139,69L139,76L125,76ZM153,69L167,69L167,76L153,76ZM202,69L209,69L209,76L202,76ZM230,69L237,69L237,76L230,76ZM258,69L272,69L272,76L258,76ZM279,69L286,69L286,76L279,76ZM314,69L321,69L321,76L314,76ZM335,69L342,69L342,76L335,76ZM356,69L363,69L363,76L356,76ZM34,76L55,76L55,83L34,83ZM62,76L69,76L69,83L62,83ZM76,76L104,76L104,83L76,83ZM132,76L153,76L153,83L132,83ZM167,76L181,76L181,83L167,83ZM188,76L244,76L244,83L188,83ZM265,76L272,76L272,83L265,83ZM286,76L314,76L314,83L286,83ZM321,76L328,76L328,83L321,83ZM342,76L384,76L384,83L342,83ZM398,76L419,76L419,83L398,83ZM34,83L62,83L62,90L34,90ZM69,83L76,83L76,90L69,90ZM97,83L111,83L111,90L97,90ZM139,83L174,83L174,90L139,90ZM188,83L195,83L195,90L188,90ZM202,83L209,83L209,90L202,90ZM230,83L237,83L237,90L230,90ZM244,83L265,83L265,90L244,90ZM272,83L286,83L286,90L272,90ZM300,83L314,83L314,90L300,90ZM328,83L342,83L342,90L328,90ZM349,83L370,83L370,90L349,90ZM384,83L419,83L419,90L384,90ZM27,90L41,90L41,97L27,97ZM48,90L55,90L55,97L48,97ZM62,90L83,90L83,97L62,97ZM97,90L132,90L132,97L97,97ZM146,90L160,90L160,97L146,97ZM167,90L188,90L188,97L167,97ZM202,90L209,90L209,97L202,97ZM223,90L230,90L230,97L223,97ZM237,90L251,90L251,97L237,97ZM272,90L286,90L286,97L272,97ZM293,90L300,90L300,97L293,97ZM307,90L328,90L328,97L307,97ZM335,90L342,90L342,97L335,97ZM349,90L356,90L356,97L349,97ZM34,97L41,97L41,104L34,104ZM48,97L62,97L62,104L48,104ZM76,97L83,97L83,104L76,104ZM90,97L97,97L97,104L90,104ZM118,97L139,97L139,104L118,104ZM167,97L202,97L202,104L167,104ZM216,97L230,97L230,104L216,104ZM272,97L286,97L286,104L272,104ZM307,97L335,97L335,104L307,104ZM356,97L370,97L370,104L356,104ZM377,97L384,97L384,104L377,104ZM391,97L419,97L419,104L391,104ZM27,104L34,104L34,111L27,111ZM55,104L69,104L69,111L55,111ZM90,104L97,104L97,111L90,111ZM118,104L125,104L125,111L118,111ZM139,104L160,104L160,111L139,111ZM167,104L174,104L174,111L167,111ZM188,104L209,104L209,111L188,111ZM223,104L230,104L230,111L223,111ZM237,104L244,104L244,111L237,111ZM251,104L258,104L258,111L251,111ZM265,104L272,104L272,111L265,111ZM286,104L293,104L293,111L286,111ZM342,104L363,104L363,111L342,111ZM370,104L391,104L391,111L370,111ZM20,111L41,111L41,118L20,118ZM55,111L62,111L62,118L55,118ZM69,111L76,111L76,118L69,118ZM83,111L90,111L90,118L83,118ZM97,111L104,111L104,118L97,118ZM111,111L118,111L118,118L111,118ZM125,111L139,111L139,118L125,118ZM146,111L160,111L160,118L146,118ZM181,111L195,111L195,118L181,118ZM209,111L216,111L216,118L209,118ZM237,111L244,111L244,118L237,118ZM258,111L265,111L265,118L258,118ZM300,111L342,111L342,118L300,118ZM356,111L391,111L391,118L356,118ZM398,111L419,111L419,118L398,118ZM20,118L55,118L55,125L20,125ZM62,118L69,118L69,125L62,125ZM76,118L90,118L90,125L76,125ZM104,118L111,118L111,125L104,125ZM132,118L174,118L174,125L132,125ZM188,118L195,118L195,125L188,125ZM202,118L230,118L230,125L202,125ZM237,118L244,118L244,125L237,125ZM258,118L286,118L286,125L258,125ZM293,118L300,118L300,125L293,125ZM307,118L321,118L321,125L307,125ZM335,118L342,118L342,125L335,125ZM349,118L356,118L356,125L349,125ZM363,118L370,118L370,125L363,125ZM391,118L398,118L398,125L391,125ZM405,118L419,118L419,125L405,125ZM20,125L34,125L34,132L20,132ZM48,125L62,125L62,132L48,132ZM76,125L83,125L83,132L76,132ZM132,125L146,125L146,132L132,132ZM153,125L181,125L181,132L153,132ZM202,125L209,125L209,132L202,132ZM216,125L223,125L223,132L216,132ZM251,125L265,125L265,132L251,132ZM279,125L286,125L286,132L279,132ZM300,125L321,125L321,132L300,132ZM328,125L342,125L342,132L328,132ZM356,125L363,125L363,132L356,132ZM377,125L384,125L384,132L377,132ZM391,125L405,125L405,132L391,132ZM412,125L419,125L419,132L412,132ZM27,132L69,132L69,139L27,139ZM76,132L90,132L90,139L76,139ZM104,132L111,132L111,139L104,139ZM125,132L146,132L146,139L125,139ZM160,132L202,132L202,139L160,139ZM216,132L223,132L223,139L216,139ZM258,132L272,132L272,139L258,139ZM286,132L293,132L293,139L286,139ZM321,132L328,132L328,139L321,139ZM342,132L356,132L356,139L342,139ZM363,132L398,132L398,139L363,139ZM20,139L27,139L27,146L20,146ZM48,139L62,139L62,146L48,146ZM83,139L97,139L97,146L83,146ZM111,139L132,139L132,146L111,146ZM139,139L146,139L146,146L139,146ZM160,139L167,139L167,146L160,146ZM181,139L188,139L188,146L181,146ZM195,139L230,139L230,146L195,146ZM251,139L258,139L258,146L251,146ZM272,139L279,139L279,146L272,146ZM293,139L307,139L307,146L293,146ZM314,139L321,139L321,146L314,146ZM328,139L342,139L342,146L328,146ZM349,139L356,139L356,146L349,146ZM363,139L377,139L377,146L363,146ZM384,139L391,139L391,146L384,146ZM398,139L405,139L405,146L398,146ZM27,146L34,146L34,153L27,153ZM55,146L97,146L97,153L55,153ZM104,146L118,146L118,153L104,153ZM153,146L167,146L167,153L153,153ZM174,146L195,146L195,153L174,153ZM223,146L237,146L237,153L223,153ZM251,146L286,146L286,153L251,153ZM307,146L314,146L314,153L307,153ZM321,146L328,146L328,153L321,153ZM335,146L342,146L342,153L335,153ZM363,146L384,146L384,153L363,153ZM391,146L398,146L398,153L391,153ZM412,146L419,146L419,153L412,153ZM20,153L27,153L27,160L20,160ZM34,153L41,153L41,160L34,160ZM69,153L76,153L76,160L69,160ZM90,153L111,153L111,160L90,160ZM118,153L125,153L125,160L118,160ZM153,153L160,153L160,160L153,160ZM258,153L272,153L272,160L258,160ZM300,153L307,153L307,160L300,160ZM314,153L342,153L342,160L314,160ZM349,153L370,153L370,160L349,160ZM398,153L405,153L405,160L398,160ZM412,153L419,153L419,160L412,160ZM20,160L34,160L34,167L20,167ZM48,160L69,160L69,167L48,167ZM83,160L90,160L90,167L83,167ZM104,160L118,160L118,167L104,167ZM146,160L160,160L160,167L146,167ZM174,160L181,160L181,167L174,167ZM209,160L223,160L223,167L209,167ZM230,160L251,160L251,167L230,167ZM258,160L265,160L265,167L258,167ZM279,160L300,160L300,167L279,167ZM307,160L314,160L314,167L307,167ZM321,160L328,160L328,167L321,167ZM342,160L356,160L356,167L342,167ZM370,160L384,160L384,167L370,167ZM391,160L412,160L412,167L391,167ZM20,167L48,167L48,174L20,174ZM97,167L111,167L111,174L97,174ZM167,167L174,167L174,174L167,174ZM181,167L188,167L188,174L181,174ZM195,167L209,167L209,174L195,174ZM230,167L237,167L237,174L230,174ZM258,167L265,167L265,174L258,174ZM272,167L279,167L279,174L272,174ZM293,167L307,167L307,174L293,174ZM321,167L342,167L342,174L321,174ZM349,167L356,167L356,174L349,174ZM377,167L405,167L405,174L377,174ZM20,174L41,174L41,181L20,181ZM48,174L55,174L55,181L48,181ZM62,174L69,174L69,181L62,181ZM97,174L104,174L104,181L97,181ZM139,174L146,174L146,181L139,181ZM153,174L160,174L160,181L153,181ZM181,174L195,174L195,181L181,181ZM202,174L216,174L216,181L202,181ZM223,174L230,174L230,181L223,181ZM237,174L265,174L265,181L237,181ZM286,174L293,174L293,181L286,181ZM314,174L321,174L321,181L314,181ZM349,174L377,174L377,181L349,181ZM405,174L412,174L412,181L405,181ZM20,181L27,181L27,188L20,188ZM48,181L62,181L62,188L48,188ZM69,181L83,181L83,188L69,188ZM97,181L125,181L125,188L97,188ZM139,181L146,181L146,188L139,188ZM160,181L174,181L174,188L160,188ZM216,181L223,181L223,188L216,188ZM258,181L272,181L272,188L258,188ZM293,181L300,181L300,188L293,188ZM307,181L321,181L321,188L307,188ZM328,181L335,181L335,188L328,188ZM349,181L363,181L363,188L349,188ZM377,181L391,181L391,188L377,188ZM398,181L405,181L405,188L398,188ZM412,181L419,181L419,188L412,188ZM34,188L76,188L76,195L34,195ZM83,188L97,188L97,195L83,195ZM118,188L132,188L132,195L118,195ZM146,188L153,188L153,195L146,195ZM167,188L174,188L174,195L167,195ZM195,188L209,188L209,195L195,195ZM223,188L237,188L237,195L223,195ZM251,188L258,188L258,195L251,195ZM265,188L272,188L272,195L265,195ZM279,188L293,188L293,195L279,195ZM321,188L349,188L349,195L321,195ZM356,188L377,188L377,195L356,195ZM391,188L398,188L398,195L391,195ZM412,188L419,188L419,195L412,195ZM20,195L41,195L41,202L20,202ZM48,195L62,195L62,202L48,202ZM69,195L83,195L83,202L69,202ZM90,195L104,195L104,202L90,202ZM111,195L125,195L125,202L111,202ZM139,195L146,195L146,202L139,202ZM167,195L195,195L195,202L167,202ZM202,195L216,195L216,202L202,202ZM223,195L230,195L230,202L223,202ZM244,195L251,195L251,202L244,202ZM258,195L265,195L265,202L258,202ZM272,195L279,195L279,202L272,202ZM300,195L307,195L307,202L300,202ZM314,195L321,195L321,202L314,202ZM328,195L349,195L349,202L328,202ZM363,195L370,195L370,202L363,202ZM377,195L391,195L391,202L377,202ZM398,195L419,195L419,202L398,202ZM20,202L90,202L90,209L20,209ZM97,202L104,202L104,209L97,209ZM125,202L139,202L139,209L125,209ZM160,202L181,202L181,209L160,209ZM195,202L258,202L258,209L195,209ZM265,202L279,202L279,209L265,209ZM293,202L300,202L300,209L293,209ZM307,202L328,202L328,209L307,209ZM342,202L391,202L391,209L342,209ZM398,202L405,202L405,209L398,209ZM27,209L34,209L34,216L27,216ZM41,209L55,209L55,216L41,216ZM76,209L83,209L83,216L76,216ZM139,209L153,209L153,216L139,216ZM160,209L167,209L167,216L160,216ZM174,209L181,209L181,216L174,216ZM195,209L209,209L209,216L195,216ZM230,209L244,209L244,216L230,216ZM258,209L272,209L272,216L258,216ZM279,209L286,209L286,216L279,216ZM307,209L321,209L321,216L307,216ZM328,209L342,209L342,216L328,216ZM349,209L363,209L363,216L349,216ZM384,209L391,209L391,216L384,216ZM398,209L419,209L419,216L398,216ZM20,216L27,216L27,223L20,223ZM34,216L55,216L55,223L34,223ZM62,216L69,216L69,223L62,223ZM76,216L83,216L83,223L76,223ZM90,216L104,216L104,223L90,223ZM146,216L167,216L167,223L146,223ZM195,216L209,216L209,223L195,223ZM216,216L223,216L223,223L216,223ZM230,216L237,216L237,223L230,223ZM244,216L251,216L251,223L244,223ZM265,216L279,216L279,223L265,223ZM286,216L300,216L300,223L286,223ZM321,216L328,216L328,223L321,223ZM342,216L349,216L349,223L342,223ZM356,216L363,216L363,223L356,223ZM370,216L377,216L377,223L370,223ZM384,216L391,216L391,223L384,223ZM398,216L405,216L405,223L398,223ZM34,223L55,223L55,230L34,230ZM76,223L90,223L90,230L76,230ZM97,223L104,223L104,230L97,230ZM125,223L132,223L132,230L125,230ZM167,223L181,223L181,230L167,230ZM195,223L209,223L209,230L195,230ZM230,223L237,223L237,230L230,230ZM272,223L286,223L286,230L272,230ZM293,223L314,223L314,230L293,230ZM321,223L335,223L335,230L321,230ZM356,223L363,223L363,230L356,230ZM384,223L412,223L412,230L384,230ZM20,230L34,230L34,237L20,237ZM41,230L97,230L97,237L41,237ZM118,230L125,230L125,237L118,237ZM146,230L153,230L153,237L146,237ZM160,230L174,230L174,237L160,237ZM188,230L195,230L195,237L188,237ZM202,230L237,230L237,237L202,237ZM244,230L251,230L251,237L244,237ZM265,230L279,230L279,237L265,237ZM286,230L293,230L293,237L286,237ZM314,230L321,230L321,237L314,237ZM342,230L349,230L349,237L342,237ZM356,230L391,230L391,237L356,237ZM405,230L412,230L412,237L405,237ZM20,237L48,237L48,244L20,244ZM55,237L62,237L62,244L55,244ZM69,237L83,237L83,244L69,244ZM90,237L118,237L118,244L90,244ZM125,237L132,237L132,244L125,244ZM153,237L181,237L181,244L153,244ZM202,237L209,237L209,244L202,244ZM216,237L244,237L244,244L216,244ZM251,237L258,237L258,244L251,244ZM300,237L321,237L321,244L300,244ZM363,237L377,237L377,244L363,244ZM391,237L398,237L398,244L391,244ZM412,237L419,237L419,244L412,244ZM34,244L41,244L41,251L34,251ZM55,244L76,244L76,251L55,251ZM97,244L104,244L104,251L97,251ZM125,244L146,244L146,251L125,251ZM195,244L202,244L202,251L195,251ZM216,244L223,244L223,251L216,251ZM230,244L244,244L244,251L230,251ZM265,244L293,244L293,251L265,251ZM307,244L314,244L314,251L307,251ZM335,244L349,244L349,251L335,251ZM363,244L370,244L370,251L363,251ZM384,244L398,244L398,251L384,251ZM405,244L412,244L412,251L405,251ZM20,251L27,251L27,258L20,258ZM34,251L41,251L41,258L34,258ZM48,251L55,251L55,258L48,258ZM118,251L125,251L125,258L118,258ZM174,251L181,251L181,258L174,258ZM195,251L202,251L202,258L195,258ZM209,251L216,251L216,258L209,258ZM223,251L230,251L230,258L223,258ZM237,251L244,251L244,258L237,258ZM251,251L258,251L258,258L251,258ZM279,251L286,251L286,258L279,258ZM300,251L307,251L307,258L300,258ZM314,251L342,251L342,258L314,258ZM349,251L356,251L356,258L349,258ZM370,251L384,251L384,258L370,258ZM391,251L412,251L412,258L391,258ZM20,258L27,258L27,265L20,265ZM41,258L55,258L55,265L41,265ZM62,258L69,258L69,265L62,265ZM76,258L104,258L104,265L76,265ZM111,258L118,258L118,265L111,265ZM125,258L153,258L153,265L125,265ZM160,258L174,258L174,265L160,265ZM195,258L202,258L202,265L195,265ZM230,258L251,258L251,265L230,265ZM272,258L279,258L279,265L272,265ZM286,258L300,258L300,265L286,265ZM314,258L321,258L321,265L314,265ZM356,258L370,258L370,265L356,265ZM377,258L398,258L398,265L377,265ZM405,258L412,258L412,265L405,265ZM20,265L27,265L27,272L20,272ZM34,265L55,265L55,272L34,272ZM69,265L76,265L76,272L69,272ZM97,265L125,265L125,272L97,272ZM132,265L139,265L139,272L132,272ZM202,265L223,265L223,272L202,272ZM237,265L244,265L244,272L237,272ZM279,265L286,265L286,272L279,272ZM293,265L300,265L300,272L293,272ZM314,265L342,265L342,272L314,272ZM349,265L363,265L363,272L349,272ZM391,265L419,265L419,272L391,272ZM20,272L27,272L27,279L20,279ZM34,272L41,272L41,279L34,279ZM55,272L97,272L97,279L55,279ZM111,272L139,272L139,279L111,279ZM146,272L153,272L153,279L146,279ZM160,272L167,272L167,279L160,279ZM181,272L188,272L188,279L181,279ZM195,272L202,272L202,279L195,279ZM209,272L223,272L223,279L209,279ZM230,272L244,272L244,279L230,279ZM258,272L265,272L265,279L258,279ZM272,272L279,272L279,279L272,279ZM286,272L293,272L293,279L286,279ZM307,272L314,272L314,279L307,279ZM321,272L335,272L335,279L321,279ZM342,272L349,272L349,279L342,279ZM356,272L363,272L363,279L356,279ZM377,272L391,272L391,279L377,279ZM398,272L405,272L405,279L398,279ZM20,279L27,279L27,286L20,286ZM34,279L48,279L48,286L34,286ZM69,279L83,279L83,286L69,286ZM90,279L104,279L104,286L90,286ZM118,279L132,279L132,286L118,286ZM139,279L153,279L153,286L139,286ZM167,279L174,279L174,286L167,286ZM195,279L202,279L202,286L195,286ZM216,279L244,279L244,286L216,286ZM251,279L265,279L265,286L251,286ZM272,279L286,279L286,286L272,286ZM300,279L307,279L307,286L300,286ZM314,279L321,279L321,286L314,286ZM328,279L356,279L356,286L328,286ZM363,279L384,279L384,286L363,286ZM391,279L412,279L412,286L391,286ZM20,286L41,286L41,293L20,293ZM62,286L69,286L69,293L62,293ZM76,286L125,286L125,293L76,293ZM139,286L146,286L146,293L139,293ZM160,286L188,286L188,293L160,293ZM202,286L209,286L209,293L202,293ZM237,286L244,286L244,293L237,293ZM258,286L265,286L265,293L258,293ZM272,286L279,286L279,293L272,293ZM293,286L300,286L300,293L293,293ZM335,286L342,286L342,293L335,293ZM384,286L405,286L405,293L384,293ZM20,293L27,293L27,300L20,300ZM41,293L55,293L55,300L41,300ZM76,293L83,293L83,300L76,300ZM132,293L153,293L153,300L132,300ZM181,293L195,293L195,300L181,300ZM209,293L216,293L216,300L209,300ZM223,293L230,293L230,300L223,300ZM237,293L244,293L244,300L237,300ZM293,293L307,293L307,300L293,300ZM314,293L342,293L342,300L314,300ZM349,293L363,293L363,300L349,300ZM370,293L384,293L384,300L370,300ZM391,293L398,293L398,300L391,300ZM412,293L419,293L419,300L412,300ZM27,300L34,300L34,307L27,307ZM41,300L48,300L48,307L41,307ZM62,300L69,300L69,307L62,307ZM76,300L90,300L90,307L76,307ZM125,300L132,300L132,307L125,307ZM139,300L146,300L146,307L139,307ZM153,300L167,300L167,307L153,307ZM181,300L188,300L188,307L181,307ZM195,300L216,300L216,307L195,307ZM237,300L244,300L244,307L237,307ZM251,300L258,300L258,307L251,307ZM272,300L279,300L279,307L272,307ZM307,300L314,300L314,307L307,307ZM342,300L349,300L349,307L342,307ZM356,300L370,300L370,307L356,307ZM391,300L398,300L398,307L391,307ZM405,300L412,300L412,307L405,307ZM76,307L83,307L83,314L76,314ZM104,307L111,307L111,314L104,314ZM125,307L153,307L153,314L125,314ZM160,307L174,307L174,314L160,314ZM181,307L188,307L188,314L181,314ZM216,307L223,307L223,314L216,314ZM230,307L237,307L237,314L230,314ZM244,307L279,307L279,314L244,314ZM293,307L321,307L321,314L293,314ZM328,307L335,307L335,314L328,314ZM349,307L356,307L356,314L349,314ZM363,307L377,307L377,314L363,314ZM398,307L419,307L419,314L398,314ZM20,314L27,314L27,321L20,321ZM34,314L41,314L41,321L34,321ZM48,314L55,314L55,321L48,321ZM62,314L69,314L69,321L62,321ZM76,314L83,314L83,321L76,321ZM111,314L146,314L146,321L111,321ZM160,314L167,314L167,321L160,321ZM174,314L181,314L181,321L174,321ZM195,314L202,314L202,321L195,321ZM230,314L279,314L279,321L230,321ZM314,314L328,314L328,321L314,321ZM335,314L342,314L342,321L335,321ZM356,314L370,314L370,321L356,321ZM377,314L398,314L398,321L377,321ZM27,321L34,321L34,328L27,328ZM41,321L48,321L48,328L41,328ZM55,321L62,321L62,328L55,328ZM69,321L90,321L90,328L69,328ZM111,321L125,321L125,328L111,328ZM153,321L174,321L174,328L153,328ZM181,321L195,321L195,328L181,328ZM202,321L209,321L209,328L202,328ZM216,321L223,321L223,328L216,328ZM230,321L237,321L237,328L230,328ZM265,321L272,321L272,328L265,328ZM279,321L286,321L286,328L279,328ZM314,321L328,321L328,328L314,328ZM335,321L342,321L342,328L335,328ZM405,321L419,321L419,328L405,328ZM20,328L34,328L34,335L20,335ZM41,328L48,328L48,335L41,335ZM62,328L104,328L104,335L62,335ZM111,328L118,328L118,335L111,335ZM139,328L195,328L195,335L139,335ZM216,328L237,328L237,335L216,335ZM244,328L279,328L279,335L244,335ZM286,328L293,328L293,335L286,335ZM307,328L314,328L314,335L307,335ZM321,328L328,328L328,335L321,335ZM342,328L349,328L349,335L342,335ZM384,328L391,328L391,335L384,335ZM398,328L405,328L405,335L398,335ZM55,335L62,335L62,342L55,342ZM76,335L83,335L83,342L76,342ZM90,335L104,335L104,342L90,342ZM111,335L139,335L139,342L111,342ZM146,335L195,335L195,342L146,342ZM216,335L223,335L223,342L216,342ZM237,335L244,335L244,342L237,342ZM258,335L265,335L265,342L258,342ZM272,335L279,335L279,342L272,342ZM300,335L321,335L321,342L300,342ZM328,335L384,335L384,342L328,342ZM391,335L405,335L405,342L391,342ZM412,335L419,335L419,342L412,342ZM20,342L27,342L27,349L20,349ZM34,342L41,342L41,349L34,349ZM55,342L76,342L76,349L55,349ZM97,342L104,342L104,349L97,349ZM167,342L181,342L181,349L167,349ZM223,342L230,342L230,349L223,349ZM265,342L272,342L272,349L265,349ZM286,342L300,342L300,349L286,349ZM307,342L328,342L328,349L307,349ZM335,342L349,342L349,349L335,349ZM356,342L363,342L363,349L356,349ZM370,342L377,342L377,349L370,349ZM384,342L391,342L391,349L384,349ZM20,349L55,349L55,356L20,356ZM69,349L76,349L76,356L69,356ZM83,349L125,349L125,356L83,356ZM139,349L146,349L146,356L139,356ZM160,349L174,349L174,356L160,356ZM195,349L209,349L209,356L195,356ZM244,349L265,349L265,356L244,356ZM279,349L293,349L293,356L279,356ZM314,349L321,349L321,356L314,356ZM328,349L342,349L342,356L328,356ZM356,349L363,349L363,356L356,356ZM370,349L377,349L377,356L370,356ZM398,349L419,349L419,356L398,356ZM62,356L83,356L83,363L62,363ZM90,356L97,356L97,363L90,363ZM104,356L132,356L132,363L104,363ZM153,356L160,356L160,363L153,363ZM167,356L188,356L188,363L167,363ZM195,356L237,356L237,363L195,363ZM244,356L251,356L251,363L244,363ZM258,356L265,356L265,363L258,363ZM272,356L279,356L279,363L272,363ZM286,356L300,356L300,363L286,363ZM307,356L314,356L314,363L307,363ZM342,356L398,356L398,363L342,363ZM405,356L412,356L412,363L405,363ZM76,363L104,363L104,370L76,370ZM111,363L125,363L125,370L111,370ZM132,363L167,363L167,370L132,370ZM174,363L195,363L195,370L174,370ZM202,363L209,363L209,370L202,370ZM230,363L237,363L237,370L230,370ZM272,363L307,363L307,370L272,370ZM321,363L342,363L342,370L321,370ZM349,363L363,363L363,370L349,370ZM384,363L391,363L391,370L384,370ZM398,363L405,363L405,370L398,370ZM20,370L69,370L69,377L20,377ZM90,370L104,370L104,377L90,377ZM125,370L139,370L139,377L125,377ZM160,370L174,370L174,377L160,377ZM195,370L209,370L209,377L195,377ZM216,370L223,370L223,377L216,377ZM230,370L244,370L244,377L230,377ZM272,370L279,370L279,377L272,377ZM307,370L321,370L321,377L307,377ZM335,370L342,370L342,377L335,377ZM349,370L363,370L363,377L349,377ZM370,370L377,370L377,377L370,377ZM384,370L398,370L398,377L384,377ZM405,370L419,370L419,377L405,377ZM20,377L27,377L27,384L20,384ZM62,377L69,377L69,384L62,384ZM90,377L97,377L97,384L90,384ZM104,377L125,377L125,384L104,384ZM153,377L160,377L160,384L153,384ZM167,377L188,377L188,384L167,384ZM195,377L209,377L209,384L195,384ZM230,377L237,377L237,384L230,384ZM265,377L272,377L272,384L265,384ZM300,377L321,377L321,384L300,384ZM328,377L342,377L342,384L328,384ZM356,377L363,377L363,384L356,384ZM384,377L391,377L391,384L384,384ZM412,377L419,377L419,384L412,384ZM20,384L27,384L27,391L20,391ZM34,384L55,384L55,391L34,391ZM62,384L69,384L69,391L62,391ZM76,384L83,384L83,391L76,391ZM104,384L118,384L118,391L104,391ZM139,384L153,384L153,391L139,391ZM174,384L195,384L195,391L174,391ZM202,384L237,384L237,391L202,391ZM244,384L251,384L251,391L244,391ZM258,384L272,384L272,391L258,391ZM279,384L293,384L293,391L279,391ZM300,384L307,384L307,391L300,391ZM321,384L328,384L328,391L321,391ZM342,384L349,384L349,391L342,391ZM356,384L391,384L391,391L356,391ZM398,384L412,384L412,391L398,391ZM20,391L27,391L27,398L20,398ZM34,391L55,391L55,398L34,398ZM62,391L69,391L69,398L62,398ZM76,391L83,391L83,398L76,398ZM90,391L104,391L104,398L90,398ZM132,391L139,391L139,398L132,398ZM153,391L167,391L167,398L153,398ZM174,391L202,391L202,398L174,398ZM209,391L223,391L223,398L209,398ZM230,391L244,391L244,398L230,398ZM279,391L307,391L307,398L279,398ZM314,391L335,391L335,398L314,398ZM356,391L370,391L370,398L356,398ZM377,391L384,391L384,398L377,398ZM398,391L412,391L412,398L398,398ZM20,398L27,398L27,405L20,405ZM34,398L55,398L55,405L34,405ZM62,398L69,398L69,405L62,405ZM76,398L90,398L90,405L76,405ZM111,398L132,398L132,405L111,405ZM167,398L188,398L188,405L167,405ZM209,398L223,398L223,405L209,405ZM230,398L237,398L237,405L230,405ZM244,398L258,398L258,405L244,405ZM265,398L293,398L293,405L265,405ZM307,398L321,398L321,405L307,405ZM342,398L377,398L377,405L342,405ZM391,398L398,398L398,405L391,405ZM20,405L27,405L27,412L20,412ZM62,405L69,405L69,412L62,412ZM97,405L111,405L111,412L97,412ZM167,405L195,405L195,412L167,412ZM202,405L216,405L216,412L202,412ZM244,405L272,405L272,412L244,412ZM314,405L328,405L328,412L314,412ZM349,405L356,405L356,412L349,412ZM384,405L391,405L391,412L384,412ZM398,405L419,405L419,412L398,412ZM20,412L69,412L69,419L20,419ZM83,412L97,412L97,419L83,419ZM104,412L111,412L111,419L104,419ZM125,412L139,412L139,419L125,419ZM153,412L167,412L167,419L153,419ZM181,412L188,412L188,419L181,419ZM195,412L202,412L202,419L195,419ZM209,412L216,412L216,419L209,419ZM223,412L251,412L251,419L223,419ZM258,412L314,412L314,419L258,419ZM321,412L328,412L328,419L321,419ZM335,412L363,412L363,419L335,419ZM391,412L398,412L398,419L391,419ZM405,412L412,412L412,419L405,419Z"/></svg>
