<?xml version="1.0"?>
<svg xmlns="http://www.w3.org/2000/svg" xmlns:xlink="http://www.w3.org/1999/xlink" version="1.1" width="440px" height="440px" viewBox="0 0 440 440"><rect x="0" y="0" width="440" height="440" fill="#ffffff" fill-opacity="1"/><path fill="#000000" fill-opacity="1" d="M20,20L69,20L69,27L20,27ZM76,20L97,20L97,27L76,27ZM104,20L111,20L111,27L104,27ZM118,20L132,20L132,27L118,27ZM146,20L153,20L153,27L146,27ZM167,20L174,20L174,27L167,27ZM188,20L230,20L230,27L188,27ZM244,20L286,20L286,27L244,27ZM293,20L314,20L314,27L293,27ZM328,20L335,20L335,27L328,27ZM342,20L356,20L356,27L342,27ZM370,20L419,20L419,27L370,27ZM20,27L27,27L27,34L20,34ZM62,27L69,27L69,34L62,34ZM76,27L83,27L83,34L76,34ZM104,27L118,27L118,34L104,34ZM132,27L139,27L139,34L132,34ZM146,27L153,27L153,34L146,34ZM167,27L174,27L174,34L167,34ZM181,27L188,27L188,34L181,34ZM202,27L237,27L237,34L202,34ZM251,27L265,27L265,34L251,34ZM286,27L293,27L293,34L286,34ZM307,27L314,27L314,34L307,34ZM349,27L356,27L356,34L349,34ZM370,27L377,27L377,34L370,34ZM412,27L419,27L419,34L412,34ZM20,34L27,34L27,41L20,41ZM34,34L55,34L55,41L34,41ZM62,34L69,34L69,41L62,41ZM76,34L83,34L83,41L76,41ZM90,34L104,34L104,41L90,41ZM111,34L118,34L118,41L111,41ZM125,34L132,34L132,41L125,41ZM139,34L174,34L174,41L139,41ZM181,34L188,34L188,41L181,41ZM209,34L216,34L216,41L209,41ZM230,34L237,34L237,41L230,41ZM251,34L258,34L258,41L251,41ZM272,34L279,34L279,41L272,41ZM293,34L307,34L307,41L293,41ZM314,34L356,34L356,41L314,41ZM370,34L377,34L377,41L370,41ZM384,34L405,34L405,41L384,41ZM412,34L419,34L419,41L412,41ZM20,41L27,41L27,48L20,48ZM34,41L55,41L55,48L34,48ZM62,41L69,41L69,48L62,48ZM83,41L90,41L90,48L83,48ZM97,41L104,41L104,48L97,48ZM111,41L118,41L118,48L111,48ZM132,41L153,41L153,48L132,48ZM167,41L181,41L181,48L167,48ZM195,41L216,41L216,48L195,48ZM230,41L272,41L272,48L230,48ZM279,41L300,41L300,48L279,48ZM307,41L314,41L314,48L307,48ZM321,41L342,41L342,48L321,48ZM349,41L356,41L356,48L349,48ZM370,41L377,41L377,48L370,48ZM384,41L405,41L405,48L384,48ZM412,41L419,41L419,48L412,48ZM20,48L27,48L27,55L20,55ZM34,48L55,48L55,55L34,55ZM62,48L69,48L69,55L62,55ZM90,48L118,48L118,55L90,55ZM153,48L167,48L167,55L153,55ZM174,48L188,48L188,55L174,55ZM202,48L237,48L237,55L202,55ZM244,48L251,48L251,55L244,55ZM286,48L314,48L314,55L286,55ZM328,48L335,48L335,55L328,55ZM349,48L356,48L356,55L349,55ZM370,48L377,48L377,55L370,55ZM384,48L405,48L405,55L384,55ZM412,48L419,48L419,55L412,55ZM20,55L27,55L27,62L20,62ZM62,55L69,55L69,62L62,62ZM76,55L83,55L83,62L76,62ZM97,55L104,55L104,62L97,62ZM125,55L132,55L132,62L125,62ZM146,55L153,55L153,62L146,62ZM160,55L167,55L167,62L160,62ZM174,55L195,55L195,62L174,62ZM202,55L209,55L209,62L202,62ZM230,55L237,55L237,62L230,62ZM258,55L279,55L279,62L258,62ZM307,55L321,55L321,62L307,62ZM342,55L349,55L349,62L342,62ZM370,55L377,55L377,62L370,62ZM412,55L419,55L419,62L412,62ZM20,62L69,62L69,69L20,69ZM76,62L83,62L83,69L76,69ZM90,62L97,62L97,69L90,69ZM104,62L111,62L111,69L104,69ZM118,62L125,62L125,69L118,69ZM132,62L139,62L139,69L132,69ZM146,62L153,62L153,69L146,69ZM160,62L167,62L167,69L160,69ZM174,62L181,62L181,69L174,69ZM188,62L195,62L195,69L188,69ZM202,62L209,62L209,69L202,69ZM216,62L223,62L223,69L216,69ZM230,62L237,62L237,69L230,69ZM244,62L251,62L251,69L244,69ZM258,62L265,62L265,69L258,69ZM272,62L279,62L279,69L272,69ZM286,62L293,62L293,69L286,69ZM300,62L307,62L307,69L300,69ZM314,62L321,62L321,69L314,69ZM328,62L335,62L335,69L328,69ZM342,62L349,62L349,69L342,69ZM356,62L363,62L363,69L356,69ZM370,62L419,62L419,69L370,69ZM76,69L83,69L83,76L76,76ZM111,69L118,69L118,76L111,76ZM125,69L153,69L153,76L125,76ZM202,69L209,69L209,76L202,76ZM230,69L237,69L237,76L230,76ZM258,69L272,69L272,76L258,76ZM293,69L300,69L300,76L293,76ZM314,69L328,69L328,76L314,76ZM342,69L349,69L349,76L342,76ZM356,69L363,69L363,76L356,76ZM34,76L55,76L55,83L34,83ZM62,76L69,76L69,83L62,83ZM76,76L90,76L90,83L76,83ZM104,76L139,76L139,83L104,83ZM146,76L174,76L174,83L146,83ZM181,76L244,76L244,83L181,83ZM265,76L286,76L286,83L265,83ZM293,76L300,76L300,83L293,83ZM307,76L314,76L314,83L307,83ZM335,76L349,76L349,83L335,83ZM363,76L384,76L384,83L363,83ZM398,76L419,76L419,83L398,83ZM20,83L34,83L34,90L20,90ZM41,83L48,83L48,90L41,90ZM76,83L83,83L83,90L76,90ZM90,83L97,83L97,90L90,90ZM104,83L111,83L111,90L104,90ZM118,83L132,83L132,90L118,90ZM139,83L146,83L146,90L139,90ZM153,83L160,83L160,90L153,90ZM167,83L181,83L181,90L167,90ZM202,83L209,83L209,90L202,90ZM244,83L265,83L265,90L244,90ZM272,83L279,83L279,90L272,90ZM300,83L307,83L307,90L300,90ZM321,83L328,83L328,90L321,90ZM342,83L349,83L349,90L342,90ZM356,83L370,83L370,90L356,90ZM384,83L391,83L391,90L384,90ZM398,83L412,83L412,90L398,90ZM20,90L34,90L34,97L20,97ZM41,90L55,90L55,97L41,97ZM62,90L69,90L69,97L62,97ZM111,90L118,90L118,97L111,97ZM146,90L160,90L160,97L146,97ZM174,90L181,90L181,97L174,97ZM188,90L195,90L195,97L188,97ZM202,90L223,90L223,97L202,97ZM230,90L251,90L251,97L230,97ZM272,90L286,90L286,97L272,97ZM293,90L300,90L300,97L293,97ZM314,90L321,90L321,97L314,97ZM335,90L342,90L342,97L335,97ZM391,90L398,90L398,97L391,97ZM405,90L412,90L412,97L405,97ZM20,97L41,97L41,104L20,104ZM76,97L83,97L83,104L76,104ZM90,97L97,97L97,104L90,104ZM104,97L111,97L111,104L104,104ZM132,97L139,97L139,104L132,104ZM153,97L160,97L160,104L153,104ZM167,97L174,97L174,104L167,104ZM188,97L195,97L195,104L188,104ZM202,97L216,97L216,104L202,104ZM230,97L251,97L251,104L230,104ZM265,97L272,97L272,104L265,104ZM279,97L286,97L286,104L279,104ZM300,97L335,97L335,104L300,104ZM349,97L363,97L363,104L349,104ZM377,97L384,97L384,104L377,104ZM398,97L405,97L405,104L398,104ZM412,97L419,97L419,104L412,104ZM20,104L27,104L27,111L20,111ZM34,104L48,104L48,111L34,111ZM55,104L69,104L69,111L55,111ZM76,104L83,104L83,111L76,111ZM90,104L111,104L111,111L90,111ZM125,104L132,104L132,111L125,111ZM139,104L160,104L160,111L139,111ZM181,104L202,104L202,111L181,111ZM209,104L223,104L223,111L209,111ZM230,104L272,104L272,111L230,111ZM286,104L300,104L300,111L286,111ZM342,104L356,104L356,111L342,111ZM363,104L398,104L398,111L363,111ZM405,104L412,104L412,111L405,111ZM20,111L27,111L27,118L20,118ZM69,111L76,111L76,118L69,118ZM83,111L90,111L90,118L83,118ZM111,111L139,111L139,118L111,118ZM146,111L160,111L160,118L146,118ZM202,111L209,111L209,118L202,118ZM216,111L223,111L223,118L216,118ZM230,111L244,111L244,118L230,118ZM272,111L279,111L279,118L272,118ZM300,111L307,111L307,118L300,118ZM314,111L342,111L342,118L314,118ZM349,111L391,111L391,118L349,118ZM398,111L419,111L419,118L398,118ZM48,118L69,118L69,125L48,125ZM76,118L83,118L83,125L76,125ZM104,118L111,118L111,125L104,125ZM118,118L125,118L125,125L118,125ZM160,118L167,118L167,125L160,125ZM181,118L188,118L188,125L181,125ZM195,118L216,118L216,125L195,125ZM223,118L230,118L230,125L223,125ZM244,118L258,118L258,125L244,125ZM272,118L286,118L286,125L272,125ZM293,118L300,118L300,125L293,125ZM335,118L342,118L342,125L335,125ZM349,118L356,118L356,125L349,125ZM363,118L377,118L377,125L363,125ZM391,118L398,118L398,125L391,125ZM405,118L419,118L419,125L405,125ZM20,125L27,125L27,132L20,132ZM34,125L41,125L41,132L34,132ZM55,125L62,125L62,132L55,132ZM69,125L97,125L97,132L69,132ZM104,125L111,125L111,132L104,132ZM118,125L139,125L139,132L118,132ZM146,125L153,125L153,132L146,132ZM188,125L202,125L202,132L188,132ZM209,125L230,125L230,132L209,132ZM237,125L244,125L244,132L237,132ZM251,125L265,125L265,132L251,132ZM279,125L286,125L286,132L279,132ZM300,125L328,125L328,132L300,132ZM335,125L342,125L342,132L335,132ZM356,125L363,125L363,132L356,132ZM398,125L405,125L405,132L398,132ZM412,125L419,125L419,132L412,132ZM27,132L34,132L34,139L27,139ZM41,132L76,132L76,139L41,139ZM97,132L111,132L111,139L97,139ZM181,132L202,132L202,139L181,139ZM223,132L237,132L237,139L223,139ZM251,132L258,132L258,139L251,139ZM265,132L279,132L279,139L265,139ZM286,132L293,132L293,139L286,139ZM342,132L384,132L384,139L342,139ZM391,132L405,132L405,139L391,139ZM34,139L55,139L55,146L34,146ZM76,139L83,139L83,146L76,146ZM97,139L104,139L104,146L97,146ZM118,139L125,139L125,146L118,146ZM132,139L146,139L146,146L132,146ZM153,139L160,139L160,146L153,146ZM167,139L181,139L181,146L167,146ZM188,139L202,139L202,146L188,146ZM223,139L230,139L230,146L223,146ZM237,139L244,139L244,146L237,146ZM258,139L279,139L279,146L258,146ZM293,139L307,139L307,146L293,146ZM314,139L342,139L342,146L314,146ZM356,139L363,139L363,146L356,146ZM391,139L405,139L405,146L391,146ZM27,146L34,146L34,153L27,153ZM62,146L69,146L69,153L62,153ZM76,146L111,146L111,153L76,153ZM146,146L188,146L188,153L146,153ZM195,146L202,146L202,153L195,153ZM209,146L216,146L216,153L209,153ZM223,146L230,146L230,153L223,153ZM237,146L244,146L244,153L237,153ZM272,146L286,146L286,153L272,153ZM307,146L314,146L314,153L307,153ZM335,146L342,146L342,153L335,153ZM363,146L384,146L384,153L363,153ZM412,146L419,146L419,153L412,153ZM20,153L27,153L27,160L20,160ZM41,153L48,153L48,160L41,160ZM55,153L62,153L62,160L55,160ZM90,153L104,153L104,160L90,160ZM118,153L125,153L125,160L118,160ZM132,153L160,153L160,160L132,160ZM188,153L202,153L202,160L188,160ZM223,153L237,153L237,160L223,160ZM244,153L251,153L251,160L244,160ZM258,153L286,153L286,160L258,160ZM300,153L307,153L307,160L300,160ZM314,153L328,153L328,160L314,160ZM349,153L363,153L363,160L349,160ZM391,153L405,153L405,160L391,160ZM412,153L419,153L419,160L412,160ZM20,160L34,160L34,167L20,167ZM41,160L55,160L55,167L41,167ZM62,160L69,160L69,167L62,167ZM76,160L83,160L83,167L76,167ZM90,160L97,160L97,167L90,167ZM104,160L118,160L118,167L104,167ZM125,160L132,160L132,167L125,167ZM139,160L160,160L160,167L139,167ZM167,160L181,160L181,167L167,167ZM188,160L216,160L216,167L188,167ZM223,160L230,160L230,167L223,167ZM244,160L251,160L251,167L244,167ZM258,160L265,160L265,167L258,167ZM272,160L279,160L279,167L272,167ZM286,160L300,160L300,167L286,167ZM307,160L314,160L314,167L307,167ZM335,160L356,160L356,167L335,167ZM363,160L391,160L391,167L363,167ZM398,160L412,160L412,167L398,167ZM20,167L41,167L41,174L20,174ZM48,167L62,167L62,174L48,174ZM69,167L76,167L76,174L69,174ZM83,167L90,167L90,174L83,174ZM97,167L118,167L118,174L97,174ZM174,167L181,167L181,174L174,174ZM188,167L202,167L202,174L188,174ZM209,167L216,167L216,174L209,174ZM230,167L237,167L237,174L230,174ZM244,167L251,167L251,174L244,174ZM258,167L272,167L272,174L258,174ZM293,167L307,167L307,174L293,174ZM314,167L321,167L321,174L314,174ZM328,167L356,167L356,174L328,174ZM363,167L370,167L370,174L363,174ZM384,167L391,167L391,174L384,174ZM398,167L405,167L405,174L398,174ZM20,174L34,174L34,181L20,181ZM41,174L69,174L69,181L41,181ZM83,174L90,174L90,181L83,181ZM97,174L104,174L104,181L97,181ZM125,174L139,174L139,181L125,181ZM146,174L160,174L160,181L146,181ZM174,174L188,174L188,181L174,181ZM195,174L202,174L202,181L195,181ZM223,174L230,174L230,181L223,181ZM272,174L286,174L286,181L272,181ZM314,174L328,174L328,181L314,181ZM342,174L349,174L349,181L342,181ZM370,174L384,174L384,181L370,181ZM391,174L412,174L412,181L391,181ZM20,181L62,181L62,188L20,188ZM69,181L83,181L83,188L69,188ZM90,181L118,181L118,188L90,188ZM125,181L132,181L132,188L125,188ZM160,181L167,181L167,188L160,188ZM181,181L188,181L188,188L181,188ZM202,181L216,181L216,188L202,188ZM237,181L251,181L251,188L237,188ZM258,181L272,181L272,188L258,188ZM293,181L300,181L300,188L293,188ZM307,181L314,181L314,188L307,188ZM349,181L370,181L370,188L349,188ZM398,181L405,181L405,188L398,188ZM412,181L419,181L419,188L412,188ZM27,188L76,188L76,195L27,195ZM90,188L104,188L104,195L90,195ZM132,188L139,188L139,195L132,195ZM146,188L153,188L153,195L146,195ZM195,188L209,188L209,195L195,195ZM237,188L251,188L251,195L237,195ZM258,188L272,188L272,195L258,195ZM279,188L293,188L293,195L279,195ZM300,188L307,188L307,195L300,195ZM335,188L349,188L349,195L335,195ZM356,188L363,188L363,195L356,195ZM370,188L384,188L384,195L370,195ZM391,188L405,188L405,195L391,195ZM412,188L419,188L419,195L412,195ZM27,195L34,195L34,202L27,202ZM41,195L62,195L62,202L41,202ZM69,195L90,195L90,202L69,202ZM132,195L153,195L153,202L132,202ZM160,195L167,195L167,202L160,202ZM174,195L181,195L181,202L174,202ZM195,195L209,195L209,202L195,202ZM230,195L237,195L237,202L230,202ZM244,195L251,195L251,202L244,202ZM272,195L279,195L279,202L272,202ZM293,195L314,195L314,202L293,202ZM321,195L342,195L342,202L321,202ZM377,195L391,195L391,202L377,202ZM398,195L405,195L405,202L398,202ZM27,202L34,202L34,209L27,209ZM41,202L90,202L90,209L41,209ZM104,202L111,202L111,209L104,209ZM125,202L132,202L132,209L125,209ZM139,202L146,202L146,209L139,209ZM153,202L160,202L160,209L153,209ZM167,202L181,202L181,209L167,209ZM188,202L237,202L237,209L188,209ZM244,202L258,202L258,209L244,209ZM265,202L279,202L279,209L265,209ZM300,202L307,202L307,209L300,209ZM314,202L321,202L321,209L314,209ZM342,202L391,202L391,209L342,209ZM398,202L419,202L419,209L398,209ZM27,209L34,209L34,216L27,216ZM41,209L55,209L55,216L41,216ZM76,209L83,209L83,216L76,216ZM132,209L153,209L153,216L132,216ZM160,209L167,209L167,216L160,216ZM174,209L195,209L195,216L174,216ZM202,209L209,209L209,216L202,216ZM230,209L237,209L237,216L230,216ZM251,209L258,209L258,216L251,216ZM265,209L272,209L272,216L265,216ZM293,209L321,209L321,216L293,216ZM328,209L342,209L342,216L328,216ZM349,209L363,209L363,216L349,216ZM384,209L391,209L391,216L384,216ZM398,209L405,209L405,216L398,216ZM412,209L419,209L419,216L412,216ZM20,216L55,216L55,223L20,223ZM62,216L69,216L69,223L62,223ZM76,216L83,216L83,223L76,223ZM97,216L111,216L111,223L97,223ZM125,216L132,216L132,223L125,223ZM139,216L146,216L146,223L139,223ZM153,216L160,216L160,223L153,223ZM181,216L195,216L195,223L181,223ZM202,216L209,216L209,223L202,223ZM216,216L223,216L223,223L216,223ZM230,216L237,216L237,223L230,223ZM265,216L272,216L272,223L265,223ZM279,216L293,216L293,223L279,223ZM321,216L335,216L335,223L321,223ZM342,216L349,216L349,223L342,223ZM356,216L363,216L363,223L356,223ZM370,216L377,216L377,223L370,223ZM384,216L391,216L391,223L384,223ZM398,216L419,216L419,223L398,223ZM20,223L55,223L55,230L20,230ZM76,223L90,223L90,230L76,230ZM104,223L111,223L111,230L104,230ZM132,223L146,223L146,230L132,230ZM153,223L181,223L181,230L153,230ZM195,223L209,223L209,230L195,230ZM230,223L258,223L258,230L230,230ZM286,223L293,223L293,230L286,230ZM300,223L314,223L314,230L300,230ZM328,223L349,223L349,230L328,230ZM356,223L363,223L363,230L356,230ZM384,223L412,223L412,230L384,230ZM27,230L34,230L34,237L27,237ZM41,230L90,230L90,237L41,237ZM97,230L125,230L125,237L97,237ZM132,230L139,230L139,237L132,237ZM146,230L181,230L181,237L146,237ZM195,230L244,230L244,237L195,237ZM251,230L258,230L258,237L251,237ZM265,230L279,230L279,237L265,237ZM293,230L300,230L300,237L293,237ZM314,230L328,230L328,237L314,237ZM356,230L391,230L391,237L356,237ZM405,230L412,230L412,237L405,237ZM20,237L48,237L48,244L20,244ZM55,237L62,237L62,244L55,244ZM69,237L83,237L83,244L69,244ZM90,237L104,237L104,244L90,244ZM132,237L174,237L174,244L132,244ZM202,237L216,237L216,244L202,244ZM223,237L230,237L230,244L223,244ZM237,237L272,237L272,244L237,244ZM279,237L286,237L286,244L279,244ZM300,237L321,237L321,244L300,244ZM335,237L342,237L342,244L335,244ZM363,237L370,237L370,244L363,244ZM391,237L398,237L398,244L391,244ZM412,237L419,237L419,244L412,244ZM20,244L27,244L27,251L20,251ZM55,244L69,244L69,251L55,251ZM90,244L97,244L97,251L90,251ZM111,244L125,244L125,251L111,251ZM139,244L146,244L146,251L139,251ZM160,244L181,244L181,251L160,251ZM188,244L202,244L202,251L188,251ZM216,244L223,244L223,251L216,251ZM230,244L237,244L237,251L230,251ZM251,244L258,244L258,251L251,251ZM286,244L300,244L300,251L286,251ZM307,244L314,244L314,251L307,251ZM342,244L349,244L349,251L342,251ZM363,244L370,244L370,251L363,251ZM391,244L398,244L398,251L391,251ZM405,244L412,244L412,251L405,251ZM27,251L41,251L41,258L27,258ZM48,251L55,251L55,258L48,258ZM76,251L83,251L83,258L76,258ZM90,251L97,251L97,258L90,258ZM104,251L111,251L111,258L104,258ZM125,251L132,251L132,258L125,258ZM146,251L160,251L160,258L146,258ZM167,251L181,251L181,258L167,258ZM188,251L195,251L195,258L188,258ZM209,251L230,251L230,258L209,258ZM237,251L251,251L251,258L237,258ZM272,251L279,251L279,258L272,258ZM293,251L307,251L307,258L293,258ZM314,251L335,251L335,258L314,258ZM349,251L356,251L356,258L349,258ZM370,251L384,251L384,258L370,258ZM398,251L419,251L419,258L398,258ZM48,258L55,258L55,265L48,265ZM62,258L69,258L69,265L62,265ZM76,258L83,258L83,265L76,265ZM104,258L146,258L146,265L104,265ZM188,258L195,258L195,265L188,265ZM202,258L216,258L216,265L202,265ZM230,258L258,258L258,265L230,265ZM272,258L293,258L293,265L272,265ZM314,258L321,258L321,265L314,265ZM342,258L349,258L349,265L342,265ZM363,258L370,258L370,265L363,265ZM377,258L398,258L398,265L377,265ZM20,265L27,265L27,272L20,272ZM34,265L41,265L41,272L34,272ZM83,265L90,265L90,272L83,272ZM97,265L104,265L104,272L97,272ZM125,265L139,265L139,272L125,272ZM146,265L153,265L153,272L146,272ZM167,265L174,265L174,272L167,272ZM181,265L202,265L202,272L181,272ZM237,265L244,265L244,272L237,272ZM265,265L279,265L279,272L265,272ZM293,265L300,265L300,272L293,272ZM314,265L335,265L335,272L314,272ZM356,265L363,265L363,272L356,272ZM370,265L377,265L377,272L370,272ZM398,265L419,265L419,272L398,272ZM34,272L48,272L48,279L34,279ZM62,272L97,272L97,279L62,279ZM104,272L111,272L111,279L104,279ZM125,272L139,272L139,279L125,279ZM153,272L188,272L188,279L153,279ZM202,272L223,272L223,279L202,279ZM230,272L237,272L237,279L230,279ZM244,272L251,272L251,279L244,279ZM258,272L314,272L314,279L258,279ZM321,272L349,272L349,279L321,279ZM363,272L405,272L405,279L363,279ZM20,279L27,279L27,286L20,286ZM48,279L62,279L62,286L48,286ZM69,279L83,279L83,286L69,286ZM97,279L104,279L104,286L97,286ZM111,279L132,279L132,286L111,286ZM139,279L167,279L167,286L139,286ZM202,279L209,279L209,286L202,286ZM216,279L230,279L230,286L216,286ZM237,279L244,279L244,286L237,286ZM258,279L265,279L265,286L258,286ZM279,279L286,279L286,286L279,286ZM300,279L321,279L321,286L300,286ZM328,279L342,279L342,286L328,286ZM356,279L363,279L363,286L356,286ZM370,279L377,279L377,286L370,286ZM398,279L412,279L412,286L398,286ZM20,286L27,286L27,293L20,293ZM34,286L41,286L41,293L34,293ZM62,286L69,286L69,293L62,293ZM83,286L90,286L90,293L83,293ZM97,286L104,286L104,293L97,293ZM118,286L125,286L125,293L118,293ZM167,286L188,286L188,293L167,293ZM223,286L230,286L230,293L223,293ZM237,286L265,286L265,293L237,293ZM286,286L300,286L300,293L286,293ZM307,286L314,286L314,293L307,293ZM363,286L377,286L377,293L363,293ZM384,286L398,286L398,293L384,293ZM405,286L412,286L412,293L405,293ZM20,293L48,293L48,300L20,300ZM55,293L62,293L62,300L55,300ZM69,293L83,293L83,300L69,300ZM90,293L104,293L104,300L90,300ZM132,293L146,293L146,300L132,300ZM160,293L174,293L174,300L160,300ZM181,293L195,293L195,300L181,300ZM202,293L216,293L216,300L202,300ZM223,293L230,293L230,300L223,300ZM237,293L244,293L244,300L237,300ZM265,293L293,293L293,300L265,300ZM300,293L321,293L321,300L300,300ZM335,293L342,293L342,300L335,300ZM377,293L384,293L384,300L377,300ZM391,293L419,293L419,300L391,300ZM27,300L76,300L76,307L27,307ZM90,300L97,300L97,307L90,307ZM132,300L146,300L146,307L132,307ZM153,300L181,300L181,307L153,307ZM188,300L223,300L223,307L188,307ZM237,300L244,300L244,307L237,307ZM251,300L258,300L258,307L251,307ZM265,300L272,300L272,307L265,307ZM286,300L300,300L300,307L286,307ZM321,300L335,300L335,307L321,307ZM363,300L370,300L370,307L363,307ZM391,300L405,300L405,307L391,307ZM20,307L27,307L27,314L20,314ZM34,307L62,307L62,314L34,314ZM69,307L83,307L83,314L69,314ZM97,307L104,307L104,314L97,314ZM111,307L118,307L118,314L111,314ZM125,307L132,307L132,314L125,314ZM139,307L153,307L153,314L139,314ZM160,307L174,307L174,314L160,314ZM181,307L195,307L195,314L181,314ZM209,307L216,307L216,314L209,314ZM223,307L230,307L230,314L223,314ZM244,307L265,307L265,314L244,314ZM272,307L293,307L293,314L272,314ZM300,307L307,307L307,314L300,314ZM314,307L321,307L321,314L314,314ZM328,307L342,307L342,314L328,314ZM349,307L384,307L384,314L349,314ZM391,307L412,307L412,314L391,314ZM27,314L34,314L34,321L27,321ZM41,314L55,314L55,321L41,321ZM62,314L76,314L76,321L62,321ZM97,314L111,314L111,321L97,321ZM125,314L146,314L146,321L125,321ZM167,314L174,314L174,321L167,321ZM188,314L202,314L202,321L188,321ZM209,314L279,314L279,321L209,321ZM293,314L300,314L300,321L293,321ZM307,314L335,314L335,321L307,321ZM356,314L370,314L370,321L356,321ZM384,314L391,314L391,321L384,321ZM412,314L419,314L419,321L412,321ZM20,321L41,321L41,328L20,328ZM55,321L62,321L62,328L55,328ZM69,321L90,321L90,328L69,328ZM125,321L139,321L139,328L125,328ZM153,321L160,321L160,328L153,328ZM174,321L181,321L181,328L174,328ZM188,321L244,321L244,328L188,328ZM265,321L279,321L279,328L265,328ZM307,321L321,321L321,328L307,328ZM335,321L342,321L342,328L335,328ZM349,321L356,321L356,328L349,328ZM377,321L384,321L384,328L377,328ZM398,321L419,321L419,328L398,328ZM27,328L34,328L34,335L27,335ZM41,328L55,328L55,335L41,335ZM62,328L97,328L97,335L62,335ZM104,328L125,328L125,335L104,335ZM132,328L160,328L160,335L132,335ZM167,328L181,328L181,335L167,335ZM188,328L202,328L202,335L188,335ZM216,328L230,328L230,335L216,335ZM258,328L272,328L272,335L258,335ZM293,328L300,328L300,335L293,335ZM342,328L349,328L349,335L342,335ZM384,328L405,328L405,335L384,335ZM69,335L76,335L76,342L69,342ZM90,335L111,335L111,342L90,342ZM125,335L132,335L132,342L125,342ZM146,335L153,335L153,342L146,342ZM181,335L188,335L188,342L181,342ZM195,335L216,335L216,342L195,342ZM251,335L265,335L265,342L251,342ZM272,335L279,335L279,342L272,342ZM293,335L384,335L384,342L293,342ZM391,335L405,335L405,342L391,342ZM412,335L419,335L419,342L412,342ZM20,342L27,342L27,349L20,349ZM34,342L41,342L41,349L34,349ZM55,342L69,342L69,349L55,349ZM76,342L111,342L111,349L76,349ZM118,342L125,342L125,349L118,349ZM160,342L174,342L174,349L160,349ZM181,342L202,342L202,349L181,349ZM209,342L223,342L223,349L209,349ZM237,342L251,342L251,349L237,349ZM335,342L349,342L349,349L335,349ZM356,342L363,342L363,349L356,349ZM370,342L377,342L377,349L370,349ZM384,342L391,342L391,349L384,349ZM20,349L55,349L55,356L20,356ZM76,349L83,349L83,356L76,356ZM97,349L104,349L104,356L97,356ZM125,349L139,349L139,356L125,356ZM146,349L153,349L153,356L146,356ZM160,349L174,349L174,356L160,356ZM223,349L230,349L230,356L223,356ZM251,349L272,349L272,356L251,356ZM307,349L321,349L321,356L307,356ZM328,349L342,349L342,356L328,356ZM349,349L363,349L363,356L349,356ZM370,349L377,349L377,356L370,356ZM391,349L419,349L419,356L391,356ZM62,356L76,356L76,363L62,363ZM111,356L125,356L125,363L111,363ZM160,356L174,356L174,363L160,363ZM188,356L195,356L195,363L188,363ZM202,356L251,356L251,363L202,363ZM258,356L272,356L272,363L258,363ZM279,356L286,356L286,363L279,363ZM293,356L300,356L300,363L293,363ZM321,356L328,356L328,363L321,363ZM342,356L349,356L349,363L342,363ZM356,356L391,356L391,363L356,363ZM405,356L412,356L412,363L405,363ZM76,363L90,363L90,370L76,370ZM111,363L125,363L125,370L111,370ZM132,363L146,363L146,370L132,370ZM153,363L160,363L160,370L153,370ZM167,363L181,363L181,370L167,370ZM188,363L209,363L209,370L188,370ZM230,363L251,363L251,370L230,370ZM265,363L279,363L279,370L265,370ZM293,363L307,363L307,370L293,370ZM314,363L321,363L321,370L314,370ZM328,363L342,363L342,370L328,370ZM349,363L363,363L363,370L349,370ZM384,363L405,363L405,370L384,370ZM20,370L69,370L69,377L20,377ZM83,370L118,370L118,377L83,377ZM132,370L153,370L153,377L132,377ZM174,370L181,370L181,377L174,377ZM202,370L209,370L209,377L202,377ZM216,370L223,370L223,377L216,377ZM230,370L258,370L258,377L230,377ZM265,370L286,370L286,377L265,377ZM307,370L314,370L314,377L307,377ZM321,370L328,370L328,377L321,377ZM335,370L342,370L342,377L335,377ZM349,370L363,370L363,377L349,377ZM370,370L377,370L377,377L370,377ZM384,370L391,370L391,377L384,377ZM405,370L419,370L419,377L405,377ZM20,377L27,377L27,384L20,384ZM62,377L69,377L69,384L62,384ZM90,377L97,377L97,384L90,384ZM118,377L125,377L125,384L118,384ZM132,377L139,377L139,384L132,384ZM146,377L160,377L160,384L146,384ZM167,377L195,377L195,384L167,384ZM202,377L209,377L209,384L202,384ZM230,377L237,377L237,384L230,384ZM244,377L251,377L251,384L244,384ZM265,377L279,377L279,384L265,384ZM300,377L328,377L328,384L300,384ZM356,377L363,377L363,384L356,384ZM384,377L405,377L405,384L384,384ZM412,377L419,377L419,384L412,384ZM20,384L27,384L27,391L20,391ZM34,384L55,384L55,391L34,391ZM62,384L69,384L69,391L62,391ZM76,384L83,384L83,391L76,391ZM104,384L111,384L111,391L104,391ZM118,384L132,384L132,391L118,391ZM167,384L174,384L174,391L167,391ZM181,384L195,384L195,391L181,391ZM202,384L244,384L244,391L202,391ZM251,384L272,384L272,391L251,391ZM286,384L293,384L293,391L286,391ZM300,384L307,384L307,391L300,391ZM335,384L349,384L349,391L335,391ZM356,384L391,384L391,391L356,391ZM405,384L412,384L412,391L405,391ZM20,391L27,391L27,398L20,398ZM34,391L55,391L55,398L34,398ZM62,391L69,391L69,398L62,398ZM76,391L104,391L104,398L76,398ZM118,391L125,391L125,398L118,398ZM146,391L174,391L174,398L146,398ZM181,391L188,391L188,398L181,398ZM202,391L216,391L216,398L202,398ZM223,391L230,391L230,398L223,398ZM237,391L244,391L244,398L237,398ZM251,391L279,391L279,398L251,398ZM293,391L307,391L307,398L293,398ZM314,391L321,391L321,398L314,398ZM328,391L335,391L335,398L328,398ZM349,391L370,391L370,398L349,398ZM391,391L398,391L398,398L391,398ZM405,391L412,391L412,398L405,398ZM20,398L27,398L27,405L20,405ZM34,398L55,398L55,405L34,405ZM62,398L69,398L69,405L62,405ZM76,398L83,398L83,405L76,405ZM111,398L118,398L118,405L111,405ZM132,398L146,398L146,405L132,405ZM167,398L195,398L195,405L167,405ZM209,398L237,398L237,405L209,405ZM244,398L251,398L251,405L244,405ZM265,398L293,398L293,405L265,405ZM307,398L328,398L328,405L307,405ZM349,398L377,398L377,405L349,405ZM20,405L27,405L27,412L20,412ZM62,405L69,405L69,412L62,412ZM83,405L111,405L111,412L83,412ZM118,405L125,405L125,412L118,412ZM132,405L139,405L139,412L132,412ZM146,405L153,405L153,412L146,412ZM174,405L181,405L181,412L174,412ZM209,405L223,405L223,412L209,412ZM237,405L244,405L244,412L237,412ZM258,405L272,405L272,412L258,412ZM314,405L321,405L321,412L314,412ZM328,405L342,405L342,412L328,412ZM349,405L356,405L356,412L349,412ZM363,405L370,405L370,412L363,412ZM377,405L398,405L398,412L377,412ZM405,405L419,405L419,412L405,412ZM20,412L69,412L69,419L20,419ZM83,412L97,412L97,419L83,419ZM118,412L146,412L146,419L118,419ZM167,412L174,412L174,419L167,419ZM202,412L209,412L209,419L202,419ZM237,412L251,412L251,419L237,419ZM258,412L300,412L300,419L258,419ZM307,412L328,412L328,419L307,419ZM342,412L349,412L349,419L342,419ZM356,412L363,412L363,419L356,419ZM398,412L412,412L412,419L398,419Z"/></svg>
