<?xml version="1.0"?>
<svg xmlns="http://www.w3.org/2000/svg" xmlns:xlink="http://www.w3.org/1999/xlink" version="1.1" width="440px" height="440px" viewBox="0 0 440 440"><rect x="0" y="0" width="440" height="440" fill="#ffffff" fill-opacity="1"/><path fill="#000000" fill-opacity="1" d="M20,20L69,20L69,27L20,27ZM76,20L90,20L90,27L76,27ZM118,20L132,20L132,27L118,27ZM174,20L223,20L223,27L174,27ZM230,20L251,20L251,27L230,27ZM258,20L279,20L279,27L258,27ZM293,20L314,20L314,27L293,27ZM328,20L335,20L335,27L328,27ZM342,20L356,20L356,27L342,27ZM370,20L419,20L419,27L370,27ZM20,27L27,27L27,34L20,34ZM62,27L69,27L69,34L62,34ZM76,27L83,27L83,34L76,34ZM97,27L118,27L118,34L97,34ZM125,27L132,27L132,34L125,34ZM139,27L146,27L146,34L139,34ZM153,27L188,27L188,34L153,34ZM230,27L237,27L237,34L230,34ZM244,27L258,27L258,34L244,34ZM265,27L272,27L272,34L265,34ZM286,27L293,27L293,34L286,34ZM307,27L314,27L314,34L307,34ZM349,27L356,27L356,34L349,34ZM370,27L377,27L377,34L370,34ZM412,27L419,27L419,34L412,34ZM20,34L27,34L27,41L20,41ZM34,34L55,34L55,41L34,41ZM62,34L69,34L69,41L62,41ZM76,34L90,34L90,41L76,41ZM97,34L104,34L104,41L97,41ZM111,34L153,34L153,41L111,41ZM167,34L174,34L174,41L167,41ZM181,34L195,34L195,41L181,41ZM209,34L216,34L216,41L209,41ZM223,34L251,34L251,41L223,41ZM265,34L286,34L286,41L265,41ZM300,34L307,34L307,41L300,41ZM314,34L356,34L356,41L314,41ZM370,34L377,34L377,41L370,41ZM384,34L405,34L405,41L384,41ZM412,34L419,34L419,41L412,41ZM20,41L27,41L27,48L20,48ZM34,41L55,41L55,48L34,48ZM62,41L69,41L69,48L62,48ZM83,41L118,41L118,48L83,48ZM132,41L160,41L160,48L132,48ZM195,41L209,41L209,48L195,48ZM223,41L244,41L244,48L223,48ZM265,41L272,41L272,48L265,48ZM286,41L293,41L293,48L286,48ZM307,41L314,41L314,48L307,48ZM321,41L335,41L335,48L321,48ZM349,41L356,41L356,48L349,48ZM370,41L377,41L377,48L370,48ZM384,41L405,41L405,48L384,48ZM412,41L419,41L419,48L412,48ZM20,48L27,48L27,55L20,55ZM34,48L55,48L55,55L34,55ZM62,48L69,48L69,55L62,55ZM83,48L90,48L90,55L83,55ZM104,48L125,48L125,55L104,55ZM153,48L160,48L160,55L153,55ZM167,48L174,48L174,55L167,55ZM181,48L188,48L188,55L181,55ZM202,48L251,48L251,55L202,55ZM258,48L265,48L265,55L258,55ZM279,48L286,48L286,55L279,55ZM300,48L321,48L321,55L300,55ZM328,48L335,48L335,55L328,55ZM349,48L356,48L356,55L349,55ZM370,48L377,48L377,55L370,55ZM384,48L405,48L405,55L384,55ZM412,48L419,48L419,55L412,55ZM20,55L27,55L27,62L20,62ZM62,55L69,55L69,62L62,62ZM76,55L83,55L83,62L76,62ZM90,55L97,55L97,62L90,62ZM125,55L132,55L132,62L125,62ZM139,55L153,55L153,62L139,62ZM160,55L174,55L174,62L160,62ZM181,55L195,55L195,62L181,62ZM202,55L209,55L209,62L202,62ZM230,55L237,55L237,62L230,62ZM244,55L251,55L251,62L244,62ZM258,55L272,55L272,62L258,62ZM286,55L300,55L300,62L286,62ZM314,55L321,55L321,62L314,62ZM335,55L349,55L349,62L335,62ZM370,55L377,55L377,62L370,62ZM412,55L419,55L419,62L412,62ZM20,62L69,62L69,69L20,69ZM76,62L83,62L83,69L76,69ZM90,62L97,62L97,69L90,69ZM104,62L111,62L111,69L104,69ZM118,62L125,62L125,69L118,69ZM132,62L139,62L139,69L132,69ZM146,62L153,62L153,69L146,69ZM160,62L167,62L167,69L160,69ZM174,62L181,62L181,69L174,69ZM188,62L195,62L195,69L188,69ZM202,62L209,62L209,69L202,69ZM216,62L223,62L223,69L216,69ZM230,62L237,62L237,69L230,69ZM244,62L251,62L251,69L244,69ZM258,62L265,62L265,69L258,69ZM272,62L279,62L279,69L272,69ZM286,62L293,62L293,69L286,69ZM300,62L307,62L307,69L300,69ZM314,62L321,62L321,69L314,69ZM328,62L335,62L335,69L328,69ZM342,62L349,62L349,69L342,69ZM356,62L363,62L363,69L356,69ZM370,62L419,62L419,69L370,69ZM76,69L83,69L83,76L76,76ZM90,69L97,69L97,76L90,76ZM104,69L111,69L111,76L104,76ZM125,69L139,69L139,76L125,76ZM153,69L167,69L167,76L153,76ZM202,69L209,69L209,76L202,76ZM230,69L237,69L237,76L230,76ZM258,69L286,69L286,76L258,76ZM314,69L328,69L328,76L314,76ZM335,69L342,69L342,76L335,76ZM356,69L363,69L363,76L356,76ZM34,76L55,76L55,83L34,83ZM62,76L69,76L69,83L62,83ZM76,76L118,76L118,83L76,83ZM132,76L160,76L160,83L132,83ZM167,76L174,76L174,83L167,83ZM188,76L244,76L244,83L188,83ZM265,76L272,76L272,83L265,83ZM286,76L300,76L300,83L286,83ZM307,76L314,76L314,83L307,83ZM328,76L335,76L335,83L328,83ZM342,76L349,76L349,83L342,83ZM356,76L384,76L384,83L356,83ZM398,76L419,76L419,83L398,83ZM27,83L48,83L48,90L27,90ZM69,83L83,83L83,90L69,90ZM97,83L104,83L104,90L97,90ZM111,83L118,83L118,90L111,90ZM139,83L167,83L167,90L139,90ZM188,83L230,83L230,90L188,90ZM244,83L272,83L272,90L244,90ZM293,83L314,83L314,90L293,90ZM321,83L342,83L342,90L321,90ZM363,83L370,83L370,90L363,90ZM384,83L419,83L419,90L384,90ZM20,90L27,90L27,97L20,97ZM34,90L48,90L48,97L34,97ZM62,90L83,90L83,97L62,97ZM104,90L111,90L111,97L104,97ZM118,90L132,90L132,97L118,97ZM146,90L160,90L160,97L146,97ZM167,90L174,90L174,97L167,97ZM181,90L188,90L188,97L181,97ZM195,90L202,90L202,97L195,97ZM216,90L223,90L223,97L216,97ZM230,90L251,90L251,97L230,97ZM272,90L279,90L279,97L272,97ZM286,90L293,90L293,97L286,97ZM307,90L321,90L321,97L307,97ZM335,90L342,90L342,97L335,97ZM349,90L356,90L356,97L349,97ZM405,90L412,90L412,97L405,97ZM41,97L48,97L48,104L41,104ZM69,97L83,97L83,104L69,104ZM90,97L97,97L97,104L90,104ZM111,97L139,97L139,104L111,104ZM153,97L167,97L167,104L153,104ZM181,97L216,97L216,104L181,104ZM223,97L237,97L237,104L223,104ZM258,97L286,97L286,104L258,104ZM293,97L321,97L321,104L293,104ZM356,97L370,97L370,104L356,104ZM377,97L384,97L384,104L377,104ZM391,97L419,97L419,104L391,104ZM27,104L34,104L34,111L27,111ZM48,104L55,104L55,111L48,111ZM62,104L69,104L69,111L62,111ZM90,104L97,104L97,111L90,111ZM104,104L153,104L153,111L104,111ZM160,104L181,104L181,111L160,111ZM188,104L195,104L195,111L188,111ZM202,104L209,104L209,111L202,111ZM237,104L244,104L244,111L237,111ZM258,104L265,104L265,111L258,111ZM286,104L293,104L293,111L286,111ZM321,104L328,104L328,111L321,111ZM342,104L349,104L349,111L342,111ZM370,104L405,104L405,111L370,111ZM20,111L34,111L34,118L20,118ZM55,111L62,111L62,118L55,118ZM76,111L90,111L90,118L76,118ZM111,111L125,111L125,118L111,118ZM146,111L153,111L153,118L146,118ZM160,111L195,111L195,118L160,118ZM209,111L216,111L216,118L209,118ZM223,111L244,111L244,118L223,118ZM258,111L272,111L272,118L258,118ZM300,111L342,111L342,118L300,118ZM356,111L391,111L391,118L356,118ZM398,111L419,111L419,118L398,118ZM20,118L41,118L41,125L20,125ZM62,118L83,118L83,125L62,125ZM90,118L97,118L97,125L90,125ZM104,118L111,118L111,125L104,125ZM132,118L146,118L146,125L132,125ZM160,118L174,118L174,125L160,125ZM230,118L244,118L244,125L230,125ZM258,118L265,118L265,125L258,125ZM279,118L286,118L286,125L279,125ZM293,118L300,118L300,125L293,125ZM314,118L321,118L321,125L314,125ZM335,118L342,118L342,125L335,125ZM349,118L356,118L356,125L349,125ZM363,118L370,118L370,125L363,125ZM391,118L398,118L398,125L391,125ZM405,118L419,118L419,125L405,125ZM20,125L34,125L34,132L20,132ZM48,125L62,125L62,132L48,132ZM76,125L90,125L90,132L76,132ZM104,125L111,125L111,132L104,132ZM118,125L125,125L125,132L118,132ZM132,125L139,125L139,132L132,132ZM146,125L160,125L160,132L146,132ZM167,125L174,125L174,132L167,132ZM181,125L195,125L195,132L181,132ZM202,125L223,125L223,132L202,132ZM230,125L244,125L244,132L230,132ZM251,125L272,125L272,132L251,132ZM279,125L286,125L286,132L279,132ZM300,125L307,125L307,132L300,132ZM314,125L328,125L328,132L314,132ZM335,125L342,125L342,132L335,132ZM356,125L363,125L363,132L356,132ZM384,125L391,125L391,132L384,132ZM398,125L405,125L405,132L398,132ZM412,125L419,125L419,132L412,132ZM27,132L34,132L34,139L27,139ZM41,132L48,132L48,139L41,139ZM62,132L76,132L76,139L62,139ZM104,132L111,132L111,139L104,139ZM125,132L132,132L132,139L125,139ZM146,132L153,132L153,139L146,139ZM160,132L174,132L174,139L160,139ZM181,132L209,132L209,139L181,139ZM216,132L230,132L230,139L216,139ZM244,132L258,132L258,139L244,139ZM286,132L293,132L293,139L286,139ZM307,132L314,132L314,139L307,139ZM321,132L328,132L328,139L321,139ZM342,132L356,132L356,139L342,139ZM363,132L384,132L384,139L363,139ZM391,132L405,132L405,139L391,139ZM20,139L27,139L27,146L20,146ZM34,139L41,139L41,146L34,146ZM69,139L76,139L76,146L69,146ZM90,139L97,139L97,146L90,146ZM104,139L118,139L118,146L104,146ZM125,139L132,139L132,146L125,146ZM160,139L174,139L174,146L160,146ZM181,139L202,139L202,146L181,146ZM209,139L258,139L258,146L209,146ZM265,139L272,139L272,146L265,146ZM293,139L307,139L307,146L293,146ZM314,139L321,139L321,146L314,146ZM328,139L342,139L342,146L328,146ZM349,139L356,139L356,146L349,146ZM363,139L377,139L377,146L363,146ZM384,139L391,139L391,146L384,146ZM398,139L405,139L405,146L398,146ZM27,146L48,146L48,153L27,153ZM55,146L83,146L83,153L55,153ZM90,146L97,146L97,153L90,153ZM118,146L125,146L125,153L118,153ZM153,146L160,146L160,153L153,153ZM167,146L181,146L181,153L167,153ZM202,146L216,146L216,153L202,153ZM258,146L265,146L265,153L258,153ZM272,146L286,146L286,153L272,153ZM321,146L328,146L328,153L321,153ZM335,146L342,146L342,153L335,153ZM363,146L384,146L384,153L363,153ZM391,146L398,146L398,153L391,153ZM412,146L419,146L419,153L412,153ZM20,153L27,153L27,160L20,160ZM41,153L48,153L48,160L41,160ZM104,153L111,153L111,160L104,160ZM132,153L139,153L139,160L132,160ZM167,153L181,153L181,160L167,160ZM195,153L202,153L202,160L195,160ZM209,153L223,153L223,160L209,160ZM244,153L258,153L258,160L244,160ZM265,153L279,153L279,160L265,160ZM300,153L307,153L307,160L300,160ZM314,153L321,153L321,160L314,160ZM335,153L342,153L342,160L335,160ZM349,153L363,153L363,160L349,160ZM391,153L405,153L405,160L391,160ZM412,153L419,153L419,160L412,160ZM20,160L34,160L34,167L20,167ZM48,160L69,160L69,167L48,167ZM83,160L97,160L97,167L83,167ZM104,160L132,160L132,167L104,167ZM146,160L160,160L160,167L146,167ZM167,160L174,160L174,167L167,167ZM181,160L195,160L195,167L181,167ZM209,160L223,160L223,167L209,167ZM237,160L251,160L251,167L237,167ZM272,160L300,160L300,167L272,167ZM307,160L314,160L314,167L307,167ZM342,160L356,160L356,167L342,167ZM363,160L377,160L377,167L363,167ZM398,160L412,160L412,167L398,167ZM20,167L48,167L48,174L20,174ZM69,167L76,167L76,174L69,174ZM90,167L125,167L125,174L90,174ZM132,167L139,167L139,174L132,174ZM174,167L181,167L181,174L174,174ZM202,167L209,167L209,174L202,174ZM230,167L244,167L244,174L230,174ZM258,167L272,167L272,174L258,174ZM293,167L342,167L342,174L293,174ZM349,167L356,167L356,174L349,174ZM363,167L370,167L370,174L363,174ZM377,167L391,167L391,174L377,174ZM398,167L405,167L405,174L398,174ZM20,174L27,174L27,181L20,181ZM34,174L41,174L41,181L34,181ZM48,174L55,174L55,181L48,181ZM62,174L69,174L69,181L62,181ZM83,174L90,174L90,181L83,181ZM97,174L104,174L104,181L97,181ZM132,174L146,174L146,181L132,181ZM153,174L160,174L160,181L153,181ZM181,174L188,174L188,181L181,181ZM195,174L202,174L202,181L195,181ZM209,174L216,174L216,181L209,181ZM223,174L237,174L237,181L223,181ZM279,174L286,174L286,181L279,181ZM349,174L370,174L370,181L349,181ZM391,174L398,174L398,181L391,181ZM405,174L412,174L412,181L405,181ZM34,181L41,181L41,188L34,188ZM48,181L62,181L62,188L48,188ZM69,181L146,181L146,188L69,188ZM160,181L174,181L174,188L160,188ZM181,181L195,181L195,188L181,188ZM202,181L216,181L216,188L202,188ZM258,181L272,181L272,188L258,188ZM314,181L321,181L321,188L314,188ZM328,181L335,181L335,188L328,188ZM349,181L363,181L363,188L349,188ZM391,181L405,181L405,188L391,188ZM412,181L419,181L419,188L412,188ZM41,188L76,188L76,195L41,195ZM83,188L97,188L97,195L83,195ZM118,188L146,188L146,195L118,195ZM167,188L174,188L174,195L167,195ZM188,188L195,188L195,195L188,195ZM202,188L216,188L216,195L202,195ZM223,188L272,188L272,195L223,195ZM279,188L300,188L300,195L279,195ZM307,188L314,188L314,195L307,195ZM321,188L349,188L349,195L321,195ZM356,188L405,188L405,195L356,195ZM412,188L419,188L419,195L412,195ZM34,195L41,195L41,202L34,202ZM48,195L62,195L62,202L48,202ZM69,195L90,195L90,202L69,202ZM97,195L104,195L104,202L97,202ZM111,195L132,195L132,202L111,202ZM139,195L146,195L146,202L139,202ZM167,195L188,195L188,202L167,202ZM195,195L202,195L202,202L195,202ZM223,195L230,195L230,202L223,202ZM244,195L265,195L265,202L244,202ZM272,195L279,195L279,202L272,202ZM286,195L293,195L293,202L286,202ZM300,195L307,195L307,202L300,202ZM328,195L349,195L349,202L328,202ZM384,195L391,195L391,202L384,202ZM398,195L405,195L405,202L398,202ZM27,202L34,202L34,209L27,209ZM41,202L83,202L83,209L41,209ZM90,202L104,202L104,209L90,209ZM132,202L139,202L139,209L132,209ZM160,202L181,202L181,209L160,209ZM202,202L237,202L237,209L202,209ZM244,202L279,202L279,209L244,209ZM293,202L300,202L300,209L293,209ZM314,202L328,202L328,209L314,209ZM342,202L391,202L391,209L342,209ZM398,202L412,202L412,209L398,209ZM20,209L27,209L27,216L20,216ZM34,209L55,209L55,216L34,216ZM76,209L90,209L90,216L76,216ZM132,209L146,209L146,216L132,216ZM160,209L167,209L167,216L160,216ZM174,209L181,209L181,216L174,216ZM188,209L195,209L195,216L188,216ZM202,209L209,209L209,216L202,216ZM230,209L237,209L237,216L230,216ZM244,209L272,209L272,216L244,216ZM300,209L321,209L321,216L300,216ZM328,209L342,209L342,216L328,216ZM349,209L363,209L363,216L349,216ZM384,209L391,209L391,216L384,216ZM398,209L405,209L405,216L398,216ZM412,209L419,209L419,216L412,216ZM20,216L27,216L27,223L20,223ZM34,216L55,216L55,223L34,223ZM62,216L69,216L69,223L62,223ZM76,216L83,216L83,223L76,223ZM90,216L104,216L104,223L90,223ZM139,216L146,216L146,223L139,223ZM160,216L167,216L167,223L160,223ZM181,216L209,216L209,223L181,223ZM216,216L223,216L223,223L216,223ZM230,216L237,216L237,223L230,223ZM244,216L293,216L293,223L244,223ZM321,216L328,216L328,223L321,223ZM342,216L349,216L349,223L342,223ZM356,216L363,216L363,223L356,223ZM370,216L377,216L377,223L370,223ZM384,216L391,216L391,223L384,223ZM398,216L412,216L412,223L398,223ZM20,223L27,223L27,230L20,230ZM34,223L55,223L55,230L34,230ZM76,223L111,223L111,230L76,230ZM153,223L160,223L160,230L153,230ZM167,223L181,223L181,230L167,230ZM195,223L209,223L209,230L195,230ZM230,223L251,223L251,230L230,230ZM258,223L265,223L265,230L258,230ZM272,223L279,223L279,230L272,230ZM300,223L314,223L314,230L300,230ZM321,223L342,223L342,230L321,230ZM356,223L363,223L363,230L356,230ZM384,223L412,223L412,230L384,230ZM20,230L34,230L34,237L20,237ZM41,230L83,230L83,237L41,237ZM90,230L97,230L97,237L90,237ZM111,230L146,230L146,237L111,237ZM153,230L160,230L160,237L153,237ZM174,230L188,230L188,237L174,237ZM195,230L237,230L237,237L195,237ZM251,230L279,230L279,237L251,237ZM286,230L300,230L300,237L286,237ZM314,230L321,230L321,237L314,237ZM335,230L349,230L349,237L335,237ZM356,230L391,230L391,237L356,237ZM405,230L412,230L412,237L405,237ZM27,237L48,237L48,244L27,244ZM55,237L62,237L62,244L55,244ZM69,237L90,237L90,244L69,244ZM97,237L111,237L111,244L97,244ZM181,237L195,237L195,244L181,244ZM209,237L216,237L216,244L209,244ZM223,237L272,237L272,244L223,244ZM307,237L321,237L321,244L307,244ZM370,237L384,237L384,244L370,244ZM391,237L398,237L398,244L391,244ZM405,237L419,237L419,244L405,244ZM34,244L41,244L41,251L34,251ZM48,244L55,244L55,251L48,251ZM62,244L76,244L76,251L62,251ZM83,244L90,244L90,251L83,251ZM97,244L104,244L104,251L97,251ZM132,244L167,244L167,251L132,251ZM181,244L188,244L188,251L181,251ZM195,244L202,244L202,251L195,251ZM230,244L251,244L251,251L230,251ZM258,244L265,244L265,251L258,251ZM272,244L314,244L314,251L272,251ZM335,244L349,244L349,251L335,251ZM363,244L370,244L370,251L363,251ZM377,244L398,244L398,251L377,251ZM27,251L41,251L41,258L27,258ZM55,251L62,251L62,258L55,258ZM83,251L97,251L97,258L83,258ZM118,251L125,251L125,258L118,258ZM132,251L146,251L146,258L132,258ZM153,251L160,251L160,258L153,258ZM174,251L181,251L181,258L174,258ZM223,251L230,251L230,258L223,258ZM237,251L251,251L251,258L237,258ZM279,251L286,251L286,258L279,258ZM300,251L307,251L307,258L300,258ZM314,251L335,251L335,258L314,258ZM349,251L356,251L356,258L349,258ZM370,251L384,251L384,258L370,258ZM391,251L405,251L405,258L391,258ZM27,258L34,258L34,265L27,265ZM41,258L48,258L48,265L41,265ZM62,258L69,258L69,265L62,265ZM76,258L90,258L90,265L76,265ZM104,258L111,258L111,265L104,265ZM125,258L139,258L139,265L125,265ZM146,258L167,258L167,265L146,265ZM181,258L195,258L195,265L181,265ZM209,258L223,258L223,265L209,265ZM230,258L237,258L237,265L230,265ZM251,258L279,258L279,265L251,265ZM286,258L300,258L300,265L286,265ZM314,258L321,258L321,265L314,265ZM363,258L370,258L370,265L363,265ZM377,258L398,258L398,265L377,265ZM27,265L62,265L62,272L27,272ZM69,265L76,265L76,272L69,272ZM104,265L111,265L111,272L104,272ZM118,265L125,265L125,272L118,272ZM132,265L139,265L139,272L132,272ZM167,265L174,265L174,272L167,272ZM202,265L216,265L216,272L202,272ZM237,265L251,265L251,272L237,272ZM265,265L272,265L272,272L265,272ZM293,265L307,265L307,272L293,272ZM314,265L335,265L335,272L314,272ZM349,265L363,265L363,272L349,272ZM391,265L419,265L419,272L391,272ZM20,272L34,272L34,279L20,279ZM62,272L83,272L83,279L62,279ZM104,272L111,272L111,279L104,279ZM118,272L153,272L153,279L118,279ZM160,272L167,272L167,279L160,279ZM174,272L188,272L188,279L174,279ZM195,272L202,272L202,279L195,279ZM209,272L223,272L223,279L209,279ZM237,272L251,272L251,279L237,279ZM258,272L300,272L300,279L258,279ZM307,272L314,272L314,279L307,279ZM321,272L349,272L349,279L321,279ZM377,272L391,272L391,279L377,279ZM398,272L405,272L405,279L398,279ZM20,279L27,279L27,286L20,286ZM34,279L48,279L48,286L34,286ZM55,279L62,279L62,286L55,286ZM76,279L83,279L83,286L76,286ZM90,279L97,279L97,286L90,286ZM104,279L118,279L118,286L104,286ZM125,279L132,279L132,286L125,286ZM139,279L153,279L153,286L139,286ZM167,279L174,279L174,286L167,286ZM195,279L202,279L202,286L195,286ZM216,279L223,279L223,286L216,286ZM230,279L237,279L237,286L230,286ZM251,279L272,279L272,286L251,286ZM279,279L286,279L286,286L279,286ZM300,279L307,279L307,286L300,286ZM314,279L321,279L321,286L314,286ZM328,279L342,279L342,286L328,286ZM349,279L384,279L384,286L349,286ZM391,279L405,279L405,286L391,286ZM412,279L419,279L419,286L412,286ZM20,286L27,286L27,293L20,293ZM34,286L41,286L41,293L34,293ZM62,286L69,286L69,293L62,293ZM83,286L104,286L104,293L83,293ZM111,286L118,286L118,293L111,293ZM139,286L146,286L146,293L139,293ZM153,286L174,286L174,293L153,293ZM181,286L188,286L188,293L181,293ZM202,286L209,286L209,293L202,293ZM237,286L251,286L251,293L237,293ZM258,286L265,286L265,293L258,293ZM293,286L300,286L300,293L293,293ZM307,286L321,286L321,293L307,293ZM335,286L349,286L349,293L335,293ZM370,286L377,286L377,293L370,293ZM384,286L405,286L405,293L384,293ZM34,293L41,293L41,300L34,300ZM97,293L104,293L104,300L97,300ZM111,293L118,293L118,300L111,300ZM132,293L153,293L153,300L132,300ZM160,293L167,293L167,300L160,300ZM181,293L195,293L195,300L181,300ZM209,293L216,293L216,300L209,300ZM223,293L230,293L230,300L223,300ZM237,293L244,293L244,300L237,300ZM265,293L272,293L272,300L265,300ZM300,293L321,293L321,300L300,300ZM328,293L342,293L342,300L328,300ZM349,293L363,293L363,300L349,300ZM377,293L384,293L384,300L377,300ZM391,293L398,293L398,300L391,300ZM412,293L419,293L419,300L412,300ZM41,300L69,300L69,307L41,307ZM76,300L90,300L90,307L76,307ZM104,300L111,300L111,307L104,307ZM125,300L132,300L132,307L125,307ZM139,300L146,300L146,307L139,307ZM153,300L167,300L167,307L153,307ZM174,300L188,300L188,307L174,307ZM195,300L216,300L216,307L195,307ZM230,300L244,300L244,307L230,307ZM251,300L258,300L258,307L251,307ZM265,300L272,300L272,307L265,307ZM293,300L300,300L300,307L293,307ZM321,300L328,300L328,307L321,307ZM342,300L349,300L349,307L342,307ZM363,300L370,300L370,307L363,307ZM391,300L398,300L398,307L391,307ZM405,300L412,300L412,307L405,307ZM20,307L27,307L27,314L20,314ZM34,307L62,307L62,314L34,314ZM76,307L83,307L83,314L76,314ZM104,307L111,307L111,314L104,314ZM125,307L153,307L153,314L125,314ZM167,307L188,307L188,314L167,314ZM216,307L223,307L223,314L216,314ZM244,307L265,307L265,314L244,314ZM272,307L279,307L279,314L272,314ZM300,307L307,307L307,314L300,314ZM314,307L321,307L321,314L314,314ZM328,307L377,307L377,314L328,314ZM398,307L419,307L419,314L398,314ZM62,314L83,314L83,321L62,321ZM125,314L146,314L146,321L125,321ZM195,314L202,314L202,321L195,321ZM230,314L265,314L265,321L230,321ZM272,314L279,314L279,321L272,321ZM293,314L300,314L300,321L293,321ZM321,314L328,314L328,321L321,321ZM335,314L342,314L342,321L335,321ZM363,314L370,314L370,321L363,321ZM377,314L398,314L398,321L377,321ZM20,321L34,321L34,328L20,328ZM41,321L62,321L62,328L41,328ZM69,321L90,321L90,328L69,328ZM104,321L125,321L125,328L104,328ZM153,321L167,321L167,328L153,328ZM181,321L209,321L209,328L181,328ZM216,321L223,321L223,328L216,328ZM230,321L237,321L237,328L230,328ZM265,321L272,321L272,328L265,328ZM279,321L286,321L286,328L279,328ZM307,321L321,321L321,328L307,328ZM328,321L342,321L342,328L328,328ZM349,321L356,321L356,328L349,328ZM391,321L419,321L419,328L391,328ZM20,328L27,328L27,335L20,335ZM48,328L69,328L69,335L48,335ZM76,328L97,328L97,335L76,335ZM125,328L160,328L160,335L125,335ZM174,328L195,328L195,335L174,335ZM209,328L216,328L216,335L209,335ZM223,328L237,328L237,335L223,335ZM244,328L258,328L258,335L244,335ZM272,328L279,328L279,335L272,335ZM286,328L307,328L307,335L286,335ZM342,328L349,328L349,335L342,335ZM384,328L391,328L391,335L384,335ZM398,328L405,328L405,335L398,335ZM20,335L34,335L34,342L20,342ZM48,335L55,335L55,342L48,342ZM69,335L76,335L76,342L69,342ZM90,335L104,335L104,342L90,342ZM118,335L139,335L139,342L118,342ZM146,335L153,335L153,342L146,342ZM167,335L174,335L174,342L167,342ZM181,335L195,335L195,342L181,342ZM223,335L244,335L244,342L223,342ZM258,335L265,335L265,342L258,342ZM300,335L307,335L307,342L300,342ZM314,335L321,335L321,342L314,342ZM328,335L384,335L384,342L328,342ZM391,335L405,335L405,342L391,342ZM412,335L419,335L419,342L412,342ZM20,342L27,342L27,349L20,349ZM34,342L41,342L41,349L34,349ZM55,342L76,342L76,349L55,349ZM83,342L90,342L90,349L83,349ZM104,342L111,342L111,349L104,349ZM118,342L125,342L125,349L118,349ZM139,342L146,342L146,349L139,349ZM153,342L160,342L160,349L153,349ZM174,342L188,342L188,349L174,349ZM195,342L202,342L202,349L195,349ZM216,342L237,342L237,349L216,349ZM251,342L265,342L265,349L251,349ZM279,342L286,342L286,349L279,349ZM293,342L300,342L300,349L293,349ZM307,342L328,342L328,349L307,349ZM335,342L349,342L349,349L335,349ZM370,342L377,342L377,349L370,349ZM384,342L391,342L391,349L384,349ZM20,349L55,349L55,356L20,356ZM69,349L90,349L90,356L69,356ZM125,349L139,349L139,356L125,356ZM181,349L188,349L188,356L181,356ZM195,349L209,349L209,356L195,356ZM223,349L237,349L237,356L223,356ZM251,349L293,349L293,356L251,356ZM307,349L328,349L328,356L307,356ZM335,349L342,349L342,356L335,356ZM356,349L363,349L363,356L356,356ZM370,349L377,349L377,356L370,356ZM391,349L419,349L419,356L391,356ZM62,356L69,356L69,363L62,363ZM76,356L83,356L83,363L76,363ZM104,356L118,356L118,363L104,363ZM132,356L146,356L146,363L132,363ZM167,356L174,356L174,363L167,363ZM188,356L195,356L195,363L188,363ZM202,356L279,356L279,363L202,363ZM286,356L300,356L300,363L286,363ZM342,356L349,356L349,363L342,363ZM356,356L391,356L391,363L356,363ZM405,356L412,356L412,363L405,363ZM76,363L83,363L83,370L76,370ZM97,363L104,363L104,370L97,370ZM111,363L125,363L125,370L111,370ZM132,363L146,363L146,370L132,370ZM153,363L160,363L160,370L153,370ZM202,363L209,363L209,370L202,370ZM230,363L244,363L244,370L230,370ZM251,363L265,363L265,370L251,370ZM279,363L307,363L307,370L279,370ZM314,363L321,363L321,370L314,370ZM328,363L342,363L342,370L328,370ZM349,363L363,363L363,370L349,370ZM384,363L391,363L391,370L384,370ZM398,363L405,363L405,370L398,370ZM20,370L69,370L69,377L20,377ZM90,370L104,370L104,377L90,377ZM125,370L139,370L139,377L125,377ZM146,370L153,370L153,377L146,377ZM160,370L174,370L174,377L160,377ZM181,370L188,370L188,377L181,377ZM202,370L209,370L209,377L202,377ZM216,370L223,370L223,377L216,377ZM230,370L258,370L258,377L230,377ZM272,370L279,370L279,377L272,377ZM321,370L328,370L328,377L321,377ZM335,370L342,370L342,377L335,377ZM349,370L363,370L363,377L349,377ZM370,370L377,370L377,377L370,377ZM384,370L398,370L398,377L384,377ZM405,370L419,370L419,377L405,377ZM20,377L27,377L27,384L20,384ZM62,377L69,377L69,384L62,384ZM83,377L90,377L90,384L83,384ZM97,377L111,377L111,384L97,384ZM118,377L125,377L125,384L118,384ZM132,377L153,377L153,384L132,384ZM160,377L181,377L181,384L160,384ZM202,377L209,377L209,384L202,384ZM230,377L279,377L279,384L230,384ZM300,377L307,377L307,384L300,384ZM314,377L342,377L342,384L314,384ZM356,377L363,377L363,384L356,384ZM384,377L405,377L405,384L384,384ZM412,377L419,377L419,384L412,384ZM20,384L27,384L27,391L20,391ZM34,384L55,384L55,391L34,391ZM62,384L69,384L69,391L62,391ZM76,384L90,384L90,391L76,391ZM104,384L125,384L125,391L104,391ZM132,384L139,384L139,391L132,391ZM146,384L153,384L153,391L146,391ZM167,384L174,384L174,391L167,391ZM181,384L188,384L188,391L181,391ZM195,384L251,384L251,391L195,391ZM258,384L272,384L272,391L258,391ZM279,384L293,384L293,391L279,391ZM300,384L314,384L314,391L300,391ZM321,384L328,384L328,391L321,391ZM342,384L349,384L349,391L342,391ZM356,384L412,384L412,391L356,391ZM20,391L27,391L27,398L20,398ZM34,391L55,391L55,398L34,398ZM62,391L69,391L69,398L62,398ZM76,391L104,391L104,398L76,398ZM111,391L118,391L118,398L111,398ZM125,391L132,391L132,398L125,398ZM146,391L167,391L167,398L146,398ZM174,391L202,391L202,398L174,398ZM209,391L216,391L216,398L209,398ZM223,391L230,391L230,398L223,398ZM237,391L244,391L244,398L237,398ZM258,391L272,391L272,398L258,398ZM279,391L307,391L307,398L279,398ZM314,391L335,391L335,398L314,398ZM356,391L370,391L370,398L356,398ZM377,391L384,391L384,398L377,398ZM398,391L412,391L412,398L398,398ZM20,398L27,398L27,405L20,405ZM34,398L55,398L55,405L34,405ZM62,398L69,398L69,405L62,405ZM76,398L97,398L97,405L76,405ZM111,398L125,398L125,405L111,405ZM146,398L153,398L153,405L146,405ZM167,398L181,398L181,405L167,405ZM195,398L202,398L202,405L195,405ZM216,398L230,398L230,405L216,405ZM237,398L244,398L244,405L237,405ZM251,398L258,398L258,405L251,405ZM272,398L293,398L293,405L272,405ZM314,398L321,398L321,405L314,405ZM342,398L377,398L377,405L342,405ZM391,398L398,398L398,405L391,405ZM20,405L27,405L27,412L20,412ZM62,405L69,405L69,412L62,412ZM83,405L111,405L111,412L83,412ZM125,405L132,405L132,412L125,412ZM139,405L146,405L146,412L139,412ZM167,405L202,405L202,412L167,412ZM209,405L223,405L223,412L209,412ZM244,405L251,405L251,412L244,412ZM265,405L272,405L272,412L265,412ZM293,405L307,405L307,412L293,412ZM314,405L328,405L328,412L314,412ZM349,405L356,405L356,412L349,412ZM384,405L419,405L419,412L384,412ZM20,412L69,412L69,419L20,419ZM90,412L97,412L97,419L90,419ZM104,412L111,412L111,419L104,419ZM139,412L146,412L146,419L139,419ZM153,412L167,412L167,419L153,419ZM195,412L209,412L209,419L195,419ZM216,412L230,412L230,419L216,419ZM265,412L300,412L300,419L265,419ZM307,412L314,412L314,419L307,419ZM321,412L328,412L328,419L321,419ZM335,412L363,412L363,419L335,419ZM405,412L412,412L412,419L405,419Z"/></svg>
